<svg width="44" height="33" viewBox="0 0 44 33" fill="none" xmlns="http://www.w3.org/2000/svg">
<path opacity="0.19" d="M0.0156487 23.6044C0.0156487 23.6083 0.0151318 23.6123 0.0151318 23.6163C0.0151313 28.4483 4.65674 32.3652 10.3826 32.3652C16.1085 32.3652 20.75 28.4483 20.75 23.6163C20.75 18.7843 16.108 14.8674 10.3825 14.8674C9.20577 14.8674 8.07934 15.0405 7.02534 15.3455C9.35785 4.05359 19.7924 -3.22852 10.1197 2.76482C-0.606033 9.41075 0.00364573 23.3494 0.0156487 23.6044Z" fill="#A6A6A6"/>
<path opacity="0.19" d="M33.1872 14.8675C32.0105 14.8675 30.884 15.0406 29.8295 15.3456C32.1626 4.05366 42.5972 -3.22845 32.9244 2.76488C22.1987 9.41075 22.8082 23.3494 22.8203 23.6044C22.8203 23.6083 22.8198 23.6123 22.8198 23.6163C22.8198 28.4483 27.4613 32.3652 33.1872 32.3652C38.9132 32.3652 43.5547 28.4483 43.5547 23.6163C43.5547 18.7843 38.9126 14.8675 33.1872 14.8675Z" fill="#A6A6A6"/>
</svg>
