<svg width="44" height="33" viewBox="0 0 44 33" fill="none" xmlns="http://www.w3.org/2000/svg">
<path opacity="0.19" d="M43.539 9.1261C43.539 9.12212 43.5396 9.11814 43.5396 9.11416C43.5396 4.2822 38.8979 0.365234 33.1721 0.365234C27.4462 0.365234 22.8047 4.28213 22.8047 9.11416C22.8047 13.9462 27.4467 17.8631 33.1722 17.8631C34.3489 17.8631 35.4754 17.69 36.5293 17.385C34.1968 28.6769 23.7622 35.959 33.435 29.9657C44.1607 23.3197 43.551 9.3811 43.539 9.1261Z" fill="#A6A6A6"/>
<path opacity="0.19" d="M10.3675 17.863C11.5442 17.863 12.6707 17.6899 13.7252 17.3849C11.3921 28.6768 0.957469 35.9589 10.6303 29.9656C21.356 23.3197 20.7464 9.3811 20.7344 9.1261C20.7344 9.12212 20.7349 9.11814 20.7349 9.11416C20.7349 4.28221 16.0933 0.365234 10.3675 0.365234C4.64153 0.365234 0 4.28213 0 9.11416C0 13.9462 4.64204 17.863 10.3675 17.863Z" fill="#A6A6A6"/>
</svg>
