<svg width="42" height="42" viewBox="0 0 42 42" fill="none" xmlns="http://www.w3.org/2000/svg">
<circle cx="21" cy="21" r="21" fill="#F2F6FD"/>
<g clipPath="url(#clip0_12930_74287)">
<path d="M23.6882 16.0587C23.5603 15.982 23.4145 15.9402 23.2654 15.9375C23.1163 15.9349 22.9691 15.9714 22.8385 16.0435L23.6882 16.0587ZM23.6882 16.0587C23.8116 16.1304 23.914 16.2332 23.9852 16.3569M23.6882 16.0587L23.9852 16.3569M23.9852 16.3569C24.0564 16.4806 24.0938 16.6208 24.0938 16.7635L23.9852 16.3569ZM29.8188 23.531C29.8188 22.7339 29.1967 22.0796 28.4125 22.028V20.4372C28.4125 19.2967 27.4846 18.3685 26.3438 18.3685H24.7563V16.7635C24.7563 16.2367 24.4827 15.7602 24.0264 15.489L24.0263 15.4889C23.5613 15.2133 22.9988 15.2024 22.5321 15.4565L22.225 15.6095V14.8541C22.225 14.2347 21.8813 13.691 21.3268 13.4395L21.3267 13.4395C20.7928 13.1976 20.1842 13.2897 19.7408 13.6784C19.7408 13.6784 19.7407 13.6784 19.7407 13.6784L14.3879 18.3685H14.25C13.1091 18.3685 12.1812 19.2967 12.1812 20.4372V27.7497C12.1812 28.8903 13.1091 29.8185 14.25 29.8185H26.3438C27.4846 29.8185 28.4125 28.8903 28.4125 27.7497V26.1589C29.1967 26.1073 29.8188 25.453 29.8188 24.656V23.531ZM22.8832 16.133L22.8832 16.1331L22.8869 16.1311C23.0021 16.0674 23.132 16.0352 23.2636 16.0375C23.3952 16.0399 23.5239 16.0768 23.6367 16.1445L23.6367 16.1445L23.638 16.1452C23.7463 16.2081 23.8361 16.2983 23.8985 16.4068C23.961 16.5153 23.9938 16.6383 23.9937 16.7635V16.7635V18.3685H18.4001L22.8832 16.133ZM21.4625 14.8523L21.4625 14.8523V14.8541V15.9895L16.6916 18.3685H15.545L20.2432 14.2518C20.2432 14.2518 20.2432 14.2518 20.2432 14.2518C20.464 14.0584 20.7495 14.0151 21.0116 14.134C21.1484 14.1969 21.2639 14.2983 21.344 14.4258C21.4242 14.5534 21.4653 14.7016 21.4625 14.8523ZM27.65 27.7497C27.65 28.4699 27.0639 29.056 26.3438 29.056H14.25C13.5298 29.056 12.9438 28.4699 12.9438 27.7497V20.4372C12.9438 19.717 13.5298 19.131 14.25 19.131H26.3438C27.0639 19.131 27.65 19.717 27.65 20.4372V22.0247H24.9375C24.5674 22.0247 24.2821 22.1226 24.065 22.2835C23.8487 22.4438 23.7072 22.6611 23.6144 22.8888C23.4312 23.3383 23.4312 23.8464 23.4312 24.0897V24.0935V24.0973C23.4312 24.3406 23.4312 24.8486 23.6144 25.2982C23.7072 25.5259 23.8487 25.7432 24.065 25.9034C24.2821 26.0643 24.5674 26.1622 24.9375 26.1622H27.65V27.7497ZM29.0562 24.656C29.0562 25.0659 28.7225 25.3997 28.3125 25.3997H24.9375C24.7005 25.3997 24.5281 25.3447 24.4069 25.1759C24.2785 24.997 24.1938 24.6726 24.1938 24.0935C24.1938 23.5143 24.2785 23.19 24.4069 23.0111C24.5281 22.8423 24.7005 22.7872 24.9375 22.7872H28.3125C28.7225 22.7872 29.0562 23.121 29.0562 23.531V24.656Z" fill="#585858" stroke="#585858" stroke-width="0.2"/>
<path d="M29.6777 14.7956C29.6034 14.9754 29.4296 15.0915 29.235 15.0915H28.8649C28.8227 15.6945 28.6426 16.2797 28.3387 16.8022C28.0347 17.3247 27.6149 17.7704 27.1116 18.1051L29.6777 14.7956ZM29.6777 14.7956C29.7125 14.712 29.7229 14.6202 29.7076 14.5309M29.6777 14.7956L29.7076 14.5309M29.7076 14.5309C29.6922 14.4416 29.6518 14.3585 29.5911 14.2914L29.7076 14.5309ZM25.8379 16.7564L25.838 16.7563C26.1223 16.5852 26.3539 16.3388 26.5071 16.0443C26.6603 15.7499 26.7292 15.4189 26.7061 15.0878L26.7029 15.0412H26.6562L26.2658 15.0412L26.2657 15.0412C26.1798 15.0414 26.0958 15.0161 26.0243 14.9683C25.9529 14.9206 25.8973 14.8527 25.8646 14.7732L25.8645 14.773C25.833 14.6973 25.8236 14.6142 25.8375 14.5333C25.8515 14.4525 25.8881 14.3773 25.9432 14.3165L25.9434 14.3166L25.9463 14.3127L27.2226 12.5943L27.2227 12.5941C27.2828 12.5122 27.3613 12.4458 27.4519 12.4001C27.5425 12.3545 27.643 12.3308 27.7445 12.3313L27.7449 12.3313C27.8464 12.3308 27.9465 12.3543 28.0372 12.3999C28.1278 12.4455 28.2064 12.5118 28.2666 12.5936L28.2667 12.5937L29.5509 14.3212L29.5508 14.3213L29.554 14.3249C29.6084 14.3851 29.6445 14.4594 29.6583 14.5394C29.672 14.6193 29.6627 14.7015 29.6315 14.7764L29.6315 14.7765C29.565 14.9375 29.4094 15.0415 29.235 15.0415H28.8649H28.8183L28.815 15.088C28.7733 15.6834 28.5956 16.2612 28.2954 16.777C27.9953 17.2929 27.5808 17.733 27.0839 18.0635C27.0839 18.0635 27.0839 18.0635 27.0839 18.0635L27.0344 18.0964L27.0343 18.0964C26.9945 18.123 26.9474 18.1365 26.8996 18.1352C26.8518 18.1339 26.8055 18.1177 26.7672 18.089L26.7672 18.089L25.6422 17.2453L25.6422 17.2453C25.6119 17.2225 25.5876 17.1926 25.5715 17.1583C25.5554 17.1239 25.548 17.0861 25.55 17.0482C25.552 17.0104 25.5632 16.9735 25.5828 16.941C25.6023 16.9085 25.6296 16.8813 25.6621 16.8618L25.6621 16.8618L25.8379 16.7564ZM27.1373 14.8116L27.1368 14.8117L27.6341 12.8994L27.594 12.8696L27.594 12.8697C27.5939 12.8697 27.5939 12.8697 27.5939 12.8697L26.384 14.4989L26.3248 14.5787H26.4242H26.8953C26.9209 14.579 26.9463 14.5827 26.971 14.5896C26.9832 14.5934 26.995 14.5982 27.0065 14.604L27.0109 14.6064C27.0566 14.6312 27.0942 14.6712 27.115 14.7227L27.1148 14.7227L27.1161 14.7253L27.1207 14.7364C27.1207 14.7364 27.1207 14.7364 27.1207 14.7364C27.1305 14.7603 27.1361 14.7858 27.1373 14.8116ZM24.7063 24.0912C24.7063 23.4984 25.1884 23.0162 25.7812 23.0162C26.3741 23.0162 26.8563 23.4984 26.8563 24.0912C26.8563 24.684 26.3741 25.1662 25.7812 25.1662C25.1884 25.1662 24.7063 24.684 24.7063 24.0912ZM25.1687 24.0912C25.1687 24.4291 25.4434 24.7037 25.7812 24.7037C26.1191 24.7037 26.3937 24.4291 26.3937 24.0912C26.3937 23.7534 26.1191 23.4787 25.7812 23.4787C25.4434 23.4787 25.1687 23.7534 25.1687 24.0912Z" fill="#1D4ED8" stroke="#1D4ED8" stroke-width="0.1"/>
</g>
<defs>
<clipPath id="clip0_12930_74287">
<rect width="18" height="18" fill="white" transform="translate(12 12)"/>
</clipPath>
</defs>
</svg>
