<svg width="42" height="42" viewBox="0 0 42 42" fill="none" xmlns="http://www.w3.org/2000/svg">
<circle cx="21" cy="21" r="21" fill="#F2F6FD"/>
<path d="M26.25 31.5C25.2116 31.5 24.1966 31.1921 23.3333 30.6152C22.4699 30.0383 21.797 29.2184 21.3996 28.2591C21.0023 27.2998 20.8983 26.2442 21.1009 25.2258C21.3035 24.2074 21.8035 23.2719 22.5377 22.5377C23.2719 21.8035 24.2074 21.3035 25.2258 21.1009C26.2442 20.8983 27.2998 21.0023 28.2591 21.3996C29.2184 21.797 30.0383 22.4699 30.6152 23.3333C31.1921 24.1966 31.5 25.2116 31.5 26.25C31.4984 27.6419 30.9448 28.9763 29.9606 29.9606C28.9763 30.9448 27.6419 31.4984 26.25 31.5ZM26.25 22.5C25.5083 22.5 24.7833 22.7199 24.1666 23.132C23.5499 23.544 23.0693 24.1297 22.7855 24.8149C22.5016 25.5002 22.4274 26.2542 22.5721 26.9816C22.7168 27.709 23.0739 28.3772 23.5984 28.9017C24.1228 29.4261 24.791 29.7833 25.5184 29.9279C26.2458 30.0726 26.9998 29.9984 27.6851 29.7146C28.3703 29.4307 28.956 28.9501 29.368 28.3334C29.7801 27.7167 30 26.9917 30 26.25C29.9988 25.2558 29.6033 24.3027 28.9003 23.5997C28.1973 22.8967 27.2442 22.5012 26.25 22.5ZM18.75 19.5C18.305 19.5 17.87 19.368 17.5 19.1208C17.13 18.8736 16.8416 18.5222 16.6713 18.111C16.501 17.6999 16.4564 17.2475 16.5432 16.811C16.6301 16.3746 16.8443 15.9737 17.159 15.659C17.4737 15.3443 17.8746 15.1301 18.311 15.0432C18.7475 14.9564 19.1999 15.001 19.611 15.1713C20.0222 15.3416 20.3736 15.63 20.6208 16C20.868 16.37 21 16.805 21 17.25C21 17.4489 20.921 17.6397 20.7803 17.7803C20.6397 17.921 20.4489 18 20.25 18C20.0511 18 19.8603 17.921 19.7197 17.7803C19.579 17.6397 19.5 17.4489 19.5 17.25C19.5 17.1017 19.456 16.9567 19.3736 16.8333C19.2912 16.71 19.1741 16.6139 19.037 16.5571C18.9 16.5003 18.7492 16.4855 18.6037 16.5144C18.4582 16.5434 18.3246 16.6148 18.2197 16.7197C18.1148 16.8246 18.0434 16.9582 18.0144 17.1037C17.9855 17.2492 18.0003 17.4 18.0571 17.537C18.1139 17.6741 18.21 17.7912 18.3333 17.8736C18.4567 17.956 18.6017 18 18.75 18C18.9489 18 19.1397 18.079 19.2803 18.2197C19.421 18.3603 19.5 18.5511 19.5 18.75C19.5 18.9489 19.421 19.1397 19.2803 19.2803C19.1397 19.421 18.9489 19.5 18.75 19.5Z" fill="#585858"/>
<path d="M18.75 22.4998C18.1533 22.4998 17.581 22.2627 17.159 21.8407C16.7371 21.4188 16.5 20.8465 16.5 20.2498C16.5 20.0508 16.579 19.8601 16.7197 19.7194C16.8603 19.5788 17.0511 19.4998 17.25 19.4998C17.4489 19.4998 17.6397 19.5788 17.7803 19.7194C17.921 19.8601 18 20.0508 18 20.2498C18 20.3981 18.044 20.5431 18.1264 20.6664C18.2088 20.7898 18.3259 20.8859 18.463 20.9427C18.6 20.9994 18.7508 21.0143 18.8963 20.9853C19.0418 20.9564 19.1754 20.885 19.2803 20.7801C19.3852 20.6752 19.4567 20.5416 19.4856 20.3961C19.5145 20.2506 19.4997 20.0998 19.4429 19.9627C19.3861 19.8257 19.29 19.7086 19.1667 19.6261C19.0433 19.5437 18.8983 19.4998 18.75 19.4998C18.5511 19.4998 18.3603 19.4207 18.2197 19.2801C18.079 19.1394 18 18.9487 18 18.7498C18 18.5508 18.079 18.3601 18.2197 18.2194C18.3603 18.0788 18.5511 17.9998 18.75 17.9998C19.3467 17.9998 19.919 18.2368 20.341 18.6588C20.7629 19.0807 21 19.653 21 20.2498C21 20.8465 20.7629 21.4188 20.341 21.8407C19.919 22.2627 19.3467 22.4998 18.75 22.4998ZM18.75 16.4998C18.5511 16.4998 18.3603 16.4207 18.2197 16.2801C18.079 16.1394 18 15.9487 18 15.7498V14.75C18 14.5511 18.079 14.3603 18.2197 14.2197C18.3603 14.079 18.5511 14 18.75 14C18.9489 14 19.1397 14.079 19.2803 14.2197C19.421 14.3603 19.5 14.5511 19.5 14.75V15.7498C19.5 15.9487 19.421 16.1394 19.2803 16.2801C19.1397 16.4207 18.9489 16.4998 18.75 16.4998Z" fill="#585858"/>
<path d="M18.75 23.4998C18.5511 23.4998 18.3603 23.4207 18.2197 23.2801C18.079 23.1394 18 22.9487 18 22.7498V21.75C18 21.5511 18.079 21.3603 18.2197 21.2197C18.3603 21.079 18.5511 21 18.75 21C18.9489 21 19.1397 21.079 19.2803 21.2197C19.421 21.3603 19.5 21.5511 19.5 21.75V22.7498C19.5 22.9487 19.421 23.1394 19.2803 23.2801C19.1397 23.4207 18.9489 23.4998 18.75 23.4998ZM18.75 19.5C18.305 19.5 17.87 19.368 17.5 19.1208C17.13 18.8736 16.8416 18.5222 16.6713 18.111C16.501 17.6999 16.4564 17.2475 16.5432 16.811C16.6301 16.3746 16.8443 15.9737 17.159 15.659C17.4737 15.3443 17.8746 15.1301 18.311 15.0432C18.7475 14.9564 19.1999 15.001 19.611 15.1713C20.0222 15.3416 20.3736 15.63 20.6208 16C20.868 16.37 21 16.805 21 17.25C21 17.4489 20.921 17.6397 20.7803 17.7803C20.6397 17.921 20.4489 18 20.25 18C20.0511 18 19.8603 17.921 19.7197 17.7803C19.579 17.6397 19.5 17.4489 19.5 17.25C19.5 17.1017 19.456 16.9567 19.3736 16.8333C19.2912 16.71 19.1741 16.6139 19.037 16.5571C18.9 16.5003 18.7492 16.4855 18.6037 16.5144C18.4582 16.5434 18.3246 16.6148 18.2197 16.7197C18.1148 16.8246 18.0434 16.9582 18.0144 17.1037C17.9855 17.2492 18.0003 17.4 18.0571 17.537C18.1139 17.6741 18.21 17.7912 18.3333 17.8736C18.4567 17.956 18.6017 18 18.75 18C18.9489 18 19.1397 18.079 19.2803 18.2197C19.421 18.3603 19.5 18.5511 19.5 18.75C19.5 18.9489 19.421 19.1397 19.2803 19.2803C19.1397 19.421 18.9489 19.5 18.75 19.5Z" fill="#1D4ED8"/>
<path d="M18.75 22.4998C18.1533 22.4998 17.581 22.2627 17.159 21.8407C16.7371 21.4188 16.5 20.8465 16.5 20.2498C16.5 20.0508 16.579 19.8601 16.7197 19.7194C16.8603 19.5788 17.0511 19.4998 17.25 19.4998C17.4489 19.4998 17.6397 19.5788 17.7803 19.7194C17.921 19.8601 18 20.0508 18 20.2498C18 20.3981 18.044 20.5431 18.1264 20.6664C18.2088 20.7898 18.3259 20.8859 18.463 20.9427C18.6 20.9994 18.7508 21.0143 18.8963 20.9853C19.0418 20.9564 19.1754 20.885 19.2803 20.7801C19.3852 20.6752 19.4567 20.5416 19.4856 20.3961C19.5145 20.2506 19.4997 20.0998 19.4429 19.9627C19.3861 19.8257 19.29 19.7086 19.1667 19.6261C19.0433 19.5437 18.8983 19.4998 18.75 19.4998C18.5511 19.4998 18.3603 19.4207 18.2197 19.2801C18.079 19.1394 18 18.9487 18 18.7498C18 18.5508 18.079 18.3601 18.2197 18.2194C18.3603 18.0788 18.5511 17.9998 18.75 17.9998C19.3467 17.9998 19.919 18.2368 20.341 18.6588C20.7629 19.0807 21 19.653 21 20.2498C21 20.8465 20.7629 21.4188 20.341 21.8407C19.919 22.2627 19.3467 22.4998 18.75 22.4998ZM18.75 16.4998C18.5511 16.4998 18.3603 16.4207 18.2197 16.2801C18.079 16.1394 18 15.9487 18 15.7498V14.75C18 14.5511 18.079 14.3603 18.2197 14.2197C18.3603 14.079 18.5511 14 18.75 14C18.9489 14 19.1397 14.079 19.2803 14.2197C19.421 14.3603 19.5 14.5511 19.5 14.75V15.7498C19.5 15.9487 19.421 16.1394 19.2803 16.2801C19.1397 16.4207 18.9489 16.4998 18.75 16.4998Z" fill="#1D4ED8"/>
<path d="M18.75 23.4998C18.5511 23.4998 18.3603 23.4207 18.2197 23.2801C18.079 23.1394 18 22.9487 18 22.7498V21.75C18 21.5511 18.079 21.3603 18.2197 21.2197C18.3603 21.079 18.5511 21 18.75 21C18.9489 21 19.1397 21.079 19.2803 21.2197C19.421 21.3603 19.5 21.5511 19.5 21.75V22.7498C19.5 22.9487 19.421 23.1394 19.2803 23.2801C19.1397 23.4207 18.9489 23.4998 18.75 23.4998Z" fill="#1D4ED8"/>
<path d="M18.75 27C17.1183 27 15.5233 26.5161 14.1665 25.6096C12.8098 24.7031 11.7524 23.4146 11.128 21.9071C10.5036 20.3997 10.3402 18.7409 10.6585 17.1405C10.9769 15.5402 11.7626 14.0702 12.9164 12.9164C14.0702 11.7626 15.5402 10.9769 17.1405 10.6585C18.7409 10.3402 20.3997 10.5036 21.9071 11.128C23.4146 11.7524 24.7031 12.8098 25.6096 14.1665C26.5161 15.5233 27 17.1183 27 18.75C27.0035 19.9091 26.7582 21.0554 26.2808 22.1115C26.2414 22.203 26.1841 22.2858 26.1124 22.355C26.0406 22.4241 25.9558 22.4783 25.8629 22.5143C25.77 22.5503 25.6709 22.5675 25.5713 22.5647C25.4717 22.562 25.3736 22.5394 25.2828 22.4984C25.192 22.4573 25.1103 22.3986 25.0425 22.3256C24.9746 22.2526 24.922 22.1668 24.8877 22.0733C24.8534 21.9797 24.8381 21.8802 24.8426 21.7807C24.8472 21.6812 24.8715 21.5835 24.9143 21.4935C25.3033 20.6314 25.5031 19.6959 25.5 18.75C25.5 17.415 25.1041 16.1099 24.3624 14.9999C23.6207 13.8899 22.5665 13.0247 21.3331 12.5138C20.0997 12.0029 18.7425 11.8693 17.4331 12.1297C16.1238 12.3902 14.921 13.033 13.977 13.977C13.033 14.921 12.3902 16.1238 12.1297 17.4331C11.8693 18.7425 12.0029 20.0997 12.5138 21.3331C13.0247 22.5665 13.8899 23.6207 14.9999 24.3624C16.1099 25.1041 17.415 25.5 18.75 25.5C19.6962 25.5028 20.6319 25.3028 21.4943 24.9135C21.6757 24.8318 21.8821 24.8254 22.0682 24.8959C22.2543 24.9663 22.4048 25.1078 22.4865 25.2893C22.5683 25.4707 22.5746 25.6771 22.5041 25.8632C22.4337 26.0493 22.2922 26.1998 22.1108 26.2815C21.0546 26.758 19.9087 27.003 18.75 27ZM25.7498 28.0935C25.551 28.0937 25.3602 28.0149 25.2195 27.8745L24.2198 26.874C24.0831 26.7326 24.0075 26.5431 24.0092 26.3465C24.011 26.1498 24.0898 25.9617 24.2289 25.8226C24.3679 25.6836 24.5561 25.6047 24.7527 25.603C24.9494 25.6013 25.1388 25.6769 25.2803 25.8135L25.7498 26.283L27.2198 24.813C27.2895 24.7434 27.3723 24.6882 27.4633 24.6505C27.5544 24.6129 27.652 24.5935 27.7505 24.5936C27.8491 24.5937 27.9466 24.6131 28.0377 24.6509C28.1287 24.6887 28.2114 24.744 28.281 24.8138C28.3506 24.8835 28.4059 24.9663 28.4435 25.0573C28.4811 25.1484 28.5005 25.246 28.5004 25.3445C28.5004 25.4431 28.4809 25.5406 28.4431 25.6317C28.4053 25.7227 28.35 25.8054 28.2803 25.875L26.28 27.8745C26.1393 28.0149 25.9485 28.0937 25.7498 28.0935Z" fill="#585858"/>
</svg>
