<svg width="42" height="42" viewBox="0 0 42 42" fill="none" xmlns="http://www.w3.org/2000/svg">
<circle cx="21" cy="21" r="21" fill="#F2F6FD"/>
<g clipPath="url(#clip0_6801_118217)">
<path d="M26.9764 17.2647H18.9784L17.2344 15.8965H11V28.4923C11 29.5076 11.8253 30.3551 12.8401 30.3816L26.6885 30.3894H26.6896C27.5284 30.3894 28.2675 29.8242 28.4873 29.0146L30.984 19.816H26.9764V17.2647ZM12.9829 29.2076L12.8631 29.2075V29.2077C12.4889 29.1938 12.1742 28.8679 12.1742 28.4923V17.0706H16.8288L18.5728 18.4388H25.8022V19.816H16.2408L13.8896 28.4709C13.7756 28.8906 13.4094 29.1841 12.9829 29.2076ZM29.4486 20.9902L27.354 28.7071C27.2728 29.0064 26.9996 29.2153 26.6895 29.2153H26.6891L14.8559 29.2086C14.9265 29.0716 14.9824 28.9275 15.0227 28.7788L17.1386 20.9902H29.4486ZM25.4288 12.7836C26.7396 12.7836 27.8473 13.6671 28.1896 14.8696L27.4936 14.3289L26.7733 15.2562L28.8867 16.8977L31 15.2562L30.2797 14.3289L29.42 14.9967C29.1049 13.078 27.4353 11.6094 25.4288 11.6094C23.1984 11.6094 21.3838 13.4239 21.3838 15.6543H22.558C22.558 14.0714 23.8458 12.7836 25.4288 12.7836Z" fill="#2C2E3E"/>
<path d="M18.3379 28.0316L18.3391 26.8574L25.4278 26.8645L25.4266 28.0386L18.3379 28.0316Z" fill="#1D4ED8"/>
</g>
<defs>
<clipPath id="clip0_6801_118217">
<rect width="20" height="20" fill="white" transform="translate(11 11)"/>
</clipPath>
</defs>
</svg>
