<svg width="42" height="42" viewBox="0 0 42 42" fill="none" xmlns="http://www.w3.org/2000/svg">
<circle cx="21" cy="21" r="21" fill="#F2F6FD"/>
<g clipPath="url(#clip0_6801_118219)">
<path d="M32.2496 22.2006C31.3868 21.4718 30.1097 21.5556 29.3467 22.3748L27.2801 24.5932C27.0305 23.7906 26.3133 23.1924 25.4487 23.1176C25.8191 22.8585 26.1666 22.5682 26.4876 22.2499C27.9665 20.7844 28.781 18.8422 28.781 16.7811C28.781 12.5188 25.2772 9 20.9999 9C16.7338 9 13.2656 12.5091 13.2656 16.7811C13.2656 18.7107 13.9792 20.5408 15.2534 21.9527C14.9064 22.1288 14.5817 22.3456 14.286 22.5985C13.9038 22.0573 13.2739 21.7029 12.5625 21.7029H9.70313C9.31481 21.7029 9 22.0177 9 22.406V32.2965C9 32.6848 9.31481 32.9996 9.70313 32.9996H12.5625C13.483 32.9996 14.2672 32.4067 14.5544 31.5828C14.5932 31.5896 14.6324 31.5931 14.6718 31.5934H25.2653C26.8062 31.5934 28.2782 30.8574 29.2049 29.6219L32.5784 25.0771C33.2484 24.1839 33.1059 22.9239 32.2496 22.2006ZM13.2656 30.8903C13.2656 31.278 12.9502 31.5934 12.5625 31.5934H10.4063V23.1092H12.5625C12.9502 23.1092 13.2656 23.4246 13.2656 23.8123V30.8903ZM14.6718 16.7812C14.6718 13.266 17.5105 10.4063 20.9998 10.4063C24.515 10.4063 27.3747 13.266 27.3747 16.7812C27.3747 20.1375 24.7285 22.8915 21.3984 23.0965C21.2751 23.073 21.1603 23.0169 21.066 22.9339L20.7358 22.6433C19.6159 21.6578 18.1523 21.2687 16.7602 21.474C15.4293 20.2718 14.6718 18.5789 14.6718 16.7812ZM31.4513 24.2361L28.0778 28.781C27.4174 29.6616 26.3661 30.1873 25.2654 30.1873H14.6718V24.1302L15.1618 23.699C16.4858 22.5338 18.4828 22.5338 19.8067 23.699C20.0458 23.9093 20.694 24.5154 20.9998 24.5154H25.2654C25.6531 24.5154 25.9685 24.8308 25.9685 25.2185C25.9685 25.6062 25.6531 25.9216 25.2654 25.9216H20.2215C19.8331 25.9216 19.5183 26.2365 19.5183 26.6248C19.5183 27.0131 19.8331 27.3279 20.2215 27.3279H25.7367C26.3199 27.3279 26.8825 27.0831 27.2801 26.6563L30.3756 23.3333C30.6272 23.0631 31.0316 23.0391 31.3121 23.2501C31.3862 23.3056 31.4485 23.3751 31.4956 23.4548C31.5427 23.5344 31.5736 23.6226 31.5866 23.7142C31.5995 23.8058 31.5942 23.8991 31.571 23.9886C31.5478 24.0782 31.5071 24.1623 31.4513 24.2361Z" fill="#585858"/>
<path d="M21 16.078C20.6123 16.078 20.2968 15.7626 20.2968 15.3749C20.2968 15.0803 20.4827 14.8146 20.7593 14.7138C21.1204 14.5823 21.5409 14.7607 21.9127 15.2034C22.1625 15.5008 22.606 15.5394 22.9033 15.2896C23.2006 15.0399 23.2393 14.5964 22.9895 14.299C22.6094 13.8464 22.167 13.5353 21.703 13.3791V12.5625C21.703 12.1742 21.3882 11.8594 20.9999 11.8594C20.6116 11.8594 20.2968 12.1742 20.2968 12.5625V13.3862C20.2905 13.3884 20.2842 13.3903 20.278 13.3926C19.4482 13.6949 18.8906 14.4915 18.8906 15.375C18.8906 16.5381 19.8369 17.4843 21 17.4843C21.3877 17.4843 21.7031 17.7997 21.7031 18.1874C21.7032 18.3257 21.6626 18.4609 21.5862 18.5762C21.5098 18.6915 21.4011 18.7817 21.2738 18.8355C20.9588 18.9687 20.5821 18.855 20.2397 18.5233C19.9608 18.2531 19.5157 18.2602 19.2455 18.539C18.9753 18.8179 18.9824 19.263 19.2612 19.5332C19.5787 19.8408 19.9316 20.0581 20.2968 20.1807V20.9999C20.2968 21.3882 20.6116 21.703 21 21.703C21.3883 21.703 21.7031 21.3882 21.7031 20.9999V20.1762C21.7432 20.1621 21.7829 20.1468 21.8221 20.1303C22.2041 19.9691 22.53 19.6987 22.7589 19.3531C22.9879 19.0075 23.1098 18.602 23.1093 18.1874C23.1093 17.0243 22.1631 16.078 21 16.078Z" fill="#1D4ED8"/>
</g>
<defs>
<clipPath id="clip0_6801_118219">
<rect width="24" height="24" fill="white" transform="translate(9 9)"/>
</clipPath>
</defs>
</svg>
