<svg width="125" height="124" viewBox="0 0 125 124" fill="none" xmlns="http://www.w3.org/2000/svg">
<circle cx="62.7031" cy="62" r="62" fill="#FBFDFF"/>
<path fill-rule="evenodd" clip-rule="evenodd" d="M36.0156 54.3699V77.2216C36.0156 78.1883 36.8069 78.9794 37.7734 78.9794H59.463C59.2221 77.9023 59.1009 76.8019 59.1016 75.6982C59.1016 69.7313 62.5993 64.5814 67.6562 62.1867V54.3699H36.0156ZM48.7285 63.5671L51.2144 66.0531L54.9433 62.3242L57.4292 64.8101L51.2144 71.0249L46.2425 66.053L48.7285 63.5671Z" fill="#FFC464"/>
<path fill-rule="evenodd" clip-rule="evenodd" d="M56.7761 78.9792H59.4668C59.226 77.9022 59.1048 76.8018 59.1055 75.6982C59.1055 69.7313 62.6032 64.5813 67.6602 62.1867V59.3175C61.1114 61.8735 56.4688 68.2432 56.4688 75.6982C56.4688 76.8096 56.5733 77.9073 56.7761 78.9792Z" fill="#FF8D4C"/>
<path fill-rule="evenodd" clip-rule="evenodd" d="M46.2422 66.053L51.214 71.0249L57.4289 64.8101L54.9429 62.3242L51.214 66.0531L48.7281 63.5671L46.2422 66.053Z" fill="#B5EFBC"/>
<path fill-rule="evenodd" clip-rule="evenodd" d="M37.7734 54.3699H41.2891V46.46C41.2891 40.6661 46.0421 35.9131 51.8359 35.9131C57.6298 35.9131 62.3828 40.6661 62.3828 46.46V49.9754H65.8984V46.46C65.8984 38.7257 59.5703 32.3975 51.8359 32.3975C44.1016 32.3975 37.7734 38.7256 37.7734 46.46V54.3699Z" fill="#6E91EF"/>
<path fill-rule="evenodd" clip-rule="evenodd" d="M59.1016 75.6982C59.1016 80.0912 61.0158 84.237 64.375 87.0906V85.3662C64.375 83.4332 66.0154 82.3193 67.8906 81.8506L71.4062 80.9717V78.5025C69.833 77.5873 68.7695 75.882 68.7695 73.9403V71.3036C68.7695 68.4032 71.1426 66.0302 74.043 66.0302C76.9434 66.0302 79.3164 68.4032 79.3164 71.3036V73.9403C79.3164 75.882 78.2529 77.5873 76.6797 78.5023V80.9717L80.1953 81.8505C82.0705 82.3192 83.7109 83.4325 83.7109 85.3661V87.0905C86.9372 84.3498 88.9844 80.263 88.9844 75.6981C88.9844 67.4462 82.2948 60.7567 74.043 60.7567C65.8377 60.7567 59.1016 67.3996 59.1016 75.6982Z" fill="white"/>
<path fill-rule="evenodd" clip-rule="evenodd" d="M74.0391 66.0302C71.1387 66.0302 68.7656 68.4032 68.7656 71.3036V73.9403C68.7656 72.4901 69.9521 71.3036 71.4023 71.3036H76.6758C78.126 71.3036 79.3125 72.4901 79.3125 73.9403V71.3036C79.3125 68.4032 76.9395 66.0302 74.0391 66.0302Z" fill="#6E91EF"/>
<path fill-rule="evenodd" clip-rule="evenodd" d="M76.6758 71.3036H71.4023C69.9521 71.3036 68.7656 72.4901 68.7656 73.9403C68.7656 75.882 69.8291 77.5873 71.4023 78.5025C72.2027 78.969 73.1127 79.2144 74.0391 79.2137C74.9654 79.2144 75.8754 78.969 76.6758 78.5025C78.249 77.5873 79.3125 75.8819 79.3125 73.9403C79.3125 72.4901 78.1259 71.3036 76.6758 71.3036Z" fill="#FBF2E2"/>
<path fill-rule="evenodd" clip-rule="evenodd" d="M74.043 79.2138C73.1166 79.2144 72.2066 78.969 71.4062 78.5026V80.9717C71.4062 82.428 72.5867 83.6084 74.043 83.6084C75.4991 83.6084 76.6797 82.428 76.6797 80.9717V78.5026C75.8793 78.969 74.9694 79.2144 74.043 79.2138Z" fill="#F7E0BA"/>
<path fill-rule="evenodd" clip-rule="evenodd" d="M74.043 83.6084C72.5867 83.6084 71.4062 82.428 71.4062 80.9717L67.8906 81.8505C66.0155 82.3192 64.375 83.4331 64.375 85.3661V87.0905C66.9809 89.3041 70.3559 90.6396 74.043 90.6396C77.73 90.6396 81.105 89.3042 83.7109 87.0905V85.3661C83.7109 83.4325 82.0705 82.3192 80.1953 81.8505L76.6797 80.9717C76.6797 82.4279 75.4991 83.6084 74.043 83.6084Z" fill="#B5EFBC"/>
<path fill-rule="evenodd" clip-rule="evenodd" d="M37.7734 51.7332H41.2891V54.3699H37.7734V51.7332Z" fill="#3D6DEA"/>
<path fill-rule="evenodd" clip-rule="evenodd" d="M59.1016 75.6983C59.1016 80.0913 61.0158 84.237 64.375 87.0906V85.3662C64.375 85.016 64.4291 84.6928 64.5285 84.3953C62.7737 81.9493 61.7383 78.949 61.7383 75.6984C61.7383 67.8486 67.7658 61.4814 75.3625 60.8157C66.6346 60.0514 59.1016 66.9069 59.1016 75.6983Z" fill="#B6E6FA"/>
<path fill-rule="evenodd" clip-rule="evenodd" d="M64.5285 84.395C64.4291 84.6926 64.375 85.0158 64.375 85.3659V87.0903C67.4356 89.6903 71.3746 90.9323 75.3678 90.5812C70.913 90.1929 67.0045 87.8464 64.5285 84.395Z" fill="#6EE0BC"/>
<path fill-rule="evenodd" clip-rule="evenodd" d="M74.0391 66.0302C71.1387 66.0302 68.7656 68.4032 68.7656 71.3036V73.9403C68.7656 72.4901 69.9521 71.3036 71.4023 71.3036C71.4023 68.858 73.0896 66.7873 75.3574 66.1981C74.9269 66.0863 74.4839 66.0299 74.0391 66.0302Z" fill="#3D6DEA"/>
<path fill-rule="evenodd" clip-rule="evenodd" d="M71.4023 71.3036C69.9521 71.3036 68.7656 72.4901 68.7656 73.9403C68.7656 75.882 69.8291 77.5873 71.4023 78.5025C72.2027 78.969 73.1127 79.2144 74.0391 79.2137C74.4941 79.2137 74.9361 79.1553 75.358 79.0456C73.0968 78.4577 71.4022 76.3954 71.4022 73.9403V71.3036H71.4023Z" fill="#F7E0BA"/>
</svg>
