<svg width="125" height="124" viewBox="0 0 125 124" fill="none" xmlns="http://www.w3.org/2000/svg">
<circle cx="62.75" cy="62" r="62" fill="#FBFDFF"/>
<g clipPath="url(#clip0_6310_117952)">
<path d="M87.0006 73.75C82.0006 73.75 72.0006 80.0775 67.0006 80.0775C62.0006 80.0775 56.3756 76.25 56.3756 76.25C56.3756 76.25 63.1106 77.5 67.0006 77.5C70.8906 77.5 72.0006 76.1725 72.0006 74.375C72.0006 70 64.5706 69.32 60.8106 68.7475C57.1206 66.6925 53.2181 65.415 47.1056 64.9C47.0733 65.2592 47.0088 65.6148 46.9131 65.9625L41.8906 83.6625C47.5806 86.25 59.3606 90 64.5006 90C72.0006 90 92.0006 80 92.0006 77.5C92.0006 75 89.5006 73.75 87.0006 73.75Z" fill="#FFCC80"/>
<path d="M40.75 85H33.875C33.3777 85 32.9008 84.8025 32.5492 84.4508C32.1975 84.0992 32 83.6223 32 83.125V61.875C32 61.3777 32.1975 60.9008 32.5492 60.5492C32.9008 60.1975 33.3777 60 33.875 60C42.6375 60 46.72 63.04 46.8875 63.17C47.1836 63.3959 47.4056 63.7049 47.5254 64.0575C47.6452 64.4102 47.6572 64.7905 47.56 65.15L42.56 83.615C42.4523 84.0126 42.2167 84.3637 41.8896 84.6141C41.5624 84.8644 41.1619 85 40.75 85ZM85.125 32.5H78.875C78.3777 32.5 77.9008 32.6975 77.5492 33.0492C77.1975 33.4008 77 33.8777 77 34.375V55.625C77 56.66 77.84 57.5 78.875 57.5H85.125C85.6223 57.5 86.0992 57.3025 86.4508 56.9508C86.8025 56.5992 87 56.1223 87 55.625V34.375C87 33.8777 86.8025 33.4008 86.4508 33.0492C86.0992 32.6975 85.6223 32.5 85.125 32.5Z" fill="#2196F3"/>
<path d="M70.125 42.5H63.875C63.3777 42.5 62.9008 42.6975 62.5492 43.0492C62.1975 43.4008 62 43.8777 62 44.375V55.625C62 56.66 62.84 57.5 63.875 57.5H70.125C70.6223 57.5 71.0992 57.3025 71.4508 56.9508C71.8025 56.5992 72 56.1223 72 55.625V44.375C72 43.8777 71.8025 43.4008 71.4508 43.0492C71.0992 42.6975 70.6223 42.5 70.125 42.5Z" fill="#64B5F6"/>
<path d="M67 42.5H63.875C63.3777 42.5 62.9008 42.6975 62.5492 43.0492C62.1975 43.4008 62 43.8777 62 44.375V55.625C62 56.66 62.84 57.5 63.875 57.5H67V42.5Z" fill="#579ED6"/>
<path d="M82 32.5H78.875C78.3777 32.5 77.9008 32.6975 77.5492 33.0492C77.1975 33.4008 77 33.8777 77 34.375V55.625C77 56.66 77.84 57.5 78.875 57.5H82V32.5Z" fill="#1D83D4"/>
<path d="M87.625 57.5H61.375C60.8777 57.5 60.4008 57.3025 60.0492 56.9508C59.6975 56.5992 59.5 56.1223 59.5 55.625C59.5 55.1277 59.6975 54.6508 60.0492 54.2992C60.4008 53.9475 60.8777 53.75 61.375 53.75H87.625C88.1223 53.75 88.5992 53.9475 88.9508 54.2992C89.3025 54.6508 89.5 55.1277 89.5 55.625C89.5 56.1223 89.3025 56.5992 88.9508 56.9508C88.5992 57.3025 88.1223 57.5 87.625 57.5Z" fill="#607D8B"/>
<path d="M89.5 55.625H59.5C59.5 56.66 60.34 57.5 61.375 57.5H87.625C88.1223 57.5 88.5992 57.3025 88.9508 56.9508C89.3025 56.5992 89.5 56.1223 89.5 55.625Z" fill="#546D79"/>
<path d="M87.0031 73.75C82.0031 73.75 72.0031 80.0775 67.0031 80.0775C62.0031 80.0775 56.3781 76.25 56.3781 76.25L45.0306 74.505L42.5631 83.615C42.5355 83.7181 42.4986 83.8185 42.4531 83.915C48.3256 86.485 59.5256 90 64.5031 90C72.0031 90 92.0031 80 92.0031 77.5C92.0031 75 89.5031 73.75 87.0031 73.75Z" fill="#DEB26F"/>
<path d="M32 72.5V83.125C32 84.16 32.84 85 33.875 85H40.75C41.1627 85.0004 41.564 84.8647 41.8917 84.6138C42.2194 84.363 42.4552 84.011 42.5625 83.6125L45.03 74.5025L32 72.5Z" fill="#1D83D4"/>
</g>
<defs>
<clipPath id="clip0_6310_117952">
<rect width="60" height="60" fill="white" transform="translate(32 30)"/>
</clipPath>
</defs>
</svg>
