<svg width="125" height="124" viewBox="0 0 125 124" fill="none" xmlns="http://www.w3.org/2000/svg">
<circle cx="62.4531" cy="62" r="62" fill="#FBFDFF"/>
<g clipPath="url(#clip0_2563_72554)">
<path fill-rule="evenodd" clip-rule="evenodd" d="M69.1026 90H75.8536V74.4008C75.8536 71.0942 72.9091 69.2174 69.5586 68.3862C63.9327 66.9905 58.2298 66.8961 52.4357 68.3862C49.093 69.2457 46.1406 71.0927 46.1406 74.4008V90H69.1026Z" fill="#76E2F8"/>
<path fill-rule="evenodd" clip-rule="evenodd" d="M61 90H75.8566V74.4008C75.8566 71.0943 72.912 69.2174 69.5615 68.3862C66.7278 67.6832 63.8746 67.3105 61 67.304V90Z" fill="#3AAAFF"/>
<path fill-rule="evenodd" clip-rule="evenodd" d="M68.1406 90H70.0761V77.5031C70.0761 77.2465 69.9741 77.0003 69.7927 76.8188C69.6112 76.6374 69.365 76.5354 69.1084 76.5354C68.8517 76.5354 68.6056 76.6374 68.4241 76.8188C68.2426 77.0003 68.1406 77.2465 68.1406 77.5031V90Z" fill="#0794FF"/>
<path fill-rule="evenodd" clip-rule="evenodd" d="M53.8652 90V77.5031C53.8652 76.9686 53.4319 76.5354 52.8974 76.5354C52.3629 76.5354 51.9297 76.9686 51.9297 77.5031V90H53.8652Z" fill="#45D8F6"/>
<path fill-rule="evenodd" clip-rule="evenodd" d="M60.9979 50.0697C64.6903 50.0697 67.6835 52.1739 67.6835 57.0267C67.6835 61.8794 64.6903 65.8135 60.9979 65.8135C57.3055 65.8135 54.3125 61.8795 54.3125 57.0267C54.3125 52.1738 57.3057 50.0697 60.9979 50.0697Z" fill="#FFCC80"/>
<path fill-rule="evenodd" clip-rule="evenodd" d="M61 50.0697C64.6923 50.0697 67.6855 52.1739 67.6855 57.0268C67.6855 61.8795 64.6923 65.8135 61 65.8135V50.0697Z" fill="#FFCC80"/>
<path fill-rule="evenodd" clip-rule="evenodd" d="M65.9325 35.0257C69.2962 35.6864 72.4212 37.0102 75.1682 38.8542L76.2793 38.3607L80.0934 36.6668L82.2134 38.7867L84.3333 40.9066L82.6394 44.7207L82.1465 45.8302C83.9912 48.5774 85.3146 51.7036 85.9753 55.0678L87.1054 55.5026L91 57.0019V62.998L87.1053 64.4972L85.9742 64.9325C85.3135 68.2962 83.9897 71.4212 82.1457 74.1682L78.3299 67.7197C79.3821 65.3616 79.9676 62.7495 79.9676 60.0002C79.9676 49.5246 71.4755 41.0325 60.9999 41.0325C50.5243 41.0325 42.0323 49.5246 42.0323 60.0002C42.0323 62.7496 42.6177 65.3618 43.6701 67.72L39.8536 74.1697C38.0089 71.4225 36.6855 68.2962 36.0248 64.9321L34.8947 64.4972L31 62.9981V57.002L34.8947 55.5028L36.0255 55.0676C36.6861 51.7038 38.0097 48.5782 39.8541 45.8316L39.3607 44.7209L37.6668 40.9066L39.7867 38.7867L41.9066 36.6668L45.7207 38.3607L46.8316 38.8542C49.5783 37.0102 52.7036 35.6864 56.0673 35.0257L56.5027 33.8946L58.0019 30H63.998L65.4972 33.8947L65.9325 35.0257Z" fill="#607D8B"/>
<path fill-rule="evenodd" clip-rule="evenodd" d="M65.9327 35.0257C69.2963 35.6864 72.4213 37.0102 75.1683 38.8542L76.2794 38.3607L80.0935 36.6668L82.2135 38.7867L84.3334 40.9066L82.6395 44.7207L82.1466 45.8302C83.9914 48.5774 85.3148 51.7036 85.9755 55.0678L87.1055 55.5026L91.0001 57.0019V62.998L87.1054 64.4972L85.9743 64.9325C85.3136 68.2962 83.9898 71.4212 82.1458 74.1682L78.33 67.7197C79.3823 65.3616 79.9677 62.7495 79.9677 60.0002C79.9677 49.5246 71.4756 41.0325 61 41.0325V30H63.998L65.4972 33.8947L65.9327 35.0257Z" fill="#607D8B"/>
</g>
<defs>
<clipPath id="clip0_2563_72554">
<rect width="60" height="60" fill="white" transform="translate(31 30)"/>
</clipPath>
</defs>
</svg>
