<svg width="23" height="17" viewBox="0 0 23 17" fill="none" xmlns="http://www.w3.org/2000/svg">
<g clipPath="url(#clip0_2360_70274)">
<path d="M22.3386 8.02893L22.3379 8.02813L17.932 3.64349C17.6019 3.31502 17.068 3.31624 16.7395 3.64635C16.411 3.97642 16.4122 4.5103 16.7423 4.83881L19.7004 7.78259H1.8432C1.3775 7.78259 1 8.16009 1 8.62579C1 9.09149 1.3775 9.46899 1.8432 9.46899H19.7004L16.7423 12.4128C16.4123 12.7413 16.411 13.2752 16.7395 13.6052C17.0681 13.9354 17.602 13.9365 17.932 13.6081L22.3379 9.22345L22.3387 9.22265C22.6689 8.89304 22.6678 8.35744 22.3386 8.02893Z" fill="white"/>
</g>
<defs>
<clipPath id="clip0_2360_70274">
<rect width="22" height="16" fill="white" transform="translate(0.5 0.365479)"/>
</clipPath>
</defs>
</svg>
