<svg width="27" height="26" viewBox="0 0 27 26" fill="none" xmlns="http://www.w3.org/2000/svg">
<path d="M5.99997 16.0008C5.99921 15.8692 6.02444 15.7387 6.0742 15.6169C6.12396 15.495 6.19729 15.3842 6.28997 15.2908L12.29 9.29079C12.4773 9.10454 12.7308 9 12.995 9C13.2592 9 13.5126 9.10454 13.7 9.29079L19.7 15.2908C19.8638 15.4821 19.9494 15.7282 19.9397 15.9798C19.93 16.2315 19.8256 16.4703 19.6475 16.6484C19.4694 16.8265 19.2307 16.9308 18.979 16.9405C18.7274 16.9502 18.4813 16.8646 18.29 16.7008L13 11.4108L7.70997 16.7008C7.5707 16.8412 7.39292 16.9372 7.1991 16.9766C7.00529 17.016 6.80415 16.997 6.62112 16.9221C6.43809 16.8471 6.28138 16.7196 6.17082 16.5556C6.06026 16.3917 6.0008 16.1986 5.99997 16.0008Z" fill="#7E7D7D"/>
<rect x="25.8457" y="25.25" width="25.0953" height="24.5" rx="3.25" transform="rotate(-180 25.8457 25.25)" stroke="#BBBBBB" stroke-width="1.5"/>
</svg>
