<svg width="24" height="24" viewBox="0 0 24 24" fill="none" xmlns="http://www.w3.org/2000/svg">
<path d="M15.0008 18.9991C14.8692 18.9998 14.7387 18.9746 14.6169 18.9248C14.495 18.8751 14.3842 18.8017 14.2908 18.7091L8.29079 12.7091C8.10454 12.5217 8 12.2682 8 12.0041C8 11.7399 8.10454 11.4864 8.29079 11.2991L14.2908 5.29905C14.4821 5.13522 14.7282 5.04962 14.9798 5.05934C15.2315 5.06906 15.4703 5.17339 15.6484 5.35149C15.8265 5.52958 15.9308 5.76832 15.9405 6.02C15.9502 6.27167 15.8646 6.51775 15.7008 6.70905L10.4108 11.9991L15.7008 17.2891C15.8412 17.4283 15.9372 17.6061 15.9766 17.7999C16.016 17.9937 15.997 18.1949 15.9221 18.3779C15.8471 18.5609 15.7196 18.7176 15.5556 18.8282C15.3917 18.9388 15.1986 18.9982 15.0008 18.9991Z" fill="#7E7D7D"/>
<rect x="0.25" y="0.25" width="23.5" height="23.5" rx="3.75" stroke="#7E7D7D" stroke-width="0.5"/>
</svg>
