<svg width="24" height="25" viewBox="0 0 24 25" fill="none" xmlns="http://www.w3.org/2000/svg">
<path d="M15.0008 19.4991C14.8692 19.4998 14.7387 19.4746 14.6169 19.4248C14.495 19.3751 14.3842 19.3017 14.2908 19.2091L8.29079 13.2091C8.10454 13.0217 8 12.7682 8 12.5041C8 12.2399 8.10454 11.9864 8.29079 11.7991L14.2908 5.79905C14.4821 5.63522 14.7282 5.54962 14.9798 5.55934C15.2315 5.56906 15.4703 5.67339 15.6484 5.85149C15.8265 6.02958 15.9308 6.26832 15.9405 6.52C15.9502 6.77167 15.8646 7.01775 15.7008 7.20905L10.4108 12.4991L15.7008 17.7891C15.8412 17.9283 15.9372 18.1061 15.9766 18.2999C16.016 18.4937 15.997 18.6949 15.9221 18.8779C15.8471 19.0609 15.7196 19.2176 15.5556 19.3282C15.3917 19.4388 15.1986 19.4982 15.0008 19.4991Z" fill="#7E7D7D"/>
<rect x="0.25" y="0.75" width="23.5" height="23.5" rx="3.75" stroke="#7E7D7D" stroke-width="0.5"/>
</svg>
