<svg width="6" height="10" viewBox="0 0 6 10" fill="none" xmlns="http://www.w3.org/2000/svg">
<path d="M0.978266 0.899209C0.857156 0.896964 0.738342 0.932416 0.638266 1.00066C0.538189 1.06891 0.461799 1.16657 0.419666 1.28014C0.377532 1.3937 0.371738 1.51756 0.403087 1.63456C0.434435 1.75157 0.501375 1.85594 0.594644 1.93323L4.16409 4.98897L0.592439 8.04472C0.527188 8.09229 0.472506 8.15286 0.431843 8.22263C0.391181 8.29239 0.36542 8.36982 0.356188 8.45004C0.346955 8.53026 0.354451 8.61152 0.378203 8.6887C0.401954 8.76587 0.441445 8.83729 0.494184 8.89843C0.546923 8.95958 0.611764 9.00913 0.684615 9.04396C0.757466 9.07879 0.836746 9.09813 0.917451 9.10078C0.998155 9.10343 1.07853 9.08932 1.15351 9.05934C1.22849 9.02936 1.29644 8.98417 1.35307 8.92661L5.43622 5.43653C5.50043 5.38168 5.55199 5.31357 5.58735 5.23687C5.6227 5.16018 5.64101 5.07673 5.64101 4.99228C5.64101 4.90783 5.6227 4.82438 5.58735 4.74769C5.55199 4.671 5.50043 4.60288 5.43622 4.54803L1.35307 1.04693C1.2496 0.954809 1.11676 0.902456 0.978266 0.899209Z" fill="#FEFEFE"/>
</svg>
