<svg width="29" height="28" viewBox="0 0 29 28" fill="none" xmlns="http://www.w3.org/2000/svg">
<ellipse cx="14.5512" cy="14" rx="14.2973" ry="14" fill="#1D4ED8"/>
<path d="M11.7424 4.83301L10.0293 6.66634H7.06172C6.03197 6.66634 5.18945 7.49134 5.18945 8.49967V19.4997C5.18945 20.508 6.03197 21.333 7.06172 21.333H22.0399C23.0696 21.333 23.9121 20.508 23.9121 19.4997V8.49967C23.9121 7.49134 23.0696 6.66634 22.0399 6.66634H19.0723L17.3592 4.83301H11.7424ZM14.5508 18.583C11.9671 18.583 9.87012 16.5297 9.87012 13.9997C9.87012 11.4697 11.9671 9.41634 14.5508 9.41634C17.1345 9.41634 19.2315 11.4697 19.2315 13.9997C19.2315 16.5297 17.1345 18.583 14.5508 18.583Z" fill="#F7F7F7"/>
<path d="M14.4839 16.8667C16.1384 16.8667 17.4795 15.5534 17.4795 13.9333C17.4795 12.3133 16.1384 11 14.4839 11C12.8295 11 11.4883 12.3133 11.4883 13.9333C11.4883 15.5534 12.8295 16.8667 14.4839 16.8667Z" fill="#F7F7F7"/>
</svg>
