<svg width="16" height="17" viewBox="0 0 16 17" fill="none" xmlns="http://www.w3.org/2000/svg">
<path d="M14.8862 9.42084C14.4198 9.42084 14.0076 9.72137 13.8637 10.1651C13.0862 12.567 10.8318 14.3096 8.17414 14.3096C4.87474 14.3096 2.19035 11.625 2.19035 8.32533C2.19035 5.67861 3.91863 3.43137 6.30575 2.64502C6.76667 2.49315 7.07896 2.0622 7.07896 1.57635C7.07896 1.4067 7.03885 1.23945 6.96191 1.08825C6.88496 0.937055 6.77336 0.806188 6.63621 0.70633C6.49913 0.606473 6.34038 0.540426 6.17292 0.513575C6.00546 0.486723 5.83403 0.499827 5.67259 0.551818C2.38555 1.61042 0 4.69133 0 8.32544C0 12.833 3.66677 16.5 8.17411 16.5C11.7937 16.5 14.8642 14.1332 15.9343 10.867C15.9885 10.7015 16.0028 10.5254 15.9758 10.3532C15.9488 10.1811 15.8814 10.0178 15.7791 9.87672C15.677 9.73553 15.5428 9.62059 15.3875 9.54134C15.2323 9.46209 15.0605 9.42079 14.8862 9.42084ZM10.0126 2.63554C11.8296 3.22377 13.2674 4.65844 13.86 6.47357C13.9318 6.69375 14.0715 6.88556 14.259 7.02153C14.4465 7.1575 14.6722 7.23066 14.9038 7.23054H14.9263C15.0956 7.23054 15.2624 7.19055 15.4132 7.11384C15.564 7.03713 15.6946 6.92587 15.7942 6.78912C15.8938 6.6523 15.9596 6.49391 15.9864 6.32684C16.0131 6.15977 16.0001 5.98874 15.9483 5.82766C15.1467 3.33524 13.1794 1.36388 10.6891 0.55646C10.5263 0.503763 10.3533 0.490291 10.1842 0.517142C10.0152 0.543994 9.85491 0.610408 9.71642 0.710973C9.57798 0.811666 9.46531 0.943673 9.38762 1.09622C9.30992 1.24876 9.2694 1.41751 9.26937 1.5887V1.61253C9.26925 2.07832 9.56973 2.49195 10.0126 2.63554Z" fill="#7E7D7D"/>
</svg>
