<svg width="27" height="26" viewBox="0 0 27 26" fill="none" xmlns="http://www.w3.org/2000/svg">
<path d="M18.2481 15.7894C18.3094 15.7262 18.358 15.6512 18.3912 15.5685C18.4243 15.4859 18.4414 15.3973 18.4414 15.3079C18.4414 15.2184 18.4243 15.1299 18.3912 15.0472C18.358 14.9646 18.3094 14.8895 18.2481 14.8263L13.7706 10.1996C13.7094 10.1363 13.6367 10.0861 13.5567 10.0519C13.4767 10.0176 13.3909 10 13.3042 10C13.2176 10 13.1318 10.0176 13.0518 10.0519C12.9718 10.0861 12.8991 10.1363 12.8379 10.1996L8.36042 14.8263C8.29668 14.889 8.24574 14.9641 8.21059 15.0474C8.17544 15.1307 8.15679 15.2204 8.15574 15.3112C8.15469 15.4021 8.17127 15.4922 8.20449 15.5764C8.23771 15.6605 8.2869 15.7369 8.34917 15.8011C8.41144 15.8653 8.48552 15.9159 8.56705 15.9501C8.64858 15.9842 8.73591 16.0012 8.82389 15.9999C8.91186 15.9987 8.99871 15.9793 9.0793 15.9428C9.15989 15.9064 9.23261 15.8537 9.29315 15.7877L13.3042 11.6426L17.3153 15.7877C17.3765 15.8511 17.4491 15.9015 17.529 15.9359C17.609 15.9703 17.6947 15.9881 17.7814 15.9882C17.868 15.9884 17.9538 15.9709 18.0339 15.9368C18.114 15.9027 18.1868 15.8526 18.2481 15.7894Z" fill="#BBBBBB"/>
<rect x="0.75" y="0.75" width="25.0953" height="24.5" rx="3.25" stroke="#BBBBBB" stroke-width="1.5"/>
</svg>
