<svg width="16" height="15" viewBox="0 0 16 15" fill="none" xmlns="http://www.w3.org/2000/svg">
<path d="M13.334 0.332031H2.66732C2.18125 0.332561 1.71524 0.525885 1.37154 0.869587C1.02784 1.21329 0.834514 1.6793 0.833984 2.16536V10.1654C0.834514 10.6514 1.02784 11.1174 1.37154 11.4611C1.71524 11.8048 2.18125 11.9982 2.66732 11.9987H3.49598C3.67398 11.9989 3.84463 12.0697 3.97049 12.1955C4.09636 12.3214 4.16714 12.492 4.16732 12.67V13.0847C4.16422 13.3821 4.25096 13.6735 4.41617 13.9208C4.58139 14.1681 4.8174 14.3597 5.09332 14.4707C5.27824 14.5475 5.47641 14.5874 5.67665 14.588C5.87247 14.5875 6.06623 14.5481 6.2467 14.4721C6.42717 14.3961 6.59076 14.2851 6.72798 14.1454L8.67798 12.1954C8.73988 12.1322 8.81373 12.082 8.89522 12.0477C8.97671 12.0133 9.06422 11.9956 9.15265 11.9954H13.334C13.8195 11.9948 14.285 11.802 14.6286 11.459C14.9722 11.116 15.1659 10.6509 15.1673 10.1654V2.16536C15.1668 1.6793 14.9735 1.21329 14.6298 0.869587C14.2861 0.525885 13.8201 0.332561 13.334 0.332031ZM10.0007 6.66536H8.50065V8.16536C8.50065 8.29797 8.44797 8.42515 8.3542 8.51892C8.26044 8.61269 8.13326 8.66537 8.00065 8.66537C7.86804 8.66537 7.74087 8.61269 7.6471 8.51892C7.55333 8.42515 7.50065 8.29797 7.50065 8.16536V6.66536H6.00065C5.86804 6.66536 5.74087 6.61269 5.6471 6.51892C5.55333 6.42515 5.50065 6.29797 5.50065 6.16536C5.50065 6.03276 5.55333 5.90558 5.6471 5.81181C5.74087 5.71804 5.86804 5.66536 6.00065 5.66536H7.50065V4.16536C7.50065 4.03276 7.55333 3.90558 7.6471 3.81181C7.74087 3.71804 7.86804 3.66536 8.00065 3.66536C8.13326 3.66536 8.26044 3.71804 8.3542 3.81181C8.44797 3.90558 8.50065 4.03276 8.50065 4.16536V5.66536H10.0007C10.1333 5.66536 10.2604 5.71804 10.3542 5.81181C10.448 5.90558 10.5007 6.03276 10.5007 6.16536C10.5007 6.29797 10.448 6.42515 10.3542 6.51892C10.2604 6.61269 10.1333 6.66536 10.0007 6.66536Z" fill="#7E7D7D"/>
</svg>
