<svg width="16" height="17" viewBox="0 0 16 17" fill="none" xmlns="http://www.w3.org/2000/svg">
<path d="M3.76172 10.9688V10.1836C3.76171 10.0959 3.73708 10.0099 3.69063 9.93546C3.64417 9.86103 3.57777 9.80113 3.49896 9.76257C3.42015 9.72401 3.3321 9.70835 3.24483 9.71735C3.15755 9.72636 3.07456 9.75967 3.00528 9.81351L0.181063 12.0088C0.124701 12.0527 0.0790959 12.1088 0.0477251 12.1729C0.0163543 12.2371 4.69594e-05 12.3075 4.69594e-05 12.3789C4.69594e-05 12.4503 0.0163543 12.5208 0.0477251 12.5849C0.0790959 12.649 0.124701 12.7052 0.181063 12.749L3.00528 14.9443C3.07455 14.9982 3.15755 15.0315 3.24482 15.0405C3.3321 15.0495 3.42016 15.0339 3.49897 14.9953C3.57778 14.9567 3.64419 14.8968 3.69064 14.8224C3.73709 14.748 3.76172 14.662 3.76172 14.5742V13.7891H6.59375V10.9688H3.76172ZM12.2383 6.14454V6.9297C12.2383 7.01743 12.2629 7.10341 12.3094 7.17784C12.3558 7.25227 12.4222 7.31217 12.501 7.35073C12.5799 7.38929 12.6679 7.40495 12.7552 7.39595C12.8424 7.38694 12.9254 7.35363 12.9947 7.29979L15.8189 5.10448C15.8753 5.06065 15.9209 5.00452 15.9523 4.94038C15.9836 4.87624 16 4.80578 16 4.73438C16 4.66298 15.9836 4.59253 15.9523 4.52839C15.9209 4.46425 15.8753 4.40812 15.8189 4.36429L12.9947 2.16898C12.9254 2.11513 12.8424 2.0818 12.7552 2.07279C12.6679 2.06378 12.5798 2.07945 12.501 2.11801C12.4222 2.15657 12.3558 2.21647 12.3094 2.29091C12.2629 2.36535 12.2383 2.45133 12.2383 2.53907V3.32423H9.40625V6.14454H12.2383ZM8 8.02735C8.25887 8.02735 8.46875 7.81748 8.46875 7.5586V2.13901L4.52272 5.21726C4.44036 5.28156 4.33886 5.31647 4.23438 5.31642C4.12989 5.31647 4.02839 5.28156 3.94603 5.21726L0 2.13901V7.5586C0 7.81748 0.209875 8.02735 0.46875 8.02735H8Z" fill="white"/>
<path d="M7.83967 1.44141H0.630859L4.23527 4.25316L7.83967 1.44141ZM11.7665 11.7844L15.3709 8.97266H8.16211L11.7665 11.7844Z" fill="white"/>
<path d="M11.7656 12.8478C11.6611 12.8479 11.5596 12.813 11.4773 12.7487L7.53125 9.67041V15.09C7.53125 15.3489 7.74112 15.5588 8 15.5588H15.5312C15.7901 15.5588 16 15.3489 16 15.09V9.67041L12.054 12.7487C11.9716 12.813 11.8701 12.8479 11.7656 12.8478Z" fill="white"/>
</svg>
