<svg width="16" height="17" viewBox="0 0 16 17" fill="none" xmlns="http://www.w3.org/2000/svg">
<g clipPath="url(#clip0_3138_79151)">
<path d="M16 5.59375V4.75C16 3.7835 15.2165 3 14.25 3H1.75C0.7835 3 0 3.7835 0 4.75V5.59375C0 5.63519 0.016462 5.67493 0.0457646 5.70424C0.0750671 5.73354 0.11481 5.75 0.15625 5.75H15.8438C15.8852 5.75 15.9249 5.73354 15.9542 5.70424C15.9835 5.67493 16 5.63519 16 5.59375ZM0 6.90625V12.25C0 13.2165 0.7835 14 1.75 14H14.25C15.2165 14 16 13.2165 16 12.25V6.90625C16 6.86481 15.9835 6.82507 15.9542 6.79576C15.9249 6.76646 15.8852 6.75 15.8438 6.75H0.15625C0.11481 6.75 0.0750671 6.76646 0.0457646 6.79576C0.016462 6.82507 0 6.86481 0 6.90625ZM4 11C4 11.2761 3.77612 11.5 3.5 11.5H3C2.72388 11.5 2.5 11.2761 2.5 11V10.5C2.5 10.2239 2.72388 10 3 10H3.5C3.77612 10 4 10.2239 4 10.5V11Z" fill="white"/>
</g>
<defs>
<clipPath id="clip0_3138_79151">
<rect width="16" height="16" fill="white" transform="translate(0 0.5)"/>
</clipPath>
</defs>
</svg>
