<svg width="25" height="24" viewBox="0 0 25 24" fill="none" xmlns="http://www.w3.org/2000/svg">
<path d="M16.8203 11.5352C17.2302 11.5352 17.5625 11.2029 17.5625 10.793C17.5625 10.3831 17.2302 10.0508 16.8203 10.0508C16.4104 10.0508 16.0781 10.3831 16.0781 10.793C16.0781 11.2029 16.4104 11.5352 16.8203 11.5352Z" fill="#7E7D7D"/>
<path d="M18.5312 4.48438H17.5664V3.74219C17.5664 3.33228 17.2341 3 16.8242 3C16.4143 3 16.082 3.33228 16.082 3.74219V4.48438H12.7051V3.74219C12.7051 3.33228 12.3728 3 11.9629 3C11.553 3 11.2207 3.33228 11.2207 3.74219V4.48438H7.88086V3.74219C7.88086 3.33228 7.54858 3 7.13867 3C6.72876 3 6.39648 3.33228 6.39648 3.74219V4.48438H5.46875C3.83178 4.48438 2.5 5.81616 2.5 7.45312V19.0312C2.5 20.6682 3.83178 22 5.46875 22H11.1465C11.5564 22 11.8887 21.6677 11.8887 21.2578C11.8887 20.8479 11.5564 20.5156 11.1465 20.5156H5.46875C4.65027 20.5156 3.98438 19.8497 3.98438 19.0312V7.45312C3.98438 6.63464 4.65027 5.96875 5.46875 5.96875H6.39648V6.71094C6.39648 7.12085 6.72876 7.45312 7.13867 7.45312C7.54858 7.45312 7.88086 7.12085 7.88086 6.71094V5.96875H11.2207V6.71094C11.2207 7.12085 11.553 7.45312 11.9629 7.45312C12.3728 7.45312 12.7051 7.12085 12.7051 6.71094V5.96875H16.082V6.71094C16.082 7.12085 16.4143 7.45312 16.8242 7.45312C17.2341 7.45312 17.5664 7.12085 17.5664 6.71094V5.96875H18.5312C19.3497 5.96875 20.0156 6.63464 20.0156 7.45312V11.6836C20.0156 12.0935 20.3479 12.4258 20.7578 12.4258C21.1677 12.4258 21.5 12.0935 21.5 11.6836V7.45312C21.5 5.81616 20.1682 4.48438 18.5312 4.48438Z" fill="#7E7D7D"/>
<path d="M17.0059 13.0195C14.5299 13.0195 12.5156 15.0338 12.5156 17.5098C12.5156 19.9857 14.5299 22 17.0059 22C19.4818 22 21.4961 19.9857 21.4961 17.5098C21.4961 15.0338 19.4818 13.0195 17.0059 13.0195ZM17.0059 20.5156C15.3484 20.5156 14 19.1672 14 17.5098C14 15.8523 15.3484 14.5039 17.0059 14.5039C18.6633 14.5039 20.0117 15.8523 20.0117 17.5098C20.0117 19.1672 18.6633 20.5156 17.0059 20.5156Z" fill="#7E7D7D"/>
<path d="M18.084 16.7676H17.75V15.9883C17.75 15.5784 17.4177 15.2461 17.0078 15.2461C16.5979 15.2461 16.2656 15.5784 16.2656 15.9883V17.5098C16.2656 17.9197 16.5979 18.252 17.0078 18.252H18.084C18.4939 18.252 18.8262 17.9197 18.8262 17.5098C18.8262 17.0999 18.4939 16.7676 18.084 16.7676Z" fill="#7E7D7D"/>
<path d="M13.5938 11.5352C14.0036 11.5352 14.3359 11.2029 14.3359 10.793C14.3359 10.3831 14.0036 10.0508 13.5938 10.0508C13.1839 10.0508 12.8516 10.3831 12.8516 10.793C12.8516 11.2029 13.1839 11.5352 13.5938 11.5352Z" fill="#7E7D7D"/>
<path d="M10.3672 14.7637C10.7771 14.7637 11.1094 14.4314 11.1094 14.0215C11.1094 13.6116 10.7771 13.2793 10.3672 13.2793C9.95729 13.2793 9.625 13.6116 9.625 14.0215C9.625 14.4314 9.95729 14.7637 10.3672 14.7637Z" fill="#7E7D7D"/>
<path d="M7.14062 11.5352C7.55052 11.5352 7.88281 11.2029 7.88281 10.793C7.88281 10.3831 7.55052 10.0508 7.14062 10.0508C6.73073 10.0508 6.39844 10.3831 6.39844 10.793C6.39844 11.2029 6.73073 11.5352 7.14062 11.5352Z" fill="#7E7D7D"/>
<path d="M7.14062 14.7637C7.55052 14.7637 7.88281 14.4314 7.88281 14.0215C7.88281 13.6116 7.55052 13.2793 7.14062 13.2793C6.73073 13.2793 6.39844 13.6116 6.39844 14.0215C6.39844 14.4314 6.73073 14.7637 7.14062 14.7637Z" fill="#7E7D7D"/>
<path d="M7.14062 17.9922C7.55052 17.9922 7.88281 17.6599 7.88281 17.25C7.88281 16.8401 7.55052 16.5078 7.14062 16.5078C6.73073 16.5078 6.39844 16.8401 6.39844 17.25C6.39844 17.6599 6.73073 17.9922 7.14062 17.9922Z" fill="#7E7D7D"/>
<path d="M10.3672 17.9922C10.7771 17.9922 11.1094 17.6599 11.1094 17.25C11.1094 16.8401 10.7771 16.5078 10.3672 16.5078C9.95729 16.5078 9.625 16.8401 9.625 17.25C9.625 17.6599 9.95729 17.9922 10.3672 17.9922Z" fill="#7E7D7D"/>
<path d="M10.3672 11.5352C10.7771 11.5352 11.1094 11.2029 11.1094 10.793C11.1094 10.3831 10.7771 10.0508 10.3672 10.0508C9.95729 10.0508 9.625 10.3831 9.625 10.793C9.625 11.2029 9.95729 11.5352 10.3672 11.5352Z" fill="#7E7D7D"/>
</svg>
