<svg width="16" height="17" viewBox="0 0 16 17" fill="none" xmlns="http://www.w3.org/2000/svg">
<path d="M10.5 1.5H5.5C5.22386 1.5 5 1.72386 5 2V4C5 4.27614 5.22386 4.5 5.5 4.5H10.5C10.7761 4.5 11 4.27614 11 4V2C11 1.72386 10.7761 1.5 10.5 1.5Z" fill="white"/>
<path d="M13 2.5H11.5V4C11.4992 4.26497 11.3936 4.51887 11.2062 4.70623C11.0189 4.8936 10.765 4.99921 10.5 5H5.5C5.23503 4.99921 4.98113 4.8936 4.79377 4.70623C4.6064 4.51887 4.50079 4.26497 4.5 4V2.5H3C2.86751 2.5004 2.74057 2.5532 2.64688 2.64688C2.5532 2.74057 2.5004 2.86751 2.5 3V15C2.5004 15.1325 2.5532 15.2594 2.64688 15.3531C2.74057 15.4468 2.86751 15.4996 3 15.5H13C13.1325 15.4996 13.2594 15.4468 13.3531 15.3531C13.4468 15.2594 13.4996 15.1325 13.5 15V3C13.4996 2.86751 13.4468 2.74057 13.3531 2.64688C13.2594 2.5532 13.1325 2.5004 13 2.5ZM10.5 13.5H5.5C5.36739 13.5 5.24021 13.4473 5.14645 13.3536C5.05268 13.2598 5 13.1326 5 13C5 12.8674 5.05268 12.7402 5.14645 12.6464C5.24021 12.5527 5.36739 12.5 5.5 12.5H10.5C10.6326 12.5 10.7598 12.5527 10.8536 12.6464C10.9473 12.7402 11 12.8674 11 13C11 13.1326 10.9473 13.2598 10.8536 13.3536C10.7598 13.4473 10.6326 13.5 10.5 13.5ZM10.5 11.5H5.5C5.36739 11.5 5.24021 11.4473 5.14645 11.3536C5.05268 11.2598 5 11.1326 5 11C5 10.8674 5.05268 10.7402 5.14645 10.6464C5.24021 10.5527 5.36739 10.5 5.5 10.5H10.5C10.6326 10.5 10.7598 10.5527 10.8536 10.6464C10.9473 10.7402 11 10.8674 11 11C11 11.1326 10.9473 11.2598 10.8536 11.3536C10.7598 11.4473 10.6326 11.5 10.5 11.5ZM10.5 9.5H5.5C5.36739 9.5 5.24021 9.44732 5.14645 9.35355C5.05268 9.25979 5 9.13261 5 9C5 8.86739 5.05268 8.74021 5.14645 8.64645C5.24021 8.55268 5.36739 8.5 5.5 8.5H10.5C10.6326 8.5 10.7598 8.55268 10.8536 8.64645C10.9473 8.74021 11 8.86739 11 9C11 9.13261 10.9473 9.25979 10.8536 9.35355C10.7598 9.44732 10.6326 9.5 10.5 9.5ZM10.5 7.5H5.5C5.36739 7.5 5.24021 7.44732 5.14645 7.35355C5.05268 7.25979 5 7.13261 5 7C5 6.86739 5.05268 6.74021 5.14645 6.64645C5.24021 6.55268 5.36739 6.5 5.5 6.5H10.5C10.6326 6.5 10.7598 6.55268 10.8536 6.64645C10.9473 6.74021 11 6.86739 11 7C11 7.13261 10.9473 7.25979 10.8536 7.35355C10.7598 7.44732 10.6326 7.5 10.5 7.5Z" fill="white"/>
</svg>
