<svg width="15" height="16" viewBox="0 0 15 16" fill="none" xmlns="http://www.w3.org/2000/svg">
<path d="M13.3427 12.9998C12.3976 13.994 11.1875 14.5416 9.93536 14.5416C7.8831 14.5416 6.10613 13.1004 5.26983 11.0171H10.9704C11.4647 11.0171 11.8654 10.6163 11.8654 10.122C11.8654 9.62769 11.4647 9.22691 10.9704 9.22691H4.81496C4.77896 8.92989 4.76079 8.63098 4.76054 8.33179C4.76054 7.98891 4.78468 7.6528 4.82972 7.32479H10.9704C11.4647 7.32479 11.8654 6.92402 11.8654 6.42971C11.8654 5.93539 11.4647 5.53458 10.9704 5.53458H5.31745C6.17168 3.5123 7.92026 2.12202 9.93536 2.12202C11.1875 2.12202 12.3976 2.66964 13.3427 3.66367C13.6829 4.02174 14.2492 4.03645 14.608 3.6959C14.9664 3.35521 14.9806 2.78866 14.6404 2.4304C13.3541 1.07723 11.6832 0.332031 9.93559 0.332031C6.95152 0.332031 4.40073 2.49931 3.41089 5.53484H1.01227C0.517961 5.53484 0.117188 5.93562 0.117188 6.42993C0.117188 6.92424 0.517961 7.32501 1.01227 7.32501H3.02734C2.99107 7.65532 2.97033 7.99076 2.97033 8.33201C2.97033 8.63488 2.98616 8.93299 3.01511 9.22713H1.01227C0.517961 9.22713 0.117188 9.62791 0.117188 10.1222C0.117188 10.6165 0.517961 11.0173 1.01227 11.0173H3.37536C4.33821 14.1115 6.91477 16.332 9.93536 16.332C11.6832 16.332 13.3536 15.5866 14.6399 14.2337C14.9803 13.8753 14.9664 13.3088 14.6078 12.9682C14.2496 12.6275 13.6829 12.6417 13.3427 12.9998Z" fill="#7E7D7D"/>
</svg>
