<svg width="16" height="11" viewBox="0 0 16 11" fill="none" xmlns="http://www.w3.org/2000/svg">
<path d="M15.3102 3.93906C13.7445 2.44531 11.0539 0.414062 8.00078 0.414062C4.94766 0.414062 2.25703 2.44531 0.691406 3.93906C-0.230469 4.82031 -0.230469 6.17969 0.691406 7.06094C2.25703 8.55781 4.94766 10.5891 8.00078 10.5891C11.0539 10.5891 13.7445 8.55781 15.3102 7.06094C16.232 6.18281 16.232 4.82031 15.3102 3.93906ZM8.00078 8.74844C6.20703 8.74844 4.75391 7.29531 4.75391 5.50156C4.75391 3.70781 6.20703 2.25469 8.00078 2.25469C9.79453 2.25469 11.2477 3.70781 11.2477 5.50156C11.2477 7.29531 9.79453 8.74531 8.00078 8.74844Z" fill="#7E7D7D"/>
<path d="M8.00117 7.44375C9.07295 7.44375 9.9418 6.5749 9.9418 5.50313C9.9418 4.43135 9.07295 3.5625 8.00117 3.5625C6.92939 3.5625 6.06055 4.43135 6.06055 5.50313C6.06055 6.5749 6.92939 7.44375 8.00117 7.44375Z" fill="#7E7D7D"/>
</svg>
