<svg width="22" height="16" viewBox="0 0 22 16" fill="none" xmlns="http://www.w3.org/2000/svg">
<path d="M11 15.2119C6.8823 15.2119 2.93974 12.1825 0.337307 9.03739C-0.112436 8.49383 -0.112436 7.7048 0.337307 7.16128C0.99162 6.37052 2.36282 4.84492 4.19452 3.51161C8.80803 0.153504 13.183 0.147027 17.8054 3.51161C19.9573 5.07794 21.6626 7.1319 21.6626 7.16128C22.1124 7.7048 22.1124 8.49383 21.6626 9.03735C19.0606 12.182 15.1186 15.2119 11 15.2119ZM11 2.34155C6.43844 2.34155 2.48428 6.69169 1.38108 8.02495C1.36379 8.04589 1.35434 8.07219 1.35434 8.09934C1.35434 8.12649 1.36379 8.15279 1.38108 8.17372C2.48433 9.50699 6.43844 13.8571 11 13.8571C15.5615 13.8571 19.5157 9.50699 20.6189 8.17372C20.6832 8.09595 20.6146 8.02495 20.6189 8.02495C19.5156 6.69169 15.5615 2.34155 11 2.34155Z" fill="#8D99AE"/>
<path d="M10.9995 12.8411C8.38493 12.8411 6.25781 10.714 6.25781 8.09937C6.25781 5.48479 8.38493 3.35767 10.9995 3.35767C13.6141 3.35767 15.7412 5.48479 15.7412 8.09937C15.7412 10.714 13.6141 12.8411 10.9995 12.8411ZM10.9995 4.71244C9.13196 4.71244 7.61259 6.23182 7.61259 8.09937C7.61259 9.96693 9.13196 11.4863 10.9995 11.4863C12.8671 11.4863 14.3865 9.96693 14.3865 8.09937C14.3865 6.23182 12.8671 4.71244 10.9995 4.71244Z" fill="#8D99AE"/>
</svg>
