<svg width="11" height="21" viewBox="0 0 11 21" fill="none" xmlns="http://www.w3.org/2000/svg">
<path d="M10.6055 8.47596L10.2689 11.3906C10.255 11.5236 10.1926 11.6469 10.0938 11.7369C9.99496 11.827 9.86648 11.8777 9.73276 11.8793H6.6907L6.67549 20.5206C6.67652 20.623 6.6372 20.7217 6.56605 20.7954C6.49489 20.869 6.39761 20.9117 6.29523 20.9142H3.21324C3.16199 20.9142 3.11127 20.9039 3.06412 20.8839C3.01696 20.8638 2.97435 20.8344 2.93883 20.7975C2.90331 20.7606 2.87563 20.7168 2.85744 20.6689C2.83925 20.621 2.83093 20.5699 2.83298 20.5187V11.8793H0.551428C0.479769 11.8785 0.408958 11.8637 0.343039 11.8356C0.27712 11.8074 0.217384 11.7666 0.167243 11.7154C0.117101 11.6642 0.0775366 11.6036 0.0508075 11.5372C0.0240785 11.4707 0.0107086 11.3996 0.0114616 11.3279L5.35451e-05 8.41321C-0.000952142 8.3413 0.0122177 8.2699 0.0388106 8.20308C0.0654035 8.13626 0.104899 8.07533 0.15504 8.02378C0.205182 7.97223 0.264989 7.93105 0.331045 7.90262C0.3971 7.87418 0.46811 7.85903 0.54002 7.85804H2.83298V5.04413C2.83298 1.77771 4.7723 0 7.61663 0H9.94761C10.0197 0.000743777 10.0909 0.0157087 10.1572 0.0440364C10.2234 0.0723641 10.2835 0.113497 10.3338 0.165076C10.3842 0.216656 10.4238 0.277666 10.4505 0.344609C10.4773 0.411552 10.4905 0.483109 10.4895 0.555177V3.00784C10.4905 3.07991 10.4773 3.15147 10.4505 3.21841C10.4238 3.28535 10.3842 3.34636 10.3338 3.39794C10.2835 3.44952 10.2234 3.49066 10.1572 3.51898C10.0909 3.54731 10.0197 3.56228 9.94761 3.56302H8.51784C6.97209 3.56302 6.67169 4.32354 6.67169 5.42248V7.85804H10.0693C10.1466 7.85901 10.2227 7.87632 10.2928 7.90884C10.3629 7.94135 10.4254 7.98834 10.476 8.0467C10.5267 8.10507 10.5644 8.17349 10.5867 8.24747C10.609 8.32146 10.6154 8.39933 10.6055 8.47596Z" fill="#3A559F"/>
</svg>
