<svg width="10" height="13" viewBox="0 0 10 13" fill="none" xmlns="http://www.w3.org/2000/svg">
<path d="M9.24849 2.30469H8.89761V10.925C8.89761 11.4977 8.43145 11.9638 7.85878 11.9638H1.47656V12.2834C1.47656 12.6493 1.77356 12.9463 2.13947 12.9463H9.24724C9.61315 12.9463 9.91013 12.6493 9.91013 12.2834V2.96759C9.91014 2.60168 9.61441 2.30469 9.24849 2.30469Z" fill="#7E7D7D"/>
<path d="M4.30148 11.5869H7.85536C8.22128 11.5869 8.51827 11.2899 8.51827 10.924V1.60822C8.51827 1.24231 8.22128 0.945312 7.85536 0.945312H3.11977V1.16461C3.12227 1.18717 3.12353 1.21098 3.12353 1.23479V3.05058C3.12353 3.56561 2.70499 3.98416 2.18995 3.98416H0.374158C0.355361 3.98416 0.335311 3.98291 0.316514 3.98165H0.0859375V10.924C0.0859375 11.2899 0.38293 11.5869 0.748845 11.5869H4.30148ZM4.43556 9.33379H2.11852C1.94559 9.33379 1.80524 9.19342 1.80524 9.0205C1.80524 8.84756 1.94559 8.70722 2.11852 8.70722H4.43682C4.60975 8.70722 4.7501 8.84756 4.7501 9.0205C4.7501 9.19342 4.60849 9.33379 4.43556 9.33379ZM6.75386 7.7348H2.11852C1.94559 7.7348 1.80524 7.59444 1.80524 7.42152C1.80524 7.24857 1.94559 7.10823 2.11852 7.10823H6.75386C6.92679 7.10823 7.06714 7.24857 7.06714 7.42152C7.06714 7.59444 6.92679 7.7348 6.75386 7.7348ZM2.11852 5.41023H6.75386C6.92679 5.41023 7.06714 5.55058 7.06714 5.72351C7.06714 5.89644 6.92679 6.03679 6.75386 6.03679H2.11852C1.94559 6.03679 1.80524 5.89644 1.80524 5.72351C1.80524 5.55058 1.94559 5.41023 2.11852 5.41023Z" fill="#7E7D7D"/>
<path d="M0.373876 3.60601H2.19468C2.49794 3.6035 2.74355 3.35789 2.74606 3.05463V1.23257C2.74606 1.06465 2.60821 0.953125 2.46537 0.953125C2.39644 0.953125 2.32752 0.978188 2.26988 1.03583L0.175881 3.12982C0.000441983 3.30526 0.124502 3.60601 0.373876 3.60601Z" fill="#7E7D7D"/>
</svg>
