<svg width="40" height="42" viewBox="0 0 40 42" fill="none" xmlns="http://www.w3.org/2000/svg">
<rect x="0.5" y="1" width="39" height="40" rx="4.5" fill="white" stroke="#E7EAEE"/>
<path d="M25.2923 13.793C25.2923 13.2243 25.4609 12.6685 25.7768 12.1957C26.0928 11.7229 26.5418 11.3544 27.0671 11.1368C27.5924 10.9192 28.1705 10.8623 28.7282 10.9732C29.2859 11.0841 29.7982 11.358 30.2002 11.76C30.6023 12.1621 30.8761 12.6744 30.9871 13.2321C31.098 13.7898 31.0411 14.3678 30.8235 14.8932C30.6059 15.4185 30.2374 15.8675 29.7646 16.1834C29.2918 16.4994 28.7359 16.668 28.1673 16.668C27.4048 16.668 26.6736 16.3651 26.1344 15.8259C25.5952 15.2867 25.2923 14.5555 25.2923 13.793ZM10.9173 14.7513H22.4173C22.6715 14.7513 22.9152 14.6503 23.095 14.4706C23.2747 14.2909 23.3757 14.0471 23.3757 13.793C23.3757 13.5388 23.2747 13.295 23.095 13.1153C22.9152 12.9356 22.6715 12.8346 22.4173 12.8346H10.9173C10.6632 12.8346 10.4194 12.9356 10.2397 13.1153C10.06 13.295 9.95898 13.5388 9.95898 13.793C9.95898 14.0471 10.06 14.2909 10.2397 14.4706C10.4194 14.6503 10.6632 14.7513 10.9173 14.7513ZM16.6673 17.6263C16.0742 17.628 15.496 17.8131 15.0122 18.1562C14.5284 18.4993 14.1625 18.9837 13.9648 19.543H10.9173C10.6632 19.543 10.4194 19.6439 10.2397 19.8237C10.06 20.0034 9.95898 20.2471 9.95898 20.5013C9.95898 20.7555 10.06 20.9992 10.2397 21.1789C10.4194 21.3587 10.6632 21.4596 10.9173 21.4596H13.9648C14.1406 21.9569 14.4498 22.3962 14.8586 22.7295C15.2674 23.0628 15.7599 23.2772 16.2824 23.3493C16.8049 23.4214 17.3371 23.3484 17.8209 23.1382C18.3046 22.9281 18.7212 22.5889 19.0251 22.1579C19.329 21.7268 19.5085 21.2204 19.5439 20.6942C19.5793 20.168 19.4693 19.6422 19.2258 19.1743C18.9824 18.7064 18.6149 18.3145 18.1637 18.0415C17.7124 17.7685 17.1947 17.6248 16.6673 17.6263ZM30.084 19.543H22.4173C22.1632 19.543 21.9194 19.6439 21.7397 19.8237C21.56 20.0034 21.459 20.2471 21.459 20.5013C21.459 20.7555 21.56 20.9992 21.7397 21.1789C21.9194 21.3587 22.1632 21.4596 22.4173 21.4596H30.084C30.3381 21.4596 30.5819 21.3587 30.7616 21.1789C30.9413 20.9992 31.0423 20.7555 31.0423 20.5013C31.0423 20.2471 30.9413 20.0034 30.7616 19.8237C30.5819 19.6439 30.3381 19.543 30.084 19.543ZM18.584 26.2513H10.9173C10.6632 26.2513 10.4194 26.3523 10.2397 26.532C10.06 26.7117 9.95898 26.9555 9.95898 27.2096C9.95898 27.4638 10.06 27.7076 10.2397 27.8873C10.4194 28.067 10.6632 28.168 10.9173 28.168H18.584C18.8381 28.168 19.0819 28.067 19.2616 27.8873C19.4413 27.7076 19.5423 27.4638 19.5423 27.2096C19.5423 26.9555 19.4413 26.7117 19.2616 26.532C19.0819 26.3523 18.8381 26.2513 18.584 26.2513ZM30.084 26.2513H27.0365C26.8104 25.6119 26.3656 25.073 25.7806 24.7298C25.1956 24.3867 24.5082 24.2614 23.8397 24.376C23.1713 24.4907 22.5649 24.838 22.1278 25.3565C21.6907 25.8751 21.4509 26.5314 21.4509 27.2096C21.4509 27.8878 21.6907 28.5442 22.1278 29.0627C22.5649 29.5813 23.1713 29.9285 23.8397 30.0432C24.5082 30.1579 25.1956 30.0326 25.7806 29.6895C26.3656 29.3463 26.8104 28.8074 27.0365 28.168H30.084C30.3381 28.168 30.5819 28.067 30.7616 27.8873C30.9413 27.7076 31.0423 27.4638 31.0423 27.2096C31.0423 26.9555 30.9413 26.7117 30.7616 26.532C30.5819 26.3523 30.3381 26.2513 30.084 26.2513Z" fill="#585858"/>
</svg>
