<svg width="24" height="25" viewBox="0 0 24 25" fill="none" xmlns="http://www.w3.org/2000/svg">
<path d="M23.0935 10.6162L13.3042 10.6157C12.8719 10.6157 12.5215 10.9661 12.5215 11.3983V14.5256C12.5215 14.9578 12.8719 15.3082 13.3041 15.3082H18.8169C18.2132 16.8748 17.0865 18.1868 15.6491 19.0205L17.9997 23.0896C21.7704 20.9089 23.9997 17.0825 23.9997 12.7992C23.9997 12.1893 23.9548 11.7533 23.8649 11.2624C23.7965 10.8894 23.4727 10.6162 23.0935 10.6162Z" fill="#167EE6"/>
<path d="M12.0003 20.007C9.30242 20.007 6.94723 18.5329 5.68231 16.3517L1.61328 18.697C3.68398 22.2859 7.56308 24.7026 12.0003 24.7026C14.177 24.7026 16.2309 24.1165 18.0003 23.0952V23.0896L15.6496 19.0204C14.5744 19.644 13.3302 20.007 12.0003 20.007Z" fill="#12B347"/>
<path d="M18 23.0952V23.0896L15.6494 19.0204C14.5741 19.644 13.33 20.007 12 20.007V24.7026C14.1767 24.7026 16.2308 24.1165 18 23.0952Z" fill="#0F993E"/>
<path d="M4.69566 12.7027C4.69566 11.3729 5.05856 10.1288 5.68205 9.0536L1.61302 6.70825C0.586031 8.47202 0 10.5204 0 12.7027C0 14.885 0.586031 16.9333 1.61302 18.6971L5.68205 16.3518C5.05856 15.2766 4.69566 14.0325 4.69566 12.7027Z" fill="#FFD500"/>
<path d="M12.0003 5.39829C13.7595 5.39829 15.3755 6.02342 16.6377 7.06325C16.9491 7.31975 17.4017 7.30123 17.6869 7.016L19.9027 4.80021C20.2263 4.47659 20.2033 3.94686 19.8575 3.64695C17.7428 1.81231 14.9912 0.702637 12.0003 0.702637C7.56308 0.702637 3.68398 3.11937 1.61328 6.70821L5.68231 9.05356C6.94723 6.87232 9.30242 5.39829 12.0003 5.39829Z" fill="#FF4B26"/>
<path d="M16.6374 7.06325C16.9488 7.31975 17.4015 7.30123 17.6866 7.016L19.9024 4.80021C20.226 4.47659 20.2029 3.94686 19.8573 3.64695C17.7425 1.81226 14.991 0.702637 12 0.702637V5.39829C13.7592 5.39829 15.3752 6.02342 16.6374 7.06325Z" fill="#D93F21"/>
</svg>
