<svg width="16" height="16" viewBox="0 0 16 16" fill="none" xmlns="http://www.w3.org/2000/svg">
<g clipPath="url(#clip0_2327_72599)">
<path d="M8 0C6.41775 0 4.87104 0.469192 3.55544 1.34824C2.23985 2.22729 1.21447 3.47672 0.608967 4.93853C0.00346629 6.40034 -0.15496 8.00887 0.153721 9.56072C0.462403 11.1126 1.22433 12.538 2.34315 13.6569C3.46197 14.7757 4.88743 15.5376 6.43928 15.8463C7.99113 16.155 9.59966 15.9965 11.0615 15.391C12.5233 14.7855 13.7727 13.7602 14.6518 12.4446C15.5308 11.129 16 9.58225 16 8C15.9977 5.87897 15.1541 3.84547 13.6543 2.34568C12.1545 0.845885 10.121 0.00229405 8 0ZM8 14.6667C6.68146 14.6667 5.39253 14.2757 4.2962 13.5431C3.19987 12.8106 2.34539 11.7694 1.84081 10.5512C1.33622 9.33305 1.2042 7.9926 1.46144 6.6994C1.71867 5.40619 2.35361 4.2183 3.28596 3.28595C4.21831 2.3536 5.4062 1.71867 6.6994 1.46143C7.99261 1.2042 9.33305 1.33622 10.5512 1.8408C11.7694 2.34539 12.8106 3.19987 13.5431 4.2962C14.2757 5.39253 14.6667 6.68146 14.6667 8C14.6647 9.76751 13.9617 11.4621 12.7119 12.7119C11.4621 13.9617 9.76752 14.6647 8 14.6667Z" fill="#161618"/>
<path d="M11.1358 4.86222C11.0108 4.73724 10.8412 4.66703 10.6644 4.66703C10.4877 4.66703 10.3181 4.73724 10.1931 4.86222L7.99778 7.05755L5.80244 4.86222C5.74094 4.79854 5.66738 4.74776 5.58605 4.71282C5.50471 4.67788 5.41723 4.65949 5.32871 4.65872C5.24019 4.65795 5.1524 4.67482 5.07047 4.70834C4.98854 4.74186 4.91411 4.79136 4.85151 4.85395C4.78892 4.91655 4.73941 4.99098 4.70589 5.07291C4.67237 5.15485 4.65551 5.24263 4.65628 5.33115C4.65704 5.41967 4.67544 5.50715 4.71037 5.58849C4.74531 5.66982 4.7961 5.74339 4.85978 5.80488L7.05511 8.00022L4.85978 10.1956C4.7961 10.257 4.74531 10.3306 4.71037 10.4119C4.67544 10.4933 4.65704 10.5808 4.65628 10.6693C4.65551 10.7578 4.67237 10.8456 4.70589 10.9275C4.73941 11.0094 4.78892 11.0839 4.85151 11.1465C4.91411 11.2091 4.98854 11.2586 5.07047 11.2921C5.1524 11.3256 5.24019 11.3425 5.32871 11.3417C5.41723 11.3409 5.50471 11.3226 5.58605 11.2876C5.66738 11.2527 5.74094 11.2019 5.80244 11.1382L7.99778 8.94288L10.1931 11.1382C10.3188 11.2597 10.4872 11.3269 10.662 11.3253C10.8368 11.3238 11.004 11.2537 11.1277 11.1301C11.2513 11.0065 11.3214 10.8393 11.3229 10.6645C11.3244 10.4897 11.2572 10.3213 11.1358 10.1956L8.94044 8.00022L11.1358 5.80488C11.2608 5.67987 11.331 5.51033 11.331 5.33355C11.331 5.15677 11.2608 4.98724 11.1358 4.86222Z" fill="#161618"/>
</g>
<defs>
<clipPath id="clip0_2327_72599">
<rect width="16" height="16" fill="white"/>
</clipPath>
</defs>
</svg>
