<svg width="16" height="17" viewBox="0 0 16 17" fill="none" xmlns="http://www.w3.org/2000/svg">
<path d="M13.2709 4.5166H12.9199V7.24476C12.9199 9.26601 11.2755 10.9104 9.25428 10.9104H4.01562V11.2615C4.01562 12.7658 5.2395 13.9895 6.74378 13.9895H12.348L15.2302 16.3914C15.3145 16.4616 15.4207 16.5 15.5304 16.5C15.7881 16.5 15.999 16.2909 15.999 16.0313V7.24476C15.999 5.7382 14.7802 4.5166 13.2709 4.5166Z" fill="white"/>
<path d="M11.9834 7.24475V3.22816C11.9834 1.71888 10.762 0.5 9.25525 0.5H2.72816C1.21888 0.5 0 1.72144 0 3.22813V12.0147C0 12.2742 0.210938 12.4834 0.468625 12.4834C0.576281 12.4834 0.683 12.4463 0.768812 12.3747L3.651 9.97294H9.25525C10.7595 9.97294 11.9834 8.74919 11.9834 7.24478L11.9834 7.24475ZM5.99169 7.96459C5.73294 7.96459 5.52294 7.75463 5.52294 7.49584C5.52294 7.23706 5.73294 7.02709 5.99169 7.02709C6.25037 7.02709 6.46044 7.23706 6.46044 7.49584C6.46044 7.75463 6.25037 7.96459 5.99169 7.96459ZM6.46044 5.89147V5.98962C6.46044 6.24841 6.2505 6.45837 5.99169 6.45837C5.73278 6.45837 5.52294 6.24841 5.52294 5.98962V5.48756C5.52294 5.22863 5.73278 5.01881 5.99169 5.01881C6.42528 5.01881 6.77806 4.66591 6.77806 4.23231C6.77806 3.79856 6.42528 3.44581 5.99169 3.44581C5.78125 3.44581 5.58388 3.52759 5.43544 3.67603C5.287 3.82447 5.20519 4.02184 5.20519 4.23169C5.20519 4.49059 4.99537 4.70081 4.73644 4.70081C4.4775 4.70081 4.26769 4.49109 4.26769 4.23231V4.23169C4.26769 3.7715 4.44703 3.33862 4.77247 3.01319C5.09803 2.68762 5.53075 2.50831 5.99109 2.50831C6.94225 2.50831 7.71556 3.28175 7.71556 4.23231C7.71556 5.0205 7.18397 5.68687 6.46044 5.89147Z" fill="white"/>
</svg>
