<svg width="16" height="17" viewBox="0 0 16 17" fill="none" xmlns="http://www.w3.org/2000/svg">
<path d="M13.38 2.1735C13.1898 2.05248 12.972 1.98166 12.747 1.96767C12.522 1.95368 12.2971 1.99697 12.0933 2.0935C11.9333 2.1735 11.7933 2.26017 11.6467 2.34684C11.3651 2.55958 11.0194 2.67009 10.6667 2.66017C10.3142 2.66799 9.96923 2.5577 9.68667 2.34684C9.19273 2.00196 8.60232 1.82227 8 1.8335C7.39775 1.82273 6.80747 2.00238 6.31334 2.34684C6.03054 2.55724 5.68574 2.66748 5.33334 2.66017C4.98071 2.66903 4.63541 2.55863 4.35334 2.34684C4.21334 2.26017 4.06667 2.1735 3.90667 2.0935C3.70321 1.9966 3.47851 1.95285 3.25355 1.96633C3.0286 1.97981 2.81073 2.0501 2.62031 2.17061C2.42988 2.29113 2.2731 2.45794 2.16463 2.65547C2.05615 2.85301 1.99951 3.07481 2 3.30017V13.7002C1.99951 13.9255 2.05615 14.1473 2.16463 14.3449C2.2731 14.5424 2.42988 14.7092 2.62031 14.8297C2.81073 14.9502 3.0286 15.0205 3.25355 15.034C3.47851 15.0475 3.70321 15.0037 3.90667 14.9068C4.06667 14.8268 4.21334 14.7402 4.35334 14.6535C4.63541 14.4417 4.98071 14.3313 5.33334 14.3402C5.68801 14.3314 6.03539 14.4417 6.32 14.6535C6.81229 14.9966 7.40002 15.1762 8 15.1668C8.60005 15.1767 9.18792 14.997 9.68 14.6535C9.96437 14.4412 10.3119 14.3308 10.6667 14.3402C11.0194 14.3303 11.3651 14.4408 11.6467 14.6535C11.7911 14.7436 11.9402 14.8259 12.0933 14.9002C12.2963 14.9968 12.5204 15.0406 12.7448 15.0274C12.9692 15.0143 13.1866 14.9446 13.3769 14.8248C13.5671 14.7051 13.724 14.5392 13.833 14.3426C13.9419 14.1459 13.9994 13.925 14 13.7002V3.30017C14 3.07533 13.9432 2.85413 13.8348 2.65715C13.7264 2.46017 13.57 2.29379 13.38 2.1735ZM5.33334 10.5002C5.20148 10.5002 5.07259 10.4611 4.96296 10.3878C4.85332 10.3146 4.76788 10.2104 4.71742 10.0886C4.66696 9.96681 4.65376 9.83276 4.67948 9.70344C4.7052 9.57412 4.7687 9.45533 4.86193 9.3621C4.95517 9.26886 5.07396 9.20537 5.20328 9.17965C5.3326 9.15392 5.46664 9.16713 5.58846 9.21758C5.71028 9.26804 5.8144 9.35349 5.88765 9.46312C5.9609 9.57276 6 9.70165 6 9.8335C6 10.0103 5.92977 10.1799 5.80474 10.3049C5.67972 10.4299 5.51015 10.5002 5.33334 10.5002ZM5.33334 7.8335C5.20148 7.8335 5.07259 7.7944 4.96296 7.72115C4.85332 7.6479 4.76788 7.54378 4.71742 7.42196C4.66696 7.30014 4.65376 7.1661 4.67948 7.03678C4.7052 6.90746 4.7687 6.78867 4.86193 6.69543C4.95517 6.6022 5.07396 6.5387 5.20328 6.51298C5.3326 6.48726 5.46664 6.50046 5.58846 6.55092C5.71028 6.60138 5.8144 6.68682 5.88765 6.79646C5.9609 6.90609 6 7.03498 6 7.16684C6 7.34365 5.92977 7.51322 5.80474 7.63824C5.67972 7.76327 5.51015 7.8335 5.33334 7.8335ZM10.6667 10.5002H7.33334C7.15653 10.5002 6.98696 10.4299 6.86193 10.3049C6.73691 10.1799 6.66667 10.0103 6.66667 9.8335C6.66667 9.65669 6.73691 9.48712 6.86193 9.3621C6.98696 9.23708 7.15653 9.16684 7.33334 9.16684H10.6667C10.8435 9.16684 11.0131 9.23708 11.1381 9.3621C11.2631 9.48712 11.3333 9.65669 11.3333 9.8335C11.3333 10.0103 11.2631 10.1799 11.1381 10.3049C11.0131 10.4299 10.8435 10.5002 10.6667 10.5002ZM10.6667 7.8335H7.33334C7.15653 7.8335 6.98696 7.76327 6.86193 7.63824C6.73691 7.51322 6.66667 7.34365 6.66667 7.16684C6.66667 6.99003 6.73691 6.82046 6.86193 6.69543C6.98696 6.57041 7.15653 6.50017 7.33334 6.50017H10.6667C10.8435 6.50017 11.0131 6.57041 11.1381 6.69543C11.2631 6.82046 11.3333 6.99003 11.3333 7.16684C11.3333 7.34365 11.2631 7.51322 11.1381 7.63824C11.0131 7.76327 10.8435 7.8335 10.6667 7.8335Z" fill="white"/>
</svg>
