<svg width="22" height="22" viewBox="0 0 22 22" fill="none" xmlns="http://www.w3.org/2000/svg">
<path d="M20.1096 16.5757C21.1392 14.8985 21.6829 12.9683 21.6802 11.0003C21.6829 9.03216 21.1392 7.10169 20.1096 5.42436L20.1039 5.415C19.1487 3.85817 17.8103 2.5723 16.2165 1.68026C14.6226 0.788223 12.8267 0.319824 11.0002 0.319824C9.17372 0.319824 7.37776 0.788223 5.78393 1.68026C4.1901 2.5723 2.85167 3.85817 1.89652 5.415L1.89076 5.42436C0.863774 7.10282 0.320312 9.03231 0.320312 11C0.320312 12.9678 0.863774 14.8973 1.89076 16.5757L1.89676 16.5853C2.85194 18.1421 4.19038 19.4279 5.7842 20.3199C7.37802 21.2118 9.17395 21.6802 11.0004 21.6802C12.8268 21.6801 14.6227 21.2117 16.2165 20.3197C17.8103 19.4277 19.1487 18.1419 20.1039 16.5851L20.1096 16.5757ZM12.3653 19.8496C12.1618 20.046 11.9275 20.2078 11.6717 20.3286C11.4619 20.4283 11.2324 20.48 11.0001 20.48C10.7677 20.48 10.5383 20.4283 10.3284 20.3286C9.84185 20.0801 9.42532 19.7135 9.11692 19.2625C8.48712 18.3523 8.0204 17.3396 7.73764 16.2695C8.82404 16.2026 9.91156 16.1685 11.0002 16.1672C12.0884 16.1672 13.176 16.2013 14.263 16.2695C14.1064 16.8196 13.9109 17.358 13.6779 17.8804C13.371 18.615 12.9254 19.2836 12.3653 19.8496ZM1.54108 11.6H5.84884C5.87691 12.802 6.00722 13.9995 6.23836 15.1794C5.06076 15.2831 3.8862 15.4255 2.71468 15.6066C2.02858 14.3757 1.62752 13.0066 1.54108 11.6ZM2.71468 6.39372C3.88572 6.57516 5.06068 6.71756 6.23956 6.82092C6.00801 8.0007 5.87746 9.19807 5.84932 10.4H1.54108C1.62755 8.9936 2.02861 7.62451 2.71468 6.39372ZM9.63508 2.15052C9.83862 1.9541 10.0729 1.79228 10.3287 1.67148C10.5385 1.57176 10.768 1.52003 11.0003 1.52003C11.2327 1.52003 11.4621 1.57176 11.672 1.67148C12.1585 1.92001 12.5751 2.28653 12.8835 2.73756C13.5133 3.64773 13.98 4.6605 14.2628 5.7306C13.1764 5.79748 12.0888 5.83156 11.0002 5.83284C9.91204 5.83284 8.82444 5.79876 7.7374 5.7306C7.89394 5.18042 8.08948 4.6421 8.32252 4.11972C8.62938 3.38504 9.07504 2.71644 9.63508 2.15052ZM20.4593 10.4H16.1516C16.1235 9.19803 15.9932 8.00059 15.762 6.82068C16.9396 6.717 18.1142 6.5746 19.2857 6.39348C19.9718 7.62434 20.3729 8.99352 20.4593 10.4ZM7.44532 15.086C7.21067 13.938 7.07815 12.7714 7.04932 11.6H14.9513C14.9228 12.7715 14.7905 13.9381 14.556 15.0863C13.372 15.0085 12.1868 14.9688 11.0002 14.9672C9.8146 14.9672 8.62964 15.0068 7.44532 15.086ZM14.5551 6.91404C14.7897 8.06207 14.9222 9.22862 14.9511 10.4H7.04932C7.07788 9.22856 7.21016 8.06192 7.4446 6.9138C8.6286 6.99156 9.81388 7.03124 11.0004 7.03284C12.186 7.03284 13.371 6.99316 14.5553 6.9138L14.5551 6.91404ZM16.1511 11.6H20.4593C20.3728 13.0065 19.9718 14.3756 19.2857 15.6064C18.1145 15.4249 16.9396 15.2825 15.7608 15.1792C15.9924 13.9994 16.1229 12.802 16.1511 11.6ZM18.5662 5.28924C17.5422 5.43692 16.5152 5.55388 15.4853 5.64012C15.3002 4.95084 15.0615 4.27711 14.7713 3.62508C14.5063 3.02509 14.1729 2.45773 13.7777 1.93428C15.6875 2.52003 17.3635 3.69424 18.5662 5.28924ZM4.297 4.2966C5.39258 3.19997 6.74045 2.38882 8.22244 1.93428C8.19988 1.96356 8.17684 1.9914 8.15476 2.02092C7.39299 3.11745 6.83811 4.34402 6.51748 5.64012C5.4874 5.55292 4.45972 5.43596 3.43444 5.28924C3.69883 4.93895 3.98703 4.60728 4.297 4.2966ZM3.43444 16.7108C4.45828 16.5632 5.48524 16.4462 6.51532 16.36C6.70041 17.0492 6.93914 17.723 7.22932 18.375C7.4943 18.975 7.82771 19.5423 8.22292 20.0658C6.31309 19.48 4.63716 18.3058 3.43444 16.7108ZM17.7039 17.7035C16.6083 18.8001 15.2604 19.6113 13.7784 20.0658C13.801 20.0365 13.824 20.0087 13.8461 19.9792C14.6079 18.8826 15.1628 17.6561 15.4834 16.36C16.5135 16.4472 17.5412 16.5641 18.5664 16.7108C18.302 17.0611 18.0138 17.3928 17.7039 17.7035Z" fill="black"/>
</svg>
