<svg width="15" height="15" viewBox="0 0 512 512" fill="none" xmlns="http://www.w3.org/2000/svg">
<path fill-rule="evenodd" clip-rule="evenodd" d="M149.973 58.816C151.348 53.3278 154.847 48.6107 159.7 45.7021C164.553 42.7936 170.363 41.9319 175.851 43.3066L261.184 64.64C264.502 65.4676 267.573 67.0808 270.137 69.3435C272.701 71.6062 274.683 74.4522 275.917 77.6415C277.151 80.8308 277.6 84.27 277.227 87.6692C276.853 91.0684 275.668 94.328 273.771 97.1733L231.104 161.173C227.964 165.884 223.081 169.153 217.53 170.264C211.979 171.374 206.214 170.233 201.504 167.093C196.794 163.953 193.524 159.07 192.414 153.519C191.304 147.968 192.444 142.204 195.584 137.493L211.691 113.344C186.809 121.09 164.387 135.21 146.649 154.301C128.912 173.392 116.477 196.791 110.578 222.174C104.68 247.557 105.524 274.042 113.026 298.998C120.528 323.954 134.427 346.514 153.344 364.437C157.455 368.33 159.85 373.696 160.004 379.355C160.158 385.014 158.058 390.503 154.165 394.613C150.273 398.724 144.907 401.12 139.248 401.274C133.588 401.428 128.1 399.327 123.989 395.435C105.017 377.508 89.9082 355.892 79.5922 331.914C69.2762 307.936 63.9702 282.103 64.0001 256C63.9943 220.749 73.6934 186.176 92.0344 156.072C110.375 125.968 136.65 101.494 167.979 85.3333L165.483 84.6933C159.995 83.3183 155.277 79.8195 152.369 74.9666C149.46 70.1137 148.599 64.3042 149.973 58.816ZM365.269 123.179C367.303 121.251 369.697 119.742 372.313 118.739C374.93 117.737 377.719 117.259 380.52 117.335C383.321 117.41 386.08 118.036 388.639 119.178C391.199 120.32 393.508 121.955 395.435 123.989C429.244 159.619 448.064 206.882 448 256C448.01 292.041 437.875 327.357 418.755 357.908C399.635 388.459 372.302 413.011 339.883 428.757C344.728 431.054 348.531 435.092 350.533 440.066C352.536 445.04 352.592 450.586 350.691 455.6C348.789 460.613 345.069 464.727 340.271 467.122C335.474 469.517 329.95 470.017 324.8 468.523L250.133 447.189C246.902 446.267 243.934 444.594 241.472 442.307C239.01 440.02 237.123 437.183 235.965 434.029C234.806 430.874 234.41 427.491 234.807 424.154C235.204 420.817 236.384 417.621 238.251 414.827L280.917 350.827C284.058 346.119 288.939 342.852 294.488 341.744C300.037 340.636 305.799 341.777 310.507 344.917C315.214 348.057 318.481 352.939 319.59 358.488C320.698 364.037 319.556 369.799 316.416 374.507L300.309 398.656C324.534 391.118 346.44 377.535 363.962 359.188C381.485 340.84 394.046 318.333 400.462 293.787C406.878 269.241 406.937 243.466 400.635 218.891C394.332 194.316 381.875 171.751 364.437 153.323C360.553 149.214 358.459 143.731 358.615 138.078C358.771 132.426 361.164 127.067 365.269 123.179Z" fill="black"/>
</svg>
