<svg width="22" height="23" viewBox="0 0 22 23" fill="none" xmlns="http://www.w3.org/2000/svg">
<g clipPath="url(#clip0_1219_27688)">
<path d="M2.64032 0.696777C1.2217 0.696777 0.0677127 1.85084 0.0677127 3.26938C0.0677127 4.68792 1.22122 5.8419 2.64032 5.8419C4.05941 5.8419 5.21292 4.68792 5.21292 3.26938C5.21292 1.85084 4.05886 0.696777 2.64032 0.696777ZM10.9665 0.696777C9.54796 0.696777 8.3939 1.85084 8.3939 3.26938C8.3939 4.68792 9.54796 5.8419 10.9665 5.8419C12.3851 5.8419 13.5393 4.68792 13.5393 3.26938C13.5393 1.85084 12.3856 0.696777 10.9665 0.696777ZM19.4274 5.84198C20.8457 5.84198 22 4.688 22 3.26946C22 1.85092 20.8467 0.696777 19.4274 0.696777C18.0081 0.696777 16.8548 1.85084 16.8548 3.26938C16.8548 4.68792 18.009 5.84198 19.4274 5.84198ZM2.57308 14.0854C3.99162 14.0854 5.14592 12.9317 5.14592 11.5129C5.14592 10.094 3.99162 8.94004 2.57308 8.94004C1.15454 8.94004 0 10.0941 0 11.5129C0 12.9317 1.15454 14.0854 2.57308 14.0854ZM10.8993 14.0854C12.3176 14.0854 13.4719 12.9317 13.4719 11.5129C13.4719 10.094 12.3185 8.94004 10.8993 8.94004C9.48025 8.94004 8.32666 10.094 8.32666 11.5129C8.32666 12.9317 9.48073 14.0854 10.8993 14.0854ZM19.3609 14.0854C20.7797 14.0854 21.9335 12.9317 21.9335 11.5129C21.9335 10.094 20.7797 8.94004 19.3609 8.94004C17.942 8.94004 16.7873 10.094 16.7873 11.5129C16.7873 12.9317 17.9416 14.0854 19.3609 14.0854ZM2.63195 17.1579C1.21341 17.1579 0.0588702 18.3116 0.0588702 19.7305C0.0588702 21.1488 1.21341 22.303 2.63195 22.303C4.05049 22.303 5.20447 21.1493 5.20447 19.7305C5.20447 18.3116 4.05049 17.1579 2.63195 17.1579ZM10.9586 17.1579C9.54 17.1579 8.38554 18.3116 8.38554 19.7305C8.38554 21.1488 9.5396 22.303 10.9586 22.303C12.3769 22.303 13.5311 21.1493 13.5311 19.7305C13.5311 18.3116 12.3769 17.1579 10.9586 17.1579ZM19.4193 17.1579C18.001 17.1579 16.8467 18.3116 16.8467 19.7305C16.8467 21.1488 18.001 22.303 19.4193 22.303C20.8381 22.303 21.9919 21.1493 21.9919 19.7305C21.9919 18.3116 20.8376 17.1579 19.4193 17.1579Z" fill="#46474F"/>
</g>
<defs>
<clipPath id="clip0_1219_27688">
<rect width="22" height="22" fill="white" transform="translate(0 0.5)"/>
</clipPath>
</defs>
</svg>
