<svg width="19" height="18" viewBox="0 0 19 18" fill="none" xmlns="http://www.w3.org/2000/svg">
<path d="M7.45523 8.42256L14.2381 4.50651L11.048 2.66467L4.26508 6.58073L7.45523 8.42256ZM7.19531 8.89616L0.398438 4.97979V12.8131L7.19531 16.7295V8.89616ZM13.2109 12.9062H13.9531V13.6483H13.2109V12.9062ZM7.74219 8.89616V16.7295L11.4531 14.5836V8.92889C11.4516 8.61771 11.5738 8.31868 11.7928 8.09758C12.0117 7.87648 12.3096 7.75142 12.6207 7.74991H13.5938C13.6492 7.54927 13.7684 7.37212 13.9334 7.24527C14.0985 7.11841 14.3003 7.04874 14.5085 7.04678H14.5V4.97979L7.74219 8.89616Z" fill="#7E7D7D"/>
<path d="M16.0953 7.59375H14.5063C14.2871 7.59375 14.1094 7.77145 14.1094 7.99066V8.01715C14.1094 8.23636 14.2871 8.41406 14.5063 8.41406H16.0953C16.3145 8.41406 16.4922 8.23636 16.4922 8.01715V7.99066C16.4922 7.77145 16.3145 7.59375 16.0953 7.59375Z" fill="#7E7D7D"/>
<path d="M10.5006 2.34897L7.45473 0.590454L0.671875 4.50655L3.7177 6.26506L10.5006 2.34897ZM17.9728 8.29682H16.9891C16.9304 8.49037 16.8106 8.6597 16.6477 8.77943C16.4847 8.89915 16.2873 8.96282 16.085 8.96088H14.508C14.3057 8.96282 14.1083 8.89915 13.9453 8.77942C13.7823 8.6597 13.6625 8.49037 13.6039 8.29682H12.6202C12.5379 8.29749 12.4566 8.31438 12.3809 8.34652C12.3051 8.37867 12.2364 8.42543 12.1788 8.48414C12.1211 8.54286 12.0756 8.61236 12.0448 8.68868C12.0141 8.76501 11.9987 8.84665 11.9995 8.92893V16.8235C11.999 16.9048 12.0148 16.9854 12.0459 17.0606C12.077 17.1357 12.1228 17.2039 12.1807 17.2611C12.2385 17.3183 12.3072 17.3633 12.3826 17.3936C12.4581 17.4239 12.5389 17.4388 12.6202 17.4374H17.9728C18.0545 17.439 18.1357 17.4242 18.2117 17.3941C18.2876 17.3639 18.3569 17.319 18.4153 17.2619C18.4738 17.2047 18.5203 17.1366 18.5522 17.0613C18.5841 16.986 18.6007 16.9052 18.6011 16.8235V8.92893C18.601 8.76196 18.5349 8.60178 18.4172 8.48336C18.2995 8.36493 18.1397 8.29787 17.9728 8.29682ZM12.6636 10.134C12.6633 10.0982 12.6701 10.0626 12.6837 10.0294C12.6972 9.99615 12.7171 9.96591 12.7423 9.9404C12.7675 9.91488 12.7975 9.89458 12.8306 9.88067C12.8636 9.86676 12.8991 9.85951 12.935 9.85932H14.2231C14.2961 9.85949 14.366 9.88844 14.4178 9.93988C14.4695 9.99131 14.4989 10.0611 14.4995 10.134V10.318C14.4991 10.3906 14.47 10.4601 14.4184 10.5113C14.3669 10.5624 14.2972 10.591 14.2246 10.5908C14.167 10.5927 14.1104 10.5757 14.0635 10.5424C14.0165 10.509 13.9818 10.4612 13.9646 10.4062H13.2104V11.1484H13.2212C13.2937 11.1484 13.3633 11.1772 13.4146 11.2285C13.4658 11.2798 13.4946 11.3493 13.4946 11.4218C13.4946 11.4943 13.4658 11.5639 13.4146 11.6152C13.3633 11.6664 13.2937 11.6953 13.2212 11.6953H12.935C12.8992 11.6953 12.8638 11.6882 12.8307 11.6744C12.7977 11.6607 12.7677 11.6405 12.7425 11.6151C12.7172 11.5898 12.6973 11.5596 12.6837 11.5265C12.6702 11.4934 12.6633 11.4579 12.6636 11.4221V10.134ZM12.6636 12.6328C12.6636 12.5602 12.6924 12.4907 12.7436 12.4394C12.7949 12.3881 12.8645 12.3593 12.937 12.3593H14.2261C14.2986 12.3593 14.3681 12.3881 14.4194 12.4394C14.4707 12.4907 14.4995 12.5602 14.4995 12.6328V13.9218C14.4995 13.9943 14.4707 14.0639 14.4194 14.1152C14.3681 14.1664 14.2986 14.1953 14.2261 14.1953H12.937C12.8645 14.1953 12.7949 14.1664 12.7436 14.1152C12.6924 14.0639 12.6636 13.9943 12.6636 13.9218V12.6328ZM13.2213 16.6953H12.935C12.8997 16.6963 12.8646 16.6902 12.8317 16.6774C12.7988 16.6646 12.7688 16.6453 12.7435 16.6207C12.7181 16.5961 12.698 16.5667 12.6843 16.5341C12.6706 16.5016 12.6635 16.4667 12.6636 16.4314V15.1433C12.6627 15.0699 12.6907 14.999 12.7414 14.946C12.7921 14.8929 12.8616 14.8618 12.935 14.8593H14.2231C14.297 14.8616 14.3671 14.8925 14.4187 14.9454C14.4702 14.9984 14.4992 15.0693 14.4995 15.1433V15.4067C14.4979 15.4786 14.4683 15.5471 14.4168 15.5974C14.3654 15.6476 14.2963 15.6758 14.2244 15.6757C14.1525 15.6756 14.0834 15.6474 14.0321 15.597C13.9808 15.5466 13.9513 15.4781 13.9498 15.4062H13.2104V16.1484H13.2213C13.2938 16.1484 13.3633 16.1772 13.4146 16.2285C13.4659 16.2798 13.4947 16.3493 13.4947 16.4218C13.4947 16.4943 13.4659 16.5639 13.4146 16.6152C13.3633 16.6664 13.2938 16.6953 13.2213 16.6953ZM15.2394 15.6305L14.2452 16.6247C14.2198 16.6501 14.1896 16.6702 14.1564 16.684C14.1233 16.6977 14.0877 16.7048 14.0518 16.7048C14.0159 16.7048 13.9803 16.6977 13.9472 16.684C13.914 16.6702 13.8838 16.6501 13.8584 16.6247L13.4214 16.1877C13.396 16.1623 13.3758 16.1322 13.3621 16.099C13.3483 16.0658 13.3413 16.0303 13.3413 15.9944C13.3413 15.9585 13.3483 15.9229 13.3621 15.8897C13.3758 15.8565 13.396 15.8264 13.4214 15.801C13.4468 15.7756 13.4769 15.7555 13.5101 15.7417C13.5433 15.728 13.5788 15.7209 13.6147 15.7209C13.6506 15.7209 13.6862 15.728 13.7194 15.7417C13.7525 15.7555 13.7827 15.7756 13.8081 15.801L14.0517 16.0446L14.8525 15.2439C14.9037 15.1926 14.9733 15.1638 15.0458 15.1638C15.1183 15.1638 15.1879 15.1926 15.2392 15.2439C15.2905 15.2951 15.3193 15.3647 15.3193 15.4372C15.3193 15.5097 15.2905 15.5793 15.2392 15.6306L15.2394 15.6305ZM15.2394 10.5817L14.2452 11.5759C14.2198 11.6013 14.1896 11.6214 14.1564 11.6352C14.1233 11.6489 14.0877 11.656 14.0518 11.656C14.0159 11.656 13.9803 11.6489 13.9472 11.6352C13.914 11.6214 13.8838 11.6013 13.8584 11.5759L13.4214 11.1389C13.396 11.1135 13.3758 11.0834 13.3621 11.0502C13.3483 11.017 13.3413 10.9815 13.3413 10.9456C13.3413 10.9097 13.3483 10.8741 13.3621 10.8409C13.3758 10.8077 13.396 10.7776 13.4214 10.7522C13.4468 10.7268 13.4769 10.7067 13.5101 10.6929C13.5433 10.6792 13.5788 10.6721 13.6147 10.6721C13.6506 10.6721 13.6862 10.6792 13.7194 10.6929C13.7525 10.7067 13.7827 10.7268 13.8081 10.7522L14.0517 10.9958L14.8525 10.1951C14.9037 10.1438 14.9733 10.115 15.0458 10.115C15.1183 10.115 15.1879 10.1438 15.2392 10.1951C15.2905 10.2463 15.3193 10.3159 15.3193 10.3884C15.3193 10.4609 15.2905 10.5305 15.2392 10.5818L15.2394 10.5817ZM17.658 16.0703H15.9405C15.868 16.0703 15.7985 16.0414 15.7472 15.9902C15.6959 15.9389 15.6671 15.8693 15.6671 15.7968C15.6671 15.7243 15.6959 15.6548 15.7472 15.6035C15.7985 15.5522 15.868 15.5234 15.9405 15.5234H17.658C17.7305 15.5234 17.8 15.5522 17.8513 15.6035C17.9026 15.6548 17.9314 15.7243 17.9314 15.7968C17.9314 15.8693 17.9026 15.9389 17.8513 15.9902C17.8 16.0414 17.7305 16.0703 17.658 16.0703ZM17.658 13.5703H15.9405C15.868 13.5703 15.7985 13.5414 15.7472 13.4902C15.6959 13.4389 15.6671 13.3693 15.6671 13.2968C15.6671 13.2243 15.6959 13.1548 15.7472 13.1035C15.7985 13.0522 15.868 13.0234 15.9405 13.0234H17.658C17.7305 13.0234 17.8 13.0522 17.8513 13.1035C17.9026 13.1548 17.9314 13.2243 17.9314 13.2968C17.9314 13.3693 17.9026 13.4389 17.8513 13.4902C17.8 13.5414 17.7305 13.5703 17.658 13.5703ZM17.658 11.0703H15.9405C15.868 11.0703 15.7985 11.0414 15.7472 10.9902C15.6959 10.9389 15.6671 10.8693 15.6671 10.7968C15.6671 10.7243 15.6959 10.6548 15.7472 10.6035C15.7985 10.5522 15.868 10.5234 15.9405 10.5234H17.658C17.7305 10.5234 17.8 10.5522 17.8513 10.6035C17.9026 10.6548 17.9314 10.7243 17.9314 10.7968C17.9314 10.8693 17.9026 10.9389 17.8513 10.9902C17.8 11.0414 17.7305 11.0703 17.658 11.0703Z" fill="#7E7D7D"/>
</svg>
