<svg width="20" height="20" viewBox="0 0 20 20" fill="none" xmlns="http://www.w3.org/2000/svg">
<path d="M19.6004 19.3027V12.2707C19.6004 8.81466 18.8564 6.17466 14.8244 6.17466C12.8804 6.17466 11.5844 7.23066 11.0564 8.23866H11.0084V6.48666H7.19239V19.3027H11.1764V12.9427C11.1764 11.2627 11.4884 9.65466 13.5524 9.65466C15.5924 9.65466 15.6164 11.5507 15.6164 13.0387V19.2787H19.6004V19.3027ZM0.712391 6.48666H4.69639V19.3027H0.712391V6.48666ZM2.70439 0.102661C1.43239 0.102661 0.400391 1.13466 0.400391 2.40666C0.400391 3.67866 1.43239 4.73466 2.70439 4.73466C3.97639 4.73466 5.00839 3.67866 5.00839 2.40666C5.00839 1.13466 3.97639 0.102661 2.70439 0.102661Z" fill="#0077B5"/>
</svg>
