<svg width="24" height="25" viewBox="0 0 24 25" fill="none" xmlns="http://www.w3.org/2000/svg">
<path d="M9.75 12.8335C9.75 14.074 10.7595 15.0835 12 15.0835C13.2405 15.0835 14.25 14.074 14.25 12.8335C14.25 11.593 13.2405 10.5835 12 10.5835C10.7595 10.5835 9.75 11.593 9.75 12.8335ZM9.75 20.3335C9.75 21.574 10.7595 22.5835 12 22.5835C13.2405 22.5835 14.25 21.574 14.25 20.3335C14.25 19.093 13.2405 18.0835 12 18.0835C10.7595 18.0835 9.75 19.093 9.75 20.3335ZM9.75 5.3335C9.75 6.574 10.7595 7.5835 12 7.5835C13.2405 7.5835 14.25 6.574 14.25 5.3335C14.25 4.093 13.2405 3.0835 12 3.0835C10.7595 3.0835 9.75 4.093 9.75 5.3335Z" fill="black"/>
</svg>
