<svg width="16" height="14" viewBox="0 0 16 14" fill="none" xmlns="http://www.w3.org/2000/svg">
<path d="M15.2 7.8001H0.8C0.587827 7.8001 0.384344 7.71581 0.234315 7.56578C0.0842855 7.41575 0 7.21227 0 7.0001C0 6.78792 0.0842855 6.58444 0.234315 6.43441C0.384344 6.28438 0.587827 6.2001 0.8 6.2001H15.2C15.4122 6.2001 15.6157 6.28438 15.7657 6.43441C15.9157 6.58444 16 6.78792 16 7.0001C16 7.21227 15.9157 7.41575 15.7657 7.56578C15.6157 7.71581 15.4122 7.8001 15.2 7.8001ZM15.2 2.2001H0.8C0.587827 2.2001 0.384344 2.11581 0.234315 1.96578C0.0842855 1.81575 0 1.61227 0 1.4001C0 1.18792 0.0842855 0.984441 0.234315 0.834412C0.384344 0.684383 0.587827 0.600098 0.8 0.600098H15.2C15.4122 0.600098 15.6157 0.684383 15.7657 0.834412C15.9157 0.984441 16 1.18792 16 1.4001C16 1.61227 15.9157 1.81575 15.7657 1.96578C15.6157 2.11581 15.4122 2.2001 15.2 2.2001ZM15.2 13.4001H0.8C0.587827 13.4001 0.384344 13.3158 0.234315 13.1658C0.0842855 13.0158 0 12.8123 0 12.6001C0 12.3879 0.0842855 12.1844 0.234315 12.0344C0.384344 11.8844 0.587827 11.8001 0.8 11.8001H15.2C15.4122 11.8001 15.6157 11.8844 15.7657 12.0344C15.9157 12.1844 16 12.3879 16 12.6001C16 12.8123 15.9157 13.0158 15.7657 13.1658C15.6157 13.3158 15.4122 13.4001 15.2 13.4001Z" fill="black"/>
</svg>
