<svg width="11" height="11" viewBox="0 0 11 11" fill="none" xmlns="http://www.w3.org/2000/svg">
<path d="M9.16406 4.58464V8.70964C9.16406 8.83119 9.11577 8.94777 9.02982 9.03373C8.94387 9.11968 8.82729 9.16797 8.70573 9.16797H2.28906C2.1675 9.16797 2.05093 9.11968 1.96497 9.03373C1.87902 8.94777 1.83073 8.83119 1.83073 8.70964V2.29297C1.83073 2.17141 1.87902 2.05483 1.96497 1.96888C2.05093 1.88292 2.1675 1.83464 2.28906 1.83464H6.41406C6.53562 1.83464 6.6522 1.78635 6.73815 1.70039C6.82411 1.61444 6.8724 1.49786 6.8724 1.3763C6.8724 1.25474 6.82411 1.13817 6.73815 1.05221C6.6522 0.966257 6.53562 0.917969 6.41406 0.917969H2.28906C1.92439 0.917969 1.57465 1.06283 1.31679 1.3207C1.05893 1.57856 0.914063 1.9283 0.914062 2.29297V8.70964C0.914063 9.07431 1.05893 9.42404 1.31679 9.68191C1.57465 9.93977 1.92439 10.0846 2.28906 10.0846H8.70573C9.0704 10.0846 9.42014 9.93977 9.678 9.68191C9.93586 9.42404 10.0807 9.07431 10.0807 8.70964V4.58464C10.0807 4.46308 10.0324 4.3465 9.94649 4.26055C9.86053 4.17459 9.74395 4.1263 9.6224 4.1263C9.50084 4.1263 9.38426 4.17459 9.29831 4.26055C9.21235 4.3465 9.16406 4.46308 9.16406 4.58464Z" fill="#7E7D7D"/>
<path d="M9.62427 0.917969H8.24927C8.12771 0.917969 8.01113 0.966257 7.92518 1.05221C7.83923 1.13817 7.79094 1.25474 7.79094 1.3763C7.79094 1.49786 7.83923 1.61444 7.92518 1.70039C8.01113 1.78635 8.12771 1.83464 8.24927 1.83464H8.51969L5.17385 5.17589C5.08755 5.26219 5.03906 5.37925 5.03906 5.5013C5.03906 5.62336 5.08755 5.74041 5.17385 5.82672C5.26016 5.91302 5.37722 5.96151 5.49927 5.96151C5.62133 5.96151 5.73838 5.91302 5.82469 5.82672L9.16594 2.48089V2.7513C9.16594 2.87286 9.21423 2.98944 9.30018 3.07539C9.38613 3.16135 9.50271 3.20964 9.62427 3.20964C9.74583 3.20964 9.86241 3.16135 9.94836 3.07539C10.0343 2.98944 10.0826 2.87286 10.0826 2.7513V1.3763C10.0826 1.25474 10.0343 1.13817 9.94836 1.05221C9.86241 0.966257 9.74583 0.917969 9.62427 0.917969Z" fill="#7E7D7D"/>
</svg>
