<svg width="18" height="22" viewBox="0 0 18 22" fill="none" xmlns="http://www.w3.org/2000/svg">
<path d="M16.5829 15.269L15.1867 13.294C14.9825 12.9875 14.8803 12.6471 14.8803 12.3065V7.33523C14.8803 3.82815 12.2244 0.967813 8.7853 0.797625C7.01476 0.69539 5.34617 1.34249 4.08626 2.56817C2.79234 3.79414 2.11123 5.42844 2.11123 7.19898V12.3407C2.11123 12.7154 2.00899 13.0558 1.80481 13.3282L0.408652 15.3032C0.136215 15.6779 0 16.1205 0 16.5631C0 17.7548 0.987478 18.7424 2.17923 18.7424H14.8459C16.0376 18.7424 17.0251 17.7549 17.0251 16.5631C16.9914 16.0862 16.8552 15.6436 16.5828 15.2689L16.5829 15.269Z" fill="#A4A4A4"/>
<path d="M10.6242 19.5254H6.33372C5.8571 19.5254 5.48242 19.9001 5.48242 20.3767C5.48242 20.8533 5.85709 21.228 6.33372 21.228H10.5901C11.0668 21.228 11.4414 20.8533 11.4414 20.3767C11.4414 19.8998 11.0668 19.5254 10.6242 19.5254Z" fill="#A4A4A4"/>
<circle cx="14.1506" cy="3.14477" r="3.14477" fill="#EC3C46"/>
</svg>
