<svg width="16" height="17" viewBox="0 0 16 17" fill="none" xmlns="http://www.w3.org/2000/svg">
<g clipPath="url(#clip0_3138_79119)">
<path d="M10.3438 4.28101H13.8191L10.3438 0.774414V4.28101Z" fill="#1D4ED8"/>
<path d="M14.0938 5.21875H9.40625V0.5H1.90625V16.5H14.0938V5.21875ZM7.53125 8.03125H8.46875V8.96875H7.53125V8.03125ZM5.1875 6.15625C5.18438 6.15478 3.78125 6.097 3.78125 4.75C3.78125 4.13997 4.17447 3.62488 4.71875 3.43062V2.40625H5.65625V3.43062C6.20053 3.62484 6.59375 4.14 6.59375 4.75H5.65625C5.65625 4.49137 5.44613 4.28125 5.1875 4.28125C4.92887 4.28125 4.71875 4.49137 4.71875 4.75C4.71875 5.00863 4.92887 5.21875 5.1875 5.21875C5.19062 5.22022 6.59375 5.278 6.59375 6.625C6.59375 7.23503 6.20053 7.75019 5.65625 7.94438V8.96875H4.71875V7.94438C4.17447 7.75012 3.78125 7.235 3.78125 6.625H4.71875C4.71875 6.88363 4.92887 7.09375 5.1875 7.09375C5.44613 7.09375 5.65625 6.88363 5.65625 6.625C5.65625 6.36637 5.44613 6.15625 5.1875 6.15625ZM12.2188 14.5938H3.78125V13.6562H12.2188V14.5938ZM12.2188 12.7188H3.78125V11.7812H12.2188V12.7188ZM12.2188 10.8438H3.78125V9.90625H12.2188V10.8438ZM12.2188 8.96875H9.40625V8.03125H12.2188V8.96875Z" fill="#1D4ED8"/>
</g>
<defs>
<clipPath id="clip0_3138_79119">
<rect width="16" height="16" fill="white" transform="translate(0 0.5)"/>
</clipPath>
</defs>
</svg>
