<svg width="13" height="14" viewBox="0 0 13 14" fill="none" xmlns="http://www.w3.org/2000/svg">
<path d="M12.5104 0.5H8.9665C8.69589 0.5 8.47656 0.719324 8.47656 0.989963C8.47656 1.26058 8.69589 1.4799 8.9665 1.4799H12.0205V4.53391C12.0205 4.80452 12.2398 5.02385 12.5104 5.02385C12.7811 5.02385 13.0004 4.80452 13.0004 4.53391V0.989963C13.0004 0.719324 12.7811 0.5 12.5104 0.5Z" fill="#46474F"/>
<path d="M12.8566 0.643077C12.6652 0.451657 12.3552 0.451657 12.1638 0.643077L5.17384 7.63301C4.98242 7.82426 4.98242 8.13455 5.17384 8.3258C5.21926 8.37139 5.27325 8.40754 5.3327 8.43218C5.39215 8.45682 5.45589 8.46945 5.52024 8.46936C5.64549 8.46936 5.77092 8.42149 5.86665 8.3258L12.8566 1.33586C13.048 1.14462 13.048 0.834319 12.8566 0.643077Z" fill="#46474F"/>
<path d="M10.8442 6.59142C10.5736 6.59142 10.3543 6.81074 10.3543 7.08136V12.5198H0.9799V3.14543H6.41834C6.68896 3.14543 6.90828 2.9261 6.90828 2.65549C6.90828 2.38488 6.68896 2.16553 6.41834 2.16553H0.489963C0.219324 2.16553 0 2.38485 0 2.65549V13.0098C0 13.2804 0.219324 13.4997 0.489963 13.4997H10.8442C11.115 13.4997 11.3342 13.2804 11.3342 13.0097V7.08136C11.3342 6.81074 11.1148 6.59142 10.8442 6.59142Z" fill="#46474F"/>
</svg>
