<svg width="16" height="17" viewBox="0 0 16 17" fill="none" xmlns="http://www.w3.org/2000/svg">
<path d="M12.8438 0.774414V3.62495H15.6941L12.8438 0.774414Z" fill="white"/>
<path d="M12.375 4.5625C12.1161 4.5625 11.9062 4.35262 11.9062 4.09375V0.5H5.1875C4.41209 0.5 3.78125 1.13084 3.78125 1.90625V7.14653C3.93569 7.13253 4.09197 7.125 4.25 7.125C5.84775 7.125 7.27803 7.8555 8.22456 9H13.3125C13.5714 9 13.7812 9.20988 13.7812 9.46875C13.7812 9.72762 13.5714 9.9375 13.3125 9.9375H8.84212C9.14162 10.5219 9.32584 11.1585 9.38472 11.8125H13.3125C13.5714 11.8125 13.7812 12.0224 13.7812 12.2812C13.7812 12.5401 13.5714 12.75 13.3125 12.75H9.38472C9.24453 14.2981 8.41741 15.6508 7.21119 16.5H14.5625C15.3379 16.5 15.9688 15.8692 15.9688 15.0938V4.5625H12.375ZM13.3125 7.125H6.4375C6.17863 7.125 5.96875 6.91512 5.96875 6.65625C5.96875 6.39738 6.17863 6.1875 6.4375 6.1875H13.3125C13.5714 6.1875 13.7812 6.39738 13.7812 6.65625C13.7812 6.91512 13.5714 7.125 13.3125 7.125Z" fill="white"/>
<path d="M4.25 8.0625C1.92378 8.0625 0.03125 9.95503 0.03125 12.2812C0.03125 14.6075 1.92378 16.5 4.25 16.5C6.57622 16.5 8.46875 14.6075 8.46875 12.2812C8.46875 9.95503 6.57622 8.0625 4.25 8.0625ZM3.98959 11.8125H4.51044C5.05606 11.8125 5.5 12.2564 5.5 12.8021V13.3229C5.5 13.7971 5.16469 14.1943 4.71875 14.2902V14.4688C4.71875 14.7276 4.50887 14.9375 4.25 14.9375C3.99113 14.9375 3.78125 14.7276 3.78125 14.4688V14.2902C3.33531 14.1943 3 13.7971 3 13.3229C3 13.064 3.20988 12.8542 3.46875 12.8542C3.72762 12.8542 3.9375 13.064 3.9375 13.3229C3.93752 13.3367 3.94302 13.35 3.95279 13.3597C3.96255 13.3695 3.97579 13.375 3.98959 13.375H4.51044C4.52425 13.375 4.53748 13.3695 4.54725 13.3597C4.55701 13.35 4.56251 13.3367 4.56253 13.3229V12.8021C4.56251 12.7883 4.55701 12.775 4.54725 12.7653C4.53748 12.7555 4.52425 12.75 4.51044 12.75H3.98959C3.44394 12.75 3 12.3061 3 11.7604V11.2396C3 10.7654 3.33531 10.3682 3.78125 10.2723V10.0938C3.78125 9.83487 3.99113 9.625 4.25 9.625C4.50887 9.625 4.71875 9.83487 4.71875 10.0938V10.2723C5.16469 10.3682 5.5 10.7654 5.5 11.2396C5.5 11.4985 5.29012 11.7083 5.03125 11.7083C4.77238 11.7083 4.5625 11.4985 4.5625 11.2396C4.56248 11.2258 4.55698 11.2125 4.54721 11.2028C4.53745 11.193 4.52421 11.1875 4.51041 11.1875H3.98956C3.97575 11.1875 3.96252 11.193 3.95275 11.2028C3.94299 11.2125 3.93749 11.2258 3.93747 11.2396V11.7604C3.93749 11.7742 3.94299 11.7875 3.95276 11.7972C3.96254 11.807 3.97578 11.8125 3.98959 11.8125Z" fill="white"/>
</svg>
