<svg width="27" height="26" viewBox="0 0 27 26" fill="none" xmlns="http://www.w3.org/2000/svg">
<g clipPath="url(#clip0_4876_7795)">
<path d="M13.2969 19C13.1415 19 12.9924 18.9383 12.8826 18.8284C12.7727 18.7185 12.7109 18.5695 12.7109 18.4141V7.58594C12.7109 7.43054 12.7727 7.2815 12.8826 7.17162C12.9924 7.06173 13.1415 7 13.2969 7C13.4523 7 13.6013 7.06173 13.7112 7.17162C13.8211 7.2815 13.8828 7.43054 13.8828 7.58594V18.4141C13.8828 18.5695 13.8211 18.7185 13.7112 18.8284C13.6013 18.9383 13.4523 19 13.2969 19Z" fill="#7E7D7D"/>
<path d="M18.7109 13.5859H7.88281C7.72741 13.5859 7.57838 13.5242 7.46849 13.4143C7.35861 13.3044 7.29688 13.1554 7.29688 13C7.29688 12.8446 7.35861 12.6956 7.46849 12.5857C7.57838 12.4758 7.72741 12.4141 7.88281 12.4141H18.7109C18.8663 12.4141 19.0154 12.4758 19.1253 12.5857C19.2351 12.6956 19.2969 12.8446 19.2969 13C19.2969 13.1554 19.2351 13.3044 19.1253 13.4143C19.0154 13.5242 18.8663 13.5859 18.7109 13.5859Z" fill="#7E7D7D"/>
</g>
<rect x="0.75" y="0.75" width="25.0953" height="24.5" rx="3.25" stroke="#DBE1E7" stroke-width="1.5"/>
<defs>
<clipPath id="clip0_4876_7795">
<rect width="12" height="12" fill="white" transform="translate(7.29688 7)"/>
</clipPath>
</defs>
</svg>
