<svg width="20" height="18" viewBox="0 0 20 18" fill="none" xmlns="http://www.w3.org/2000/svg">
<path d="M0.833333 5.24996C1.05435 5.24996 1.26631 5.16216 1.42259 5.00588C1.57887 4.8496 1.66667 4.63764 1.66667 4.41663V3.16663C1.66667 2.70663 2.04083 2.33329 2.5 2.33329H3.75C3.97101 2.33329 4.18298 2.2455 4.33926 2.08922C4.49554 1.93293 4.58333 1.72097 4.58333 1.49996C4.58333 1.27895 4.49554 1.06698 4.33926 0.910704C4.18298 0.754423 3.97101 0.666626 3.75 0.666626H2.5C1.12167 0.666626 0 1.78829 0 3.16663V4.41663C0 4.63764 0.0877974 4.8496 0.244078 5.00588C0.400358 5.16216 0.61232 5.24996 0.833333 5.24996ZM17.5 0.666626H16.25C16.029 0.666626 15.817 0.754423 15.6607 0.910704C15.5045 1.06698 15.4167 1.27895 15.4167 1.49996C15.4167 1.72097 15.5045 1.93293 15.6607 2.08922C15.817 2.2455 16.029 2.33329 16.25 2.33329H17.5C17.9592 2.33329 18.3333 2.70663 18.3333 3.16663V4.41663C18.3333 4.63764 18.4211 4.8496 18.5774 5.00588C18.7337 5.16216 18.9457 5.24996 19.1667 5.24996C19.3877 5.24996 19.5996 5.16216 19.7559 5.00588C19.9122 4.8496 20 4.63764 20 4.41663V3.16663C20 1.78829 18.8783 0.666626 17.5 0.666626ZM0 14.8333C0 16.2116 1.12167 17.3333 2.5 17.3333H3.75C3.97101 17.3333 4.18298 17.2455 4.33926 17.0892C4.49554 16.9329 4.58333 16.721 4.58333 16.5C4.58333 16.2789 4.49554 16.067 4.33926 15.9107C4.18298 15.7544 3.97101 15.6666 3.75 15.6666H2.5C2.04083 15.6666 1.66667 15.2933 1.66667 14.8333V13.5833C1.66667 13.3623 1.57887 13.1503 1.42259 12.994C1.26631 12.8378 1.05435 12.75 0.833333 12.75C0.61232 12.75 0.400358 12.8378 0.244078 12.994C0.0877974 13.1503 0 13.3623 0 13.5833V14.8333ZM19.1667 12.75C18.9457 12.75 18.7337 12.8378 18.5774 12.994C18.4211 13.1503 18.3333 13.3623 18.3333 13.5833V14.8333C18.3333 15.2933 17.9592 15.6666 17.5 15.6666H16.25C16.029 15.6666 15.817 15.7544 15.6607 15.9107C15.5045 16.067 15.4167 16.2789 15.4167 16.5C15.4167 16.721 15.5045 16.9329 15.6607 17.0892C15.817 17.2455 16.029 17.3333 16.25 17.3333H17.5C18.8783 17.3333 20 16.2116 20 14.8333V13.5833C20 13.3623 19.9122 13.1503 19.7559 12.994C19.5996 12.8378 19.3877 12.75 19.1667 12.75ZM9.99917 14.0583C13.2075 14.0583 15.9408 12.0416 16.6492 9.14996C16.6742 9.04996 16.6742 8.94996 16.6492 8.84996C15.9408 5.95829 13.2075 3.94163 9.99917 3.94163C6.79083 3.94163 4.0575 5.95829 3.34917 8.84996C3.32417 8.94996 3.32417 9.04996 3.34917 9.14996C4.0575 12.0416 6.79083 14.0583 9.99917 14.0583ZM9.99917 6.49996C11.3742 6.49996 12.4992 7.62496 12.4992 8.99996C12.4992 10.375 11.3742 11.5 9.99917 11.5C8.62417 11.5 7.49917 10.375 7.49917 8.99996C7.49917 7.62496 8.62417 6.49996 9.99917 6.49996Z" fill="#7E7D7D"/>
</svg>
