<svg width="16" height="17" viewBox="0 0 16 17" fill="none" xmlns="http://www.w3.org/2000/svg">
<path d="M6.014 15.3334C5.79299 15.3343 5.58067 15.2473 5.42377 15.0917C5.26686 14.936 5.17822 14.7244 5.17733 14.5034C5.17645 14.2824 5.2634 14.07 5.41905 13.9131C5.57471 13.7562 5.78632 13.6676 6.00733 13.6667H6.014C6.23501 13.6667 6.44698 13.7545 6.60326 13.9108C6.75954 14.0671 6.84733 14.279 6.84733 14.5C6.84733 14.7211 6.75954 14.933 6.60326 15.0893C6.44698 15.2456 6.23501 15.3334 6.014 15.3334ZM12.1807 14.5C12.1807 14.279 12.0929 14.0671 11.9366 13.9108C11.7803 13.7545 11.5683 13.6667 11.3473 13.6667H11.3407C11.1761 13.668 11.0157 13.718 10.8795 13.8104C10.7434 13.9027 10.6376 14.0333 10.5755 14.1857C10.5135 14.3381 10.4979 14.5055 10.5308 14.6667C10.5637 14.8279 10.6436 14.9757 10.7604 15.0916C10.8772 15.2075 11.0257 15.2862 11.1872 15.3178C11.3487 15.3494 11.5159 15.3325 11.6678 15.2693C11.8196 15.206 11.9494 15.0992 12.0407 14.9623C12.132 14.8254 12.1807 14.6646 12.1807 14.5ZM13.9733 6.07337L13.3 10.1934C13.2914 10.4348 13.232 10.6718 13.1256 10.8887C13.0193 11.1057 12.8685 11.2978 12.6829 11.4525C12.4973 11.6073 12.2812 11.7212 12.0487 11.7868C11.8162 11.8524 11.5724 11.8683 11.3333 11.8334H5.82C5.49852 11.8342 5.18764 11.7184 4.94495 11.5076C4.70225 11.2968 4.54417 11.0051 4.5 10.6867L3.49933 3.72137C3.47318 3.52114 3.37482 3.33735 3.22272 3.20453C3.07062 3.0717 2.87526 2.99899 2.67333 3.00004H2.5C2.36739 3.00004 2.24021 2.94736 2.14645 2.85359C2.05268 2.75982 2 2.63265 2 2.50004C2 2.36743 2.05268 2.24025 2.14645 2.14648C2.24021 2.05272 2.36739 2.00004 2.5 2.00004H2.67333C3.11571 1.9972 3.54396 2.15564 3.87797 2.44572C4.21197 2.73579 4.42884 3.13763 4.488 3.57604L4.62733 4.50004H12.6667C12.8617 4.50075 13.0542 4.54424 13.2305 4.62742C13.4069 4.71061 13.5629 4.83147 13.6875 4.98149C13.8121 5.13152 13.9023 5.30704 13.9516 5.4957C14.001 5.68435 14.0084 5.88154 13.9733 6.07337ZM10.338 6.92404C10.2916 6.87757 10.2364 6.84072 10.1757 6.81557C10.1151 6.79042 10.05 6.77748 9.98433 6.77748C9.91865 6.77748 9.8536 6.79042 9.79292 6.81557C9.73223 6.84072 9.6771 6.87757 9.63067 6.92404L8.20667 8.34804L7.67333 7.8147C7.57908 7.72358 7.4528 7.67312 7.3217 7.6742C7.1906 7.67528 7.06517 7.7278 6.97242 7.82046C6.87967 7.91312 6.82703 8.03851 6.82583 8.1696C6.82463 8.3007 6.87496 8.42703 6.966 8.52137L7.85467 9.4107C7.94862 9.50422 8.07578 9.55671 8.20833 9.55671C8.34089 9.55671 8.46805 9.50422 8.562 9.4107L10.338 7.63337C10.3848 7.5869 10.4219 7.53164 10.4472 7.47077C10.4725 7.40991 10.4856 7.34463 10.4856 7.2787C10.4856 7.21278 10.4725 7.1475 10.4472 7.08663C10.4219 7.02577 10.3848 6.97051 10.338 6.92404Z" fill="white"/>
</svg>
