<svg width="16" height="17" viewBox="0 0 16 17" fill="none" xmlns="http://www.w3.org/2000/svg">
<g clipPath="url(#clip0_3138_79158)">
<path d="M15.1848 8.20638L15.166 8.20951C14.6473 8.29388 14.1535 7.94701 14.0598 7.43138C13.4723 4.22201 10.3941 2.09701 7.18477 2.68451C5.74414 2.94701 4.45352 3.73763 3.56289 4.89701L4.76289 6.09701C4.94414 6.27826 4.94414 6.57201 4.76289 6.75326C4.69414 6.82513 4.60039 6.86888 4.50352 6.88451L0.534766 7.48451C0.281641 7.52513 0.0441406 7.35013 0.00664063 7.09388C0.000390625 7.05013 0.000390625 7.00326 0.00664063 6.95638L0.594141 2.97826C0.631641 2.72513 0.866016 2.55013 1.12227 2.58763C1.22227 2.60326 1.31289 2.64701 1.38164 2.71888L2.16602 3.50326C2.32227 3.31576 2.48789 3.13138 2.66289 2.95638C4.13789 1.47201 6.14727 0.640758 8.23789 0.647008C12.0285 0.647008 15.2816 3.34388 15.9848 7.06888C16.0848 7.59701 15.7379 8.10326 15.2098 8.20326C15.2004 8.20326 15.1941 8.20638 15.1848 8.20638ZM15.7691 10.8314L15.1691 14.8033C15.1316 15.0564 14.8941 15.2314 14.641 15.1939C14.5441 15.1783 14.4535 15.1345 14.3816 15.0626L13.6129 14.2939C10.4004 17.2283 5.41602 17.0001 2.47852 13.7876C1.61914 12.8439 0.997266 11.7064 0.675391 10.4689C0.541016 9.95013 0.850391 9.41888 1.36914 9.28451C1.42227 9.27201 1.47539 9.26263 1.52852 9.25638C1.55664 9.25326 1.58789 9.25326 1.61602 9.25326C2.05977 9.25326 2.45039 9.55638 2.55664 9.98763C2.80664 10.9814 3.32852 11.8783 4.10664 12.6595C6.32227 14.872 9.87852 14.9783 12.2254 12.9064L11.0004 11.6783C10.8191 11.497 10.8191 11.2033 11.0004 11.022C11.0723 10.9501 11.1629 10.9064 11.2598 10.8908L15.241 10.3033C15.4941 10.2658 15.7316 10.4408 15.766 10.697C15.7754 10.7408 15.7754 10.7845 15.7691 10.8314Z" fill="white"/>
</g>
<defs>
<clipPath id="clip0_3138_79158">
<rect width="16" height="16" fill="white" transform="translate(0 0.5)"/>
</clipPath>
</defs>
</svg>
