<svg width="10" height="11" viewBox="0 0 10 11" fill="none" xmlns="http://www.w3.org/2000/svg">
<path d="M5 0.601562C2.2365 0.601562 0 2.83781 0 5.60156C0 8.36502 2.23625 10.6016 5 10.6016C7.7635 10.6016 10 8.36531 10 5.60156C10 2.83811 7.76375 0.601562 5 0.601562ZM5.51346 7.58635C5.51346 7.74432 5.28311 7.90225 5.0001 7.90225C4.70393 7.90225 4.49334 7.74432 4.49334 7.58635V5.07879C4.49334 4.89451 4.70395 4.76943 5.0001 4.76943C5.28311 4.76943 5.51346 4.89451 5.51346 5.07879V7.58635ZM5.00012 4.16398C4.69736 4.16398 4.46045 3.94021 4.46045 3.6901C4.46045 3.44 4.69738 3.22281 5.00012 3.22281C5.29629 3.22281 5.53324 3.44 5.53324 3.6901C5.53324 3.94021 5.29627 4.16398 5.00012 4.16398Z" fill="#FF0D0D"/>
</svg>
