<svg width="21" height="20" viewBox="0 0 21 20" fill="none" xmlns="http://www.w3.org/2000/svg">
<path d="M19.4987 0H2.41536C1.6112 0 0.957031 0.654167 0.957031 1.45833V11.875C0.957031 12.6792 1.6112 13.3333 2.41536 13.3333H19.4987C20.3029 13.3333 20.957 12.6792 20.957 11.875V1.45833C20.957 0.654167 20.3029 0 19.4987 0ZM19.4987 15H2.41536C1.6112 15 0.957031 15.6542 0.957031 16.4583V18.5417C0.957031 19.3458 1.6112 20 2.41536 20H19.4987C20.3029 20 20.957 19.3458 20.957 18.5417V16.4583C20.957 15.6542 20.3029 15 19.4987 15Z" fill="#7E7D7D"/>
</svg>
