<svg width="16" height="17" viewBox="0 0 16 17" fill="none" xmlns="http://www.w3.org/2000/svg">
<path fill-rule="evenodd" clip-rule="evenodd" d="M6.66667 2.5C4.08934 2.5 2 4.58934 2 7.16667C2 9.744 4.08934 11.8333 6.66667 11.8333C7.71489 11.8333 8.68239 11.4877 9.46145 10.9043L12.1953 13.6381C12.4557 13.8985 12.8778 13.8985 13.1381 13.6381C13.3985 13.3778 13.3985 12.9557 13.1381 12.6953L10.4043 9.96145C10.9877 9.18239 11.3333 8.21489 11.3333 7.16667C11.3333 4.58934 9.244 2.5 6.66667 2.5ZM3.33333 7.16667C3.33333 5.32572 4.82572 3.83333 6.66667 3.83333C8.50762 3.83333 10 5.32572 10 7.16667C10 9.00762 8.50762 10.5 6.66667 10.5C4.82572 10.5 3.33333 9.00762 3.33333 7.16667Z" fill="#BBBBBB"/>
</svg>
