<svg width="15" height="15" viewBox="0 0 15 15" fill="none" xmlns="http://www.w3.org/2000/svg">
<path fill-rule="evenodd" clip-rule="evenodd" d="M7.72055 0.868167L9.47617 4.60298L13.5708 5.11347C13.9499 5.16232 14.2273 5.51217 14.1786 5.89151C14.154 6.07639 14.0617 6.23666 13.9304 6.34883L10.9498 9.14008L11.7278 13.1957C11.8005 13.575 11.5527 13.9397 11.1732 14.0126C11.008 14.0417 10.8427 14.0126 10.7065 13.9348L7.08831 11.946L3.47543 13.9348C3.13516 14.1244 2.71204 13.9981 2.52735 13.6624C2.44449 13.5117 2.42514 13.3463 2.45445 13.1957L3.22742 9.14008L0.217653 6.31464C-0.0598561 6.05197 -0.0745113 5.60968 0.188155 5.33236C0.304833 5.20591 0.455894 5.1379 0.611277 5.11836V5.11347L4.70571 4.60298L6.46114 0.868167C6.62179 0.518134 7.03532 0.372334 7.38517 0.532789C7.54074 0.605689 7.65272 0.727252 7.72055 0.868167Z" fill="url(#paint0_linear_2134_57278)"/>
<defs>
<linearGradient id="paint0_linear_2134_57278" x1="0" y1="0.467773" x2="0" y2="14.0237" gradientUnits="userSpaceOnUse">
<stop stop-color="#FBD249"/>
<stop offset="1" stop-color="#F5A623"/>
</linearGradient>
</defs>
</svg>
