<svg width="22" height="22" viewBox="0 0 22 22" fill="none" xmlns="http://www.w3.org/2000/svg">
<path d="M11.0013 0.916504C5.42797 0.916504 0.917969 5.4265 0.917969 10.9998C0.917969 16.5732 5.42797 21.0832 11.0013 21.0832C16.5746 21.0832 21.0846 16.5732 21.0846 10.9998C21.0846 5.4265 16.5746 0.916504 11.0013 0.916504ZM16.2446 8.77234L10.7446 14.5015C10.5705 14.6848 10.323 14.7765 10.0846 14.7765C9.88297 14.7765 9.67214 14.7123 9.50714 14.5748L5.84047 11.5957C5.65237 11.4415 5.53251 11.2195 5.50678 10.9776C5.48105 10.7358 5.55152 10.4935 5.70297 10.3032C6.0238 9.91817 6.6013 9.85401 6.99547 10.1748L10.0113 12.6223L14.9246 7.49817C15.273 7.14067 15.8596 7.1315 16.2171 7.47067C16.5838 7.819 16.593 8.40567 16.2446 8.77234Z" fill="#047857"/>
</svg>
