<svg width="14" height="18" viewBox="0 0 14 18" fill="none" xmlns="http://www.w3.org/2000/svg">
<path d="M13.8461 14.7162C13.4433 13.5174 11.8379 12.767 10.6933 12.264C10.2449 12.0676 9.00352 11.7344 8.85432 11.1698C8.80092 10.9664 8.80812 10.7746 8.85192 10.5908C8.78227 10.6045 8.71149 10.6116 8.64052 10.6118H7.89472C7.60856 10.6115 7.33421 10.4977 7.13189 10.2953C6.92956 10.093 6.81578 9.81859 6.81552 9.53243C6.81552 8.93783 7.29952 8.45443 7.89472 8.45443H8.64052C8.88692 8.45443 9.12051 8.53783 9.30892 8.68663C9.57699 8.65128 9.8416 8.59335 10.0999 8.51343C10.4261 7.83003 10.6805 7.01283 10.7375 6.30943C10.9809 3.29983 9.13592 1.53903 6.49052 1.84343C4.56712 2.06483 3.41812 3.49903 3.29392 5.34543C3.16832 7.22743 3.86612 8.61743 4.60732 9.63703C4.93192 10.0828 5.27292 10.3694 5.22052 10.9066C5.15972 11.5418 4.48052 11.7188 3.99472 11.914C3.41912 12.1452 2.79912 12.496 2.50632 12.6582C1.49772 13.2152 0.390716 13.886 0.141916 14.8036C-0.409084 16.8372 1.45172 17.4532 2.98792 17.7376C4.30632 17.9808 5.79292 18 7.01572 18C9.22752 18 13.2047 17.9114 13.8461 16.2488C14.0285 15.777 13.9503 15.0252 13.8461 14.7162Z" fill="#FEFEFE"/>
<path d="M9.11332 9.2286C9.06226 9.14998 8.99239 9.08534 8.91004 9.04054C8.82769 8.99573 8.73547 8.97217 8.64172 8.972H7.89592C7.82089 8.97 7.74621 8.98305 7.67629 9.01038C7.60638 9.03771 7.54266 9.07877 7.48887 9.13114C7.43509 9.18351 7.39234 9.24612 7.36316 9.31527C7.33397 9.38443 7.31893 9.45874 7.31893 9.5338C7.31893 9.60886 7.33397 9.68317 7.36316 9.75233C7.39234 9.82148 7.43509 9.88409 7.48887 9.93646C7.54266 9.98883 7.60638 10.0299 7.67629 10.0572C7.74621 10.0846 7.82089 10.0976 7.89592 10.0956H8.64172C8.74432 10.0955 8.84491 10.0671 8.93239 10.0135C9.01988 9.9599 9.09086 9.88318 9.13752 9.7918C10.1773 9.71 11.0817 9.3924 11.7165 8.9234C11.8623 9.0174 12.0347 9.0724 12.2207 9.0724H12.2675C12.3907 9.07243 12.5128 9.04816 12.6266 9.00099C12.7404 8.95382 12.8438 8.88466 12.9309 8.79749C13.018 8.71031 13.087 8.60682 13.1341 8.49294C13.1811 8.37906 13.2053 8.25702 13.2051 8.1338V6.2602C13.2052 6.08324 13.155 5.9099 13.0604 5.76035C12.9658 5.6108 12.8306 5.49118 12.6707 5.4154C12.5331 2.4068 10.0425 0 7.00012 0C3.95772 0 1.46672 2.4068 1.32972 5.4154C1.16969 5.49106 1.03445 5.61064 0.93976 5.76021C0.845075 5.90978 0.794845 6.08318 0.794923 6.2602V8.1338C0.794765 8.25695 0.818875 8.37893 0.865876 8.49276C0.912876 8.60659 0.981846 8.71004 1.06884 8.79721C1.15584 8.88437 1.25916 8.95354 1.3729 9.00076C1.48664 9.04798 1.60857 9.07232 1.73172 9.0724H1.77912C1.90232 9.07237 2.0243 9.04807 2.1381 9.00088C2.25189 8.95368 2.35527 8.88453 2.44233 8.79736C2.52939 8.71019 2.59841 8.60672 2.64546 8.49287C2.69251 8.37901 2.71665 8.25699 2.71652 8.1338V6.2602C2.71643 6.08571 2.66753 5.91473 2.57536 5.76657C2.48319 5.61841 2.35141 5.49899 2.19492 5.4218C2.32872 2.8868 4.43232 0.8662 7.00012 0.8662C9.56692 0.8662 11.6715 2.8868 11.8047 5.4218C11.6484 5.49913 11.5168 5.6186 11.4247 5.76674C11.3327 5.91488 11.2838 6.08579 11.2837 6.2602V8.1338C11.2837 8.2582 11.3079 8.374 11.3505 8.4822C10.8041 8.8732 10.0087 9.1518 9.11332 9.2286Z" fill="#FEFEFE"/>
</svg>
