<svg width="17" height="20" viewBox="0 0 17 20" fill="none" xmlns="http://www.w3.org/2000/svg">
<path d="M15.5 0H1.5C0.9 0 0.5 0.4 0.5 1V19C0.5 19.6 0.9 20 1.5 20H15.5C16.1 20 16.5 19.6 16.5 19V1C16.5 0.4 16.1 0 15.5 0ZM2.5 2H6.5V9H2.5V2ZM13.5 17H3.5C2.9 17 2.5 16.6 2.5 16C2.5 15.4 2.9 15 3.5 15H13.5C14.1 15 14.5 15.4 14.5 16C14.5 16.6 14.1 17 13.5 17ZM13.5 13H3.5C2.9 13 2.5 12.6 2.5 12C2.5 11.4 2.9 11 3.5 11H13.5C14.1 11 14.5 11.4 14.5 12C14.5 12.6 14.1 13 13.5 13ZM13.5 9H9.5C8.9 9 8.5 8.6 8.5 8C8.5 7.4 8.9 7 9.5 7H13.5C14.1 7 14.5 7.4 14.5 8C14.5 8.6 14.1 9 13.5 9ZM13.5 5H9.5C8.9 5 8.5 4.6 8.5 4C8.5 3.4 8.9 3 9.5 3H13.5C14.1 3 14.5 3.4 14.5 4C14.5 4.6 14.1 5 13.5 5Z" fill="#7E7D7D"/>
</svg>
