<svg width="16" height="13" viewBox="0 0 16 13" fill="none" xmlns="http://www.w3.org/2000/svg">
<path d="M12.5018 12.3217H9.06906V8.85296H10.2035C10.4912 8.85296 10.6612 8.52603 10.4912 8.29064L8.28443 5.2371C8.14385 5.04095 7.85288 5.04095 7.7123 5.2371L5.50552 8.29064C5.33551 8.52603 5.50225 8.85296 5.79322 8.85296H6.92767V12.3217H3.08296C1.36657 12.2269 0 10.6217 0 8.88238C0 7.68255 0.650593 6.63637 1.61504 6.07078C1.52677 5.83212 1.481 5.57711 1.481 5.30903C1.481 4.08304 2.4716 3.09244 3.69759 3.09244C3.9624 3.09244 4.21741 3.13821 4.45607 3.22648C5.16551 1.7226 6.69555 0.679688 8.47405 0.679688C10.7756 0.682957 12.6718 2.44511 12.8876 4.69113C14.6563 4.99518 16 6.6331 16 8.4868C16 10.468 14.4569 12.1844 12.5018 12.3217Z" fill="#7E7D7D"/>
</svg>
