<svg width="32" height="33" viewBox="0 0 32 33" fill="none" xmlns="http://www.w3.org/2000/svg">
<path d="M27.3137 5.18631C24.2917 2.16431 20.2738 0.5 16 0.5C11.7262 0.5 7.70831 2.16431 4.68625 5.18631C1.66431 8.20831 0 12.2262 0 16.5C0 20.7738 1.66431 24.7917 4.68625 27.8137C7.70831 30.8357 11.7262 32.5 16 32.5C20.2738 32.5 24.2917 30.8357 27.3137 27.8137C30.3357 24.7917 32 20.7738 32 16.5C32 12.2262 30.3357 8.20831 27.3137 5.18631ZM16 30.625C11.8207 30.625 8.06019 28.7999 5.47175 25.9056C7.07644 21.6514 11.1842 18.625 16 18.625C12.8934 18.625 10.375 16.1066 10.375 13C10.375 9.89338 12.8934 7.375 16 7.375C19.1066 7.375 21.625 9.89338 21.625 13C21.625 16.1066 19.1066 18.625 16 18.625C20.8158 18.625 24.9236 21.6514 26.5282 25.9056C23.9398 28.7999 20.1793 30.625 16 30.625Z" fill="#777777"/>
</svg>
