<svg width="55" height="26" viewBox="0 0 55 26" fill="none" xmlns="http://www.w3.org/2000/svg">
<rect x="0.832031" width="53.1896" height="25.531" rx="5.31896" fill="white"/>
<g clipPath="url(#clip0_2611_70475)">
<path d="M24.8026 8.51035L23.3611 17.4808H25.6652L27.1058 8.51035H24.8026ZM31.7526 12.1644C30.9474 11.7668 30.4538 11.4984 30.4538 11.0917C30.4637 10.722 30.8712 10.3432 31.7813 10.3432C32.5299 10.3244 33.0801 10.5003 33.4975 10.6753L33.7066 10.7686L34.0198 8.89182C33.5647 8.7159 32.8431 8.52206 31.9518 8.52206C29.6765 8.52206 28.0743 9.70506 28.0644 11.397C28.0456 12.6456 29.2115 13.3384 30.084 13.7541C30.9753 14.1804 31.2787 14.4568 31.2787 14.8357C31.2688 15.4173 30.558 15.6856 29.8947 15.6856C28.9756 15.6856 28.4819 15.5474 27.7324 15.2233L27.429 15.0851L27.1068 17.0356C27.6481 17.2762 28.6434 17.4879 29.6766 17.4988C32.0947 17.4988 33.6681 16.3337 33.6879 14.5305C33.6958 13.5413 33.081 12.7837 31.7526 12.1644ZM39.9268 8.53811H38.1442C37.5948 8.53811 37.1774 8.69611 36.9396 9.2598L33.5171 17.4808H35.9352L36.6011 15.7009H39.3065L39.652 17.4879H41.7847L39.9268 8.53811ZM37.2717 13.9047C37.3184 13.9092 38.1999 10.9992 38.1999 10.9992L38.9018 13.9047H37.2717ZM21.4359 8.51035L19.1784 14.6049L18.9325 13.403C18.5151 12.0162 17.2065 10.5092 15.7461 9.76068L17.8132 17.4718H20.2511L23.8737 8.51133H21.4359V8.51035Z" fill="#2394BC"/>
<path d="M18.1694 9.66759C17.9935 8.9836 17.4325 8.5223 16.6705 8.51245H13.0954L13.0586 8.67843C15.8474 9.36596 18.1882 11.4815 18.9476 13.4715L18.1694 9.66759Z" fill="#EFC75E"/>
</g>
<defs>
<clipPath id="clip0_2611_70475">
<rect width="28.7224" height="19.1483" fill="white" transform="translate(13.0664 3.19138)"/>
</clipPath>
</defs>
</svg>
