<svg width="16" height="16" viewBox="0 0 16 16" fill="none" xmlns="http://www.w3.org/2000/svg">
<g clipPath="url(#clip0_8777_164629)">
<path d="M11.6693 7.33203C9.27994 7.33203 7.33594 9.27603 7.33594 11.6654C7.33594 14.0547 9.27994 15.9987 11.6693 15.9987C14.0586 15.9987 16.0026 14.0547 16.0026 11.6654C16.0026 9.27603 14.0586 7.33203 11.6693 7.33203ZM13.3359 12.332H12.3359V13.332C12.3359 13.5088 12.2657 13.6784 12.1407 13.8034C12.0157 13.9285 11.8461 13.9987 11.6693 13.9987C11.4925 13.9987 11.3229 13.9285 11.1979 13.8034C11.0728 13.6784 11.0026 13.5088 11.0026 13.332V12.332H10.0026C9.82579 12.332 9.65622 12.2618 9.5312 12.1368C9.40618 12.0117 9.33594 11.8422 9.33594 11.6654C9.33594 11.4886 9.40618 11.319 9.5312 11.194C9.65622 11.0689 9.82579 10.9987 10.0026 10.9987H11.0026V9.9987C11.0026 9.82189 11.0728 9.65232 11.1979 9.52729C11.3229 9.40227 11.4925 9.33203 11.6693 9.33203C11.8461 9.33203 12.0157 9.40227 12.1407 9.52729C12.2657 9.65232 12.3359 9.82189 12.3359 9.9987V10.9987H13.3359C13.5127 10.9987 13.6823 11.0689 13.8073 11.194C13.9324 11.319 14.0026 11.4886 14.0026 11.6654C14.0026 11.8422 13.9324 12.0117 13.8073 12.1368C13.6823 12.2618 13.5127 12.332 13.3359 12.332Z" fill="#BBBBBB"/>
<path d="M14 0H9.33333C8.60667 0 7.9 0.306667 7.4 0.833333L0.546667 7.96C0.193333 8.33333 0 8.82 0 9.33333C0 9.86667 0.206667 10.3733 0.586667 10.7467L5.25333 15.4133C5.62667 15.7933 6.13333 16 6.66667 16C7.03333 16 7.39333 15.9 7.7 15.7133C7.37333 15.3867 7.08 15.0267 6.84 14.6333C6.61333 14.7 6.36 14.64 6.19333 14.4733L1.52667 9.80667C1.46458 9.74459 1.4155 9.67076 1.3823 9.58948C1.34911 9.50821 1.33246 9.42112 1.33333 9.33333C1.33333 9.16 1.4 9 1.51333 8.88L8.36667 1.75333C8.62 1.48 8.96 1.33333 9.33333 1.33333H14C14.3667 1.33333 14.6667 1.63333 14.6667 2V6.66667C14.6667 6.72667 14.66 6.79333 14.6533 6.85333C15.06 7.10667 15.4333 7.40667 15.76 7.75333C15.92 7.41333 16 7.04 16 6.66667V2C16 0.9 15.1 0 14 0Z" fill="#BBBBBB"/>
<path d="M12.6693 4.66667C11.9339 4.66667 11.3359 4.06867 11.3359 3.33333C11.3359 2.598 11.9339 2 12.6693 2C13.4046 2 14.0026 2.598 14.0026 3.33333C14.0026 4.06867 13.4046 4.66667 12.6693 4.66667Z" fill="#BBBBBB"/>
</g>
<defs>
<clipPath id="clip0_8777_164629">
<rect width="16" height="16" fill="white"/>
</clipPath>
</defs>
</svg>
