<svg width="16" height="16" viewBox="0 0 16 16" fill="none" xmlns="http://www.w3.org/2000/svg">
<path d="M11.6673 7.33331C9.27798 7.33331 7.33398 9.27731 7.33398 11.6666C7.33398 14.056 9.27798 16 11.6673 16C14.0567 16 16.0007 14.056 16.0007 11.6666C16.0007 9.27731 14.0567 7.33331 11.6673 7.33331ZM13.334 12.3333H12.334V13.3333C12.334 13.5101 12.2637 13.6797 12.1387 13.8047C12.0137 13.9297 11.8441 14 11.6673 14C11.4905 14 11.3209 13.9297 11.1959 13.8047C11.0709 13.6797 11.0007 13.5101 11.0007 13.3333V12.3333H10.0007C9.82384 12.3333 9.65427 12.2631 9.52925 12.1381C9.40422 12.013 9.33398 11.8435 9.33398 11.6666C9.33398 11.4898 9.40422 11.3203 9.52925 11.1952C9.65427 11.0702 9.82384 11 10.0007 11H11.0007V9.99998C11.0007 9.82317 11.0709 9.6536 11.1959 9.52858C11.3209 9.40355 11.4905 9.33331 11.6673 9.33331C11.8441 9.33331 12.0137 9.40355 12.1387 9.52858C12.2637 9.6536 12.334 9.82317 12.334 9.99998V11H13.334C13.5108 11 13.6804 11.0702 13.8054 11.1952C13.9304 11.3203 14.0007 11.4898 14.0007 11.6666C14.0007 11.8435 13.9304 12.013 13.8054 12.1381C13.6804 12.2631 13.5108 12.3333 13.334 12.3333Z" fill="#BBBBBB"/>
<path d="M14 0H9.33333C8.60667 0 7.9 0.306667 7.4 0.833333L0.546667 7.96C0.193333 8.33333 0 8.82 0 9.33333C0 9.86667 0.206667 10.3733 0.586667 10.7467L5.25333 15.4133C5.62667 15.7933 6.13333 16 6.66667 16C7.03333 16 7.39333 15.9 7.7 15.7133C7.37333 15.3867 7.08 15.0267 6.84 14.6333C6.61333 14.7 6.36 14.64 6.19333 14.4733L1.52667 9.80667C1.46458 9.74459 1.4155 9.67076 1.3823 9.58948C1.34911 9.50821 1.33246 9.42112 1.33333 9.33333C1.33333 9.16 1.4 9 1.51333 8.88L8.36667 1.75333C8.62 1.48 8.96 1.33333 9.33333 1.33333H14C14.3667 1.33333 14.6667 1.63333 14.6667 2V6.66667C14.6667 6.72667 14.66 6.79333 14.6533 6.85333C15.06 7.10667 15.4333 7.40667 15.76 7.75333C15.92 7.41333 16 7.04 16 6.66667V2C16 0.9 15.1 0 14 0Z" fill="#BBBBBB"/>
<path d="M12.6673 4.66667C11.932 4.66667 11.334 4.06867 11.334 3.33333C11.334 2.598 11.932 2 12.6673 2C13.4027 2 14.0007 2.598 14.0007 3.33333C14.0007 4.06867 13.4027 4.66667 12.6673 4.66667Z" fill="#BBBBBB"/>
</svg>
