<svg width="27" height="27" viewBox="0 0 27 27" fill="none" xmlns="http://www.w3.org/2000/svg">
<g clipPath="url(#clip0_3743_91237)">
<path d="M17.6071 12.4406H14.5714C14.5241 12.4406 14.4786 12.4218 14.4452 12.3883C14.4117 12.3548 14.3929 12.3094 14.3929 12.2621V9.22635C14.3929 8.73327 13.9931 8.3335 13.5 8.3335C13.0069 8.3335 12.6071 8.73327 12.6071 9.22635V12.2621C12.6071 12.3094 12.5883 12.3548 12.5548 12.3883C12.5214 12.4218 12.4759 12.4406 12.4286 12.4406H9.39286C8.89978 12.4406 8.5 12.8404 8.5 13.3335C8.5 13.8266 8.89978 14.2264 9.39286 14.2264H12.4286C12.4759 14.2264 12.5214 14.2452 12.5548 14.2787C12.5883 14.3121 12.6071 14.3576 12.6071 14.4049V17.4406C12.6071 17.9337 13.0069 18.3335 13.5 18.3335C13.9931 18.3335 14.3929 17.9337 14.3929 17.4406V14.4049C14.3929 14.3576 14.4117 14.3121 14.4452 14.2787C14.4786 14.2452 14.5241 14.2264 14.5714 14.2264H17.6071C18.1002 14.2264 18.5 13.8266 18.5 13.3335C18.5 12.8404 18.1002 12.4406 17.6071 12.4406Z" fill="#BBBBBB"/>
</g>
<rect x="0.953125" y="1.0835" width="25.0953" height="24.5" rx="3.25" stroke="#BBBBBB" stroke-width="1.5"/>
<defs>
<clipPath id="clip0_3743_91237">
<rect width="10" height="10" fill="white" transform="translate(8.5 8.3335)"/>
</clipPath>
</defs>
</svg>
