<svg width="9" height="6" viewBox="0 0 9 6" fill="none" xmlns="http://www.w3.org/2000/svg">
<path fill-rule="evenodd" clip-rule="evenodd" d="M0.234229 0.834074C0.384252 0.684098 0.587698 0.599845 0.799829 0.599845C1.01196 0.599845 1.21541 0.684098 1.36543 0.834074L3.99983 3.46847L6.63423 0.834074C6.70803 0.757666 6.7963 0.69672 6.89391 0.654793C6.99151 0.612866 7.09649 0.590797 7.20271 0.589874C7.30893 0.588951 7.41428 0.609192 7.51259 0.649417C7.61091 0.689642 7.70023 0.749044 7.77535 0.824158C7.85046 0.899272 7.90986 0.988594 7.95009 1.08691C7.99031 1.18523 8.01055 1.29057 8.00963 1.3968C8.00871 1.50302 7.98664 1.60799 7.94471 1.7056C7.90278 1.8032 7.84184 1.89148 7.76543 1.96527L4.56543 5.16527C4.41541 5.31525 4.21196 5.3995 3.99983 5.3995C3.7877 5.3995 3.58425 5.31525 3.43423 5.16527L0.234229 1.96527C0.0842524 1.81525 0 1.61181 0 1.39967C0 1.18754 0.0842524 0.984097 0.234229 0.834074Z" fill="#7E7D7D"/>
</svg>
