<svg width="169" height="128" viewBox="0 0 169 128" fill="none" xmlns="http://www.w3.org/2000/svg">
<path d="M0 8C0 3.58172 3.58172 0 8 0H161C165.418 0 169 3.58172 169 8V120C169 124.418 165.418 128 161 128H8C3.58172 128 0 124.418 0 120V8Z" fill="#F8FAFC"/>
<path fill-rule="evenodd" clip-rule="evenodd" d="M37.5985 27.9999C37.5985 33.3018 33.3004 37.5999 27.9985 37.5999C22.6965 37.5999 18.3984 33.3018 18.3984 27.9999C18.3984 22.698 22.6965 18.3999 27.9985 18.3999C33.3004 18.3999 37.5985 22.698 37.5985 27.9999ZM29.1985 23.1999C29.1985 23.8626 28.6612 24.3999 27.9985 24.3999C27.3357 24.3999 26.7985 23.8626 26.7985 23.1999C26.7985 22.5372 27.3357 21.9999 27.9985 21.9999C28.6612 21.9999 29.1985 22.5372 29.1985 23.1999ZM26.7985 26.7999C26.1357 26.7999 25.5984 27.3372 25.5984 27.9999C25.5984 28.6626 26.1357 29.1999 26.7985 29.1999V32.7999C26.7985 33.4626 27.3357 33.9999 27.9985 33.9999H29.1985C29.8612 33.9999 30.3985 33.4626 30.3985 32.7999C30.3985 32.1372 29.8612 31.5999 29.1985 31.5999V27.9999C29.1985 27.3372 28.6612 26.7999 27.9985 26.7999H26.7985Z" fill="#475569"/>
<path d="M50.3 27L52.88 20H53.77L56.34 27H55.45L54.81 25.2H51.83L51.18 27H50.3ZM52.08 24.52H54.56L53.32 21.06L52.08 24.52ZM59.3072 27.12C58.8139 27.12 58.3805 27.0067 58.0072 26.78C57.6405 26.5533 57.3539 26.2433 57.1472 25.85C56.9472 25.4567 56.8472 25.01 56.8472 24.51C56.8472 24.01 56.9505 23.5667 57.1572 23.18C57.3639 22.7867 57.6505 22.48 58.0172 22.26C58.3839 22.0333 58.8172 21.92 59.3172 21.92C59.7239 21.92 60.0839 22.0033 60.3972 22.17C60.7105 22.3367 60.9539 22.57 61.1272 22.87V19.8H61.9672V27H61.2072L61.1272 26.18C60.9672 26.42 60.7372 26.6367 60.4372 26.83C60.1372 27.0233 59.7605 27.12 59.3072 27.12ZM59.3972 26.39C59.7305 26.39 60.0239 26.3133 60.2772 26.16C60.5372 26 60.7372 25.78 60.8772 25.5C61.0239 25.22 61.0972 24.8933 61.0972 24.52C61.0972 24.1467 61.0239 23.82 60.8772 23.54C60.7372 23.26 60.5372 23.0433 60.2772 22.89C60.0239 22.73 59.7305 22.65 59.3972 22.65C59.0705 22.65 58.7772 22.73 58.5172 22.89C58.2639 23.0433 58.0639 23.26 57.9172 23.54C57.7772 23.82 57.7072 24.1467 57.7072 24.52C57.7072 24.8933 57.7772 25.22 57.9172 25.5C58.0639 25.78 58.2639 26 58.5172 26.16C58.7772 26.3133 59.0705 26.39 59.3972 26.39ZM65.5865 27.12C65.0932 27.12 64.6598 27.0067 64.2865 26.78C63.9198 26.5533 63.6332 26.2433 63.4265 25.85C63.2265 25.4567 63.1265 25.01 63.1265 24.51C63.1265 24.01 63.2298 23.5667 63.4365 23.18C63.6432 22.7867 63.9298 22.48 64.2965 22.26C64.6632 22.0333 65.0965 21.92 65.5965 21.92C66.0032 21.92 66.3632 22.0033 66.6765 22.17C66.9898 22.3367 67.2332 22.57 67.4065 22.87V19.8H68.2465V27H67.4865L67.4065 26.18C67.2465 26.42 67.0165 26.6367 66.7165 26.83C66.4165 27.0233 66.0398 27.12 65.5865 27.12ZM65.6765 26.39C66.0098 26.39 66.3032 26.3133 66.5565 26.16C66.8165 26 67.0165 25.78 67.1565 25.5C67.3032 25.22 67.3765 24.8933 67.3765 24.52C67.3765 24.1467 67.3032 23.82 67.1565 23.54C67.0165 23.26 66.8165 23.0433 66.5565 22.89C66.3032 22.73 66.0098 22.65 65.6765 22.65C65.3498 22.65 65.0565 22.73 64.7965 22.89C64.5432 23.0433 64.3432 23.26 64.1965 23.54C64.0565 23.82 63.9865 24.1467 63.9865 24.52C63.9865 24.8933 64.0565 25.22 64.1965 25.5C64.3432 25.78 64.5432 26 64.7965 26.16C65.0565 26.3133 65.3498 26.39 65.6765 26.39ZM72.3123 27V20H74.4623C75.6956 20 76.6023 20.3133 77.1823 20.94C77.7689 21.5667 78.0623 22.4267 78.0623 23.52C78.0623 24.5933 77.7689 25.4433 77.1823 26.07C76.6023 26.69 75.6956 27 74.4623 27H72.3123ZM73.1523 26.3H74.4423C75.1223 26.3 75.6623 26.19 76.0623 25.97C76.4689 25.7433 76.7589 25.4233 76.9323 25.01C77.1056 24.59 77.1923 24.0933 77.1923 23.52C77.1923 22.9333 77.1056 22.43 76.9323 22.01C76.7589 21.59 76.4689 21.2667 76.0623 21.04C75.6623 20.8133 75.1223 20.7 74.4423 20.7H73.1523V26.3ZM80.8752 27.12C80.4618 27.12 80.1185 27.05 79.8452 26.91C79.5718 26.77 79.3685 26.5833 79.2352 26.35C79.1018 26.1167 79.0352 25.8633 79.0352 25.59C79.0352 25.0833 79.2285 24.6933 79.6152 24.42C80.0018 24.1467 80.5285 24.01 81.1952 24.01H82.5352V23.95C82.5352 23.5167 82.4218 23.19 82.1952 22.97C81.9685 22.7433 81.6652 22.63 81.2852 22.63C80.9585 22.63 80.6752 22.7133 80.4352 22.88C80.2018 23.04 80.0552 23.2767 79.9952 23.59H79.1352C79.1685 23.23 79.2885 22.9267 79.4952 22.68C79.7085 22.4333 79.9718 22.2467 80.2852 22.12C80.5985 21.9867 80.9318 21.92 81.2852 21.92C81.9785 21.92 82.4985 22.1067 82.8452 22.48C83.1985 22.8467 83.3752 23.3367 83.3752 23.95V27H82.6252L82.5752 26.11C82.4352 26.39 82.2285 26.63 81.9552 26.83C81.6885 27.0233 81.3285 27.12 80.8752 27.12ZM81.0052 26.41C81.3252 26.41 81.5985 26.3267 81.8252 26.16C82.0585 25.9933 82.2352 25.7767 82.3552 25.51C82.4752 25.2433 82.5352 24.9633 82.5352 24.67V24.66H81.2652C80.7718 24.66 80.4218 24.7467 80.2152 24.92C80.0152 25.0867 79.9152 25.2967 79.9152 25.55C79.9152 25.81 80.0085 26.02 80.1952 26.18C80.3885 26.3333 80.6585 26.41 81.0052 26.41ZM86.4586 27C86.0053 27 85.6486 26.89 85.3886 26.67C85.1286 26.45 84.9986 26.0533 84.9986 25.48V22.75H84.1386V22.04H84.9986L85.1086 20.85H85.8386V22.04H87.2986V22.75H85.8386V25.48C85.8386 25.7933 85.9019 26.0067 86.0286 26.12C86.1553 26.2267 86.3786 26.28 86.6986 26.28H87.2186V27H86.4586ZM90.0158 27.12C89.6024 27.12 89.2591 27.05 88.9858 26.91C88.7124 26.77 88.5091 26.5833 88.3758 26.35C88.2424 26.1167 88.1758 25.8633 88.1758 25.59C88.1758 25.0833 88.3691 24.6933 88.7558 24.42C89.1424 24.1467 89.6691 24.01 90.3358 24.01H91.6758V23.95C91.6758 23.5167 91.5624 23.19 91.3358 22.97C91.1091 22.7433 90.8058 22.63 90.4258 22.63C90.0991 22.63 89.8158 22.7133 89.5758 22.88C89.3424 23.04 89.1958 23.2767 89.1358 23.59H88.2758C88.3091 23.23 88.4291 22.9267 88.6358 22.68C88.8491 22.4333 89.1124 22.2467 89.4258 22.12C89.7391 21.9867 90.0724 21.92 90.4258 21.92C91.1191 21.92 91.6391 22.1067 91.9858 22.48C92.3391 22.8467 92.5158 23.3367 92.5158 23.95V27H91.7658L91.7158 26.11C91.5758 26.39 91.3691 26.63 91.0958 26.83C90.8291 27.0233 90.4691 27.12 90.0158 27.12ZM90.1458 26.41C90.4658 26.41 90.7391 26.3267 90.9658 26.16C91.1991 25.9933 91.3758 25.7767 91.4958 25.51C91.6158 25.2433 91.6758 24.9633 91.6758 24.67V24.66H90.4058C89.9124 24.66 89.5624 24.7467 89.3558 24.92C89.1558 25.0867 89.0558 25.2967 89.0558 25.55C89.0558 25.81 89.1491 26.02 89.3358 26.18C89.5291 26.3333 89.7991 26.41 90.1458 26.41ZM94.0659 27.05C93.8993 27.05 93.7593 26.9967 93.6459 26.89C93.5393 26.7767 93.4859 26.64 93.4859 26.48C93.4859 26.32 93.5393 26.1867 93.6459 26.08C93.7593 25.9667 93.8993 25.91 94.0659 25.91C94.2259 25.91 94.3593 25.9667 94.4659 26.08C94.5793 26.1867 94.6359 26.32 94.6359 26.48C94.6359 26.64 94.5793 26.7767 94.4659 26.89C94.3593 26.9967 94.2259 27.05 94.0659 27.05ZM98.8855 20.94C98.7189 20.94 98.5789 20.8867 98.4655 20.78C98.3589 20.6667 98.3055 20.5267 98.3055 20.36C98.3055 20.2 98.3589 20.0667 98.4655 19.96C98.5789 19.8533 98.7189 19.8 98.8855 19.8C99.0455 19.8 99.1822 19.8533 99.2955 19.96C99.4089 20.0667 99.4655 20.2 99.4655 20.36C99.4655 20.5267 99.4089 20.6667 99.2955 20.78C99.1822 20.8867 99.0455 20.94 98.8855 20.94ZM98.4655 27V22.04H99.3055V27H98.4655ZM102.728 27C102.275 27 101.918 26.89 101.658 26.67C101.398 26.45 101.268 26.0533 101.268 25.48V22.75H100.408V22.04H101.268L101.378 20.85H102.108V22.04H103.568V22.75H102.108V25.48C102.108 25.7933 102.171 26.0067 102.298 26.12C102.425 26.2267 102.648 26.28 102.968 26.28H103.488V27H102.728ZM109.562 27.12C109.088 27.12 108.662 27.0133 108.282 26.8C107.908 26.58 107.612 26.2767 107.392 25.89C107.178 25.4967 107.072 25.04 107.072 24.52C107.072 24 107.178 23.5467 107.392 23.16C107.612 22.7667 107.908 22.4633 108.282 22.25C108.662 22.03 109.088 21.92 109.562 21.92C110.148 21.92 110.642 22.0733 111.042 22.38C111.448 22.6867 111.705 23.0967 111.812 23.61H110.952C110.885 23.3033 110.722 23.0667 110.462 22.9C110.202 22.7267 109.898 22.64 109.552 22.64C109.272 22.64 109.008 22.71 108.762 22.85C108.515 22.99 108.315 23.2 108.162 23.48C108.008 23.76 107.932 24.1067 107.932 24.52C107.932 24.9333 108.008 25.28 108.162 25.56C108.315 25.84 108.515 26.0533 108.762 26.2C109.008 26.34 109.272 26.41 109.552 26.41C109.898 26.41 110.202 26.3267 110.462 26.16C110.722 25.9867 110.885 25.7433 110.952 25.43H111.812C111.712 25.93 111.458 26.3367 111.052 26.65C110.645 26.9633 110.148 27.12 109.562 27.12ZM114.635 27.12C114.222 27.12 113.878 27.05 113.605 26.91C113.332 26.77 113.128 26.5833 112.995 26.35C112.862 26.1167 112.795 25.8633 112.795 25.59C112.795 25.0833 112.988 24.6933 113.375 24.42C113.762 24.1467 114.288 24.01 114.955 24.01H116.295V23.95C116.295 23.5167 116.182 23.19 115.955 22.97C115.728 22.7433 115.425 22.63 115.045 22.63C114.718 22.63 114.435 22.7133 114.195 22.88C113.962 23.04 113.815 23.2767 113.755 23.59H112.895C112.928 23.23 113.048 22.9267 113.255 22.68C113.468 22.4333 113.732 22.2467 114.045 22.12C114.358 21.9867 114.692 21.92 115.045 21.92C115.738 21.92 116.258 22.1067 116.605 22.48C116.958 22.8467 117.135 23.3367 117.135 23.95V27H116.385L116.335 26.11C116.195 26.39 115.988 26.63 115.715 26.83C115.448 27.0233 115.088 27.12 114.635 27.12ZM114.765 26.41C115.085 26.41 115.358 26.3267 115.585 26.16C115.818 25.9933 115.995 25.7767 116.115 25.51C116.235 25.2433 116.295 24.9633 116.295 24.67V24.66H115.025C114.532 24.66 114.182 24.7467 113.975 24.92C113.775 25.0867 113.675 25.2967 113.675 25.55C113.675 25.81 113.768 26.02 113.955 26.18C114.148 26.3333 114.418 26.41 114.765 26.41ZM118.395 27V22.04H119.155L119.205 22.93C119.365 22.6167 119.595 22.37 119.895 22.19C120.195 22.01 120.535 21.92 120.915 21.92C121.502 21.92 121.968 22.1 122.315 22.46C122.668 22.8133 122.845 23.36 122.845 24.1V27H122.005V24.19C122.005 23.1567 121.578 22.64 120.725 22.64C120.298 22.64 119.942 22.7967 119.655 23.11C119.375 23.4167 119.235 23.8567 119.235 24.43V27H118.395ZM52.34 42.12C51.9267 42.12 51.5833 42.05 51.31 41.91C51.0367 41.77 50.8333 41.5833 50.7 41.35C50.5667 41.1167 50.5 40.8633 50.5 40.59C50.5 40.0833 50.6933 39.6933 51.08 39.42C51.4667 39.1467 51.9933 39.01 52.66 39.01H54V38.95C54 38.5167 53.8867 38.19 53.66 37.97C53.4333 37.7433 53.13 37.63 52.75 37.63C52.4233 37.63 52.14 37.7133 51.9 37.88C51.6667 38.04 51.52 38.2767 51.46 38.59H50.6C50.6333 38.23 50.7533 37.9267 50.96 37.68C51.1733 37.4333 51.4367 37.2467 51.75 37.12C52.0633 36.9867 52.3967 36.92 52.75 36.92C53.4433 36.92 53.9633 37.1067 54.31 37.48C54.6633 37.8467 54.84 38.3367 54.84 38.95V42H54.09L54.04 41.11C53.9 41.39 53.6933 41.63 53.42 41.83C53.1533 42.0233 52.7933 42.12 52.34 42.12ZM52.47 41.41C52.79 41.41 53.0633 41.3267 53.29 41.16C53.5233 40.9933 53.7 40.7767 53.82 40.51C53.94 40.2433 54 39.9633 54 39.67V39.66H52.73C52.2367 39.66 51.8867 39.7467 51.68 39.92C51.48 40.0867 51.38 40.2967 51.38 40.55C51.38 40.81 51.4733 41.02 51.66 41.18C51.8533 41.3333 52.1233 41.41 52.47 41.41ZM58.3502 42.12C57.8568 42.12 57.4235 42.0067 57.0502 41.78C56.6835 41.5533 56.3968 41.2433 56.1902 40.85C55.9902 40.4567 55.8902 40.01 55.8902 39.51C55.8902 39.01 55.9935 38.5667 56.2002 38.18C56.4068 37.7867 56.6935 37.48 57.0602 37.26C57.4268 37.0333 57.8602 36.92 58.3602 36.92C58.7668 36.92 59.1268 37.0033 59.4402 37.17C59.7535 37.3367 59.9968 37.57 60.1702 37.87V34.8H61.0102V42H60.2502L60.1702 41.18C60.0102 41.42 59.7802 41.6367 59.4802 41.83C59.1802 42.0233 58.8035 42.12 58.3502 42.12ZM58.4402 41.39C58.7735 41.39 59.0668 41.3133 59.3202 41.16C59.5802 41 59.7802 40.78 59.9202 40.5C60.0668 40.22 60.1402 39.8933 60.1402 39.52C60.1402 39.1467 60.0668 38.82 59.9202 38.54C59.7802 38.26 59.5802 38.0433 59.3202 37.89C59.0668 37.73 58.7735 37.65 58.4402 37.65C58.1135 37.65 57.8202 37.73 57.5602 37.89C57.3068 38.0433 57.1068 38.26 56.9602 38.54C56.8202 38.82 56.7502 39.1467 56.7502 39.52C56.7502 39.8933 56.8202 40.22 56.9602 40.5C57.1068 40.78 57.3068 41 57.5602 41.16C57.8202 41.3133 58.1135 41.39 58.4402 41.39ZM64.6295 42.12C64.1361 42.12 63.7028 42.0067 63.3295 41.78C62.9628 41.5533 62.6761 41.2433 62.4695 40.85C62.2695 40.4567 62.1695 40.01 62.1695 39.51C62.1695 39.01 62.2728 38.5667 62.4795 38.18C62.6861 37.7867 62.9728 37.48 63.3395 37.26C63.7061 37.0333 64.1395 36.92 64.6395 36.92C65.0461 36.92 65.4061 37.0033 65.7195 37.17C66.0328 37.3367 66.2761 37.57 66.4495 37.87V34.8H67.2895V42H66.5295L66.4495 41.18C66.2895 41.42 66.0595 41.6367 65.7595 41.83C65.4595 42.0233 65.0828 42.12 64.6295 42.12ZM64.7195 41.39C65.0528 41.39 65.3461 41.3133 65.5995 41.16C65.8595 41 66.0595 40.78 66.1995 40.5C66.3461 40.22 66.4195 39.8933 66.4195 39.52C66.4195 39.1467 66.3461 38.82 66.1995 38.54C66.0595 38.26 65.8595 38.0433 65.5995 37.89C65.3461 37.73 65.0528 37.65 64.7195 37.65C64.3928 37.65 64.0995 37.73 63.8395 37.89C63.5861 38.0433 63.3861 38.26 63.2395 38.54C63.0995 38.82 63.0295 39.1467 63.0295 39.52C63.0295 39.8933 63.0995 40.22 63.2395 40.5C63.3861 40.78 63.5861 41 63.8395 41.16C64.0995 41.3133 64.3928 41.39 64.7195 41.39ZM71.3052 42V37.04H72.0652L72.1152 37.93C72.2752 37.6167 72.5052 37.37 72.8052 37.19C73.1052 37.01 73.4452 36.92 73.8252 36.92C74.4119 36.92 74.8786 37.1 75.2252 37.46C75.5786 37.8133 75.7552 38.36 75.7552 39.1V42H74.9152V39.19C74.9152 38.1567 74.4886 37.64 73.6352 37.64C73.2086 37.64 72.8519 37.7967 72.5652 38.11C72.2852 38.4167 72.1452 38.8567 72.1452 39.43V42H71.3052ZM79.2879 42.12C78.8212 42.12 78.4012 42.0133 78.0279 41.8C77.6546 41.5867 77.3579 41.2867 77.1379 40.9C76.9246 40.5067 76.8179 40.0467 76.8179 39.52C76.8179 38.9933 76.9279 38.5367 77.1479 38.15C77.3679 37.7567 77.6646 37.4533 78.0379 37.24C78.4179 37.0267 78.8412 36.92 79.3079 36.92C79.7746 36.92 80.1946 37.0267 80.5679 37.24C80.9412 37.4533 81.2346 37.7567 81.4479 38.15C81.6679 38.5367 81.7779 38.9933 81.7779 39.52C81.7779 40.0467 81.6679 40.5067 81.4479 40.9C81.2279 41.2867 80.9279 41.5867 80.5479 41.8C80.1746 42.0133 79.7546 42.12 79.2879 42.12ZM79.2879 41.4C79.5746 41.4 79.8412 41.33 80.0879 41.19C80.3346 41.05 80.5346 40.84 80.6879 40.56C80.8412 40.28 80.9179 39.9333 80.9179 39.52C80.9179 39.1067 80.8412 38.76 80.6879 38.48C80.5412 38.2 80.3446 37.99 80.0979 37.85C79.8512 37.71 79.5879 37.64 79.3079 37.64C79.0212 37.64 78.7546 37.71 78.5079 37.85C78.2612 37.99 78.0612 38.2 77.9079 38.48C77.7546 38.76 77.6779 39.1067 77.6779 39.52C77.6779 39.9333 77.7546 40.28 77.9079 40.56C78.0612 40.84 78.2579 41.05 78.4979 41.19C78.7446 41.33 79.0079 41.4 79.2879 41.4ZM84.7105 42C84.2572 42 83.9005 41.89 83.6405 41.67C83.3805 41.45 83.2505 41.0533 83.2505 40.48V37.75H82.3905V37.04H83.2505L83.3605 35.85H84.0905V37.04H85.5505V37.75H84.0905V40.48C84.0905 40.7933 84.1539 41.0067 84.2805 41.12C84.4072 41.2267 84.6305 41.28 84.9505 41.28H85.4705V42H84.7105ZM88.711 42.12C88.2377 42.12 87.8177 42.0133 87.451 41.8C87.0843 41.58 86.7943 41.2767 86.581 40.89C86.3743 40.5033 86.271 40.0467 86.271 39.52C86.271 39 86.3743 38.5467 86.581 38.16C86.7877 37.7667 87.0743 37.4633 87.441 37.25C87.8143 37.03 88.2443 36.92 88.731 36.92C89.211 36.92 89.6243 37.03 89.971 37.25C90.3243 37.4633 90.5943 37.7467 90.781 38.1C90.9677 38.4533 91.061 38.8333 91.061 39.24C91.061 39.3133 91.0577 39.3867 91.051 39.46C91.051 39.5333 91.051 39.6167 91.051 39.71H87.101C87.121 40.09 87.2077 40.4067 87.361 40.66C87.521 40.9067 87.7177 41.0933 87.951 41.22C88.191 41.3467 88.4443 41.41 88.711 41.41C89.0577 41.41 89.3477 41.33 89.581 41.17C89.8143 41.01 89.9843 40.7933 90.091 40.52H90.921C90.7877 40.98 90.531 41.3633 90.151 41.67C89.7777 41.97 89.2977 42.12 88.711 42.12ZM88.711 37.63C88.311 37.63 87.9543 37.7533 87.641 38C87.3343 38.24 87.1577 38.5933 87.111 39.06H90.231C90.211 38.6133 90.0577 38.2633 89.771 38.01C89.4843 37.7567 89.131 37.63 88.711 37.63ZM94.0744 42.12C93.481 42.12 92.9877 41.97 92.5944 41.67C92.201 41.37 91.971 40.9633 91.9044 40.45H92.7644C92.8177 40.71 92.9544 40.9367 93.1744 41.13C93.401 41.3167 93.7044 41.41 94.0844 41.41C94.4377 41.41 94.6977 41.3367 94.8644 41.19C95.031 41.0367 95.1144 40.8567 95.1144 40.65C95.1144 40.35 95.0044 40.15 94.7844 40.05C94.571 39.95 94.2677 39.86 93.8744 39.78C93.6077 39.7267 93.341 39.65 93.0744 39.55C92.8077 39.45 92.5844 39.31 92.4044 39.13C92.2244 38.9433 92.1344 38.7 92.1344 38.4C92.1344 37.9667 92.2944 37.6133 92.6144 37.34C92.941 37.06 93.381 36.92 93.9344 36.92C94.461 36.92 94.891 37.0533 95.2244 37.32C95.5644 37.58 95.761 37.9533 95.8144 38.44H94.9844C94.951 38.1867 94.841 37.99 94.6544 37.85C94.4744 37.7033 94.231 37.63 93.9244 37.63C93.6244 37.63 93.391 37.6933 93.2244 37.82C93.0644 37.9467 92.9844 38.1133 92.9844 38.32C92.9844 38.52 93.0877 38.6767 93.2944 38.79C93.5077 38.9033 93.7944 39 94.1544 39.08C94.461 39.1467 94.751 39.23 95.0244 39.33C95.3044 39.4233 95.531 39.5667 95.7044 39.76C95.8844 39.9467 95.9744 40.22 95.9744 40.58C95.981 41.0267 95.811 41.3967 95.4644 41.69C95.1244 41.9767 94.661 42.12 94.0744 42.12ZM100.091 42V37.75H99.3409V37.04H100.091V36.18C100.091 35.7 100.211 35.35 100.451 35.13C100.691 34.91 101.041 34.8 101.501 34.8H102.001V35.52H101.631C101.378 35.52 101.198 35.5733 101.091 35.68C100.984 35.78 100.931 35.9533 100.931 36.2V37.04H102.151V37.75H100.931V42H100.091ZM105.216 42.12C104.749 42.12 104.329 42.0133 103.956 41.8C103.582 41.5867 103.286 41.2867 103.066 40.9C102.852 40.5067 102.746 40.0467 102.746 39.52C102.746 38.9933 102.856 38.5367 103.076 38.15C103.296 37.7567 103.592 37.4533 103.966 37.24C104.346 37.0267 104.769 36.92 105.236 36.92C105.702 36.92 106.122 37.0267 106.496 37.24C106.869 37.4533 107.162 37.7567 107.376 38.15C107.596 38.5367 107.706 38.9933 107.706 39.52C107.706 40.0467 107.596 40.5067 107.376 40.9C107.156 41.2867 106.856 41.5867 106.476 41.8C106.102 42.0133 105.682 42.12 105.216 42.12ZM105.216 41.4C105.502 41.4 105.769 41.33 106.016 41.19C106.262 41.05 106.462 40.84 106.616 40.56C106.769 40.28 106.846 39.9333 106.846 39.52C106.846 39.1067 106.769 38.76 106.616 38.48C106.469 38.2 106.272 37.99 106.026 37.85C105.779 37.71 105.516 37.64 105.236 37.64C104.949 37.64 104.682 37.71 104.436 37.85C104.189 37.99 103.989 38.2 103.836 38.48C103.682 38.76 103.606 39.1067 103.606 39.52C103.606 39.9333 103.682 40.28 103.836 40.56C103.989 40.84 104.186 41.05 104.426 41.19C104.672 41.33 104.936 41.4 105.216 41.4ZM108.874 42V37.04H109.634L109.704 37.99C109.857 37.6633 110.09 37.4033 110.404 37.21C110.717 37.0167 111.104 36.92 111.564 36.92V37.8H111.334C111.04 37.8 110.77 37.8533 110.524 37.96C110.277 38.06 110.08 38.2333 109.934 38.48C109.787 38.7267 109.714 39.0667 109.714 39.5V42H108.874ZM52.65 57C52.1967 57 51.84 56.89 51.58 56.67C51.32 56.45 51.19 56.0533 51.19 55.48V52.75H50.33V52.04H51.19L51.3 50.85H52.03V52.04H53.49V52.75H52.03V55.48C52.03 55.7933 52.0933 56.0067 52.22 56.12C52.3467 56.2267 52.57 56.28 52.89 56.28H53.41V57H52.65ZM54.5572 57V49.8H55.3972V52.89C55.5639 52.5833 55.8005 52.3467 56.1072 52.18C56.4139 52.0067 56.7472 51.92 57.1072 51.92C57.6805 51.92 58.1405 52.1 58.4872 52.46C58.8339 52.8133 59.0072 53.36 59.0072 54.1V57H58.1772V54.19C58.1772 53.1567 57.7605 52.64 56.9272 52.64C56.4939 52.64 56.1305 52.7967 55.8372 53.11C55.5439 53.4167 55.3972 53.8567 55.3972 54.43V57H54.5572ZM60.7898 50.94C60.6232 50.94 60.4832 50.8867 60.3698 50.78C60.2632 50.6667 60.2098 50.5267 60.2098 50.36C60.2098 50.2 60.2632 50.0667 60.3698 49.96C60.4832 49.8533 60.6232 49.8 60.7898 49.8C60.9498 49.8 61.0865 49.8533 61.1998 49.96C61.3132 50.0667 61.3698 50.2 61.3698 50.36C61.3698 50.5267 61.3132 50.6667 61.1998 50.78C61.0865 50.8867 60.9498 50.94 60.7898 50.94ZM60.3698 57V52.04H61.2098V57H60.3698ZM64.5724 57.12C63.9791 57.12 63.4858 56.97 63.0924 56.67C62.6991 56.37 62.4691 55.9633 62.4024 55.45H63.2624C63.3158 55.71 63.4524 55.9367 63.6724 56.13C63.8991 56.3167 64.2024 56.41 64.5824 56.41C64.9358 56.41 65.1958 56.3367 65.3624 56.19C65.5291 56.0367 65.6124 55.8567 65.6124 55.65C65.6124 55.35 65.5024 55.15 65.2824 55.05C65.0691 54.95 64.7658 54.86 64.3724 54.78C64.1058 54.7267 63.8391 54.65 63.5724 54.55C63.3058 54.45 63.0824 54.31 62.9024 54.13C62.7224 53.9433 62.6324 53.7 62.6324 53.4C62.6324 52.9667 62.7924 52.6133 63.1124 52.34C63.4391 52.06 63.8791 51.92 64.4324 51.92C64.9591 51.92 65.3891 52.0533 65.7224 52.32C66.0624 52.58 66.2591 52.9533 66.3124 53.44H65.4824C65.4491 53.1867 65.3391 52.99 65.1524 52.85C64.9724 52.7033 64.7291 52.63 64.4224 52.63C64.1224 52.63 63.8891 52.6933 63.7224 52.82C63.5624 52.9467 63.4824 53.1133 63.4824 53.32C63.4824 53.52 63.5858 53.6767 63.7924 53.79C64.0058 53.9033 64.2924 54 64.6524 54.08C64.9591 54.1467 65.2491 54.23 65.5224 54.33C65.8024 54.4233 66.0291 54.5667 66.2024 54.76C66.3824 54.9467 66.4724 55.22 66.4724 55.58C66.4791 56.0267 66.3091 56.3967 65.9624 56.69C65.6224 56.9767 65.1591 57.12 64.5724 57.12ZM72.5689 57.12C72.0756 57.12 71.6422 57.0067 71.2689 56.78C70.9022 56.5533 70.6156 56.2433 70.4089 55.85C70.2089 55.4567 70.1089 55.01 70.1089 54.51C70.1089 54.01 70.2122 53.5667 70.4189 53.18C70.6256 52.7867 70.9122 52.48 71.2789 52.26C71.6456 52.0333 72.0789 51.92 72.5789 51.92C72.9856 51.92 73.3456 52.0033 73.6589 52.17C73.9722 52.3367 74.2156 52.57 74.3889 52.87V49.8H75.2289V57H74.4689L74.3889 56.18C74.2289 56.42 73.9989 56.6367 73.6989 56.83C73.3989 57.0233 73.0222 57.12 72.5689 57.12ZM72.6589 56.39C72.9922 56.39 73.2856 56.3133 73.5389 56.16C73.7989 56 73.9989 55.78 74.1389 55.5C74.2856 55.22 74.3589 54.8933 74.3589 54.52C74.3589 54.1467 74.2856 53.82 74.1389 53.54C73.9989 53.26 73.7989 53.0433 73.5389 52.89C73.2856 52.73 72.9922 52.65 72.6589 52.65C72.3322 52.65 72.0389 52.73 71.7789 52.89C71.5256 53.0433 71.3256 53.26 71.1789 53.54C71.0389 53.82 70.9689 54.1467 70.9689 54.52C70.9689 54.8933 71.0389 55.22 71.1789 55.5C71.3256 55.78 71.5256 56 71.7789 56.16C72.0389 56.3133 72.3322 56.39 72.6589 56.39ZM78.2482 57.12C77.8349 57.12 77.4915 57.05 77.2182 56.91C76.9449 56.77 76.7415 56.5833 76.6082 56.35C76.4749 56.1167 76.4082 55.8633 76.4082 55.59C76.4082 55.0833 76.6015 54.6933 76.9882 54.42C77.3749 54.1467 77.9015 54.01 78.5682 54.01H79.9082V53.95C79.9082 53.5167 79.7949 53.19 79.5682 52.97C79.3415 52.7433 79.0382 52.63 78.6582 52.63C78.3315 52.63 78.0482 52.7133 77.8082 52.88C77.5749 53.04 77.4282 53.2767 77.3682 53.59H76.5082C76.5415 53.23 76.6615 52.9267 76.8682 52.68C77.0815 52.4333 77.3449 52.2467 77.6582 52.12C77.9715 51.9867 78.3049 51.92 78.6582 51.92C79.3515 51.92 79.8715 52.1067 80.2182 52.48C80.5715 52.8467 80.7482 53.3367 80.7482 53.95V57H79.9982L79.9482 56.11C79.8082 56.39 79.6015 56.63 79.3282 56.83C79.0615 57.0233 78.7015 57.12 78.2482 57.12ZM78.3782 56.41C78.6982 56.41 78.9715 56.3267 79.1982 56.16C79.4315 55.9933 79.6082 55.7767 79.7282 55.51C79.8482 55.2433 79.9082 54.9633 79.9082 54.67V54.66H78.6382C78.1449 54.66 77.7949 54.7467 77.5882 54.92C77.3882 55.0867 77.2882 55.2967 77.2882 55.55C77.2882 55.81 77.3815 56.02 77.5682 56.18C77.7615 56.3333 78.0315 56.41 78.3782 56.41ZM83.8316 57C83.3783 57 83.0216 56.89 82.7616 56.67C82.5016 56.45 82.3716 56.0533 82.3716 55.48V52.75H81.5116V52.04H82.3716L82.4816 50.85H83.2116V52.04H84.6716V52.75H83.2116V55.48C83.2116 55.7933 83.275 56.0067 83.4016 56.12C83.5283 56.2267 83.7516 56.28 84.0716 56.28H84.5916V57H83.8316ZM87.3888 57.12C86.9755 57.12 86.6322 57.05 86.3588 56.91C86.0855 56.77 85.8822 56.5833 85.7488 56.35C85.6155 56.1167 85.5488 55.8633 85.5488 55.59C85.5488 55.0833 85.7422 54.6933 86.1288 54.42C86.5155 54.1467 87.0422 54.01 87.7088 54.01H89.0488V53.95C89.0488 53.5167 88.9355 53.19 88.7088 52.97C88.4822 52.7433 88.1788 52.63 87.7988 52.63C87.4722 52.63 87.1888 52.7133 86.9488 52.88C86.7155 53.04 86.5688 53.2767 86.5088 53.59H85.6488C85.6822 53.23 85.8022 52.9267 86.0088 52.68C86.2222 52.4333 86.4855 52.2467 86.7988 52.12C87.1122 51.9867 87.4455 51.92 87.7988 51.92C88.4922 51.92 89.0122 52.1067 89.3588 52.48C89.7122 52.8467 89.8888 53.3367 89.8888 53.95V57H89.1388L89.0888 56.11C88.9488 56.39 88.7422 56.63 88.4688 56.83C88.2022 57.0233 87.8422 57.12 87.3888 57.12ZM87.5188 56.41C87.8388 56.41 88.1122 56.3267 88.3388 56.16C88.5722 55.9933 88.7488 55.7767 88.8688 55.51C88.9888 55.2433 89.0488 54.9633 89.0488 54.67V54.66H87.7788C87.2855 54.66 86.9355 54.7467 86.7288 54.92C86.5288 55.0867 86.4288 55.2967 86.4288 55.55C86.4288 55.81 86.5222 56.02 86.7088 56.18C86.9022 56.3333 87.1722 56.41 87.5188 56.41ZM95.4455 57.12C95.0321 57.12 94.6888 57.05 94.4155 56.91C94.1421 56.77 93.9388 56.5833 93.8055 56.35C93.6721 56.1167 93.6055 55.8633 93.6055 55.59C93.6055 55.0833 93.7988 54.6933 94.1855 54.42C94.5721 54.1467 95.0988 54.01 95.7655 54.01H97.1055V53.95C97.1055 53.5167 96.9921 53.19 96.7655 52.97C96.5388 52.7433 96.2355 52.63 95.8555 52.63C95.5288 52.63 95.2455 52.7133 95.0055 52.88C94.7721 53.04 94.6255 53.2767 94.5655 53.59H93.7055C93.7388 53.23 93.8588 52.9267 94.0655 52.68C94.2788 52.4333 94.5421 52.2467 94.8555 52.12C95.1688 51.9867 95.5021 51.92 95.8555 51.92C96.5488 51.92 97.0688 52.1067 97.4155 52.48C97.7688 52.8467 97.9455 53.3367 97.9455 53.95V57H97.1955L97.1455 56.11C97.0055 56.39 96.7988 56.63 96.5255 56.83C96.2588 57.0233 95.8988 57.12 95.4455 57.12ZM95.5755 56.41C95.8955 56.41 96.1688 56.3267 96.3955 56.16C96.6288 55.9933 96.8055 55.7767 96.9255 55.51C97.0455 55.2433 97.1055 54.9633 97.1055 54.67V54.66H95.8355C95.3421 54.66 94.9921 54.7467 94.7855 54.92C94.5855 55.0867 94.4855 55.2967 94.4855 55.55C94.4855 55.81 94.5788 56.02 94.7655 56.18C94.9588 56.3333 95.2288 56.41 95.5755 56.41ZM99.2056 57V52.04H99.9656L100.016 52.93C100.176 52.6167 100.406 52.37 100.706 52.19C101.006 52.01 101.346 51.92 101.726 51.92C102.312 51.92 102.779 52.1 103.126 52.46C103.479 52.8133 103.656 53.36 103.656 54.1V57H102.816V54.19C102.816 53.1567 102.389 52.64 101.536 52.64C101.109 52.64 100.752 52.7967 100.466 53.11C100.186 53.4167 100.046 53.8567 100.046 54.43V57H99.2056ZM107.178 57.12C106.685 57.12 106.252 57.0067 105.878 56.78C105.512 56.5533 105.225 56.2433 105.018 55.85C104.818 55.4567 104.718 55.01 104.718 54.51C104.718 54.01 104.822 53.5667 105.028 53.18C105.235 52.7867 105.522 52.48 105.888 52.26C106.255 52.0333 106.688 51.92 107.188 51.92C107.595 51.92 107.955 52.0033 108.268 52.17C108.582 52.3367 108.825 52.57 108.998 52.87V49.8H109.838V57H109.078L108.998 56.18C108.838 56.42 108.608 56.6367 108.308 56.83C108.008 57.0233 107.632 57.12 107.178 57.12ZM107.268 56.39C107.602 56.39 107.895 56.3133 108.148 56.16C108.408 56 108.608 55.78 108.748 55.5C108.895 55.22 108.968 54.8933 108.968 54.52C108.968 54.1467 108.895 53.82 108.748 53.54C108.608 53.26 108.408 53.0433 108.148 52.89C107.895 52.73 107.602 52.65 107.268 52.65C106.942 52.65 106.648 52.73 106.388 52.89C106.135 53.0433 105.935 53.26 105.788 53.54C105.648 53.82 105.578 54.1467 105.578 54.52C105.578 54.8933 105.648 55.22 105.788 55.5C105.935 55.78 106.135 56 106.388 56.16C106.648 56.3133 106.942 56.39 107.268 56.39ZM52.12 72L50.24 67.04H51.12L52.61 71.19L54.11 67.04H54.97L53.09 72H52.12ZM56.4148 65.94C56.2482 65.94 56.1082 65.8867 55.9948 65.78C55.8882 65.6667 55.8348 65.5267 55.8348 65.36C55.8348 65.2 55.8882 65.0667 55.9948 64.96C56.1082 64.8533 56.2482 64.8 56.4148 64.8C56.5748 64.8 56.7115 64.8533 56.8248 64.96C56.9382 65.0667 56.9948 65.2 56.9948 65.36C56.9948 65.5267 56.9382 65.6667 56.8248 65.78C56.7115 65.8867 56.5748 65.94 56.4148 65.94ZM55.9948 72V67.04H56.8348V72H55.9948ZM60.5274 72.12C60.0541 72.12 59.6341 72.0133 59.2674 71.8C58.9008 71.58 58.6108 71.2767 58.3974 70.89C58.1908 70.5033 58.0874 70.0467 58.0874 69.52C58.0874 69 58.1908 68.5467 58.3974 68.16C58.6041 67.7667 58.8908 67.4633 59.2574 67.25C59.6308 67.03 60.0608 66.92 60.5474 66.92C61.0274 66.92 61.4408 67.03 61.7874 67.25C62.1408 67.4633 62.4108 67.7467 62.5974 68.1C62.7841 68.4533 62.8774 68.8333 62.8774 69.24C62.8774 69.3133 62.8741 69.3867 62.8674 69.46C62.8674 69.5333 62.8674 69.6167 62.8674 69.71H58.9174C58.9374 70.09 59.0241 70.4067 59.1774 70.66C59.3374 70.9067 59.5341 71.0933 59.7674 71.22C60.0074 71.3467 60.2608 71.41 60.5274 71.41C60.8741 71.41 61.1641 71.33 61.3974 71.17C61.6308 71.01 61.8008 70.7933 61.9074 70.52H62.7374C62.6041 70.98 62.3474 71.3633 61.9674 71.67C61.5941 71.97 61.1141 72.12 60.5274 72.12ZM60.5274 67.63C60.1274 67.63 59.7708 67.7533 59.4574 68C59.1508 68.24 58.9741 68.5933 58.9274 69.06H62.0474C62.0274 68.6133 61.8741 68.2633 61.5874 68.01C61.3008 67.7567 60.9474 67.63 60.5274 67.63ZM64.7955 72L63.3455 67.04H64.1855L65.2355 70.93L66.3955 67.04H67.3455L68.5155 70.93L69.5555 67.04H70.4055L68.9555 72H68.0955L66.8755 67.91L65.6555 72H64.7955ZM75.941 72C75.4877 72 75.131 71.89 74.871 71.67C74.611 71.45 74.481 71.0533 74.481 70.48V67.75H73.621V67.04H74.481L74.591 65.85H75.321V67.04H76.781V67.75H75.321V70.48C75.321 70.7933 75.3843 71.0067 75.511 71.12C75.6377 71.2267 75.861 71.28 76.181 71.28H76.701V72H75.941ZM77.8482 72V64.8H78.6882V67.89C78.8549 67.5833 79.0915 67.3467 79.3982 67.18C79.7049 67.0067 80.0382 66.92 80.3982 66.92C80.9715 66.92 81.4315 67.1 81.7782 67.46C82.1249 67.8133 82.2982 68.36 82.2982 69.1V72H81.4682V69.19C81.4682 68.1567 81.0515 67.64 80.2182 67.64C79.7849 67.64 79.4215 67.7967 79.1282 68.11C78.8349 68.4167 78.6882 68.8567 78.6882 69.43V72H77.8482ZM85.8009 72.12C85.3275 72.12 84.9075 72.0133 84.5409 71.8C84.1742 71.58 83.8842 71.2767 83.6709 70.89C83.4642 70.5033 83.3609 70.0467 83.3609 69.52C83.3609 69 83.4642 68.5467 83.6709 68.16C83.8775 67.7667 84.1642 67.4633 84.5309 67.25C84.9042 67.03 85.3342 66.92 85.8209 66.92C86.3009 66.92 86.7142 67.03 87.0609 67.25C87.4142 67.4633 87.6842 67.7467 87.8709 68.1C88.0575 68.4533 88.1509 68.8333 88.1509 69.24C88.1509 69.3133 88.1475 69.3867 88.1409 69.46C88.1409 69.5333 88.1409 69.6167 88.1409 69.71H84.1909C84.2109 70.09 84.2975 70.4067 84.4509 70.66C84.6109 70.9067 84.8075 71.0933 85.0409 71.22C85.2809 71.3467 85.5342 71.41 85.8009 71.41C86.1475 71.41 86.4375 71.33 86.6709 71.17C86.9042 71.01 87.0742 70.7933 87.1809 70.52H88.0109C87.8775 70.98 87.6209 71.3633 87.2409 71.67C86.8675 71.97 86.3875 72.12 85.8009 72.12ZM85.8009 67.63C85.4009 67.63 85.0442 67.7533 84.7309 68C84.4242 68.24 84.2475 68.5933 84.2009 69.06H87.3209C87.3009 68.6133 87.1475 68.2633 86.8609 68.01C86.5742 67.7567 86.2209 67.63 85.8009 67.63ZM91.9107 72V64.8H92.7507V67.89C92.9174 67.5833 93.154 67.3467 93.4607 67.18C93.7674 67.0067 94.1007 66.92 94.4607 66.92C95.034 66.92 95.494 67.1 95.8407 67.46C96.1874 67.8133 96.3607 68.36 96.3607 69.1V72H95.5307V69.19C95.5307 68.1567 95.114 67.64 94.2807 67.64C93.8474 67.64 93.484 67.7967 93.1907 68.11C92.8974 68.4167 92.7507 68.8567 92.7507 69.43V72H91.9107ZM98.1434 65.94C97.9767 65.94 97.8367 65.8867 97.7234 65.78C97.6167 65.6667 97.5634 65.5267 97.5634 65.36C97.5634 65.2 97.6167 65.0667 97.7234 64.96C97.8367 64.8533 97.9767 64.8 98.1434 64.8C98.3034 64.8 98.44 64.8533 98.5534 64.96C98.6667 65.0667 98.7234 65.2 98.7234 65.36C98.7234 65.5267 98.6667 65.6667 98.5534 65.78C98.44 65.8867 98.3034 65.94 98.1434 65.94ZM97.7234 72V67.04H98.5634V72H97.7234ZM101.926 72.12C101.333 72.12 100.839 71.97 100.446 71.67C100.053 71.37 99.8226 70.9633 99.7559 70.45H100.616C100.669 70.71 100.806 70.9367 101.026 71.13C101.253 71.3167 101.556 71.41 101.936 71.41C102.289 71.41 102.549 71.3367 102.716 71.19C102.883 71.0367 102.966 70.8567 102.966 70.65C102.966 70.35 102.856 70.15 102.636 70.05C102.423 69.95 102.119 69.86 101.726 69.78C101.459 69.7267 101.193 69.65 100.926 69.55C100.659 69.45 100.436 69.31 100.256 69.13C100.076 68.9433 99.9859 68.7 99.9859 68.4C99.9859 67.9667 100.146 67.6133 100.466 67.34C100.793 67.06 101.233 66.92 101.786 66.92C102.313 66.92 102.743 67.0533 103.076 67.32C103.416 67.58 103.613 67.9533 103.666 68.44H102.836C102.803 68.1867 102.693 67.99 102.506 67.85C102.326 67.7033 102.083 67.63 101.776 67.63C101.476 67.63 101.243 67.6933 101.076 67.82C100.916 67.9467 100.836 68.1133 100.836 68.32C100.836 68.52 100.939 68.6767 101.146 68.79C101.359 68.9033 101.646 69 102.006 69.08C102.313 69.1467 102.603 69.23 102.876 69.33C103.156 69.4233 103.383 69.5667 103.556 69.76C103.736 69.9467 103.826 70.22 103.826 70.58C103.833 71.0267 103.663 71.3967 103.316 71.69C102.976 71.9767 102.513 72.12 101.926 72.12ZM106.761 72C106.308 72 105.951 71.89 105.691 71.67C105.431 71.45 105.301 71.0533 105.301 70.48V67.75H104.441V67.04H105.301L105.411 65.85H106.141V67.04H107.601V67.75H106.141V70.48C106.141 70.7933 106.205 71.0067 106.331 71.12C106.458 71.2267 106.681 71.28 107.001 71.28H107.521V72H106.761ZM110.792 72.12C110.325 72.12 109.905 72.0133 109.532 71.8C109.158 71.5867 108.862 71.2867 108.642 70.9C108.428 70.5067 108.322 70.0467 108.322 69.52C108.322 68.9933 108.432 68.5367 108.652 68.15C108.872 67.7567 109.168 67.4533 109.542 67.24C109.922 67.0267 110.345 66.92 110.812 66.92C111.278 66.92 111.698 67.0267 112.072 67.24C112.445 67.4533 112.738 67.7567 112.952 68.15C113.172 68.5367 113.282 68.9933 113.282 69.52C113.282 70.0467 113.172 70.5067 112.952 70.9C112.732 71.2867 112.432 71.5867 112.052 71.8C111.678 72.0133 111.258 72.12 110.792 72.12ZM110.792 71.4C111.078 71.4 111.345 71.33 111.592 71.19C111.838 71.05 112.038 70.84 112.192 70.56C112.345 70.28 112.422 69.9333 112.422 69.52C112.422 69.1067 112.345 68.76 112.192 68.48C112.045 68.2 111.848 67.99 111.602 67.85C111.355 67.71 111.092 67.64 110.812 67.64C110.525 67.64 110.258 67.71 110.012 67.85C109.765 67.99 109.565 68.2 109.412 68.48C109.258 68.76 109.182 69.1067 109.182 69.52C109.182 69.9333 109.258 70.28 109.412 70.56C109.565 70.84 109.762 71.05 110.002 71.19C110.248 71.33 110.512 71.4 110.792 71.4ZM114.45 72V67.04H115.21L115.28 67.99C115.433 67.6633 115.666 67.4033 115.98 67.21C116.293 67.0167 116.68 66.92 117.14 66.92V67.8H116.91C116.616 67.8 116.346 67.8533 116.1 67.96C115.853 68.06 115.656 68.2333 115.51 68.48C115.363 68.7267 115.29 69.0667 115.29 69.5V72H114.45ZM118.623 74.2L119.853 71.52H119.563L117.593 67.04H118.503L120.143 70.9L121.883 67.04H122.753L119.503 74.2H118.623ZM52.34 87.12C51.9267 87.12 51.5833 87.05 51.31 86.91C51.0367 86.77 50.8333 86.5833 50.7 86.35C50.5667 86.1167 50.5 85.8633 50.5 85.59C50.5 85.0833 50.6933 84.6933 51.08 84.42C51.4667 84.1467 51.9933 84.01 52.66 84.01H54V83.95C54 83.5167 53.8867 83.19 53.66 82.97C53.4333 82.7433 53.13 82.63 52.75 82.63C52.4233 82.63 52.14 82.7133 51.9 82.88C51.6667 83.04 51.52 83.2767 51.46 83.59H50.6C50.6333 83.23 50.7533 82.9267 50.96 82.68C51.1733 82.4333 51.4367 82.2467 51.75 82.12C52.0633 81.9867 52.3967 81.92 52.75 81.92C53.4433 81.92 53.9633 82.1067 54.31 82.48C54.6633 82.8467 54.84 83.3367 54.84 83.95V87H54.09L54.04 86.11C53.9 86.39 53.6933 86.63 53.42 86.83C53.1533 87.0233 52.7933 87.12 52.34 87.12ZM52.47 86.41C52.79 86.41 53.0633 86.3267 53.29 86.16C53.5233 85.9933 53.7 85.7767 53.82 85.51C53.94 85.2433 54 84.9633 54 84.67V84.66H52.73C52.2367 84.66 51.8867 84.7467 51.68 84.92C51.48 85.0867 51.38 85.2967 51.38 85.55C51.38 85.81 51.4733 86.02 51.66 86.18C51.8533 86.3333 52.1233 86.41 52.47 86.41ZM56.1002 87V82.04H56.8602L56.9102 82.93C57.0702 82.6167 57.3002 82.37 57.6002 82.19C57.9002 82.01 58.2402 81.92 58.6202 81.92C59.2068 81.92 59.6735 82.1 60.0202 82.46C60.3735 82.8133 60.5502 83.36 60.5502 84.1V87H59.7102V84.19C59.7102 83.1567 59.2835 82.64 58.4302 82.64C58.0035 82.64 57.6468 82.7967 57.3602 83.11C57.0802 83.4167 56.9402 83.8567 56.9402 84.43V87H56.1002ZM64.0728 87.12C63.5795 87.12 63.1461 87.0067 62.7728 86.78C62.4061 86.5533 62.1195 86.2433 61.9128 85.85C61.7128 85.4567 61.6128 85.01 61.6128 84.51C61.6128 84.01 61.7161 83.5667 61.9228 83.18C62.1295 82.7867 62.4161 82.48 62.7828 82.26C63.1495 82.0333 63.5828 81.92 64.0828 81.92C64.4895 81.92 64.8495 82.0033 65.1628 82.17C65.4761 82.3367 65.7195 82.57 65.8928 82.87V79.8H66.7328V87H65.9728L65.8928 86.18C65.7328 86.42 65.5028 86.6367 65.2028 86.83C64.9028 87.0233 64.5261 87.12 64.0728 87.12ZM64.1628 86.39C64.4961 86.39 64.7895 86.3133 65.0428 86.16C65.3028 86 65.5028 85.78 65.6428 85.5C65.7895 85.22 65.8628 84.8933 65.8628 84.52C65.8628 84.1467 65.7895 83.82 65.6428 83.54C65.5028 83.26 65.3028 83.0433 65.0428 82.89C64.7895 82.73 64.4961 82.65 64.1628 82.65C63.8361 82.65 63.5428 82.73 63.2828 82.89C63.0295 83.0433 62.8295 83.26 62.6828 83.54C62.5428 83.82 62.4728 84.1467 62.4728 84.52C62.4728 84.8933 62.5428 85.22 62.6828 85.5C62.8295 85.78 63.0295 86 63.2828 86.16C63.5428 86.3133 63.8361 86.39 64.1628 86.39ZM72.6486 87.12C72.0553 87.12 71.5619 86.97 71.1686 86.67C70.7753 86.37 70.5453 85.9633 70.4786 85.45H71.3386C71.3919 85.71 71.5286 85.9367 71.7486 86.13C71.9753 86.3167 72.2786 86.41 72.6586 86.41C73.0119 86.41 73.2719 86.3367 73.4386 86.19C73.6053 86.0367 73.6886 85.8567 73.6886 85.65C73.6886 85.35 73.5786 85.15 73.3586 85.05C73.1453 84.95 72.8419 84.86 72.4486 84.78C72.1819 84.7267 71.9153 84.65 71.6486 84.55C71.3819 84.45 71.1586 84.31 70.9786 84.13C70.7986 83.9433 70.7086 83.7 70.7086 83.4C70.7086 82.9667 70.8686 82.6133 71.1886 82.34C71.5153 82.06 71.9553 81.92 72.5086 81.92C73.0353 81.92 73.4653 82.0533 73.7986 82.32C74.1386 82.58 74.3353 82.9533 74.3886 83.44H73.5586C73.5253 83.1867 73.4153 82.99 73.2286 82.85C73.0486 82.7033 72.8053 82.63 72.4986 82.63C72.1986 82.63 71.9653 82.6933 71.7986 82.82C71.6386 82.9467 71.5586 83.1133 71.5586 83.32C71.5586 83.52 71.6619 83.6767 71.8686 83.79C72.0819 83.9033 72.3686 84 72.7286 84.08C73.0353 84.1467 73.3253 84.23 73.5986 84.33C73.8786 84.4233 74.1053 84.5667 74.2786 84.76C74.4586 84.9467 74.5486 85.22 74.5486 85.58C74.5553 86.0267 74.3853 86.3967 74.0386 86.69C73.6986 86.9767 73.2353 87.12 72.6486 87.12ZM77.9786 87.12C77.5053 87.12 77.0853 87.0133 76.7186 86.8C76.3519 86.58 76.0619 86.2767 75.8486 85.89C75.6419 85.5033 75.5386 85.0467 75.5386 84.52C75.5386 84 75.6419 83.5467 75.8486 83.16C76.0553 82.7667 76.3419 82.4633 76.7086 82.25C77.0819 82.03 77.5119 81.92 77.9986 81.92C78.4786 81.92 78.8919 82.03 79.2386 82.25C79.5919 82.4633 79.8619 82.7467 80.0486 83.1C80.2353 83.4533 80.3286 83.8333 80.3286 84.24C80.3286 84.3133 80.3253 84.3867 80.3186 84.46C80.3186 84.5333 80.3186 84.6167 80.3186 84.71H76.3686C76.3886 85.09 76.4753 85.4067 76.6286 85.66C76.7886 85.9067 76.9853 86.0933 77.2186 86.22C77.4586 86.3467 77.7119 86.41 77.9786 86.41C78.3253 86.41 78.6153 86.33 78.8486 86.17C79.0819 86.01 79.2519 85.7933 79.3586 85.52H80.1886C80.0553 85.98 79.7986 86.3633 79.4186 86.67C79.0453 86.97 78.5653 87.12 77.9786 87.12ZM77.9786 82.63C77.5786 82.63 77.2219 82.7533 76.9086 83C76.6019 83.24 76.4253 83.5933 76.3786 84.06H79.4986C79.4786 83.6133 79.3253 83.2633 79.0386 83.01C78.7519 82.7567 78.3986 82.63 77.9786 82.63ZM81.442 87V82.04H82.202L82.252 82.93C82.412 82.6167 82.642 82.37 82.942 82.19C83.242 82.01 83.582 81.92 83.962 81.92C84.5486 81.92 85.0153 82.1 85.362 82.46C85.7153 82.8133 85.892 83.36 85.892 84.1V87H85.052V84.19C85.052 83.1567 84.6253 82.64 83.772 82.64C83.3453 82.64 82.9886 82.7967 82.702 83.11C82.422 83.4167 82.282 83.8567 82.282 84.43V87H81.442ZM89.4146 87.12C88.9213 87.12 88.4879 87.0067 88.1146 86.78C87.7479 86.5533 87.4613 86.2433 87.2546 85.85C87.0546 85.4567 86.9546 85.01 86.9546 84.51C86.9546 84.01 87.0579 83.5667 87.2646 83.18C87.4713 82.7867 87.7579 82.48 88.1246 82.26C88.4913 82.0333 88.9246 81.92 89.4246 81.92C89.8313 81.92 90.1913 82.0033 90.5046 82.17C90.8179 82.3367 91.0613 82.57 91.2346 82.87V79.8H92.0746V87H91.3146L91.2346 86.18C91.0746 86.42 90.8446 86.6367 90.5446 86.83C90.2446 87.0233 89.8679 87.12 89.4146 87.12ZM89.5046 86.39C89.8379 86.39 90.1313 86.3133 90.3846 86.16C90.6446 86 90.8446 85.78 90.9846 85.5C91.1313 85.22 91.2046 84.8933 91.2046 84.52C91.2046 84.1467 91.1313 83.82 90.9846 83.54C90.8446 83.26 90.6446 83.0433 90.3846 82.89C90.1313 82.73 89.8379 82.65 89.5046 82.65C89.1779 82.65 88.8846 82.73 88.6246 82.89C88.3713 83.0433 88.1713 83.26 88.0246 83.54C87.8846 83.82 87.8146 84.1467 87.8146 84.52C87.8146 84.8933 87.8846 85.22 88.0246 85.5C88.1713 85.78 88.3713 86 88.6246 86.16C88.8846 86.3133 89.1779 86.39 89.5046 86.39ZM52.34 102.12C51.9267 102.12 51.5833 102.05 51.31 101.91C51.0367 101.77 50.8333 101.583 50.7 101.35C50.5667 101.117 50.5 100.863 50.5 100.59C50.5 100.083 50.6933 99.6933 51.08 99.42C51.4667 99.1467 51.9933 99.01 52.66 99.01H54V98.95C54 98.5167 53.8867 98.19 53.66 97.97C53.4333 97.7433 53.13 97.63 52.75 97.63C52.4233 97.63 52.14 97.7133 51.9 97.88C51.6667 98.04 51.52 98.2767 51.46 98.59H50.6C50.6333 98.23 50.7533 97.9267 50.96 97.68C51.1733 97.4333 51.4367 97.2467 51.75 97.12C52.0633 96.9867 52.3967 96.92 52.75 96.92C53.4433 96.92 53.9633 97.1067 54.31 97.48C54.6633 97.8467 54.84 98.3367 54.84 98.95V102H54.09L54.04 101.11C53.9 101.39 53.6933 101.63 53.42 101.83C53.1533 102.023 52.7933 102.12 52.34 102.12ZM52.47 101.41C52.79 101.41 53.0633 101.327 53.29 101.16C53.5233 100.993 53.7 100.777 53.82 100.51C53.94 100.243 54 99.9633 54 99.67V99.66H52.73C52.2367 99.66 51.8867 99.7467 51.68 99.92C51.48 100.087 51.38 100.297 51.38 100.55C51.38 100.81 51.4733 101.02 51.66 101.18C51.8533 101.333 52.1233 101.41 52.47 101.41ZM57.9234 102C57.4701 102 57.1134 101.89 56.8534 101.67C56.5934 101.45 56.4634 101.053 56.4634 100.48V97.75H55.6034V97.04H56.4634L56.5734 95.85H57.3034V97.04H58.7634V97.75H57.3034V100.48C57.3034 100.793 57.3668 101.007 57.4934 101.12C57.6201 101.227 57.8434 101.28 58.1634 101.28H58.6834V102H57.9234ZM61.7906 102C61.3373 102 60.9806 101.89 60.7206 101.67C60.4606 101.45 60.3306 101.053 60.3306 100.48V97.75H59.4706V97.04H60.3306L60.4406 95.85H61.1706V97.04H62.6306V97.75H61.1706V100.48C61.1706 100.793 61.234 101.007 61.3606 101.12C61.4873 101.227 61.7106 101.28 62.0306 101.28H62.5506V102H61.7906ZM65.3478 102.12C64.9345 102.12 64.5911 102.05 64.3178 101.91C64.0445 101.77 63.8411 101.583 63.7078 101.35C63.5745 101.117 63.5078 100.863 63.5078 100.59C63.5078 100.083 63.7011 99.6933 64.0878 99.42C64.4745 99.1467 65.0011 99.01 65.6678 99.01H67.0078V98.95C67.0078 98.5167 66.8945 98.19 66.6678 97.97C66.4411 97.7433 66.1378 97.63 65.7578 97.63C65.4311 97.63 65.1478 97.7133 64.9078 97.88C64.6745 98.04 64.5278 98.2767 64.4678 98.59H63.6078C63.6411 98.23 63.7611 97.9267 63.9678 97.68C64.1811 97.4333 64.4445 97.2467 64.7578 97.12C65.0711 96.9867 65.4045 96.92 65.7578 96.92C66.4511 96.92 66.9711 97.1067 67.3178 97.48C67.6711 97.8467 67.8478 98.3367 67.8478 98.95V102H67.0978L67.0478 101.11C66.9078 101.39 66.7011 101.63 66.4278 101.83C66.1611 102.023 65.8011 102.12 65.3478 102.12ZM65.4778 101.41C65.7978 101.41 66.0711 101.327 66.2978 101.16C66.5311 100.993 66.7078 100.777 66.8278 100.51C66.9478 100.243 67.0078 99.9633 67.0078 99.67V99.66H65.7378C65.2445 99.66 64.8945 99.7467 64.6878 99.92C64.4878 100.087 64.3878 100.297 64.3878 100.55C64.3878 100.81 64.4811 101.02 64.6678 101.18C64.8611 101.333 65.1311 101.41 65.4778 101.41ZM71.388 102.12C70.9146 102.12 70.488 102.013 70.108 101.8C69.7346 101.58 69.438 101.277 69.218 100.89C69.0046 100.497 68.898 100.04 68.898 99.52C68.898 99 69.0046 98.5467 69.218 98.16C69.438 97.7667 69.7346 97.4633 70.108 97.25C70.488 97.03 70.9146 96.92 71.388 96.92C71.9746 96.92 72.468 97.0733 72.868 97.38C73.2746 97.6867 73.5313 98.0967 73.638 98.61H72.778C72.7113 98.3033 72.548 98.0667 72.288 97.9C72.028 97.7267 71.7246 97.64 71.378 97.64C71.098 97.64 70.8346 97.71 70.588 97.85C70.3413 97.99 70.1413 98.2 69.988 98.48C69.8346 98.76 69.758 99.1067 69.758 99.52C69.758 99.9333 69.8346 100.28 69.988 100.56C70.1413 100.84 70.3413 101.053 70.588 101.2C70.8346 101.34 71.098 101.41 71.378 101.41C71.7246 101.41 72.028 101.327 72.288 101.16C72.548 100.987 72.7113 100.743 72.778 100.43H73.638C73.538 100.93 73.2846 101.337 72.878 101.65C72.4713 101.963 71.9746 102.12 71.388 102.12ZM74.8111 102V94.8H75.6511V97.89C75.8178 97.5833 76.0544 97.3467 76.3611 97.18C76.6678 97.0067 77.0011 96.92 77.3611 96.92C77.9344 96.92 78.3944 97.1 78.7411 97.46C79.0878 97.8133 79.2611 98.36 79.2611 99.1V102H78.4311V99.19C78.4311 98.1567 78.0144 97.64 77.1811 97.64C76.7478 97.64 76.3844 97.7967 76.0911 98.11C75.7978 98.4167 75.6511 98.8567 75.6511 99.43V102H74.8111ZM80.5338 102V97.04H81.2938L81.3538 97.76C81.5138 97.4933 81.7271 97.2867 81.9938 97.14C82.2604 96.9933 82.5604 96.92 82.8938 96.92C83.2871 96.92 83.6238 97 83.9038 97.16C84.1904 97.32 84.4104 97.5633 84.5638 97.89C84.7371 97.59 84.9738 97.3533 85.2738 97.18C85.5804 97.0067 85.9104 96.92 86.2638 96.92C86.8571 96.92 87.3304 97.1 87.6838 97.46C88.0371 97.8133 88.2138 98.36 88.2138 99.1V102H87.3838V99.19C87.3838 98.6767 87.2804 98.29 87.0738 98.03C86.8671 97.77 86.5704 97.64 86.1838 97.64C85.7838 97.64 85.4504 97.7967 85.1838 98.11C84.9238 98.4167 84.7938 98.8567 84.7938 99.43V102H83.9538V99.19C83.9538 98.6767 83.8504 98.29 83.6438 98.03C83.4371 97.77 83.1404 97.64 82.7538 97.64C82.3604 97.64 82.0304 97.7967 81.7638 98.11C81.5038 98.4167 81.3738 98.8567 81.3738 99.43V102H80.5338ZM91.7091 102.12C91.2357 102.12 90.8157 102.013 90.4491 101.8C90.0824 101.58 89.7924 101.277 89.5791 100.89C89.3724 100.503 89.2691 100.047 89.2691 99.52C89.2691 99 89.3724 98.5467 89.5791 98.16C89.7857 97.7667 90.0724 97.4633 90.4391 97.25C90.8124 97.03 91.2424 96.92 91.7291 96.92C92.2091 96.92 92.6224 97.03 92.9691 97.25C93.3224 97.4633 93.5924 97.7467 93.7791 98.1C93.9657 98.4533 94.0591 98.8333 94.0591 99.24C94.0591 99.3133 94.0557 99.3867 94.0491 99.46C94.0491 99.5333 94.0491 99.6167 94.0491 99.71H90.0991C90.1191 100.09 90.2057 100.407 90.3591 100.66C90.5191 100.907 90.7157 101.093 90.9491 101.22C91.1891 101.347 91.4424 101.41 91.7091 101.41C92.0557 101.41 92.3457 101.33 92.5791 101.17C92.8124 101.01 92.9824 100.793 93.0891 100.52H93.9191C93.7857 100.98 93.5291 101.363 93.1491 101.67C92.7757 101.97 92.2957 102.12 91.7091 102.12ZM91.7091 97.63C91.3091 97.63 90.9524 97.7533 90.6391 98C90.3324 98.24 90.1557 98.5933 90.1091 99.06H93.2291C93.2091 98.6133 93.0557 98.2633 92.7691 98.01C92.4824 97.7567 92.1291 97.63 91.7091 97.63ZM95.1724 102V97.04H95.9324L95.9824 97.93C96.1424 97.6167 96.3724 97.37 96.6724 97.19C96.9724 97.01 97.3124 96.92 97.6924 96.92C98.2791 96.92 98.7458 97.1 99.0924 97.46C99.4458 97.8133 99.6224 98.36 99.6224 99.1V102H98.7824V99.19C98.7824 98.1567 98.3558 97.64 97.5024 97.64C97.0758 97.64 96.7191 97.7967 96.4324 98.11C96.1524 98.4167 96.0124 98.8567 96.0124 99.43V102H95.1724ZM102.855 102C102.402 102 102.045 101.89 101.785 101.67C101.525 101.45 101.395 101.053 101.395 100.48V97.75H100.535V97.04H101.395L101.505 95.85H102.235V97.04H103.695V97.75H102.235V100.48C102.235 100.793 102.298 101.007 102.425 101.12C102.552 101.227 102.775 101.28 103.095 101.28H103.615V102H102.855Z" fill="#334155"/>
<path d="M141 28L149 20M141 20L149 28" stroke="#94A3B8" stroke-width="2" stroke-linecap="round" stroke-linejoin="round"/>
</svg>
