<svg width="16" height="16" viewBox="0 0 16 16" fill="none" xmlns="http://www.w3.org/2000/svg">
<path d="M9.46582 8.0156L15.696 1.78531C16.1014 1.38005 16.1014 0.724784 15.696 0.319571C15.2907 -0.0856903 14.6355 -0.0856903 14.2303 0.319571L7.99993 6.54981L1.76984 0.319571C1.36438 -0.0856903 0.709353 -0.0856903 0.304092 0.319571C-0.101364 0.724832 -0.101364 1.38005 0.304092 1.78531L6.53413 8.0156L0.30414 14.2458C-0.101315 14.6511 -0.101315 15.3064 0.30414 15.7116C0.40027 15.808 0.514502 15.8844 0.640272 15.9366C0.766042 15.9887 0.900871 16.0154 1.03701 16.0153C1.30233 16.0153 1.56774 15.9137 1.76988 15.7116L7.99993 9.48135L14.2303 15.7116C14.3264 15.808 14.4406 15.8844 14.5664 15.9365C14.6922 15.9887 14.827 16.0154 14.9631 16.0153C15.2284 16.0153 15.4939 15.9137 15.696 15.7116C16.1014 15.3063 16.1014 14.6511 15.696 14.2458L9.46582 8.0156Z" fill="#2C2E3E"/>
</svg>
