<svg width="78" height="37" viewBox="0 0 78 37" fill="none" xmlns="http://www.w3.org/2000/svg">
<rect x="1.21436" y="1" width="76.2857" height="35" rx="5.5" fill="white"/>
<g clipPath="url(#clip0_7675_158742)">
<path d="M14.8087 18.0606C14.9766 18.2433 15.0688 18.482 15.0688 18.7289V26.0048C15.0688 26.4426 15.5972 26.6649 15.91 26.357L17.9396 24.0311C18.2112 23.7051 18.361 23.5438 18.361 23.2212V18.7306C18.361 18.4837 18.4548 18.245 18.6211 18.0622L24.445 11.7428C24.8813 11.2687 24.5455 10.5 23.9002 10.5H9.5296C8.88432 10.5 8.54687 11.2671 8.98473 11.7428L14.8087 18.0606Z" fill="#7E7D7D"/>
</g>
<path d="M33.1344 23.5L36.7464 13.7H37.9924L41.5904 23.5H40.3444L39.4484 20.98H35.2764L34.3664 23.5H33.1344ZM35.6264 20.028H39.0984L37.3624 15.184L35.6264 20.028ZM42.9772 23.5V13.42H44.1532V23.5H42.9772ZM46.0807 23.5V13.42H47.2567V23.5H46.0807Z" fill="#585858"/>
<path d="M59.9077 15.7106C59.8464 15.7738 59.7978 15.8488 59.7646 15.9315C59.7314 16.0141 59.7144 16.1027 59.7144 16.1921C59.7144 16.2816 59.7314 16.3701 59.7646 16.4528C59.7978 16.5354 59.8464 16.6105 59.9077 16.6737L64.3851 21.3004C64.4464 21.3637 64.5191 21.4139 64.5991 21.4481C64.6791 21.4824 64.7649 21.5 64.8515 21.5C64.9381 21.5 65.0239 21.4824 65.1039 21.4481C65.184 21.4139 65.2567 21.3637 65.3179 21.3004L69.7953 16.6737C69.8591 16.611 69.91 16.5359 69.9452 16.4526C69.9803 16.3693 69.999 16.2796 70 16.1888C70.0011 16.0979 69.9845 16.0078 69.9513 15.9236C69.9181 15.8395 69.8689 15.7631 69.8066 15.6989C69.7443 15.6347 69.6702 15.5841 69.5887 15.5499C69.5072 15.5158 69.4199 15.4988 69.3319 15.5001C69.2439 15.5013 69.1571 15.5207 69.0765 15.5572C68.9959 15.5936 68.9232 15.6463 68.8626 15.7123L64.8515 19.8574L60.8404 15.7123C60.7793 15.6489 60.7067 15.5985 60.6267 15.5641C60.5468 15.5297 60.461 15.5119 60.3744 15.5118C60.2878 15.5116 60.202 15.5291 60.1219 15.5632C60.0418 15.5973 59.969 15.6474 59.9077 15.7106Z" fill="#6F6C90"/>
<rect x="1.21436" y="1" width="76.2857" height="35" rx="5.5" stroke="#E4E4E4"/>
<defs>
<clipPath id="clip0_7675_158742">
<rect width="16" height="16" fill="white" transform="translate(8.71436 10.5)"/>
</clipPath>
</defs>
</svg>
