<svg width="111" height="37" viewBox="0 0 111 37" fill="none" xmlns="http://www.w3.org/2000/svg">
<path d="M12.5867 23.168C11.868 23.168 11.2427 23.0373 10.7107 22.776C10.1787 22.5147 9.76804 22.1507 9.47871 21.684C9.18938 21.2173 9.04471 20.676 9.04471 20.06H10.2767C10.2767 20.4427 10.3654 20.7973 10.5427 21.124C10.72 21.4413 10.9767 21.698 11.3127 21.894C11.658 22.0807 12.0827 22.174 12.5867 22.174C13.2494 22.174 13.7627 22.0153 14.1267 21.698C14.4907 21.3807 14.6727 20.984 14.6727 20.508C14.6727 20.116 14.5887 19.8033 14.4207 19.57C14.2527 19.3273 14.024 19.1313 13.7347 18.982C13.4547 18.8327 13.128 18.702 12.7547 18.59C12.3907 18.478 12.008 18.352 11.6067 18.212C10.8507 17.9507 10.2907 17.6287 9.92671 17.246C9.56271 16.854 9.38071 16.3453 9.38071 15.72C9.37138 15.1973 9.49271 14.7353 9.74471 14.334C9.99671 13.9233 10.3514 13.606 10.8087 13.382C11.2754 13.1487 11.826 13.032 12.4607 13.032C13.086 13.032 13.6274 13.1487 14.0847 13.382C14.5514 13.6153 14.9107 13.9373 15.1627 14.348C15.424 14.7587 15.5594 15.2253 15.5687 15.748H14.3367C14.3367 15.4773 14.2667 15.2113 14.1267 14.95C13.9867 14.6793 13.772 14.46 13.4827 14.292C13.2027 14.124 12.848 14.04 12.4187 14.04C11.8867 14.0307 11.448 14.166 11.1027 14.446C10.7667 14.726 10.5987 15.1133 10.5987 15.608C10.5987 16.028 10.7154 16.35 10.9487 16.574C11.1914 16.798 11.5274 16.9847 11.9567 17.134C12.386 17.274 12.8807 17.4373 13.4407 17.624C13.9074 17.792 14.3274 17.988 14.7007 18.212C15.074 18.436 15.3634 18.7253 15.5687 19.08C15.7834 19.4347 15.8907 19.8873 15.8907 20.438C15.8907 20.9047 15.7694 21.348 15.5267 21.768C15.284 22.1787 14.9154 22.5147 14.4207 22.776C13.9354 23.0373 13.324 23.168 12.5867 23.168ZM17.4885 23V12.92H18.6645V17.246C18.8978 16.8167 19.2291 16.4853 19.6585 16.252C20.0878 16.0093 20.5545 15.888 21.0585 15.888C21.8611 15.888 22.5051 16.14 22.9905 16.644C23.4758 17.1387 23.7185 17.904 23.7185 18.94V23H22.5565V19.066C22.5565 17.6193 21.9731 16.896 20.8065 16.896C20.1998 16.896 19.6911 17.1153 19.2805 17.554C18.8698 17.9833 18.6645 18.5993 18.6645 19.402V23H17.4885ZM28.6642 23.168C28.0108 23.168 27.4228 23.0187 26.9002 22.72C26.3775 22.4213 25.9622 22.0013 25.6542 21.46C25.3555 20.9093 25.2062 20.2653 25.2062 19.528C25.2062 18.7907 25.3602 18.1513 25.6682 17.61C25.9762 17.0593 26.3915 16.6347 26.9142 16.336C27.4462 16.0373 28.0388 15.888 28.6922 15.888C29.3455 15.888 29.9335 16.0373 30.4562 16.336C30.9788 16.6347 31.3895 17.0593 31.6882 17.61C31.9962 18.1513 32.1502 18.7907 32.1502 19.528C32.1502 20.2653 31.9962 20.9093 31.6882 21.46C31.3802 22.0013 30.9602 22.4213 30.4282 22.72C29.9055 23.0187 29.3175 23.168 28.6642 23.168ZM28.6642 22.16C29.0655 22.16 29.4388 22.062 29.7842 21.866C30.1295 21.67 30.4095 21.376 30.6242 20.984C30.8388 20.592 30.9462 20.1067 30.9462 19.528C30.9462 18.9493 30.8388 18.464 30.6242 18.072C30.4188 17.68 30.1435 17.386 29.7982 17.19C29.4528 16.994 29.0842 16.896 28.6922 16.896C28.2908 16.896 27.9175 16.994 27.5722 17.19C27.2268 17.386 26.9468 17.68 26.7322 18.072C26.5175 18.464 26.4102 18.9493 26.4102 19.528C26.4102 20.1067 26.5175 20.592 26.7322 20.984C26.9468 21.376 27.2222 21.67 27.5582 21.866C27.9035 22.062 28.2722 22.16 28.6642 22.16ZM34.9256 23L32.8956 16.056H34.0716L35.5416 21.502L37.1656 16.056H38.4956L40.1336 21.502L41.5896 16.056H42.7796L40.7496 23H39.5456L37.8376 17.274L36.1296 23H34.9256ZM50.9773 23.168C50.3147 23.168 49.7173 23.0187 49.1853 22.72C48.6627 22.412 48.2473 21.9873 47.9393 21.446C47.6407 20.8953 47.4913 20.256 47.4913 19.528C47.4913 18.8 47.6407 18.1653 47.9393 17.624C48.2473 17.0733 48.6627 16.6487 49.1853 16.35C49.7173 16.042 50.3147 15.888 50.9773 15.888C51.7987 15.888 52.4893 16.1027 53.0493 16.532C53.6187 16.9613 53.978 17.5353 54.1273 18.254H52.9233C52.83 17.8247 52.6013 17.4933 52.2373 17.26C51.8733 17.0173 51.4487 16.896 50.9633 16.896C50.5713 16.896 50.2027 16.994 49.8573 17.19C49.512 17.386 49.232 17.68 49.0173 18.072C48.8027 18.464 48.6953 18.9493 48.6953 19.528C48.6953 20.1067 48.8027 20.592 49.0173 20.984C49.232 21.376 49.512 21.6747 49.8573 21.88C50.2027 22.076 50.5713 22.174 50.9633 22.174C51.4487 22.174 51.8733 22.0573 52.2373 21.824C52.6013 21.5813 52.83 21.2407 52.9233 20.802H54.1273C53.9873 21.502 53.6327 22.0713 53.0633 22.51C52.494 22.9487 51.7987 23.168 50.9773 23.168ZM58.9337 23.168C58.2804 23.168 57.6924 23.0187 57.1697 22.72C56.647 22.4213 56.2317 22.0013 55.9237 21.46C55.625 20.9093 55.4757 20.2653 55.4757 19.528C55.4757 18.7907 55.6297 18.1513 55.9377 17.61C56.2457 17.0593 56.661 16.6347 57.1837 16.336C57.7157 16.0373 58.3084 15.888 58.9617 15.888C59.615 15.888 60.203 16.0373 60.7257 16.336C61.2484 16.6347 61.659 17.0593 61.9577 17.61C62.2657 18.1513 62.4197 18.7907 62.4197 19.528C62.4197 20.2653 62.2657 20.9093 61.9577 21.46C61.6497 22.0013 61.2297 22.4213 60.6977 22.72C60.175 23.0187 59.587 23.168 58.9337 23.168ZM58.9337 22.16C59.335 22.16 59.7084 22.062 60.0537 21.866C60.399 21.67 60.679 21.376 60.8937 20.984C61.1084 20.592 61.2157 20.1067 61.2157 19.528C61.2157 18.9493 61.1084 18.464 60.8937 18.072C60.6884 17.68 60.413 17.386 60.0677 17.19C59.7224 16.994 59.3537 16.896 58.9617 16.896C58.5604 16.896 58.187 16.994 57.8417 17.19C57.4964 17.386 57.2164 17.68 57.0017 18.072C56.787 18.464 56.6797 18.9493 56.6797 19.528C56.6797 20.1067 56.787 20.592 57.0017 20.984C57.2164 21.376 57.4917 21.67 57.8277 21.866C58.173 22.062 58.5417 22.16 58.9337 22.16ZM64.0549 23V12.92H65.2309V23H64.0549ZM69.6924 23.168C68.871 23.168 68.2177 22.9207 67.7324 22.426C67.247 21.922 67.0044 21.152 67.0044 20.116V16.056H68.1804V19.99C68.1804 21.4367 68.773 22.16 69.9584 22.16C70.565 22.16 71.0644 21.9453 71.4564 21.516C71.8577 21.0773 72.0584 20.4567 72.0584 19.654V16.056H73.2344V23H72.1704L72.0864 21.754C71.8717 22.1927 71.5497 22.538 71.1204 22.79C70.7004 23.042 70.2244 23.168 69.6924 23.168ZM75.1701 23V16.056H76.2341L76.3181 17.064C76.5421 16.6907 76.8408 16.4013 77.2141 16.196C77.5874 15.9907 78.0074 15.888 78.4741 15.888C79.0248 15.888 79.4961 16 79.8881 16.224C80.2894 16.448 80.5974 16.7887 80.8121 17.246C81.0548 16.826 81.3861 16.4947 81.8061 16.252C82.2354 16.0093 82.6974 15.888 83.1921 15.888C84.0228 15.888 84.6854 16.14 85.1801 16.644C85.6748 17.1387 85.9221 17.904 85.9221 18.94V23H84.7601V19.066C84.7601 18.3473 84.6154 17.806 84.3261 17.442C84.0368 17.078 83.6214 16.896 83.0801 16.896C82.5201 16.896 82.0534 17.1153 81.6801 17.554C81.3161 17.9833 81.1341 18.5993 81.1341 19.402V23H79.9581V19.066C79.9581 18.3473 79.8134 17.806 79.5241 17.442C79.2348 17.078 78.8194 16.896 78.2781 16.896C77.7274 16.896 77.2654 17.1153 76.8921 17.554C76.5281 17.9833 76.3461 18.5993 76.3461 19.402V23H75.1701ZM87.6935 23V16.056H88.7575L88.8275 17.302C89.0515 16.8633 89.3735 16.518 89.7935 16.266C90.2135 16.014 90.6895 15.888 91.2215 15.888C92.0429 15.888 92.6962 16.14 93.1815 16.644C93.6762 17.1387 93.9235 17.904 93.9235 18.94V23H92.7475V19.066C92.7475 17.6193 92.1502 16.896 90.9555 16.896C90.3582 16.896 89.8589 17.1153 89.4575 17.554C89.0655 17.9833 88.8695 18.5993 88.8695 19.402V23H87.6935ZM98.3653 23.168C97.5346 23.168 96.8439 22.958 96.2933 22.538C95.7426 22.118 95.4206 21.5487 95.3273 20.83H96.5313C96.6059 21.194 96.7973 21.5113 97.1053 21.782C97.4226 22.0433 97.8473 22.174 98.3793 22.174C98.8739 22.174 99.2379 22.0713 99.4713 21.866C99.7046 21.6513 99.8213 21.3993 99.8213 21.11C99.8213 20.69 99.6673 20.41 99.3593 20.27C99.0606 20.13 98.6359 20.004 98.0853 19.892C97.7119 19.8173 97.3386 19.71 96.9653 19.57C96.5919 19.43 96.2793 19.234 96.0273 18.982C95.7753 18.7207 95.6493 18.38 95.6493 17.96C95.6493 17.3533 95.8733 16.8587 96.3213 16.476C96.7786 16.084 97.3946 15.888 98.1693 15.888C98.9066 15.888 99.5086 16.0747 99.9753 16.448C100.451 16.812 100.727 17.3347 100.801 18.016H99.6393C99.5926 17.6613 99.4386 17.386 99.1773 17.19C98.9253 16.9847 98.5846 16.882 98.1553 16.882C97.7353 16.882 97.4086 16.9707 97.1753 17.148C96.9513 17.3253 96.8393 17.5587 96.8393 17.848C96.8393 18.128 96.9839 18.3473 97.2733 18.506C97.5719 18.6647 97.9733 18.8 98.4773 18.912C98.9066 19.0053 99.3126 19.122 99.6953 19.262C100.087 19.3927 100.405 19.5933 100.647 19.864C100.899 20.1253 101.025 20.508 101.025 21.012C101.035 21.6373 100.797 22.1553 100.311 22.566C99.8353 22.9673 99.1866 23.168 98.3653 23.168Z" fill="#7E7D7D"/>
<path d="M8.42871 24.75H101.739V25.45H8.42871V24.75Z" fill="#7E7D7D"/>
</svg>
