<svg width="15" height="16" viewBox="0 0 15 16" fill="none" xmlns="http://www.w3.org/2000/svg">
<path d="M13.4746 1.875H11.1309V1.40625C11.1309 0.630844 10.5 0 9.72461 0H5.97461C5.1992 0 4.56836 0.630844 4.56836 1.40625V1.875H2.22461C1.4492 1.875 0.818359 2.50584 0.818359 3.28125C0.818359 3.904 1.22539 4.43316 1.78727 4.61753L2.62336 14.7105C2.68358 15.4336 3.29914 16 4.02473 16H11.6745C12.4001 16 13.0157 15.4336 13.0759 14.7103L13.912 4.6175C14.4738 4.43316 14.8809 3.904 14.8809 3.28125C14.8809 2.50584 14.25 1.875 13.4746 1.875ZM5.50586 1.40625C5.50586 1.14778 5.71614 0.9375 5.97461 0.9375H9.72461C9.98308 0.9375 10.1934 1.14778 10.1934 1.40625V1.875H5.50586V1.40625ZM12.1416 14.6327C12.1215 14.8737 11.9164 15.0625 11.6745 15.0625H4.02473C3.78289 15.0625 3.5777 14.8737 3.55767 14.6329L2.7338 4.6875H12.9654L12.1416 14.6327ZM13.4746 3.75H2.22461C1.96614 3.75 1.75586 3.53972 1.75586 3.28125C1.75586 3.02278 1.96614 2.8125 2.22461 2.8125H13.4746C13.7331 2.8125 13.9434 3.02278 13.9434 3.28125C13.9434 3.53972 13.7331 3.75 13.4746 3.75Z" fill="#EF2020"/>
<path d="M5.97374 13.6272L5.50499 6.0647C5.48896 5.8063 5.2653 5.60977 5.00815 5.62586C4.74974 5.64189 4.55327 5.86433 4.56927 6.1227L5.03802 13.6852C5.05343 13.9338 5.2598 14.125 5.50543 14.125C5.7769 14.125 5.9904 13.8964 5.97374 13.6272ZM7.84965 5.62499C7.59077 5.62499 7.3809 5.83486 7.3809 6.09374V13.6562C7.3809 13.9151 7.59077 14.125 7.84965 14.125C8.10852 14.125 8.3184 13.9151 8.3184 13.6562V6.09374C8.3184 5.83486 8.10852 5.62499 7.84965 5.62499ZM10.6911 5.62589C10.4333 5.60986 10.2103 5.80633 10.1943 6.06474L9.72552 13.6272C9.70955 13.8856 9.90602 14.108 10.1644 14.1241C10.4229 14.1401 10.6452 13.9435 10.6612 13.6852L11.13 6.12274C11.146 5.86433 10.9495 5.64189 10.6911 5.62589Z" fill="#EF2020"/>
</svg>
