<svg width="15" height="16" viewBox="0 0 15 16" fill="none" xmlns="http://www.w3.org/2000/svg">
<path d="M9.31836 16H3.34961C1.97108 16 0.849609 14.8785 0.849609 13.5V5.03125C0.849609 3.65272 1.97108 2.53125 3.34961 2.53125H9.31836C10.6969 2.53125 11.8184 3.65272 11.8184 5.03125V13.5C11.8184 14.8785 10.6969 16 9.31836 16ZM3.34961 3.78125C2.66039 3.78125 2.09961 4.34203 2.09961 5.03125V13.5C2.09961 14.1892 2.66039 14.75 3.34961 14.75H9.31836C10.0076 14.75 10.5684 14.1892 10.5684 13.5V5.03125C10.5684 4.34203 10.0076 3.78125 9.31836 3.78125H3.34961ZM14.3184 11.9375V2.5C14.3184 1.12147 13.1969 0 11.8184 0H4.88086C4.53564 0 4.25586 0.279781 4.25586 0.625C4.25586 0.970219 4.53564 1.25 4.88086 1.25H11.8184C12.5076 1.25 13.0684 1.81078 13.0684 2.5V11.9375C13.0684 12.2827 13.3481 12.5625 13.6934 12.5625C14.0386 12.5625 14.3184 12.2827 14.3184 11.9375Z" fill="#6F6C90"/>
</svg>
