<svg width="24" height="25" viewBox="0 0 24 25" fill="none" xmlns="http://www.w3.org/2000/svg">
<path d="M3.999 7.93124L4.99924 20.006C5.07092 20.8767 5.81264 21.5595 6.68673 21.5595H15.9029C16.777 21.5595 17.5187 20.8767 17.5904 20.006L18.5906 7.93124H3.999ZM8.47075 19.3007C8.17514 19.3007 7.92645 19.0707 7.9077 18.7712L7.34299 9.66063C7.32368 9.34907 7.56026 9.08106 7.8713 9.06174C8.19389 9.03912 8.45034 9.27848 8.47018 9.59004L9.03489 18.7006C9.05488 19.0233 8.7996 19.3007 8.47075 19.3007ZM11.8595 18.7359C11.8595 19.0481 11.6069 19.3007 11.2948 19.3007C10.9827 19.3007 10.7301 19.0481 10.7301 18.7359V9.62536C10.7301 9.31323 10.9827 9.06065 11.2948 9.06065C11.6069 9.06065 11.8595 9.31323 11.8595 9.62536V18.7359ZM15.2466 9.66067L14.6819 18.7713C14.6634 19.0677 14.4163 19.3147 14.083 19.2996C13.772 19.2803 13.5354 19.0122 13.5547 18.7007L14.1194 9.59008C14.1387 9.27852 14.4117 9.05184 14.7183 9.06178C15.0294 9.08109 15.2659 9.3491 15.2466 9.66067ZM18.636 4.543H15.2477V3.9783C15.2477 3.04412 14.4878 2.28418 13.5536 2.28418H9.03598C8.10181 2.28418 7.34186 3.04412 7.34186 3.9783V4.543H3.95363C3.32986 4.543 2.82422 5.04864 2.82422 5.67242C2.82422 6.29611 3.32986 6.80183 3.95363 6.80183H18.636C19.2598 6.80183 19.7654 6.29611 19.7654 5.67242C19.7654 5.04864 19.2598 4.543 18.636 4.543ZM14.1183 4.543H8.47128V3.9783C8.47128 3.66673 8.72441 3.41359 9.03598 3.41359H13.5536C13.8652 3.41359 14.1183 3.66673 14.1183 3.9783V4.543Z" fill="#EF2020"/>
</svg>
