<svg width="32" height="31" viewBox="0 0 32 31" fill="none" xmlns="http://www.w3.org/2000/svg">
<g clipPath="url(#clip0_12966_248909)">
<path d="M12.3069 3.31367L1.93538 13.686C1.88315 13.7383 1.84593 13.8037 1.8276 13.8754L0.677975 18.4896C0.661067 18.5581 0.662103 18.6298 0.680983 18.6977C0.699864 18.7657 0.73595 18.8276 0.785757 18.8776C0.862259 18.9538 0.965841 18.9967 1.07385 18.9967C1.10717 18.9967 1.14036 18.9926 1.17268 18.9845L5.78689 17.8347C5.85864 17.8167 5.92413 17.7795 5.97635 17.7271L16.3488 7.35552L12.3069 3.31367ZM18.9183 1.89941L17.7638 0.744931C16.9921 -0.0266879 15.6473 -0.0259224 14.8765 0.744931L13.4623 2.15918L17.5041 6.20088L18.9183 4.78667C19.3037 4.4014 19.516 3.88855 19.516 3.34314C19.516 2.79772 19.3037 2.28488 18.9183 1.89941Z" fill="#047857"/>
</g>
<defs>
<clipPath id="clip0_12966_248909">
<rect width="30.666" height="30.666" fill="white" transform="translate(0.666016 0.166504)"/>
</clipPath>
</defs>
</svg>
