<svg width="16" height="16" viewBox="0 0 16 16" fill="none" xmlns="http://www.w3.org/2000/svg">
<path d="M9.88081 2.68695L1.07744 11.491C1.03311 11.5354 1.00152 11.591 0.985954 11.6518L0.010151 15.5683C-0.00420054 15.6265 -0.00332103 15.6873 0.0127046 15.745C0.0287303 15.8027 0.0593605 15.8553 0.101637 15.8976C0.166572 15.9624 0.254492 15.9987 0.346172 15.9988C0.374454 15.9988 0.402627 15.9953 0.430055 15.9884L4.34662 15.0125C4.40752 14.9972 4.46311 14.9656 4.50743 14.9211L13.3116 6.11769L9.88081 2.68695ZM15.4926 1.48653L14.5126 0.506596C13.8577 -0.148357 12.7162 -0.147707 12.0619 0.506596L10.8616 1.70702L14.2922 5.13763L15.4926 3.93724C15.8197 3.61022 16 3.17491 16 2.71196C16 2.24901 15.8197 1.81371 15.4926 1.48653Z" fill="#7E7D7D"/>
</svg>
