<svg width="122" height="37" viewBox="0 0 122 37" fill="none" xmlns="http://www.w3.org/2000/svg">
<rect x="1.21436" y="1" width="120" height="35" rx="5.5" fill="white"/>
<g clipPath="url(#clip0_7675_158735)">
<path d="M23.9144 20.1C23.6877 20.1 23.4978 20.0232 23.3448 19.8696C23.1912 19.7165 23.1144 19.5267 23.1144 19.3C23.1144 19.0733 23.1912 18.8832 23.3448 18.7296C23.4978 18.5765 23.6877 18.5 23.9144 18.5C24.141 18.5 24.3312 18.5765 24.4848 18.7296C24.6378 18.8832 24.7144 19.0733 24.7144 19.3C24.7144 19.5267 24.6378 19.7165 24.4848 19.8696C24.3312 20.0232 24.141 20.1 23.9144 20.1ZM20.7144 20.1C20.4877 20.1 20.2976 20.0232 20.144 19.8696C19.9909 19.7165 19.9144 19.5267 19.9144 19.3C19.9144 19.0733 19.9909 18.8832 20.144 18.7296C20.2976 18.5765 20.4877 18.5 20.7144 18.5C20.941 18.5 21.1312 18.5765 21.2848 18.7296C21.4378 18.8832 21.5144 19.0733 21.5144 19.3C21.5144 19.5267 21.4378 19.7165 21.2848 19.8696C21.1312 20.0232 20.941 20.1 20.7144 20.1ZM27.1144 20.1C26.8877 20.1 26.6978 20.0232 26.5448 19.8696C26.3912 19.7165 26.3144 19.5267 26.3144 19.3C26.3144 19.0733 26.3912 18.8832 26.5448 18.7296C26.6978 18.5765 26.8877 18.5 27.1144 18.5C27.341 18.5 27.5309 18.5765 27.684 18.7296C27.8376 18.8832 27.9144 19.0733 27.9144 19.3C27.9144 19.5267 27.8376 19.7165 27.684 19.8696C27.5309 20.0232 27.341 20.1 27.1144 20.1ZM23.9144 23.3C23.6877 23.3 23.4978 23.2232 23.3448 23.0696C23.1912 22.9165 23.1144 22.7267 23.1144 22.5C23.1144 22.2733 23.1912 22.0835 23.3448 21.9304C23.4978 21.7768 23.6877 21.7 23.9144 21.7C24.141 21.7 24.3312 21.7768 24.4848 21.9304C24.6378 22.0835 24.7144 22.2733 24.7144 22.5C24.7144 22.7267 24.6378 22.9165 24.4848 23.0696C24.3312 23.2232 24.141 23.3 23.9144 23.3ZM20.7144 23.3C20.4877 23.3 20.2976 23.2232 20.144 23.0696C19.9909 22.9165 19.9144 22.7267 19.9144 22.5C19.9144 22.2733 19.9909 22.0835 20.144 21.9304C20.2976 21.7768 20.4877 21.7 20.7144 21.7C20.941 21.7 21.1312 21.7768 21.2848 21.9304C21.4378 22.0835 21.5144 22.2733 21.5144 22.5C21.5144 22.7267 21.4378 22.9165 21.2848 23.0696C21.1312 23.2232 20.941 23.3 20.7144 23.3ZM27.1144 23.3C26.8877 23.3 26.6978 23.2232 26.5448 23.0696C26.3912 22.9165 26.3144 22.7267 26.3144 22.5C26.3144 22.2733 26.3912 22.0835 26.5448 21.9304C26.6978 21.7768 26.8877 21.7 27.1144 21.7C27.341 21.7 27.5309 21.7768 27.684 21.9304C27.8376 22.0835 27.9144 22.2733 27.9144 22.5C27.9144 22.7267 27.8376 22.9165 27.684 23.0696C27.5309 23.2232 27.341 23.3 27.1144 23.3ZM18.3144 26.5C17.8744 26.5 17.4976 26.3435 17.184 26.0304C16.8709 25.7168 16.7144 25.34 16.7144 24.9V13.7C16.7144 13.26 16.8709 12.8835 17.184 12.5704C17.4976 12.2568 17.8744 12.1 18.3144 12.1H19.1144V10.5H20.7144V12.1H27.1144V10.5H28.7144V12.1H29.5144C29.9544 12.1 30.3312 12.2568 30.6448 12.5704C30.9578 12.8835 31.1144 13.26 31.1144 13.7V24.9C31.1144 25.34 30.9578 25.7168 30.6448 26.0304C30.3312 26.3435 29.9544 26.5 29.5144 26.5H18.3144ZM18.3144 24.9H29.5144V16.9H18.3144V24.9Z" fill="#BBBBBB"/>
</g>
<path d="M41.1444 22V15.94L40.0144 16.19V15.61L41.4244 15H41.9944V22H41.1444ZM45.9919 22.12C45.4853 22.12 45.0586 22.0267 44.7119 21.84C44.3653 21.6467 44.0853 21.39 43.8719 21.07C43.6653 20.75 43.5119 20.3933 43.4119 20C43.3186 19.6 43.2719 19.1933 43.2719 18.78C43.2719 18.0067 43.3786 17.33 43.5919 16.75C43.8053 16.1633 44.1119 15.7067 44.5119 15.38C44.9186 15.0467 45.4086 14.88 45.9819 14.88C46.4219 14.88 46.7986 14.9667 47.1119 15.14C47.4253 15.3133 47.6719 15.5467 47.8519 15.84C48.0386 16.1267 48.1553 16.4467 48.2019 16.8H47.4219C47.3486 16.42 47.1853 16.1267 46.9319 15.92C46.6786 15.7133 46.3586 15.61 45.9719 15.61C45.4453 15.61 45.0019 15.86 44.6419 16.36C44.2886 16.8533 44.0986 17.6267 44.0719 18.68C44.2319 18.3667 44.4853 18.0967 44.8319 17.87C45.1853 17.6367 45.6086 17.52 46.1019 17.52C46.5019 17.52 46.8753 17.6133 47.2219 17.8C47.5753 17.9867 47.8619 18.25 48.0819 18.59C48.3019 18.9233 48.4119 19.3167 48.4119 19.77C48.4119 20.1633 48.3153 20.54 48.1219 20.9C47.9286 21.26 47.6486 21.5533 47.2819 21.78C46.9219 22.0067 46.4919 22.12 45.9919 22.12ZM45.9319 21.38C46.2453 21.38 46.5253 21.3133 46.7719 21.18C47.0186 21.0467 47.2119 20.8633 47.3519 20.63C47.4919 20.39 47.5619 20.1167 47.5619 19.81C47.5619 19.3367 47.4053 18.96 47.0919 18.68C46.7853 18.3933 46.3986 18.25 45.9319 18.25C45.6186 18.25 45.3386 18.3233 45.0919 18.47C44.8453 18.61 44.6486 18.8 44.5019 19.04C44.3619 19.28 44.2919 19.54 44.2919 19.82C44.2919 20.12 44.3619 20.39 44.5019 20.63C44.6486 20.8633 44.8453 21.0467 45.0919 21.18C45.3386 21.3133 45.6186 21.38 45.9319 21.38ZM48.9201 22.95L51.4301 14.36H52.2601L49.7501 22.95H48.9201ZM53.9764 22V15.94L52.8464 16.19V15.61L54.2564 15H54.8264V22H53.9764ZM56.994 22V15.94L55.864 16.19V15.61L57.274 15H57.844V22H56.994ZM58.8615 22.95L61.3715 14.36H62.2015L59.6915 22.95H58.8615ZM63.1178 22V21.41C63.5911 21.0367 64.0378 20.66 64.4578 20.28C64.8845 19.8933 65.2611 19.5133 65.5878 19.14C65.9211 18.7667 66.1811 18.4 66.3678 18.04C66.5611 17.68 66.6578 17.3333 66.6578 17C66.6578 16.7533 66.6145 16.5233 66.5278 16.31C66.4478 16.0967 66.3145 15.9267 66.1278 15.8C65.9411 15.6667 65.6878 15.6 65.3678 15.6C65.0611 15.6 64.8045 15.67 64.5978 15.81C64.3911 15.9433 64.2345 16.1233 64.1278 16.35C64.0278 16.5767 63.9778 16.82 63.9778 17.08H63.1678C63.1678 16.62 63.2645 16.2267 63.4578 15.9C63.6511 15.5667 63.9145 15.3133 64.2478 15.14C64.5811 14.9667 64.9578 14.88 65.3778 14.88C65.9978 14.88 66.5045 15.0567 66.8978 15.41C67.2978 15.7567 67.4978 16.2767 67.4978 16.97C67.4978 17.3833 67.3945 17.7933 67.1878 18.2C66.9811 18.6 66.7178 18.99 66.3978 19.37C66.0778 19.7433 65.7345 20.0933 65.3678 20.42C65.0078 20.7467 64.6711 21.04 64.3578 21.3H67.7378V22H63.1178ZM71.5828 22.12C70.9628 22.12 70.4261 21.97 69.9728 21.67C69.5261 21.3633 69.1828 20.94 68.9428 20.4C68.7028 19.8533 68.5828 19.22 68.5828 18.5C68.5828 17.78 68.7028 17.15 68.9428 16.61C69.1828 16.0633 69.5261 15.64 69.9728 15.34C70.4261 15.0333 70.9628 14.88 71.5828 14.88C72.2028 14.88 72.7361 15.0333 73.1828 15.34C73.6295 15.64 73.9728 16.0633 74.2128 16.61C74.4528 17.15 74.5728 17.78 74.5728 18.5C74.5728 19.22 74.4528 19.8533 74.2128 20.4C73.9728 20.94 73.6295 21.3633 73.1828 21.67C72.7361 21.97 72.2028 22.12 71.5828 22.12ZM71.5828 21.38C71.9895 21.38 72.3528 21.2667 72.6728 21.04C72.9995 20.8067 73.2528 20.4767 73.4328 20.05C73.6195 19.6167 73.7128 19.1 73.7128 18.5C73.7128 17.9 73.6195 17.3867 73.4328 16.96C73.2528 16.5333 72.9995 16.2067 72.6728 15.98C72.3528 15.7467 71.9895 15.63 71.5828 15.63C71.1695 15.63 70.8028 15.7467 70.4828 15.98C70.1628 16.2067 69.9095 16.5333 69.7228 16.96C69.5361 17.3867 69.4428 17.9 69.4428 18.5C69.4428 19.1 69.5361 19.6167 69.7228 20.05C69.9095 20.4767 70.1628 20.8067 70.4828 21.04C70.8028 21.2667 71.1695 21.38 71.5828 21.38ZM75.5787 22V21.41C76.0521 21.0367 76.4987 20.66 76.9187 20.28C77.3454 19.8933 77.7221 19.5133 78.0487 19.14C78.3821 18.7667 78.6421 18.4 78.8287 18.04C79.0221 17.68 79.1187 17.3333 79.1187 17C79.1187 16.7533 79.0754 16.5233 78.9887 16.31C78.9087 16.0967 78.7754 15.9267 78.5887 15.8C78.4021 15.6667 78.1487 15.6 77.8287 15.6C77.5221 15.6 77.2654 15.67 77.0587 15.81C76.8521 15.9433 76.6954 16.1233 76.5887 16.35C76.4887 16.5767 76.4387 16.82 76.4387 17.08H75.6287C75.6287 16.62 75.7254 16.2267 75.9187 15.9C76.1121 15.5667 76.3754 15.3133 76.7087 15.14C77.0421 14.9667 77.4187 14.88 77.8387 14.88C78.4587 14.88 78.9654 15.0567 79.3587 15.41C79.7587 15.7567 79.9587 16.2767 79.9587 16.97C79.9587 17.3833 79.8554 17.7933 79.6487 18.2C79.4421 18.6 79.1787 18.99 78.8587 19.37C78.5387 19.7433 78.1954 20.0933 77.8287 20.42C77.4687 20.7467 77.1321 21.04 76.8187 21.3H80.1987V22H75.5787ZM81.3014 22V21.41C81.7747 21.0367 82.2214 20.66 82.6414 20.28C83.0681 19.8933 83.4447 19.5133 83.7714 19.14C84.1047 18.7667 84.3647 18.4 84.5514 18.04C84.7447 17.68 84.8414 17.3333 84.8414 17C84.8414 16.7533 84.7981 16.5233 84.7114 16.31C84.6314 16.0967 84.4981 15.9267 84.3114 15.8C84.1247 15.6667 83.8714 15.6 83.5514 15.6C83.2447 15.6 82.9881 15.67 82.7814 15.81C82.5747 15.9433 82.4181 16.1233 82.3114 16.35C82.2114 16.5767 82.1614 16.82 82.1614 17.08H81.3514C81.3514 16.62 81.4481 16.2267 81.6414 15.9C81.8347 15.5667 82.0981 15.3133 82.4314 15.14C82.7647 14.9667 83.1414 14.88 83.5614 14.88C84.1814 14.88 84.6881 15.0567 85.0814 15.41C85.4814 15.7567 85.6814 16.2767 85.6814 16.97C85.6814 17.3833 85.5781 17.7933 85.3714 18.2C85.1647 18.6 84.9014 18.99 84.5814 19.37C84.2614 19.7433 83.9181 20.0933 83.5514 20.42C83.1914 20.7467 82.8547 21.04 82.5414 21.3H85.9214V22H81.3014Z" fill="#333333"/>
<rect x="1.21436" y="1" width="120" height="35" rx="5.5" stroke="#DDDDDD"/>
<defs>
<clipPath id="clip0_7675_158735">
<rect width="16" height="16" fill="white" transform="translate(15.7144 10.5)"/>
</clipPath>
</defs>
</svg>
