<svg width="40" height="42" viewBox="0 0 40 42" fill="none" xmlns="http://www.w3.org/2000/svg">
<rect x="0.5" y="1" width="39" height="40" rx="4.5" fill="white" stroke="#E7EAEE"/>
<path d="M25.2913 13.7915C25.2913 13.2229 25.46 12.667 25.7759 12.1942C26.0918 11.7214 26.5408 11.353 27.0661 11.1354C27.5915 10.9177 28.1695 10.8608 28.7272 10.9717C29.2849 11.0827 29.7972 11.3565 30.1993 11.7586C30.6013 12.1606 30.8752 12.6729 30.9861 13.2306C31.097 13.7883 31.0401 14.3664 30.8225 14.8917C30.6049 15.4171 30.2364 15.8661 29.7636 16.182C29.2908 16.4979 28.735 16.6665 28.1663 16.6665C27.4038 16.6665 26.6726 16.3636 26.1334 15.8244C25.5942 15.2853 25.2913 14.554 25.2913 13.7915ZM10.9163 14.7498H22.4163C22.6705 14.7498 22.9143 14.6489 23.094 14.4691C23.2737 14.2894 23.3747 14.0457 23.3747 13.7915C23.3747 13.5373 23.2737 13.2936 23.094 13.1139C22.9143 12.9341 22.6705 12.8332 22.4163 12.8332H10.9163C10.6622 12.8332 10.4184 12.9341 10.2387 13.1139C10.059 13.2936 9.95801 13.5373 9.95801 13.7915C9.95801 14.0457 10.059 14.2894 10.2387 14.4691C10.4184 14.6489 10.6622 14.7498 10.9163 14.7498ZM16.6663 17.6248C16.0732 17.6265 15.4951 17.8116 15.0112 18.1547C14.5274 18.4979 14.1616 18.9823 13.9638 19.5415H10.9163C10.6622 19.5415 10.4184 19.6425 10.2387 19.8222C10.059 20.0019 9.95801 20.2457 9.95801 20.4998C9.95801 20.754 10.059 20.9978 10.2387 21.1775C10.4184 21.3572 10.6622 21.4582 10.9163 21.4582H13.9638C14.1396 21.9554 14.4489 22.3947 14.8576 22.728C15.2664 23.0613 15.759 23.2758 16.2814 23.3478C16.8039 23.4199 17.3361 23.3469 17.8199 23.1368C18.3036 22.9266 18.7203 22.5875 19.0242 22.1564C19.3281 21.7253 19.5075 21.219 19.5429 20.6928C19.5783 20.1665 19.4683 19.6407 19.2248 19.1728C18.9814 18.7049 18.6139 18.313 18.1627 18.04C17.7114 17.767 17.1938 17.6234 16.6663 17.6248ZM30.083 19.5415H22.4163C22.1622 19.5415 21.9184 19.6425 21.7387 19.8222C21.559 20.0019 21.458 20.2457 21.458 20.4998C21.458 20.754 21.559 20.9978 21.7387 21.1775C21.9184 21.3572 22.1622 21.4582 22.4163 21.4582H30.083C30.3372 21.4582 30.5809 21.3572 30.7607 21.1775C30.9404 20.9978 31.0413 20.754 31.0413 20.4998C31.0413 20.2457 30.9404 20.0019 30.7607 19.8222C30.5809 19.6425 30.3372 19.5415 30.083 19.5415ZM18.583 26.2498H10.9163C10.6622 26.2498 10.4184 26.3508 10.2387 26.5305C10.059 26.7103 9.95801 26.954 9.95801 27.2082C9.95801 27.4623 10.059 27.7061 10.2387 27.8858C10.4184 28.0655 10.6622 28.1665 10.9163 28.1665H18.583C18.8372 28.1665 19.0809 28.0655 19.2607 27.8858C19.4404 27.7061 19.5413 27.4623 19.5413 27.2082C19.5413 26.954 19.4404 26.7103 19.2607 26.5305C19.0809 26.3508 18.8372 26.2498 18.583 26.2498ZM30.083 26.2498H27.0355C26.8094 25.6104 26.3646 25.0715 25.7796 24.7284C25.1947 24.3852 24.5072 24.2599 23.8388 24.3746C23.1703 24.4893 22.564 24.8366 22.1268 25.3551C21.6897 25.8736 21.4499 26.53 21.4499 27.2082C21.4499 27.8864 21.6897 28.5427 22.1268 29.0613C22.564 29.5798 23.1703 29.9271 23.8388 30.0418C24.5072 30.1565 25.1947 30.0311 25.7796 29.688C26.3646 29.3448 26.8094 28.8059 27.0355 28.1665H30.083C30.3372 28.1665 30.5809 28.0655 30.7607 27.8858C30.9404 27.7061 31.0413 27.4623 31.0413 27.2082C31.0413 26.954 30.9404 26.7103 30.7607 26.5305C30.5809 26.3508 30.3372 26.2498 30.083 26.2498Z" fill="#585858"/>
</svg>
