<svg width="108" height="37" viewBox="0 0 108 37" fill="none" xmlns="http://www.w3.org/2000/svg">
<g opacity="0.7">
<rect x="0.928711" y="1" width="106.286" height="35" rx="5.5" fill="white"/>
<path d="M13.7627 23.668C12.8014 23.668 11.9707 23.458 11.2707 23.038C10.58 22.6087 10.0434 22.016 9.66071 21.26C9.27804 20.4947 9.08671 19.608 9.08671 18.6C9.08671 17.6013 9.27804 16.724 9.66071 15.968C10.0434 15.2027 10.58 14.6053 11.2707 14.176C11.9707 13.7467 12.8014 13.532 13.7627 13.532C14.8827 13.532 15.7927 13.8027 16.4927 14.344C17.202 14.876 17.6547 15.6227 17.8507 16.584H16.5487C16.3994 15.9773 16.0914 15.492 15.6247 15.128C15.1674 14.7547 14.5467 14.568 13.7627 14.568C13.0627 14.568 12.4514 14.7313 11.9287 15.058C11.406 15.3753 11 15.8373 10.7107 16.444C10.4307 17.0413 10.2907 17.76 10.2907 18.6C10.2907 19.44 10.4307 20.1633 10.7107 20.77C11 21.3673 11.406 21.8293 11.9287 22.156C12.4514 22.4733 13.0627 22.632 13.7627 22.632C14.5467 22.632 15.1674 22.4547 15.6247 22.1C16.0914 21.736 16.3994 21.2553 16.5487 20.658H17.8507C17.6547 21.6007 17.202 22.338 16.4927 22.87C15.7927 23.402 14.8827 23.668 13.7627 23.668ZM22.6349 23.668C21.9815 23.668 21.3935 23.5187 20.8709 23.22C20.3482 22.9213 19.9329 22.5013 19.6249 21.96C19.3262 21.4093 19.1769 20.7653 19.1769 20.028C19.1769 19.2907 19.3309 18.6513 19.6389 18.11C19.9469 17.5593 20.3622 17.1347 20.8849 16.836C21.4169 16.5373 22.0095 16.388 22.6629 16.388C23.3162 16.388 23.9042 16.5373 24.4269 16.836C24.9495 17.1347 25.3602 17.5593 25.6589 18.11C25.9669 18.6513 26.1209 19.2907 26.1209 20.028C26.1209 20.7653 25.9669 21.4093 25.6589 21.96C25.3509 22.5013 24.9309 22.9213 24.3989 23.22C23.8762 23.5187 23.2882 23.668 22.6349 23.668ZM22.6349 22.66C23.0362 22.66 23.4095 22.562 23.7549 22.366C24.1002 22.17 24.3802 21.876 24.5949 21.484C24.8095 21.092 24.9169 20.6067 24.9169 20.028C24.9169 19.4493 24.8095 18.964 24.5949 18.572C24.3895 18.18 24.1142 17.886 23.7689 17.69C23.4235 17.494 23.0549 17.396 22.6629 17.396C22.2615 17.396 21.8882 17.494 21.5429 17.69C21.1975 17.886 20.9175 18.18 20.7029 18.572C20.4882 18.964 20.3809 19.4493 20.3809 20.028C20.3809 20.6067 20.4882 21.092 20.7029 21.484C20.9175 21.876 21.1929 22.17 21.5289 22.366C21.8742 22.562 22.2429 22.66 22.6349 22.66ZM27.756 23.5V16.556H28.82L28.89 17.802C29.114 17.3633 29.436 17.018 29.856 16.766C30.276 16.514 30.752 16.388 31.284 16.388C32.1054 16.388 32.7587 16.64 33.244 17.144C33.7387 17.6387 33.986 18.404 33.986 19.44V23.5H32.81V19.566C32.81 18.1193 32.2127 17.396 31.018 17.396C30.4207 17.396 29.9214 17.6153 29.52 18.054C29.128 18.4833 28.932 19.0993 28.932 19.902V23.5H27.756ZM37.633 23.5L35.001 16.556H36.233L38.319 22.366L40.419 16.556H41.623L38.991 23.5H37.633ZM45.6984 23.668C45.0357 23.668 44.4477 23.5187 43.9344 23.22C43.421 22.912 43.015 22.4873 42.7164 21.946C42.427 21.4047 42.2824 20.7653 42.2824 20.028C42.2824 19.3 42.427 18.6653 42.7164 18.124C43.0057 17.5733 43.407 17.1487 43.9204 16.85C44.443 16.542 45.045 16.388 45.7264 16.388C46.3984 16.388 46.977 16.542 47.4624 16.85C47.957 17.1487 48.335 17.5453 48.5964 18.04C48.8577 18.5347 48.9884 19.0667 48.9884 19.636C48.9884 19.7387 48.9837 19.8413 48.9744 19.944C48.9744 20.0467 48.9744 20.1633 48.9744 20.294H43.4444C43.4724 20.826 43.5937 21.2693 43.8084 21.624C44.0324 21.9693 44.3077 22.2307 44.6344 22.408C44.9704 22.5853 45.325 22.674 45.6984 22.674C46.1837 22.674 46.5897 22.562 46.9164 22.338C47.243 22.114 47.481 21.8107 47.6304 21.428H48.7924C48.6057 22.072 48.2464 22.6087 47.7144 23.038C47.1917 23.458 46.5197 23.668 45.6984 23.668ZM45.6984 17.382C45.1384 17.382 44.639 17.5547 44.2004 17.9C43.771 18.236 43.5237 18.7307 43.4584 19.384H47.8264C47.7984 18.7587 47.5837 18.2687 47.1824 17.914C46.781 17.5593 46.2864 17.382 45.6984 17.382ZM50.5471 23.5V16.556H51.6111L51.7091 17.886C51.9237 17.4287 52.2504 17.0647 52.6891 16.794C53.1277 16.5233 53.6691 16.388 54.3131 16.388V17.62H53.9911C53.5804 17.62 53.2024 17.6947 52.8571 17.844C52.5117 17.984 52.2364 18.2267 52.0311 18.572C51.8257 18.9173 51.7231 19.3933 51.7231 20V23.5H50.5471ZM58.377 23.5C57.7423 23.5 57.243 23.346 56.879 23.038C56.515 22.73 56.333 22.1747 56.333 21.372V17.55H55.129V16.556H56.333L56.487 14.89H57.509V16.556H59.553V17.55H57.509V21.372C57.509 21.8107 57.5977 22.1093 57.775 22.268C57.9523 22.4173 58.265 22.492 58.713 22.492H59.441V23.5H58.377ZM67.1181 23.5V14.666H64.1921V13.7H71.2201V14.666H68.2941V23.5H67.1181ZM74.4923 23.668C73.839 23.668 73.251 23.5187 72.7283 23.22C72.2056 22.9213 71.7903 22.5013 71.4823 21.96C71.1836 21.4093 71.0343 20.7653 71.0343 20.028C71.0343 19.2907 71.1883 18.6513 71.4963 18.11C71.8043 17.5593 72.2196 17.1347 72.7423 16.836C73.2743 16.5373 73.867 16.388 74.5203 16.388C75.1736 16.388 75.7616 16.5373 76.2843 16.836C76.807 17.1347 77.2176 17.5593 77.5163 18.11C77.8243 18.6513 77.9783 19.2907 77.9783 20.028C77.9783 20.7653 77.8243 21.4093 77.5163 21.96C77.2083 22.5013 76.7883 22.9213 76.2563 23.22C75.7336 23.5187 75.1456 23.668 74.4923 23.668ZM74.4923 22.66C74.8936 22.66 75.267 22.562 75.6123 22.366C75.9576 22.17 76.2376 21.876 76.4523 21.484C76.667 21.092 76.7743 20.6067 76.7743 20.028C76.7743 19.4493 76.667 18.964 76.4523 18.572C76.247 18.18 75.9716 17.886 75.6263 17.69C75.281 17.494 74.9123 17.396 74.5203 17.396C74.119 17.396 73.7456 17.494 73.4003 17.69C73.055 17.886 72.775 18.18 72.5603 18.572C72.3456 18.964 72.2383 19.4493 72.2383 20.028C72.2383 20.6067 72.3456 21.092 72.5603 21.484C72.775 21.876 73.0503 22.17 73.3863 22.366C73.7316 22.562 74.1003 22.66 74.4923 22.66Z" fill="#7E7D7D"/>
<path d="M89.622 15.7106C89.5608 15.7738 89.5121 15.8488 89.479 15.9315C89.4458 16.0141 89.4287 16.1027 89.4287 16.1921C89.4287 16.2816 89.4458 16.3701 89.479 16.4528C89.5121 16.5354 89.5608 16.6105 89.622 16.6737L94.0995 21.3004C94.1607 21.3637 94.2334 21.4139 94.3134 21.4481C94.3935 21.4824 94.4792 21.5 94.5659 21.5C94.6525 21.5 94.7383 21.4824 94.8183 21.4481C94.8983 21.4139 94.971 21.3637 95.0322 21.3004L99.5097 16.6737C99.5734 16.611 99.6244 16.5359 99.6595 16.4526C99.6947 16.3693 99.7133 16.2796 99.7144 16.1888C99.7154 16.0979 99.6989 16.0078 99.6656 15.9236C99.6324 15.8395 99.5832 15.7631 99.5209 15.6989C99.4587 15.6347 99.3846 15.5841 99.3031 15.5499C99.2215 15.5158 99.1342 15.4988 99.0462 15.5001C98.9583 15.5013 98.8714 15.5207 98.7908 15.5572C98.7102 15.5936 98.6375 15.6463 98.577 15.7123L94.5659 19.8574L90.5548 15.7123C90.4937 15.6489 90.421 15.5985 90.3411 15.5641C90.2611 15.5297 90.1754 15.5119 90.0887 15.5118C90.0021 15.5116 89.9163 15.5291 89.8362 15.5632C89.7562 15.5973 89.6834 15.6474 89.622 15.7106Z" fill="#6F6C90"/>
<rect x="0.928711" y="1" width="106.286" height="35" rx="5.5" stroke="#E4E4E4"/>
</g>
</svg>
