<svg width="10" height="10" viewBox="0 0 10 10" fill="none" xmlns="http://www.w3.org/2000/svg">
<path d="M5.00023 0C2.58802 0 0.632812 1.95521 0.632812 4.36742C0.632812 6.01761 1.54753 7.45187 2.89688 8.19503L2.84552 10L4.90625 8.72995C4.93734 8.73065 4.96844 8.73484 5.00023 8.73484C7.41245 8.73484 9.36766 6.77964 9.36766 4.36742C9.36766 1.95521 7.41245 0 5.00023 0ZM5.55647 6.91241H4.43736V3.31016H5.55647V6.91241ZM4.9894 2.86887C4.63547 2.86887 4.39998 2.61801 4.40766 2.30844C4.40033 1.98456 4.63547 1.74103 4.99674 1.74103C5.35766 1.74103 5.58687 1.98456 5.5942 2.30844C5.59385 2.61801 5.35697 2.86887 4.9894 2.86887Z" fill="#BBBBBB"/>
</svg>
