<svg width="16" height="16" viewBox="0 0 16 16" fill="none" xmlns="http://www.w3.org/2000/svg">
<path d="M9.46582 7.99998L15.696 1.76969C16.1014 1.36443 16.1014 0.709159 15.696 0.303946C15.2907 -0.101315 14.6355 -0.101315 14.2303 0.303946L7.99993 6.53418L1.76984 0.303946C1.36438 -0.101315 0.709353 -0.101315 0.304092 0.303946C-0.101364 0.709207 -0.101364 1.36443 0.304092 1.76969L6.53414 7.99998L0.30414 14.2302C-0.101315 14.6355 -0.101315 15.2907 0.30414 15.696C0.40027 15.7924 0.514502 15.8688 0.640272 15.9209C0.766042 15.9731 0.900871 15.9998 1.03701 15.9997C1.30233 15.9997 1.56774 15.8981 1.76988 15.696L7.99993 9.46572L14.2303 15.696C14.3264 15.7923 14.4406 15.8688 14.5664 15.9209C14.6922 15.973 14.827 15.9998 14.9631 15.9997C15.2284 15.9997 15.4939 15.8981 15.696 15.696C16.1014 15.2907 16.1014 14.6355 15.696 14.2302L9.46582 7.99998Z" fill="#7E7D7D"/>
</svg>
