<svg width="50" height="50" viewBox="0 0 50 50" fill="none" xmlns="http://www.w3.org/2000/svg">
<g clipPath="url(#clip0_5939_124420)">
<path d="M25 0C11.1825 0 0 11.1813 0 25C0 38.8173 11.1813 50 25 50C38.8175 50 50 38.8187 50 25C50 11.1825 38.8187 0 25 0ZM24.2603 36.7011C22.8452 36.7011 21.7593 35.5164 21.7593 34.1671C21.7593 32.785 22.8781 31.6333 24.2603 31.6333C25.6425 31.6333 26.794 32.7851 26.794 34.1672C26.794 35.5163 25.6752 36.7011 24.2603 36.7011ZM28.0116 23.9C26.2018 25.315 26.1687 26.3022 26.1687 28.0134C26.1687 28.6388 25.8396 29.3627 24.2272 29.3627C22.8779 29.3627 22.4174 28.869 22.4174 27.1579C22.4174 24.3278 23.6679 22.9786 24.6222 22.156C25.7081 21.2345 27.551 20.2145 27.551 18.4375C27.551 16.9236 26.2347 16.1997 24.5893 16.1997C21.2327 16.1997 21.9567 18.7337 20.1796 18.7337C19.2911 18.7337 18.2052 18.1412 18.2052 16.8579C18.2052 15.081 20.2454 12.4482 24.688 12.4482C28.9001 12.4482 31.6973 14.7848 31.6973 17.878C31.6973 20.9713 28.9001 23.209 28.0116 23.9Z" fill="#BBBBBB"/>
</g>
<defs>
<clipPath id="clip0_5939_124420">
<rect width="50" height="50" fill="white"/>
</clipPath>
</defs>
</svg>
