<svg width="11" height="12" viewBox="0 0 11 12" fill="none" xmlns="http://www.w3.org/2000/svg">
<path d="M5.49948 0.5C2.84604 0.5 0.695312 2.65073 0.695312 5.30416C0.695312 7.11937 1.7015 8.69706 3.18579 9.51453L3.12929 11.5L5.39609 10.1029C5.4303 10.1037 5.4645 10.1083 5.49948 10.1083C8.15291 10.1083 10.3036 7.9576 10.3036 5.30416C10.3036 2.65073 8.15291 0.5 5.49948 0.5ZM6.11133 8.10365H4.88032V4.14117H6.11133V8.10365ZM5.48756 3.65576C5.09823 3.65576 4.83919 3.37981 4.84765 3.03929C4.83958 2.68301 5.09823 2.41513 5.49563 2.41513C5.89265 2.41513 6.14477 2.68301 6.15284 3.03929C6.15246 3.37981 5.89188 3.65576 5.48756 3.65576Z" fill="#E2E2E2"/>
</svg>
