<svg width="20" height="20" viewBox="0 0 20 20" fill="none" xmlns="http://www.w3.org/2000/svg">
<path fill-rule="evenodd" clip-rule="evenodd" d="M19.6004 9.9999C19.6004 15.3018 15.3023 19.5999 10.0004 19.5999C4.69846 19.5999 0.400391 15.3018 0.400391 9.9999C0.400391 4.69797 4.69846 0.399902 10.0004 0.399902C15.3023 0.399902 19.6004 4.69797 19.6004 9.9999ZM11.2004 5.1999C11.2004 5.86264 10.6631 6.3999 10.0004 6.3999C9.33766 6.3999 8.8004 5.86264 8.8004 5.1999C8.8004 4.53716 9.33766 3.9999 10.0004 3.9999C10.6631 3.9999 11.2004 4.53716 11.2004 5.1999ZM8.8004 8.7999C8.13766 8.7999 7.6004 9.33716 7.6004 9.9999C7.6004 10.6626 8.13766 11.1999 8.8004 11.1999V14.7999C8.8004 15.4626 9.33766 15.9999 10.0004 15.9999H11.2004C11.8631 15.9999 12.4004 15.4626 12.4004 14.7999C12.4004 14.1372 11.8631 13.5999 11.2004 13.5999V9.9999C11.2004 9.33716 10.6631 8.7999 10.0004 8.7999H8.8004Z" fill="#475569"/>
</svg>
