<svg width="24" height="30" viewBox="0 0 24 30" fill="none" xmlns="http://www.w3.org/2000/svg">
<path d="M20.5 29.5H3.5C2.70435 29.5 1.94129 29.1839 1.37868 28.6213C0.816071 28.0587 0.5 27.2956 0.5 26.5V3.5C0.5 2.70435 0.816071 1.94129 1.37868 1.37868C1.94129 0.816071 2.70435 0.5 3.5 0.5H17.5L23.5 6.5V26.5C23.5 27.2956 23.1839 28.0587 22.6213 28.6213C22.0587 29.1839 21.2956 29.5 20.5 29.5Z" fill="#CFD2FC"/>
<path d="M0.5 21.5H23.5V26.5C23.5 27.2956 23.1839 28.0587 22.6213 28.6213C22.0587 29.1839 21.2956 29.5 20.5 29.5H3.5C2.70435 29.5 1.94129 29.1839 1.37868 28.6213C0.816071 28.0587 0.5 27.2956 0.5 26.5V21.5Z" fill="#60A5FA"/>
<path d="M23.5 6.5H20.5C19.7044 6.5 18.9413 6.18393 18.3787 5.62132C17.8161 5.05871 17.5 4.29565 17.5 3.5V0.5L23.5 6.5Z" fill="#60A5FA"/>
<path d="M9.5 9.5C10.0523 9.5 10.5 9.05228 10.5 8.5C10.5 7.94772 10.0523 7.5 9.5 7.5C8.94772 7.5 8.5 7.94772 8.5 8.5C8.5 9.05228 8.94772 9.5 9.5 9.5Z" fill="white"/>
<path d="M12.5 17.5H5.5L9 12.5L12.5 17.5Z" fill="#5153FF"/>
<path d="M9.5 23H8.5C8.36739 23 8.24021 23.0527 8.14645 23.1464C8.05268 23.2402 8 23.3674 8 23.5V27.5C8 27.6326 8.05268 27.7598 8.14645 27.8536C8.24021 27.9473 8.36739 28 8.5 28C8.63261 28 8.75979 27.9473 8.85355 27.8536C8.94732 27.7598 9 27.6326 9 27.5V26H9.5C9.89782 26 10.2794 25.842 10.5607 25.5607C10.842 25.2794 11 24.8978 11 24.5C11 24.1022 10.842 23.7206 10.5607 23.4393C10.2794 23.158 9.89782 23 9.5 23ZM9.5 25H9V24H9.5C9.63261 24 9.75979 24.0527 9.85355 24.1464C9.94732 24.2402 10 24.3674 10 24.5C10 24.6326 9.94732 24.7598 9.85355 24.8536C9.75979 24.9473 9.63261 25 9.5 25ZM6.5 23C6.36739 23 6.24021 23.0527 6.14645 23.1464C6.05268 23.2402 6 23.3674 6 23.5V26.5C6 26.6326 5.94732 26.7598 5.85355 26.8536C5.75979 26.9473 5.63261 27 5.5 27C5.36739 27 5.24021 26.9473 5.14645 26.8536C5.05268 26.7598 5 26.6326 5 26.5C5 26.3674 4.94732 26.2402 4.85355 26.1464C4.75979 26.0527 4.63261 26 4.5 26C4.36739 26 4.24021 26.0527 4.14645 26.1464C4.05268 26.2402 4 26.3674 4 26.5C4 26.8978 4.15804 27.2794 4.43934 27.5607C4.72064 27.842 5.10218 28 5.5 28C5.89782 28 6.27936 27.842 6.56066 27.5607C6.84196 27.2794 7 26.8978 7 26.5V23.5C7 23.3674 6.94732 23.2402 6.85355 23.1464C6.75979 23.0527 6.63261 23 6.5 23ZM14.5 24C14.6326 24 14.7598 23.9473 14.8536 23.8536C14.9473 23.7598 15 23.6326 15 23.5C15 23.3674 14.9473 23.2402 14.8536 23.1464C14.7598 23.0527 14.6326 23 14.5 23H12.5C12.3674 23 12.2402 23.0527 12.1464 23.1464C12.0527 23.2402 12 23.3674 12 23.5V27.5C12 27.6326 12.0527 27.7598 12.1464 27.8536C12.2402 27.9473 12.3674 28 12.5 28H14.5C14.6326 28 14.7598 27.9473 14.8536 27.8536C14.9473 27.7598 15 27.6326 15 27.5C15 27.3674 14.9473 27.2402 14.8536 27.1464C14.7598 27.0527 14.6326 27 14.5 27H13V26H13.5C13.6326 26 13.7598 25.9473 13.8536 25.8536C13.9473 25.7598 14 25.6326 14 25.5C14 25.3674 13.9473 25.2402 13.8536 25.1464C13.7598 25.0527 13.6326 25 13.5 25H13V24H14.5ZM19.5 25H18.5C18.3674 25 18.2402 25.0527 18.1464 25.1464C18.0527 25.2402 18 25.3674 18 25.5C18 25.6326 18.0527 25.7598 18.1464 25.8536C18.2402 25.9473 18.3674 26 18.5 26H18.9406C18.7998 26.5761 18.4258 27 18 27C17.4579 27 17 26.3131 17 25.5C17 24.6869 17.4579 24 18 24C18.0993 24.0004 18.1973 24.023 18.2868 24.0661C18.3461 24.0941 18.4105 24.1102 18.4761 24.1133C18.5417 24.1164 18.6072 24.1066 18.669 24.0844C18.7308 24.0622 18.7876 24.0281 18.8362 23.9839C18.8848 23.9398 18.9243 23.8865 18.9523 23.8271C18.9803 23.7677 18.9963 23.7034 18.9995 23.6378C19.0026 23.5722 18.9928 23.5066 18.9706 23.4448C18.9484 23.383 18.9143 23.3262 18.8701 23.2776C18.8259 23.229 18.7726 23.1896 18.7132 23.1616C18.4904 23.0554 18.2468 23.0002 18 23C16.8972 23 16 24.1215 16 25.5C16 26.8785 16.8972 28 18 28C19.1028 28 20 26.8785 20 25.5C20 25.3674 19.9473 25.2402 19.8536 25.1464C19.7598 25.0527 19.6326 25 19.5 25Z" fill="white"/>
<path d="M18.5 17.5H9.5L14 9.5L18.5 17.5Z" fill="#8690FA"/>
</svg>
