<svg width="26" height="29" viewBox="0 0 26 29" fill="none" xmlns="http://www.w3.org/2000/svg">
<path d="M15.0875 0H4.42259C3.39572 0 2.55859 0.837124 2.55859 1.86958V26.7098C2.55859 27.7423 3.39572 28.5738 4.42817 28.5794H23.1518C24.1843 28.5794 25.0158 27.7423 25.0214 26.7098L24.9656 8.25962L15.0875 0Z" fill="#D9DEFB"/>
<path d="M15.085 0L15.0571 8.06429C15.0571 8.06429 15.085 8.25962 15.2524 8.25962H24.963L15.085 0ZM0.758992 13.7679H19.5999C20.0184 13.7679 20.3588 14.1083 20.3588 14.5269V22.9428C20.3588 23.3613 20.0184 23.7018 19.5999 23.7018H0.758992C0.34043 23.7018 0 23.3613 0 22.9428V14.5269C0 14.1083 0.34043 13.7679 0.758992 13.7679Z" fill="#3B478F"/>
<path d="M5.97897 16.69H7.27372V18.9614C7.27372 19.4358 7.22907 19.8041 7.14536 20.0497C7.05049 20.312 6.8719 20.5352 6.63751 20.6803C6.38079 20.8533 6.0571 20.937 5.65528 20.937C5.23114 20.937 4.90745 20.8812 4.67305 20.764C4.44982 20.6524 4.26007 20.4794 4.1373 20.2617C4.00336 20.0106 3.92522 19.7316 3.91406 19.4469L5.14742 19.2795C5.14184 19.419 5.15859 19.5586 5.19765 19.6925C5.22556 19.7762 5.28136 19.8543 5.35392 19.9102C5.4153 19.9492 5.48786 19.9715 5.56599 19.966C5.69435 19.9771 5.81712 19.9102 5.88409 19.8041C5.95106 19.6981 5.98455 19.5139 5.98455 19.2628L5.97897 16.69ZM8.12758 16.69H10.2762C10.745 16.69 11.0966 16.8016 11.3254 17.0249C11.5598 17.2481 11.677 17.5662 11.677 17.9736C11.677 18.3977 11.5486 18.727 11.2975 18.9614C11.0464 19.1958 10.6557 19.3186 10.1367 19.3186H9.42792V20.8701H8.13317V16.69H8.12758ZM9.42792 18.4759H9.74602C9.99716 18.4759 10.1702 18.4312 10.2706 18.3475C10.3711 18.2638 10.4269 18.141 10.4213 18.0127C10.4269 17.8899 10.3767 17.7671 10.2874 17.6778C10.1981 17.5885 10.0362 17.5383 9.79625 17.5383H9.42792V18.4759ZM14.4507 19.3577V18.487H16.4486V20.2673C16.0691 20.5296 15.7287 20.7026 15.4329 20.7975C15.0925 20.898 14.7409 20.9482 14.3893 20.937C13.8926 20.937 13.4908 20.8533 13.1782 20.6859C12.8657 20.5129 12.609 20.2506 12.4527 19.9325C12.2741 19.5753 12.1848 19.1791 12.196 18.7828C12.196 18.3252 12.2909 17.929 12.475 17.5941C12.6648 17.2593 12.955 16.9858 13.301 16.824C13.5856 16.69 13.9651 16.623 14.4451 16.623C14.9083 16.623 15.2543 16.6677 15.4831 16.7458C15.7063 16.824 15.9017 16.9579 16.0524 17.1365C16.2142 17.3318 16.3314 17.5606 16.3928 17.8062L15.1483 18.0294C15.1036 17.8843 15.0143 17.756 14.886 17.6667C14.7464 17.5774 14.5846 17.5327 14.4172 17.5439C14.1605 17.5327 13.9093 17.6443 13.7419 17.8397C13.5745 18.035 13.4908 18.3475 13.4908 18.7717C13.4908 19.2237 13.5745 19.5474 13.7475 19.7427C13.9149 19.9381 14.1549 20.0329 14.4618 20.0329C14.6013 20.0329 14.7409 20.0106 14.8748 19.9715C15.0311 19.9157 15.1817 19.8432 15.3268 19.7595V19.3688L14.4507 19.3577Z" fill="white"/>
</svg>
