<svg width="6" height="21" viewBox="0 0 6 21" fill="none" xmlns="http://www.w3.org/2000/svg">
<path d="M0.75 10.3335C0.75 11.574 1.7595 12.5835 3 12.5835C4.2405 12.5835 5.25 11.574 5.25 10.3335C5.25 9.093 4.2405 8.0835 3 8.0835C1.7595 8.0835 0.75 9.093 0.75 10.3335ZM0.75 17.8335C0.75 19.074 1.7595 20.0835 3 20.0835C4.2405 20.0835 5.25 19.074 5.25 17.8335C5.25 16.593 4.2405 15.5835 3 15.5835C1.7595 15.5835 0.75 16.593 0.75 17.8335ZM0.75 2.8335C0.75 4.074 1.7595 5.0835 3 5.0835C4.2405 5.0835 5.25 4.074 5.25 2.8335C5.25 1.593 4.2405 0.583496 3 0.583496C1.7595 0.583496 0.75 1.593 0.75 2.8335Z" fill="#46474F"/>
</svg>
