<svg width="463" height="209" viewBox="0 0 463 209" fill="none" xmlns="http://www.w3.org/2000/svg">
<g clipPath="url(#clip0_9143_134411)">
<circle cx="228.503" cy="59.1968" r="56.5035" fill="#F5F8FF"/>
<circle cx="228.502" cy="59.1971" r="43.9471" fill="#E4ECFE"/>
<path d="M261.029 104.282H204.655C203.189 104.282 202 103.093 202 101.627V25.4892C202 24.0227 203.189 22.834 204.655 22.834H248.673L263.684 36.6909V101.627C263.684 103.093 262.495 104.282 261.029 104.282Z" fill="#F5F8FF" stroke="#B7CEFF" stroke-width="2"/>
<path fill-rule="evenodd" clip-rule="evenodd" d="M208.785 39.8569C208.785 38.8475 209.603 38.0293 210.613 38.0293H246C247.009 38.0293 247.827 38.8475 247.827 39.8569C247.827 40.8662 247.009 41.6845 246 41.6845H210.613C209.603 41.6845 208.785 40.8662 208.785 39.8569ZM208.785 51.1218C208.785 50.1124 209.603 49.2942 210.613 49.2942H256.273C257.282 49.2942 258.101 50.1124 258.101 51.1218C258.101 52.1311 257.282 52.9494 256.273 52.9494H210.613C209.603 52.9494 208.785 52.1311 208.785 51.1218ZM208.785 62.3867C208.785 61.3773 209.603 60.5591 210.613 60.5591H223.169C224.179 60.5591 224.997 61.3773 224.997 62.3867C224.997 63.396 224.179 64.2143 223.169 64.2143H210.613C209.603 64.2143 208.785 63.396 208.785 62.3867ZM229.332 62.3867C229.332 61.3773 230.151 60.5591 231.16 60.5591H256.273C257.282 60.5591 258.101 61.3773 258.101 62.3867C258.101 63.396 257.282 64.2143 256.273 64.2143H231.16C230.151 64.2143 229.332 63.396 229.332 62.3867ZM208.785 73.6516C208.785 72.6422 209.603 71.824 210.613 71.824H243.717C244.726 71.824 245.544 72.6422 245.544 73.6516C245.544 74.6609 244.726 75.4792 243.717 75.4792H210.613C209.603 75.4792 208.785 74.6609 208.785 73.6516ZM249.879 73.6516C249.879 72.6422 250.698 71.824 251.707 71.824H256.273C257.282 71.824 258.101 72.6422 258.101 73.6516C258.101 74.6609 257.282 75.4792 256.273 75.4792H251.707C250.698 75.4792 249.879 74.6609 249.879 73.6516ZM208.785 83.79C208.785 82.7806 209.603 81.9624 210.613 81.9624H252.849C253.858 81.9624 254.676 82.7806 254.676 83.79C254.676 84.7993 253.858 85.6176 252.849 85.6176H210.613C209.603 85.6176 208.785 84.7993 208.785 83.79ZM208.785 93.9284C208.785 92.919 209.603 92.1008 210.613 92.1008H241.433C242.443 92.1008 243.261 92.919 243.261 93.9284C243.261 94.9377 242.443 95.756 241.433 95.756H210.613C209.603 95.756 208.785 94.9377 208.785 93.9284Z" fill="#B7CEFF"/>
<path d="M208.785 39.8569C208.785 38.8475 209.603 38.0293 210.613 38.0293H246C247.009 38.0293 247.827 38.8475 247.827 39.8569C247.827 40.8662 247.009 41.6845 246 41.6845H210.613C209.603 41.6845 208.785 40.8662 208.785 39.8569Z" fill="#2D56B2"/>
<path d="M249.062 21.834L264.683 36.2531H253.062C250.853 36.2531 249.062 34.4622 249.062 32.2531V21.834Z" fill="#B7CEFF"/>
<rect width="13.6935" height="2.36095" rx="1.18048" transform="matrix(-0.707107 0.707107 0.707107 0.707107 190.977 22.2168)" fill="#2D56B2"/>
<rect width="13.6935" height="2.36095" rx="1.18048" transform="matrix(0.707107 0.707107 0.707107 -0.707107 181.297 23.8867)" fill="#2D56B2"/>
<circle cx="196.489" cy="55.0731" r="4.03596" stroke="#5388FE" stroke-width="4"/>
<circle cx="280.409" cy="67.4068" r="3.35409" stroke="#2D56B2" stroke-width="4"/>
<circle cx="181.399" cy="74.3816" r="1.03203" stroke="#4F86FF" stroke-width="3"/>
<path d="M230.49 117.936C250.824 117.936 267.309 116.973 267.309 115.786C267.309 114.599 250.824 113.637 230.49 113.637C210.156 113.637 193.672 114.599 193.672 115.786C193.672 116.973 210.156 117.936 230.49 117.936Z" fill="#B7CEFF"/>
<path d="M249.854 84.2987L255.386 78.7665L278.182 98.224C280.974 100.607 281.142 104.864 278.547 107.46C275.951 110.055 271.694 109.887 269.311 107.095L249.854 84.2987Z" fill="#1A3166"/>
<path d="M253.781 88.901L269.311 107.096C271.694 109.888 275.951 110.056 278.547 107.46C281.142 104.865 280.974 100.607 278.182 98.2244L257.871 80.8887C257.054 83.8353 255.647 86.548 253.781 88.901Z" fill="#2D56B2"/>
<path d="M243.534 51.1027L229.235 84.3002C229.015 84.1299 228.797 83.9534 228.583 83.775C227.2 82.6062 225.997 81.233 225.012 79.7008L237.363 51.0257C239.409 50.6888 241.497 50.7148 243.534 51.1027Z" fill="white"/>
<path d="M253.701 56.862L240.257 88.0741C237.465 88.0771 234.709 87.4235 232.203 86.1638L246.883 52.0801C249.484 53.1198 251.816 54.7558 253.701 56.862Z" fill="white"/>
<path fill-rule="evenodd" clip-rule="evenodd" d="M232.084 55.691C229.481 57.3853 227.419 59.8368 226.167 62.7421C224.916 65.648 224.534 68.8716 225.073 72.0032C225.612 75.1345 227.046 78.0246 229.186 80.3107C231.325 82.5961 234.071 84.1748 237.075 84.8565C240.078 85.5382 243.212 85.2946 246.082 84.1546L246.082 84.1545C247.989 83.3975 249.735 82.2624 251.219 80.8113C252.703 79.3599 253.896 77.6209 254.727 75.6918C255.558 73.7627 256.01 71.683 256.056 69.572C256.101 67.4609 255.739 65.3626 254.992 63.3972L254.992 63.3969C253.866 60.4369 251.911 57.8935 249.383 56.0824C246.854 54.2718 243.864 53.2723 240.79 53.2029C237.716 53.1335 234.687 53.9971 232.084 55.691ZM221.357 60.6699C223.011 56.8285 225.747 53.5657 229.227 51.3009C232.707 49.0356 236.773 47.8728 240.908 47.9662C245.044 48.0595 249.054 49.4046 252.432 51.8238C255.81 54.2426 258.401 57.6245 259.888 61.5357C260.876 64.1329 261.352 66.9018 261.292 69.6848C261.232 72.4679 260.637 75.2131 259.538 77.7641C258.439 80.3152 256.858 82.6237 254.881 84.5563C252.905 86.4889 250.572 88.0076 248.015 89.0228C244.164 90.5524 239.952 90.8809 235.915 89.9646C231.879 89.0485 228.208 86.9312 225.361 83.8899C222.516 80.8491 220.622 77.021 219.911 72.892C219.2 68.7633 219.702 64.5107 221.357 60.6699Z" fill="#2D56B2"/>
<path d="M276.136 98.4064L259.712 84.9572C259.202 84.5403 258.609 85.1266 259.022 85.6393L272.284 102.135C272.796 102.771 273.535 103.185 274.305 103.265L274.76 103.313C276.333 103.478 277.516 102.235 277.284 100.662L277.23 100.296C277.124 99.5749 276.728 98.8912 276.136 98.4064Z" fill="#9FBDFF"/>
<rect width="21.3071" height="3.67363" rx="1.83682" transform="matrix(-0.707107 0.707107 0.707107 0.707107 246.566 60.334)" fill="#2D56B2"/>
<rect width="21.3071" height="3.67363" rx="1.83682" transform="matrix(0.707107 0.707107 0.707107 -0.707107 231.5 62.9316)" fill="#2D56B2"/>
<rect width="11.9003" height="2.05178" rx="1.02589" transform="matrix(-0.707107 0.707107 0.707107 0.707107 275.242 37.0918)" fill="#5388FE"/>
<rect width="11.9003" height="2.05178" rx="1.02589" transform="matrix(0.707107 0.707107 0.707107 -0.707107 266.828 38.543)" fill="#5388FE"/>
<rect width="10.0928" height="1.74013" rx="0.870066" transform="matrix(-0.707107 0.707107 0.707107 0.707107 213.535 102.17)" fill="#2D56B2"/>
<rect width="10.0928" height="1.74013" rx="0.870066" transform="matrix(0.707107 0.707107 0.707107 -0.707107 206.398 103.4)" fill="#2D56B2"/>
</g>
<path d="M137.743 194.834V180.834H140.303L146.883 190.694V180.834H149.443V194.834H146.883L140.303 184.994V194.834H137.743ZM158.717 195.074C157.317 195.074 156.09 194.767 155.037 194.154C153.997 193.541 153.177 192.694 152.577 191.614C151.99 190.521 151.697 189.261 151.697 187.834C151.697 186.407 151.99 185.154 152.577 184.074C153.177 182.981 153.997 182.127 155.037 181.514C156.09 180.901 157.317 180.594 158.717 180.594C160.104 180.594 161.324 180.901 162.377 181.514C163.43 182.127 164.25 182.981 164.837 184.074C165.424 185.154 165.717 186.407 165.717 187.834C165.717 189.261 165.424 190.521 164.837 191.614C164.25 192.694 163.43 193.541 162.377 194.154C161.324 194.767 160.104 195.074 158.717 195.074ZM158.717 192.774C160.05 192.774 161.11 192.334 161.897 191.454C162.697 190.574 163.097 189.367 163.097 187.834C163.097 186.301 162.697 185.094 161.897 184.214C161.11 183.334 160.05 182.894 158.717 182.894C157.384 182.894 156.317 183.334 155.517 184.214C154.717 185.094 154.317 186.301 154.317 187.834C154.317 189.367 154.717 190.574 155.517 191.454C156.317 192.334 157.384 192.774 158.717 192.774ZM170.729 194.834V182.894H166.649V180.834H177.389V182.894H173.289V194.834H170.729ZM184.051 194.834V180.834H189.191C190.311 180.834 191.231 181.027 191.951 181.414C192.685 181.787 193.231 182.301 193.591 182.954C193.951 183.594 194.131 184.307 194.131 185.094C194.131 185.947 193.905 186.727 193.451 187.434C193.011 188.141 192.318 188.654 191.371 188.974L194.271 194.834H191.331L188.731 189.314H186.611V194.834H184.051ZM186.611 187.434H189.031C189.885 187.434 190.511 187.227 190.911 186.814C191.311 186.401 191.511 185.854 191.511 185.174C191.511 184.507 191.311 183.974 190.911 183.574C190.525 183.174 189.891 182.974 189.011 182.974H186.611V187.434ZM196.512 194.834V180.834H205.652V182.894H199.072V186.734H205.052V188.734H199.072V192.774H205.652V194.834H196.512ZM212.855 195.074C211.828 195.074 210.922 194.901 210.135 194.554C209.348 194.194 208.728 193.687 208.275 193.034C207.822 192.367 207.588 191.561 207.575 190.614H210.275C210.302 191.267 210.535 191.821 210.975 192.274C211.428 192.714 212.048 192.934 212.835 192.934C213.515 192.934 214.055 192.774 214.455 192.454C214.855 192.121 215.055 191.681 215.055 191.134C215.055 190.561 214.875 190.114 214.515 189.794C214.168 189.474 213.702 189.214 213.115 189.014C212.528 188.814 211.902 188.601 211.235 188.374C210.155 188.001 209.328 187.521 208.755 186.934C208.195 186.347 207.915 185.567 207.915 184.594C207.902 183.767 208.095 183.061 208.495 182.474C208.908 181.874 209.468 181.414 210.175 181.094C210.882 180.761 211.695 180.594 212.615 180.594C213.548 180.594 214.368 180.761 215.075 181.094C215.795 181.427 216.355 181.894 216.755 182.494C217.168 183.094 217.388 183.807 217.415 184.634H214.675C214.662 184.141 214.468 183.707 214.095 183.334C213.735 182.947 213.228 182.754 212.575 182.754C212.015 182.741 211.542 182.881 211.155 183.174C210.782 183.454 210.595 183.867 210.595 184.414C210.595 184.881 210.742 185.254 211.035 185.534C211.328 185.801 211.728 186.027 212.235 186.214C212.742 186.401 213.322 186.601 213.975 186.814C214.668 187.054 215.302 187.334 215.875 187.654C216.448 187.974 216.908 188.401 217.255 188.934C217.602 189.454 217.775 190.127 217.775 190.954C217.775 191.687 217.588 192.367 217.215 192.994C216.842 193.621 216.288 194.127 215.555 194.514C214.822 194.887 213.922 195.074 212.855 195.074ZM225.408 195.074C224.382 195.074 223.455 194.874 222.628 194.474C221.802 194.061 221.142 193.441 220.648 192.614C220.168 191.787 219.928 190.741 219.928 189.474V180.834H222.488V189.494C222.488 190.587 222.748 191.401 223.268 191.934C223.802 192.467 224.535 192.734 225.468 192.734C226.388 192.734 227.115 192.467 227.648 191.934C228.182 191.401 228.448 190.587 228.448 189.494V180.834H231.008V189.474C231.008 190.741 230.755 191.787 230.248 192.614C229.742 193.441 229.062 194.061 228.208 194.474C227.368 194.874 226.435 195.074 225.408 195.074ZM233.622 194.834V180.834H236.182V192.834H242.382V194.834H233.622ZM245.573 194.834V182.894H241.493V180.834H252.233V182.894H248.133V194.834H245.573ZM258.895 194.834V180.834H267.935V182.894H261.455V186.814H266.695V188.834H261.455V194.834H258.895ZM276.471 195.074C275.071 195.074 273.844 194.767 272.791 194.154C271.751 193.541 270.931 192.694 270.331 191.614C269.744 190.521 269.451 189.261 269.451 187.834C269.451 186.407 269.744 185.154 270.331 184.074C270.931 182.981 271.751 182.127 272.791 181.514C273.844 180.901 275.071 180.594 276.471 180.594C277.857 180.594 279.077 180.901 280.131 181.514C281.184 182.127 282.004 182.981 282.591 184.074C283.177 185.154 283.471 186.407 283.471 187.834C283.471 189.261 283.177 190.521 282.591 191.614C282.004 192.694 281.184 193.541 280.131 194.154C279.077 194.767 277.857 195.074 276.471 195.074ZM276.471 192.774C277.804 192.774 278.864 192.334 279.651 191.454C280.451 190.574 280.851 189.367 280.851 187.834C280.851 186.301 280.451 185.094 279.651 184.214C278.864 183.334 277.804 182.894 276.471 182.894C275.137 182.894 274.071 183.334 273.271 184.214C272.471 185.094 272.071 186.301 272.071 187.834C272.071 189.367 272.471 190.574 273.271 191.454C274.071 192.334 275.137 192.774 276.471 192.774ZM291.131 195.074C290.104 195.074 289.178 194.874 288.351 194.474C287.524 194.061 286.864 193.441 286.371 192.614C285.891 191.787 285.651 190.741 285.651 189.474V180.834H288.211V189.494C288.211 190.587 288.471 191.401 288.991 191.934C289.524 192.467 290.258 192.734 291.191 192.734C292.111 192.734 292.838 192.467 293.371 191.934C293.904 191.401 294.171 190.587 294.171 189.494V180.834H296.731V189.474C296.731 190.741 296.478 191.787 295.971 192.614C295.464 193.441 294.784 194.061 293.931 194.474C293.091 194.874 292.158 195.074 291.131 195.074ZM299.344 194.834V180.834H301.904L308.484 190.694V180.834H311.044V194.834H308.484L301.904 184.994V194.834H299.344ZM313.758 194.834V180.834H318.538C320.178 180.834 321.525 181.127 322.578 181.714C323.645 182.287 324.432 183.101 324.938 184.154C325.458 185.194 325.718 186.421 325.718 187.834C325.718 189.247 325.458 190.481 324.938 191.534C324.432 192.574 323.645 193.387 322.578 193.974C321.525 194.547 320.178 194.834 318.538 194.834H313.758ZM316.318 192.634H318.418C319.592 192.634 320.518 192.447 321.198 192.074C321.878 191.687 322.365 191.141 322.658 190.434C322.952 189.714 323.098 188.847 323.098 187.834C323.098 186.834 322.952 185.974 322.658 185.254C322.365 184.534 321.878 183.981 321.198 183.594C320.518 183.207 319.592 183.014 318.418 183.014H316.318V192.634Z" fill="#585858"/>
<defs>
<clipPath id="clip0_9143_134411">
<rect width="119" height="119" fill="white" transform="translate(172 0.833984)"/>
</clipPath>
</defs>
</svg>
