<svg width="20" height="20" viewBox="0 0 20 20" fill="none" xmlns="http://www.w3.org/2000/svg">
<path d="M9.5 13.1162C10.9454 13.1162 12.1172 11.9445 12.1172 10.499C12.1172 9.05359 10.9454 7.88184 9.5 7.88184C8.05457 7.88184 6.88281 9.05359 6.88281 10.499C6.88281 11.9445 8.05457 13.1162 9.5 13.1162Z" fill="#7E7D7D"/>
<path d="M17.7393 9.77113C15.7275 7.34009 12.6822 5 9.50004 5C6.31722 5 3.27124 7.34173 1.26082 9.77113C0.91306 10.1912 0.91306 10.801 1.26082 11.221C1.76626 11.8318 2.8259 13.0109 4.24114 14.0411C7.80538 16.6357 11.1869 16.6415 14.7589 14.0411C16.1742 13.0109 17.2338 11.8318 17.7393 11.221C18.086 10.8018 18.0878 10.1926 17.7393 9.77113ZM9.50004 6.83203C11.5205 6.83203 13.1641 8.47562 13.1641 10.4961C13.1641 12.5166 11.5205 14.1601 9.50004 14.1601C7.47958 14.1601 5.83598 12.5166 5.83598 10.4961C5.83598 8.47562 7.47958 6.83203 9.50004 6.83203Z" fill="#7E7D7D"/>
</svg>
