<svg width="23" height="30" viewBox="0 0 23 30" fill="none" xmlns="http://www.w3.org/2000/svg">
<path fill-rule="evenodd" clip-rule="evenodd" d="M4.35038 0.599609H13.9779L22.1376 9.10465V25.647C22.1376 27.7193 20.461 29.3958 18.3959 29.3958H4.35038C2.2781 29.3958 0.601563 27.7193 0.601563 25.647V4.34843C0.601526 2.27615 2.27806 0.599609 4.35038 0.599609Z" fill="#FF4A4A"/>
<path fill-rule="evenodd" clip-rule="evenodd" d="M13.9648 0.599609V9.03989H22.1317L13.9648 0.599609Z" fill="white"/>
<path d="M4.76172 22.0841V16.8242H6.99951C7.55357 16.8242 7.99251 16.9753 8.32349 17.2847C8.65448 17.5869 8.81999 17.9971 8.81999 18.508C8.81999 19.0188 8.65448 19.429 8.32349 19.7312C7.99251 20.0406 7.55357 20.1917 6.99951 20.1917H6.10727V22.0841H4.76172ZM6.10727 19.0476H6.84841C7.04987 19.0476 7.20818 19.0045 7.31613 18.9037C7.42404 18.8102 7.48164 18.6807 7.48164 18.508C7.48164 18.3353 7.42408 18.2058 7.31613 18.1122C7.20821 18.0115 7.04991 17.9683 6.84841 17.9683H6.10727V19.0476ZM9.37401 22.0841V16.8242H11.2376C11.6046 16.8242 11.95 16.8746 12.2738 16.9825C12.5976 17.0904 12.8926 17.2416 13.1516 17.4502C13.4107 17.6517 13.6193 17.9251 13.7704 18.2705C13.9143 18.6159 13.9935 19.0117 13.9935 19.4578C13.9935 19.8967 13.9144 20.2924 13.7704 20.6378C13.6193 20.9832 13.4107 21.2566 13.1516 21.4581C12.8926 21.6667 12.5976 21.8178 12.2738 21.9258C11.95 22.0337 11.6046 22.0841 11.2376 22.0841H9.37401ZM10.6908 20.94H11.0793C11.288 20.94 11.4823 20.9185 11.6622 20.8681C11.8348 20.8177 12.0003 20.7386 12.1587 20.6306C12.3098 20.5227 12.4321 20.3716 12.5184 20.1701C12.6048 19.9687 12.6479 19.7312 12.6479 19.4578C12.6479 19.1771 12.6048 18.9397 12.5184 18.7382C12.4321 18.5368 12.3098 18.3857 12.1587 18.2777C12.0003 18.1698 11.8349 18.0906 11.6622 18.0403C11.4823 17.9899 11.288 17.9683 11.0793 17.9683H10.6908V20.94ZM14.6699 22.0841V16.8242H18.4115V17.9683H16.0154V18.8102H17.9294V19.9471H16.0154V22.0841H14.6699Z" fill="white"/>
</svg>
