<svg width="23" height="31" viewBox="0 0 23 31" fill="none" xmlns="http://www.w3.org/2000/svg">
<path d="M22.0093 8.45222V26.9168C22.0093 28.9551 20.3595 30.6049 18.3211 30.6049H3.68813C1.6498 30.6049 0 28.9551 0 26.9168V3.68813C0 1.6498 1.6498 0 3.68813 0H13.557L22.0093 8.45222Z" fill="#047857"/>
<path d="M22.0111 8.45251H15.0829C14.2401 8.45251 13.5586 7.77105 13.5586 6.92819V0L22.0111 8.45251Z" fill="#EDFFFA"/>
<path d="M8.25615 16.4957C8.25615 17.7689 7.58066 18.4743 6.39109 18.4743H5.66181V20.6084H4.78906V14.541H6.39109C7.57468 14.541 8.25615 15.2583 8.25615 16.4957ZM7.35949 16.4957C7.35949 15.7485 7.03669 15.3659 6.37914 15.3659H5.66181V17.6374H6.37914C7.04267 17.6434 7.35949 17.2788 7.35949 16.4957ZM12.596 14.541V20.6084H11.7232L10.3663 17.6314C10.187 17.1831 9.93589 16.5495 9.78644 16.1609L9.76253 16.1789C9.82231 16.7826 9.86415 17.6972 9.86415 18.2711V20.6084H8.99738V14.541H9.87013L11.2629 17.6314C11.4423 18.0379 11.6694 18.5998 11.8189 18.9645L11.8428 18.9465C11.7711 18.3488 11.7232 17.4402 11.7232 16.9022V14.535H12.596V14.541ZM13.6361 18.8031V16.3343C13.6361 15.1029 14.3116 14.4453 15.4115 14.4453C16.4875 14.4453 17.1391 15.0969 17.1809 16.2924H16.3141C16.2783 15.5871 15.9674 15.2882 15.4115 15.2882C14.8556 15.2882 14.5268 15.611 14.5268 16.3462V18.8091C14.5268 19.5443 14.8735 19.8671 15.4354 19.8671C16.0152 19.8671 16.3619 19.5443 16.3619 18.8509V18.0917H15.3995V17.3146H17.2227V18.8569C17.2048 20.0464 16.5174 20.71 15.4294 20.71C14.3415 20.71 13.6361 20.0345 13.6361 18.8031Z" fill="white"/>
</svg>
