<svg width="71" height="71" viewBox="0 0 71 71" fill="none" xmlns="http://www.w3.org/2000/svg">
<circle cx="35.5" cy="35.5" r="35.5" fill="#1D4ED8" fill-opacity="0.05"/>
<path d="M46.1049 27.2097V42.2976C46.1049 43.6023 45.0437 44.6635 43.739 44.6635H28.6511C27.3464 44.6635 26.2852 43.6023 26.2852 42.2976V27.2097C26.2852 25.905 27.3464 24.8438 28.6511 24.8438H43.739C45.0437 24.8438 46.1049 25.905 46.1049 27.2097Z" fill="#ECF9FD"/>
<path d="M46.1013 27.2097V42.2976C46.1013 43.6023 45.0401 44.6635 43.7354 44.6635H36.1914V24.8438H43.7354C45.0401 24.8438 46.1013 25.905 46.1013 27.2097Z" fill="#D9F3FC"/>
<path d="M49.7743 35.6598H22.5929C21.4692 35.6598 21.4689 33.9609 22.5929 33.9609H49.7743C50.898 33.9609 50.8984 35.6598 49.7743 35.6598Z" fill="#58B354"/>
<path d="M49.7821 35.6598H36.1914V33.9609H49.7821C50.9058 33.9609 50.9062 35.6598 49.7821 35.6598Z" fill="#00A963"/>
<path d="M48.9881 27.5062V23.4483C48.9881 22.657 48.3444 22.0133 47.5532 22.0133H43.4952C42.3722 22.0133 42.3706 20.3145 43.4952 20.3145H47.5532C49.2811 20.3145 50.687 21.7203 50.687 23.4483V27.5062C50.687 28.6292 48.9881 28.6308 48.9881 27.5062ZM47.5532 49.3079H43.4952C42.3722 49.3079 42.3706 47.6091 43.4952 47.6091H47.5532C48.3444 47.6091 48.9881 46.9654 48.9881 46.1741V42.1162C48.9881 40.9932 50.687 40.9916 50.687 42.1162V46.1741C50.687 47.9021 49.2811 49.3079 47.5532 49.3079Z" fill="#001737"/>
<path d="M21.6953 27.5062V23.4483C21.6953 21.7203 23.1012 20.3145 24.8291 20.3145H28.8871C30.0101 20.3145 30.0117 22.0133 28.8871 22.0133H24.8291C24.0379 22.0133 23.3941 22.657 23.3941 23.4483V27.5062C23.3941 28.6292 21.6953 28.6308 21.6953 27.5062ZM28.8871 49.3079H24.8291C23.1012 49.3079 21.6953 47.9021 21.6953 46.1741V42.1162C21.6953 40.9932 23.3941 40.9916 23.3941 42.1162V46.1741C23.3941 46.9654 24.0379 47.6091 24.8291 47.6091H28.8871C30.0101 47.6091 30.0117 49.3079 28.8871 49.3079Z" fill="#00357B"/>
<path d="M43.7401 44.6635H41.046C39.923 44.6635 39.9214 42.9647 41.046 42.9647H43.7401C44.108 42.9647 44.4073 42.6654 44.4073 42.2975V39.6035C44.4073 38.4804 46.1061 38.4788 46.1061 39.6035V42.2975C46.1061 43.6021 45.0447 44.6635 43.7401 44.6635ZM44.4073 29.9038V27.2098C44.4073 26.8419 44.1079 26.5426 43.7401 26.5426H41.046C39.923 26.5426 39.9214 24.8438 41.046 24.8438H43.7401C45.0447 24.8438 46.1061 25.9051 46.1061 27.2098V29.9038C46.1061 31.0268 44.4073 31.0284 44.4073 29.9038Z" fill="#001737"/>
<path d="M26.2734 29.9038V27.2098C26.2734 25.9051 27.3349 24.8438 28.6395 24.8438H31.3335C32.4566 24.8438 32.4582 26.5426 31.3335 26.5426H28.6395C28.2716 26.5426 27.9723 26.8419 27.9723 27.2098V29.9038C27.9723 31.0268 26.2734 31.0284 26.2734 29.9038ZM31.3335 44.6635H28.6395C27.3349 44.6635 26.2734 43.6021 26.2734 42.2975V39.6035C26.2734 38.4804 27.9723 38.4788 27.9723 39.6035V42.2975C27.9723 42.6654 28.2716 42.9647 28.6395 42.9647H31.3335C32.4566 42.9647 32.4582 44.6635 31.3335 44.6635Z" fill="#00357B"/>
</svg>
