<svg width="586" height="425" viewBox="0 0 586 425" fill="none" xmlns="http://www.w3.org/2000/svg">
<path d="M395.518 83.9368C467.401 137.181 444.076 216.727 444.076 216.727C444.076 216.727 524.746 230.421 537.672 301.462C550.598 372.503 524.47 396.493 524.47 396.493L74.1939 397.399C74.1939 397.399 4.05202 201.615 77.5548 109.371C151.058 17.1283 323.638 30.6948 395.518 83.9368Z" fill="#EFF6FF"/>
<path d="M334.612 85.9762C336.405 68.5145 326.213 62.5285 300.261 61.3198C268.134 59.8355 258.036 66.5403 266.225 91.5381C274.595 117.087 297.682 106.935 313.95 106.935C330.218 106.935 333.647 95.268 334.612 85.9762Z" fill="white"/>
<path d="M295.458 90.8796C297.118 96.1107 301.529 97.048 306.304 95.6337C306.667 95.5307 307.049 95.5136 307.419 95.5837C307.79 95.6537 308.139 95.809 308.44 96.0374C308.74 96.2657 308.983 96.5607 309.15 96.8991C309.316 97.2376 309.402 97.6101 309.4 97.9873V98.1633C309.397 98.6786 309.234 99.1803 308.933 99.5984C308.632 100.017 308.208 100.33 307.72 100.496C299.646 103.265 290.839 100.899 288.742 90.8796H287.277C286.779 90.8796 286.301 90.6817 285.949 90.3294C285.596 89.9771 285.398 89.4992 285.398 89.0009C285.398 88.5025 285.596 88.0244 285.949 87.6717C286.301 87.3191 286.779 87.1207 287.277 87.1201H288.303C288.197 86.1171 288.265 84.2087 288.352 83.14H287.277C286.779 83.1395 286.301 82.9411 285.949 82.5884C285.596 82.2358 285.398 81.7577 285.398 81.2592C285.398 80.761 285.596 80.2831 285.949 79.9308C286.301 79.5785 286.779 79.3805 287.277 79.3805H288.986C291.319 69.9976 299.258 66.8594 307.561 69.0625C308.087 69.2019 308.552 69.5108 308.884 69.9413C309.217 70.3718 309.398 70.8999 309.4 71.4437V71.9357C309.402 72.3113 309.317 72.6823 309.152 73.0197C308.987 73.357 308.746 73.6515 308.448 73.88C308.15 74.1085 307.803 74.2647 307.434 74.3365C307.065 74.4083 306.685 74.3936 306.323 74.2936C301.539 72.9026 297.18 74.0073 295.458 79.3826H302.417C302.915 79.3826 303.394 79.5805 303.746 79.9328C304.099 80.285 304.297 80.7629 304.298 81.2613C304.298 81.7602 304.1 82.2386 303.747 82.5913C303.394 82.944 302.916 83.1422 302.417 83.1422H294.652C294.581 84.4679 294.581 85.7965 294.652 87.1222H302.417C302.916 87.1222 303.394 87.3204 303.747 87.6731C304.1 88.0258 304.298 88.5042 304.298 89.0031C304.297 89.5015 304.099 89.9794 303.746 90.3316C303.394 90.6839 302.915 90.8818 302.417 90.8818L295.458 90.8796Z" fill="#FCC332"/>
<path d="M333.163 91.5391C340.904 101.863 339.91 109.974 339.91 109.974C336.941 104.12 326.867 100.975 326.867 100.975C331.176 94.8533 333.163 91.5391 333.163 91.5391Z" fill="white"/>
<g style="mix-blend-mode:screen">
<path d="M243.766 276.555C240.585 275.597 236.811 275.037 232.79 275.005C229.06 270.951 220.367 268.243 210.488 268.243C204.55 268.243 198.935 269.248 194.599 270.972C189.775 265.934 178.696 262.412 166.139 262.412C157.89 262.412 150.068 263.896 144.271 266.534C143.439 266.473 142.603 266.443 141.762 266.443C132.778 266.443 125.469 269.783 125.469 273.89C125.469 274.81 125.842 275.714 126.552 276.555H243.766Z" fill="#7A7A7A"/>
</g>
<g style="mix-blend-mode:screen">
<path d="M403.625 303.324C407.946 302.018 413.084 301.257 418.551 301.216C423.621 295.703 435.442 292.022 448.873 292.022C456.931 292.022 464.579 293.388 470.476 295.731C477.037 288.88 492.104 284.092 509.176 284.092C518.273 284.092 526.988 285.421 534.163 287.836C535.66 292.288 536.832 296.841 537.668 301.462C537.781 302.086 537.892 302.706 537.999 303.324H403.625Z" fill="#7A7A7A"/>
</g>
<g style="mix-blend-mode:screen">
<path d="M44.193 217.389C46.5012 216.896 48.8556 216.653 51.2158 216.662C52.0555 216.662 52.8917 216.692 53.7243 216.753C59.5216 214.119 67.3439 212.631 75.5924 212.631C88.1474 212.631 99.2288 216.153 104.053 221.191C108.389 219.467 114.019 218.462 119.941 218.462C129.82 218.462 138.514 221.17 142.244 225.224C146.273 225.256 150.043 225.814 153.219 226.774H44C44.0212 223.644 44.0855 220.516 44.193 217.389Z" fill="#7A7A7A"/>
</g>
<g style="mix-blend-mode:screen">
<path d="M363.097 145.996C361.802 145.996 361.74 144.596 363.032 144.543C363.507 144.524 363.986 144.511 364.467 144.509C368.04 140.623 376.375 138.027 385.847 138.027C391.53 138.027 396.92 138.99 401.076 140.642C405.701 135.811 416.324 132.436 428.36 132.436C431.015 132.435 433.667 132.601 436.301 132.932C438.265 137.182 439.978 141.544 441.43 145.996H363.097Z" fill="#7A7A7A"/>
</g>
<path d="M157.169 369.707C157.169 369.707 157.128 370.087 157.128 370.719C157.128 372.627 157.497 376.802 160.466 379.889C164.423 384.007 164.446 389.128 160.254 390.004C156.062 390.88 146.104 389.724 146.104 389.724C146.104 389.724 143.85 385.808 145.389 375.345C146.929 364.883 147.822 353.412 147.822 353.412L159.181 351.637L157.169 369.707Z" fill="#FF7446"/>
<path d="M159.396 374.158C159.396 374.158 163.611 379.883 164.597 382.262C165.583 384.641 165.371 390.581 164.597 391.194C157.782 396.571 144.865 391.73 144.865 391.73C144.25 388.83 143.803 385.897 143.527 382.945C143.079 378.102 143.332 373.592 144.865 373.592C146.398 373.592 146.665 376.136 150.166 375.413C153.667 374.69 155.81 373.441 159.396 374.158Z" fill="#001653"/>
<path d="M143.797 385.355C146.424 386.382 149.989 387.58 153.305 388.055C156.844 388.559 161.609 386.995 165.205 385.4C165.391 387.945 165.124 390.78 164.603 391.193C157.788 396.57 144.87 391.73 144.87 391.73C144.87 391.73 144.261 389.03 143.797 385.355Z" fill="#BFDBFE"/>
<path d="M143.797 385.355C153.572 388.292 155.37 388.812 165.213 385.4C163.572 386.284 161.851 387.012 160.073 387.576C156.293 388.746 154.062 388.636 151.704 388.114C148.971 387.502 146.318 386.576 143.797 385.355Z" fill="#957447"/>
<path d="M270.823 191.752C268.026 192.812 264.317 194.364 264.317 194.364C263.84 193.21 273.07 191.236 274.364 188.427C275.057 186.921 263.772 192.456 262.988 191.8C262.663 191.525 275.753 187.265 275.148 186.236C274.642 185.371 261.387 190.053 261.313 189.396C261.211 188.499 272.791 186.175 271.754 184.881C271.221 184.22 257.169 188.022 255.653 188.242C253.798 188.242 260.511 183.681 258.223 183.073C255.119 182.244 247.318 191.185 246.709 191.311C244.945 191.677 229.911 193.518 222.551 188.704C216.614 184.816 210.84 178.836 209.428 173.688C208.043 168.641 206.124 161.431 207.765 155.876C201.069 154.856 194.574 154.623 187.778 155.435C187.365 163.787 197.365 196.881 201.546 199.604C210.744 205.594 227.155 204.129 238.726 203.176C248.056 202.409 257.174 200.573 265.581 196.31C267.458 195.356 269.972 194.29 271.425 192.632C271.509 192.541 271.559 192.424 271.568 192.3C271.577 192.177 271.544 192.054 271.474 191.952C271.404 191.85 271.302 191.774 271.183 191.738C271.065 191.701 270.938 191.706 270.823 191.752Z" fill="#F25C12"/>
<path d="M203.583 127.836C208.566 132.984 213.598 163.821 211.747 171.173C208.55 177.142 194.069 178.17 189.385 181.005C178.584 176.553 185.992 156.644 185.992 156.644L182.055 117.84C182.055 117.84 194.092 118.033 203.583 127.836Z" fill="#93C5FD"/>
<path d="M189.959 362.807C189.228 365.073 189.197 367.505 189.868 369.789C190.539 372.073 191.883 374.101 193.723 375.611C195.103 376.741 196.627 377.681 198.256 378.407C204.874 381.3 213.445 380.649 214.639 386.592C215.833 392.536 172.68 384.924 172.68 384.924C172.68 384.924 175.674 370.473 175.86 368.051C176.047 365.63 175.597 356.741 175.597 356.741L192.264 355.545L189.959 362.807Z" fill="#FF7446"/>
<path d="M174.43 374.701C174.43 374.701 173.904 376.995 172.696 380.886C171.973 383.337 171.817 385.921 172.24 388.441C172.24 388.441 212.661 390.35 214.296 389.077C215.931 387.805 215.094 383.14 214.678 382.716C214.262 382.292 209.135 380.918 206.506 379.296C203.876 377.674 194.89 371.531 191.854 371.779C188.817 372.027 187.416 374.27 181.652 374.535C175.889 374.8 175.863 373.581 174.43 374.701Z" fill="#001653"/>
<path d="M214.293 389.076C212.658 390.348 172.236 388.44 172.236 388.44C171.935 386.658 171.922 384.84 172.196 383.054C193.296 386.962 214.674 382.721 214.674 382.721C215.09 383.136 215.93 387.797 214.293 389.076Z" fill="#BFDBFE"/>
<path d="M172.203 383.056C186.622 385.933 202.587 385.324 214.682 382.723C192.682 386.045 174.941 383.471 176.168 383.596L172.203 383.056Z" fill="#957447"/>
<path d="M140.981 222.756C134.048 248.114 142.657 361.867 142.657 361.867L163.42 360.446C163.42 360.446 168.142 247.285 171.569 243.858C172.572 242.855 173.649 243.173 174.476 243.742C175.304 244.329 175.909 245.178 176.193 246.153C178.331 253.135 190.542 293.78 188.081 302.681C185.386 312.435 173.354 364.636 173.354 364.636L190.776 365.334C190.776 365.334 214.662 325.446 214.662 297.601C214.662 269.755 210.778 232.845 199.491 217.826C194.353 210.985 169.058 205.703 169.058 205.703C169.058 205.703 143.149 214.834 140.981 222.756Z" fill="#021F6E"/>
<path d="M178.503 364.591C178.503 364.591 190.533 308.921 193.23 298.529C195.187 290.982 187.867 262.036 183.711 246.75C183.424 245.69 182.88 244.718 182.126 243.919C181.373 243.12 180.435 242.519 179.394 242.17C178.353 241.82 177.243 241.733 176.16 241.915C175.077 242.097 174.056 242.544 173.188 243.215C173.188 243.215 190.774 292.931 188.079 302.677C185.384 312.422 173.353 364.631 173.353 364.631L190.774 365.329L190.902 365.117L178.503 364.591Z" fill="#021753"/>
<path d="M145.292 217.492C143.066 219.231 141.456 221.023 140.981 222.755C134.048 248.113 142.657 361.866 142.657 361.866L147.801 361.514C147.51 357.401 140.055 250.329 145.292 217.492Z" fill="#021753"/>
<path d="M203.481 224.627C202.388 222.23 201.052 219.952 199.495 217.827C198.772 216.929 197.913 216.148 196.95 215.514C194.064 216.987 190.074 218.595 184.554 220.293C167.911 225.41 149.966 222.683 142.51 220.081C141.751 220.976 141.219 221.871 140.977 222.751C140.377 224.95 139.892 227.814 139.508 231.211C143.231 233.981 164.868 240.671 184.554 234.405C197.059 230.433 201.715 228.024 203.481 224.627Z" fill="#021753"/>
<path d="M142.671 370.481C147.991 372.209 160.796 371.781 163.854 370.481C166.672 369.285 166.863 358.797 163.854 358.227C159.623 357.427 147.637 357.516 142.671 358.227C139.638 358.661 139.749 369.535 142.671 370.481Z" fill="#5D70A2"/>
<path d="M174.238 365.795C179.558 367.521 192.363 367.093 195.421 365.795C198.241 364.597 198.43 354.11 195.421 353.541C191.18 352.742 179.204 352.831 174.238 353.541C171.205 353.974 171.324 364.85 174.238 365.795Z" fill="#5D70A2"/>
<path d="M166.307 116.975C166.307 116.975 148.994 116.085 141.922 124.471C134.851 132.858 135.425 220.951 138.29 223.411C141.155 225.87 165.76 233.294 185.304 227.512C204.848 221.729 206.084 213.788 206.084 213.788C206.084 213.788 200.885 154.543 200.885 138.352C200.885 122.16 185.077 112.62 166.307 116.975Z" fill="#60A5FA"/>
<path d="M151.037 206.21C149.506 201.956 151.143 188.426 152.886 178.644C154.249 178.905 155.56 179.215 156.798 179.573C158.889 173.099 160.732 156.295 160.793 145.731C160.91 125.915 150.878 120.152 150.878 120.152C148.889 119.696 145.71 121.568 140.734 126.747C134.99 142.457 136.192 215.565 138.885 217.874C140.034 218.86 142.277 225.039 148.068 226.267C149.572 220.351 152.451 210.137 151.037 206.21Z" fill="#59B3CF"/>
<path d="M164.813 117.158C161.058 120.61 160.767 120.675 164.667 125.203C168.566 129.73 181.484 134.878 183.327 134.009C187.898 131.85 183.645 124.645 180.602 119.463C179.65 117.845 168.566 113.708 164.813 117.158Z" fill="#59B3CF"/>
<path d="M181.59 104.115C181.59 104.115 182.6 127.957 181.59 129C180.581 130.043 166.09 124.999 164.826 122.041C163.562 119.083 170.106 75.9785 170.106 75.9785L181.59 104.115Z" fill="#F25C12"/>
<path opacity="0.6" d="M182.036 119.832C179.475 119.371 177.27 118.72 176.623 117.989C170.711 111.312 175.139 100.476 174.676 97.6603C173.752 92.0517 171.869 87.4186 172.812 82.584L181.599 104.115C181.599 104.115 181.964 112.732 182.036 119.832Z" fill="#B5450E"/>
<path d="M259.51 154.553C259.596 155.057 259.52 155.576 259.292 156.034C259.064 156.491 258.696 156.865 258.242 157.099C257.787 157.334 257.27 157.418 256.765 157.34C256.26 157.261 255.793 157.024 255.431 156.662C255.07 156.3 254.833 155.833 254.755 155.327C254.677 154.822 254.761 154.305 254.997 153.851C255.232 153.397 255.606 153.03 256.064 152.802C256.522 152.575 257.04 152.499 257.544 152.586C258.035 152.671 258.487 152.905 258.839 153.258C259.191 153.61 259.425 154.063 259.51 154.553Z" fill="#00424C"/>
<path d="M260.867 138.992C259.837 137.72 258.323 137.442 256.718 138.269C251.283 141.057 256.207 153.309 256.785 154.698L257.229 155.758L257.962 154.868C262.517 149.363 263.244 141.944 260.867 138.992ZM257.625 153.032C256.141 149.003 254.05 141.2 257.352 139.505C257.527 139.414 257.71 139.339 257.899 139.281C258.234 139.156 258.6 139.146 258.941 139.252C259.283 139.357 259.579 139.572 259.786 139.864C261.404 141.874 261.255 147.938 257.625 153.032Z" fill="#00424C"/>
<path d="M256.561 153.288C255.734 152.242 248.332 143.182 243.807 146.222C242.454 147.134 242 148.449 242.566 149.827C243.627 152.429 248.037 154.681 253.082 154.681C254.11 154.681 255.135 154.587 256.146 154.399L257.278 154.187L256.561 153.288ZM243.86 149.303C243.548 148.546 243.788 147.915 244.589 147.376C244.982 147.116 245.445 146.982 245.917 146.992C248.658 146.992 252.581 150.781 254.695 153.211C249.32 153.771 244.708 151.365 243.86 149.303Z" fill="#00424C"/>
<path d="M294.79 155.762H223.857C220.907 155.762 218.516 158.153 218.516 161.103V188.955C218.516 191.905 220.907 194.296 223.857 194.296H294.79C297.74 194.296 300.131 191.905 300.131 188.955V161.103C300.131 158.153 297.74 155.762 294.79 155.762Z" fill="#FCC332"/>
<path d="M294.79 155.762H269.281V194.294H294.79C295.491 194.295 296.186 194.157 296.834 193.888C297.482 193.62 298.071 193.227 298.567 192.731C299.063 192.235 299.456 191.647 299.725 190.999C299.993 190.351 300.131 189.656 300.131 188.955V161.101C300.131 160.4 299.993 159.705 299.725 159.057C299.456 158.409 299.063 157.821 298.567 157.325C298.071 156.829 297.482 156.436 296.834 156.168C296.186 155.899 295.491 155.761 294.79 155.762Z" fill="#F29913"/>
<path d="M246.34 155.762H244.328C233.441 168.06 240.11 189.6 241.751 194.294H243.323C242.197 191.131 234.417 167.702 246.247 155.874C246.281 155.839 246.312 155.802 246.34 155.762Z" fill="#00424C"/>
<path d="M283.978 194.15C283.968 194.197 283.963 194.246 283.963 194.294H285.448C289.841 172.341 284.994 160.728 281.72 155.762H279.875C282.871 159.911 288.573 171.353 283.978 194.15Z" fill="#00424C"/>
<path d="M162.852 224.387H112.009C111.046 224.387 110.266 225.167 110.266 226.13V259.136C110.266 260.099 111.046 260.879 112.009 260.879H162.852C163.815 260.879 164.595 260.099 164.595 259.136V226.13C164.595 225.167 163.815 224.387 162.852 224.387Z" fill="#FCC332"/>
<path d="M162.525 228.588H116.508V256.675H162.525V228.588Z" fill="white"/>
<path d="M164.774 234.602H161.89C161.347 234.602 160.906 235.042 160.906 235.585V249.678C160.906 250.221 161.347 250.662 161.89 250.662H164.774C165.317 250.662 165.758 250.221 165.758 249.678V235.585C165.758 235.042 165.317 234.602 164.774 234.602Z" fill="#F29913"/>
<path d="M146.863 206.21C150.287 216.634 138.226 239.176 143.125 246.392C148.023 253.608 145.559 261.182 139.622 264.938C133.684 268.693 126.307 263.43 126.899 260.569C127.491 257.709 129.096 250.014 129.827 246.494C130.559 242.974 116.753 214.783 126.471 197.684C132.238 187.54 123.714 170.078 128.216 158.795C132.245 166.31 151.329 161.615 150.236 169.859C148.5 176.901 144.938 200.353 146.863 206.21Z" fill="#F25C12"/>
<path d="M191.697 72.7027C191.697 72.7027 194.424 82.0877 194.424 89.7849C194.424 97.4821 194.241 110.809 188.79 110.809C183.338 110.809 175.522 109.308 173.705 98.4193C171.888 87.5309 173.705 75.5186 179.157 72.7027C184.608 69.8868 191.697 72.7027 191.697 72.7027Z" fill="#FF7446"/>
<path d="M189.573 79.6373C188.105 79.0309 186.589 80.3413 186.869 81.9465C187.319 84.5207 187.209 87.3388 184.8 87.9261C180.167 89.0584 177.976 87.9261 177.219 88.7086C176.462 89.491 179.41 93.6704 177.219 94.4528C175.029 95.2353 173.85 87.7522 171.918 87.7522C169.986 87.7522 169.558 98.5431 171.918 100.98C174.278 103.416 171.581 106.722 168.464 106.722C165.347 106.722 168.858 110.638 164.66 111.942C160.461 113.246 157.079 113.248 155.731 107.932C154.382 102.616 155.731 99.6627 155.731 99.6627C155.731 99.6627 151.439 94.6564 152.529 89.6967C153.135 86.9401 155.922 81.9804 155.922 81.9804C155.922 81.9804 158.084 76.092 158.678 72.6993C159.272 69.3066 167.624 65.9139 173.345 65.3032C179.066 64.6925 176.201 61.2129 181.004 61.2129C185.807 61.2129 186.464 67.553 186.464 67.553C186.464 67.553 193.322 63.4542 193.64 63.6493C197.63 66.0793 194.314 70.3498 194.314 70.3498C194.314 70.3498 197.599 70.6976 198.273 74.9618C198.947 79.226 196.167 81.8362 191.787 80.4431C190.957 80.1802 190.209 79.9066 189.573 79.6373Z" fill="#100062"/>
<path d="M194.312 64.1289C193.199 64.3158 192.099 64.5786 191.021 64.9156C188.971 66.0585 186.467 67.5534 186.467 67.5534C186.467 67.5534 177.516 70.0598 172.4 72.5046C165.826 75.6365 160.065 78.779 156.197 81.2557C156.036 81.7115 155.939 81.9808 155.939 81.9808C155.939 81.9808 154.912 83.8044 153.969 85.8528C158.042 84.9643 165.992 81.8981 174.861 77.67C184.866 72.8969 194.876 64.6081 194.312 64.1289Z" fill="#0C004A"/>
<path d="M174.942 87.1654C174.942 87.1654 172.626 82.8991 170.563 85.2782C168.5 87.6573 169.584 97.7251 172.754 97.7251C175.924 97.7251 176.07 89.8626 174.942 87.1654Z" fill="#FF7446"/>
<path d="M151.409 120.329C151.409 120.329 157.297 124.812 157.191 144.628C157.134 155.192 154.034 173.092 152.123 179.566C144.199 177.057 133.01 176.896 124.903 179.566C123.811 170.921 126.014 152.471 127.391 146.51C130.779 131.852 142.995 116.977 151.409 120.329Z" fill="#93C5FD"/>
<path d="M188.342 65.2617C184.046 56.2477 173.19 52.4564 164.091 56.7927C154.992 61.129 151.101 71.9496 155.397 80.9657C155.563 81.3134 155.741 81.6484 155.925 81.9813L188.792 66.3135C188.656 65.9593 188.512 65.6095 188.342 65.2617Z" fill="#FCB500"/>
<path d="M181.514 69.3744C181.373 69.0224 181.222 68.669 181.061 68.3142C177.471 60.7866 169.305 56.8999 161.411 58.3481C162.261 57.7511 163.159 57.2263 164.097 56.779C173.196 52.4427 184.053 56.2341 188.349 65.248C188.514 65.5958 188.662 65.9457 188.804 66.3083L155.938 81.9761C155.857 81.8722 181.514 69.3744 181.514 69.3744Z" fill="#FCC332"/>
<path d="M203.478 59.7607C203.129 59.0249 186.012 66.0075 175.065 71.2217C164.117 76.4358 155.535 81.2598 155.885 81.9956C156.235 82.7314 174.39 78.4672 185.334 73.2509C196.277 68.0347 203.828 60.4944 203.478 59.7607Z" fill="#FC9700"/>
<path d="M363.031 163.286C363.031 163.286 355.729 152.58 353.133 151.282C350.538 149.985 359.558 144.164 359.558 144.164L371.21 159.643L363.031 163.286Z" fill="#FF7446"/>
<path d="M406.472 370.653C406.472 370.653 407.134 375.125 402.329 377.438C397.524 379.751 393.211 382.078 393.211 384.728C393.211 387.379 423.028 386.384 423.028 384.728C423.028 383.072 417.397 368.99 417.397 368.99L406.472 370.653Z" fill="#FF7446"/>
<path d="M440.766 371.313V380.756C440.766 380.756 451.699 388.209 461.805 388.209C461.805 388.209 469.922 388.499 469.922 386.366C469.922 384.233 464.275 380.338 457.447 376.996C450.619 373.654 450.922 365.957 450.922 365.957L440.766 367.668V371.313Z" fill="#FF7446"/>
<path d="M414.984 67.6107L419.213 63.9805L426.536 65.3524L427.559 70.0979L414.984 67.6107Z" fill="black"/>
<path d="M400.673 126.969C400.673 126.969 396.038 126.804 393.388 133.265C390.737 139.726 386.43 164.738 381.625 166.394C376.821 168.05 368.54 154.634 368.54 154.634L360.258 160.266C360.258 160.266 373.18 194.39 385.279 193.065C397.378 191.74 401.015 153.142 403.334 144.694C405.654 136.246 400.673 126.969 400.673 126.969Z" fill="#00299E"/>
<path d="M444.826 231.83C441.594 215.596 389.145 220.882 389.907 233.819C389.907 233.819 391.563 265.626 394.877 300.744C398.191 335.863 404.815 372.307 404.815 372.307H419.323C419.323 372.307 411.338 259.585 415.237 255.683C416.156 254.718 417.404 254.133 418.734 254.044C421.717 253.851 424.287 256.164 424.671 259.12L439.926 373.624L453.176 372.298C453.176 372.298 448.057 248.064 444.826 231.83Z" fill="#FCC332"/>
<path opacity="0.53" d="M390.295 240.617C396.124 242.396 428.463 248.053 446.225 243.797C445.736 238.214 445.263 234.043 444.826 231.836C441.594 215.602 389.145 220.888 389.907 233.825C389.913 233.887 390.021 236.018 390.295 240.617Z" fill="#0C72CA"/>
<path d="M412.175 322.605C413.47 343.962 415.082 360.168 416.666 372.306H419.323C419.323 372.306 411.337 259.583 415.237 255.682C415.237 255.684 408.227 257.437 412.175 322.605Z" fill="#D99707"/>
<path d="M411.11 124.649C411.11 124.649 401.993 126.969 400.672 126.969C399.351 126.969 380.795 212.779 382.618 221.392C384.442 230.005 388.415 236.964 388.415 236.964C388.415 236.964 433.142 245.412 449.378 235.48C449.378 235.48 447.389 192.575 447.389 177.666C447.389 162.758 459.316 134.596 455.341 128.962C451.365 123.328 435.792 120.184 435.792 120.184L411.11 124.649Z" fill="#1D4ED8"/>
<path d="M429.497 112.059C428.668 112.059 411.771 111.23 405.312 115.876C398.853 120.522 400.259 124.57 402.827 127.14C405.394 129.71 422.419 131.058 422.419 131.058C422.419 131.058 413.429 123.344 415.235 121.536C417.042 119.727 434.226 118.686 435.307 121.536C435.602 122.312 425.019 131.061 425.019 131.061C425.019 131.061 439.593 130 444.052 126.977C449.061 123.584 448.849 118.645 443.908 114.89C441.312 112.899 429.497 112.059 429.497 112.059Z" fill="#0A72F8"/>
<path d="M425.018 131.046C425.018 131.046 446.449 120.043 436.646 116.022C426.843 112.002 409 118.842 410.762 123.217C412.524 127.591 422.424 131.046 422.424 131.046C422.424 131.046 415.13 123.531 416.939 121.716C418.748 119.901 434.231 118.666 435.312 121.504C435.601 122.305 425.018 131.046 425.018 131.046Z" fill="#2769BC"/>
<path d="M415.383 114.634C415.383 114.634 415.479 121.988 415.006 123.943C414.607 125.595 419.883 131.275 423.867 131.275C427.851 131.275 435.606 121.521 435.606 121.521C433.015 114.479 431.744 106.43 430.992 97.9844L415.383 114.634Z" fill="#FF5016"/>
<g style="mix-blend-mode:multiply" opacity="0.68">
<path d="M432.136 107.548C427.437 113.623 420.58 118.884 415.312 120.561C415.419 117.824 415.378 114.635 415.378 114.635L425.196 104.168L431.328 101.441C431.555 103.509 431.82 105.547 432.136 107.548Z" fill="#FF4900"/>
</g>
<path d="M404.459 83.4374C404.459 83.4374 400.948 90.0892 401.616 100.749C402.284 111.408 407.129 116.915 413.592 117.131C420.055 117.347 431.546 109.12 436.109 100.562C440.672 92.004 439.714 82.1143 433.46 76.1092C427.207 70.1041 410.127 68.0473 404.459 83.4374Z" fill="#FF7446"/>
<g style="mix-blend-mode:multiply" opacity="0.68">
<path d="M430.559 90.4239C430.559 90.4239 412.796 86.094 405.499 81.041C405.105 81.8194 404.757 82.6202 404.456 83.4392C404.456 83.4392 401.933 88.2208 401.57 96.1724C402.784 96.403 404.009 96.563 405.241 96.6517C419.853 97.7246 430.559 90.4239 430.559 90.4239Z" fill="#FF4900"/>
</g>
<path d="M431.651 68.5594C431.651 68.5594 422.448 64.9949 416.025 66.5132C409.602 68.0314 404.276 72.4271 403.133 78.8901L406.456 83.29L423.866 89.6959L430.684 90.086L438.953 93.4787C438.953 93.4787 443.245 86.4092 442.106 80.8706C440.968 75.3321 437.713 70.7922 431.651 68.5594Z" fill="#FEC100"/>
<path d="M442.117 80.886C441.876 79.6949 441.521 78.5297 441.057 77.4063C440.117 78.8058 438.177 80.6103 434.204 82.4466C427.842 85.3855 411.515 79.5522 403.788 76.4648C403.498 77.2523 403.278 78.0641 403.133 78.8906L406.456 83.2926L423.864 89.6964L430.681 90.0865L438.951 93.4792C438.951 93.4792 443.254 86.4245 442.117 80.886Z" fill="#FA8E00"/>
<path d="M419.219 63.9805C419.219 63.9805 428.862 68.0623 430.625 75.9482C432.387 83.8341 430.711 92.2204 430.711 92.2204L435.137 93.1449C435.137 93.1449 439.115 72.1908 429.94 65.9864L419.219 63.9805Z" fill="#001E6E"/>
<path d="M422.612 379.406C422.612 379.406 422.998 381.706 423.962 385.629C424.531 388.097 424.531 390.663 423.962 393.131C423.962 393.131 383.854 392.62 382.313 391.255C380.771 389.889 381.889 385.33 382.313 384.946C382.737 384.562 387.904 383.498 390.604 382.048C393.303 380.597 402.559 375.05 405.549 375.474C408.538 375.898 409.789 378.203 415.479 378.799C421.168 379.395 421.265 378.212 422.612 379.406Z" fill="#001E6E"/>
<path d="M382.323 391.256C383.864 392.621 423.972 393.132 423.972 393.132C424.376 391.387 424.497 389.589 424.333 387.806C403.224 390.416 382.323 384.947 382.323 384.947C381.88 385.331 380.771 389.892 382.323 391.256Z" fill="#C5F6FC"/>
<path d="M424.323 387.806C409.904 389.795 394.125 388.23 382.312 384.947C403.884 389.544 421.589 388.054 420.368 388.102L424.323 387.806Z" fill="#93B8BD"/>
<path d="M439.662 379.085C439.662 379.085 439.143 381.36 437.949 385.217C437.236 387.648 437.085 390.209 437.508 392.706C437.508 392.706 477.584 394.555 479.198 393.283C480.811 392.011 479.978 387.395 479.569 386.985C479.16 386.576 474.07 385.211 471.46 383.605C468.85 382 459.938 375.923 456.929 376.184C453.92 376.445 452.533 378.658 446.821 378.919C441.108 379.18 441.081 377.971 439.662 379.085Z" fill="#001E6E"/>
<path d="M479.201 393.284C477.581 394.556 437.511 392.707 437.511 392.707C437.211 390.942 437.195 389.14 437.465 387.37C458.385 391.219 479.572 386.986 479.572 386.986C479.982 387.406 480.821 392.014 479.201 393.284Z" fill="#C5F6FC"/>
<path d="M437.453 387.37C451.741 390.203 467.574 389.58 479.561 386.986C457.756 390.307 440.167 387.777 441.393 387.9L437.453 387.37Z" fill="#93B8BD"/>
<path d="M426.753 163.962C426.668 163.963 426.584 163.944 426.507 163.908C426.43 163.871 426.363 163.817 426.31 163.75C426.166 163.568 422.805 159.227 422.805 155.222C422.805 151.089 428.352 149.497 428.352 146.384C428.352 141.346 421.63 141.011 427.677 129.66C427.748 129.528 427.868 129.429 428.012 129.386C428.155 129.342 428.31 129.357 428.442 129.428C428.574 129.499 428.673 129.619 428.716 129.762C428.76 129.905 428.745 130.06 428.674 130.192C428.649 130.237 426.284 134.715 426.284 137.826C426.284 140.884 429.482 142.703 429.482 146.384C429.482 150.188 423.933 151.685 423.933 155.222C423.933 158.827 427.164 163.015 427.198 163.055C427.263 163.138 427.304 163.238 427.315 163.343C427.326 163.449 427.307 163.555 427.261 163.65C427.215 163.745 427.142 163.825 427.052 163.881C426.963 163.937 426.859 163.967 426.753 163.967V163.962Z" fill="white"/>
<path d="M414.728 155.455C410.593 146.487 419.529 147.821 415.788 136.303C414.4 132.043 416.34 129.157 416.425 129.036C416.513 128.924 416.641 128.849 416.783 128.827C416.924 128.805 417.069 128.838 417.187 128.919C417.305 129 417.388 129.123 417.419 129.263C417.45 129.403 417.426 129.549 417.353 129.672C414.075 134.492 420.685 139.789 416.338 146.95C414.484 150.005 414.162 151.511 415.761 154.978C416.066 155.658 415.042 156.131 414.728 155.455Z" fill="white"/>
<path d="M451.956 203.42C451.956 203.42 447.291 210.888 439.683 210.888C432.075 210.888 433.224 220.604 436.759 224.139C440.294 227.673 442.819 228.151 444.759 226.967C449.849 223.863 459.997 208.774 459.997 208.774L451.956 203.42Z" fill="#FF7446"/>
<path d="M479.691 174.514C477.704 157.619 455.34 128.959 455.34 128.959L448.555 160.766C448.555 160.766 459.986 174.184 460.641 180.248C461.296 186.312 451.199 200.193 450.204 202.676C449.21 205.159 456.5 212.617 457.66 212.617C465.204 212.614 481.68 191.41 479.691 174.514Z" fill="#1D4ED8"/>
<path d="M338.248 130.387C338.248 130.387 347.746 127.221 349.936 129.414C352.127 131.607 368.225 148.258 367.792 149.866C367.659 150.364 360.555 153.61 356.658 152.961C352.761 152.313 333.995 132.132 338.248 130.387Z" fill="#001E6E"/>
<path d="M342.763 130.388C344.79 129.732 346.863 129.225 348.965 128.871C345.761 127.883 338.248 130.388 338.248 130.388C333.995 132.133 352.763 152.313 356.658 152.962C357.758 153.144 359.113 153.017 360.496 152.728C355.492 150.377 338.719 132.046 342.763 130.388Z" fill="#1F3C8B"/>
<path d="M345 142.777C345 142.777 342.455 146.733 353.123 151.282C354.915 152.045 357.481 141.104 356.384 140.012C355.288 138.92 351.931 147.666 351.507 147.458C350.023 146.733 356.83 138.281 354.853 137.588C353.034 136.952 348.986 144.674 348.541 144.229C347.833 143.521 354.54 136.649 351.739 136.057C350.725 135.841 346.541 139.149 345 142.777Z" fill="#FF7446"/>
<path d="M403.134 78.8809L386.711 82.7337C386.711 82.7337 392.436 90.6556 406.688 92.7231C420.939 94.7905 430.685 90.0831 430.685 90.0831C430.685 90.0831 407.856 83.8045 403.134 78.8809Z" fill="#FEC100"/>
<path d="M440.178 97.7019C440.082 99.1321 439.602 100.51 438.789 101.691C437.976 102.872 436.861 103.812 435.559 104.413C434.258 105.013 432.819 105.253 431.393 105.105C429.967 104.958 428.607 104.43 427.456 103.575C426.378 102.797 425.519 101.754 424.962 100.547C424.405 99.3396 424.168 98.0093 424.275 96.6841C424.371 95.2535 424.85 93.8752 425.663 92.694C426.476 91.5128 427.591 90.5723 428.893 89.9713C430.195 89.3703 431.634 89.1311 433.06 89.2788C434.487 89.4264 435.847 89.9555 436.998 90.8105C438.075 91.5893 438.934 92.6325 439.491 93.8395C440.048 95.0466 440.285 96.3767 440.178 97.7019Z" fill="#001E6E"/>
<path d="M438.953 98.8114C440.278 95.2133 438.838 91.3713 435.738 90.2301C432.638 89.0888 429.051 91.0804 427.726 94.6785C426.402 98.2765 427.841 102.119 430.942 103.26C434.042 104.401 437.629 102.409 438.953 98.8114Z" fill="#1D4ED8"/>
<path d="M444.046 227.296C432.4 223.352 430.197 211.526 433.231 199.972L397.326 197.069C397.101 197.051 396.878 197.123 396.706 197.269C396.534 197.415 396.427 197.624 396.409 197.848C396.391 198.073 396.463 198.296 396.609 198.468C396.755 198.64 396.963 198.747 397.188 198.766L431.105 201.509C430.206 205.89 427.661 223.547 443.496 228.91C443.584 228.94 443.676 228.955 443.768 228.954C443.967 228.952 444.159 228.88 444.31 228.75C444.461 228.62 444.562 228.441 444.595 228.245C444.627 228.048 444.59 227.847 444.489 227.675C444.388 227.504 444.229 227.373 444.041 227.307L444.046 227.296Z" fill="#0A72F8"/>
</svg>
