<svg width="57" height="56" viewBox="0 0 57 56" fill="none" xmlns="http://www.w3.org/2000/svg">
<g clipPath="url(#clip0_12966_249624)">
<path d="M28.5 -0.000488281C13.0244 -0.000488281 0.5 12.5225 0.5 27.9995C0.5 43.4749 13.023 55.9995 28.5 55.9995C43.9756 55.9995 56.5 43.4765 56.5 27.9995C56.5 12.5239 43.977 -0.000488281 28.5 -0.000488281ZM27.6715 41.1047C26.0866 41.1047 24.8704 39.7779 24.8704 38.2667C24.8704 36.7187 26.1235 35.4288 27.6715 35.4288C29.2196 35.4288 30.5093 36.7188 30.5093 38.2668C30.5093 39.7778 29.2562 41.1047 27.6715 41.1047ZM31.873 26.7675C29.846 28.3524 29.809 29.458 29.809 31.3745C29.809 32.0749 29.4404 32.8857 27.6345 32.8857C26.1233 32.8857 25.6075 32.3328 25.6075 30.4164C25.6075 27.2467 27.008 25.7356 28.0768 24.8142C29.2931 23.7821 31.3571 22.6397 31.3571 20.6495C31.3571 18.954 29.8828 18.1432 28.04 18.1432C24.2806 18.1432 25.0915 20.9812 23.1011 20.9812C22.106 20.9812 20.8898 20.3177 20.8898 18.8804C20.8898 16.8902 23.1749 13.9415 28.1505 13.9415C32.8681 13.9415 36.0009 16.5584 36.0009 20.0229C36.0009 23.4874 32.8681 25.9936 31.873 26.7675Z" fill="#FF4A4A"/>
</g>
<defs>
<clipPath id="clip0_12966_249624">
<rect width="56" height="56" fill="white" transform="translate(0.5 -0.000488281)"/>
</clipPath>
</defs>
</svg>
