<svg width="309" height="81" viewBox="0 0 309 81" fill="none" xmlns="http://www.w3.org/2000/svg">
<g filter="url(#filter0_d_11084_227741)">
<path d="M15 23C15 18.5817 18.5817 15 23 15H286C290.418 15 294 18.5817 294 23V57C294 61.4183 290.418 65 286 65H23C18.5817 65 15 61.4183 15 57V23Z" fill="#F8FAFC" shape-rendering="crispEdges"/>
<path fill-rule="evenodd" clip-rule="evenodd" d="M48 41C48 44.866 44.866 48 41 48C37.134 48 34 44.866 34 41C34 37.134 37.134 34 41 34C44.866 34 48 37.134 48 41ZM41.875 37.5C41.875 37.9832 41.4832 38.375 41 38.375C40.5168 38.375 40.125 37.9832 40.125 37.5C40.125 37.0167 40.5168 36.625 41 36.625C41.4832 36.625 41.875 37.0167 41.875 37.5ZM40.125 40.125C39.6418 40.125 39.25 40.5167 39.25 41C39.25 41.4832 39.6418 41.875 40.125 41.875V44.5C40.125 44.9832 40.5168 45.375 41 45.375H41.875C42.3582 45.375 42.75 44.9832 42.75 44.5C42.75 44.0167 42.3582 43.625 41.875 43.625V41C41.875 40.5167 41.4832 40.125 41 40.125H40.125Z" fill="#7E7D7D"/>
<path d="M65.704 44.144C64.88 44.144 64.156 43.964 63.532 43.604C62.916 43.236 62.432 42.724 62.08 42.068C61.736 41.412 61.564 40.656 61.564 39.8C61.564 38.944 61.736 38.192 62.08 37.544C62.432 36.888 62.916 36.376 63.532 36.008C64.156 35.64 64.88 35.456 65.704 35.456C66.536 35.456 67.26 35.64 67.876 36.008C68.5 36.376 68.984 36.888 69.328 37.544C69.672 38.192 69.844 38.944 69.844 39.8C69.844 40.656 69.672 41.412 69.328 42.068C68.984 42.724 68.5 43.236 67.876 43.604C67.26 43.964 66.536 44.144 65.704 44.144ZM65.704 43.256C66.32 43.256 66.86 43.12 67.324 42.848C67.796 42.568 68.16 42.172 68.416 41.66C68.68 41.14 68.812 40.52 68.812 39.8C68.812 39.08 68.68 38.464 68.416 37.952C68.16 37.44 67.796 37.048 67.324 36.776C66.86 36.496 66.32 36.356 65.704 36.356C65.088 36.356 64.544 36.496 64.072 36.776C63.608 37.048 63.244 37.44 62.98 37.952C62.724 38.464 62.596 39.08 62.596 39.8C62.596 40.52 62.724 41.14 62.98 41.66C63.244 42.172 63.608 42.568 64.072 42.848C64.544 43.12 65.088 43.256 65.704 43.256ZM71.2382 44V38.048H72.1502L72.2102 39.116C72.4022 38.74 72.6782 38.444 73.0382 38.228C73.3982 38.012 73.8062 37.904 74.2622 37.904C74.9662 37.904 75.5262 38.12 75.9422 38.552C76.3662 38.976 76.5782 39.632 76.5782 40.52V44H75.5702V40.628C75.5702 39.388 75.0582 38.768 74.0342 38.768C73.5222 38.768 73.0942 38.956 72.7502 39.332C72.4142 39.7 72.2462 40.228 72.2462 40.916V44H71.2382ZM82.4811 44L80.7411 38.048H81.7491L83.0091 42.716L84.4011 38.048H85.5411L86.9451 42.716L88.1931 38.048H89.2131L87.4731 44H86.4411L84.9771 39.092L83.5131 44H82.4811ZM90.328 44V35.36H91.336V39.068C91.536 38.7 91.82 38.416 92.188 38.216C92.556 38.008 92.956 37.904 93.388 37.904C94.076 37.904 94.628 38.12 95.044 38.552C95.46 38.976 95.668 39.632 95.668 40.52V44H94.672V40.628C94.672 39.388 94.172 38.768 93.172 38.768C92.652 38.768 92.216 38.956 91.864 39.332C91.512 39.7 91.336 40.228 91.336 40.916V44H90.328ZM97.8072 36.728C97.6072 36.728 97.4392 36.664 97.3032 36.536C97.1752 36.4 97.1112 36.232 97.1112 36.032C97.1112 35.84 97.1752 35.68 97.3032 35.552C97.4392 35.424 97.6072 35.36 97.8072 35.36C97.9992 35.36 98.1632 35.424 98.2992 35.552C98.4352 35.68 98.5032 35.84 98.5032 36.032C98.5032 36.232 98.4352 36.4 98.2992 36.536C98.1632 36.664 97.9992 36.728 97.8072 36.728ZM97.3032 44V38.048H98.3112V44H97.3032ZM102.802 44.144C102.234 44.144 101.722 44.016 101.266 43.76C100.818 43.496 100.462 43.132 100.198 42.668C99.9423 42.196 99.8143 41.648 99.8143 41.024C99.8143 40.4 99.9423 39.856 100.198 39.392C100.462 38.92 100.818 38.556 101.266 38.3C101.722 38.036 102.234 37.904 102.802 37.904C103.506 37.904 104.098 38.088 104.578 38.456C105.066 38.824 105.374 39.316 105.502 39.932H104.47C104.39 39.564 104.194 39.28 103.882 39.08C103.57 38.872 103.206 38.768 102.79 38.768C102.454 38.768 102.138 38.852 101.842 39.02C101.546 39.188 101.306 39.44 101.122 39.776C100.938 40.112 100.846 40.528 100.846 41.024C100.846 41.52 100.938 41.936 101.122 42.272C101.306 42.608 101.546 42.864 101.842 43.04C102.138 43.208 102.454 43.292 102.79 43.292C103.206 43.292 103.57 43.192 103.882 42.992C104.194 42.784 104.39 42.492 104.47 42.116H105.502C105.382 42.716 105.078 43.204 104.59 43.58C104.102 43.956 103.506 44.144 102.802 44.144ZM106.91 44V35.36H107.918V39.068C108.118 38.7 108.402 38.416 108.77 38.216C109.138 38.008 109.538 37.904 109.97 37.904C110.658 37.904 111.21 38.12 111.626 38.552C112.042 38.976 112.25 39.632 112.25 40.52V44H111.254V40.628C111.254 39.388 110.754 38.768 109.754 38.768C109.234 38.768 108.798 38.956 108.446 39.332C108.094 39.7 107.918 40.228 107.918 40.916V44H106.91ZM119.653 44.144C119.061 44.144 118.541 44.008 118.093 43.736C117.653 43.464 117.309 43.092 117.061 42.62C116.821 42.148 116.701 41.612 116.701 41.012C116.701 40.412 116.825 39.88 117.073 39.416C117.321 38.944 117.665 38.576 118.105 38.312C118.545 38.04 119.065 37.904 119.665 37.904C120.153 37.904 120.585 38.004 120.961 38.204C121.337 38.404 121.629 38.684 121.837 39.044V35.36H122.845V44H121.933L121.837 43.016C121.645 43.304 121.369 43.564 121.009 43.796C120.649 44.028 120.197 44.144 119.653 44.144ZM119.761 43.268C120.161 43.268 120.513 43.176 120.817 42.992C121.129 42.8 121.369 42.536 121.537 42.2C121.713 41.864 121.801 41.472 121.801 41.024C121.801 40.576 121.713 40.184 121.537 39.848C121.369 39.512 121.129 39.252 120.817 39.068C120.513 38.876 120.161 38.78 119.761 38.78C119.369 38.78 119.017 38.876 118.705 39.068C118.401 39.252 118.161 39.512 117.985 39.848C117.817 40.184 117.733 40.576 117.733 41.024C117.733 41.472 117.817 41.864 117.985 42.2C118.161 42.536 118.401 42.8 118.705 42.992C119.017 43.176 119.369 43.268 119.761 43.268ZM126.468 44.144C125.972 44.144 125.56 44.06 125.232 43.892C124.904 43.724 124.66 43.5 124.5 43.22C124.34 42.94 124.26 42.636 124.26 42.308C124.26 41.7 124.492 41.232 124.956 40.904C125.42 40.576 126.052 40.412 126.852 40.412H128.46V40.34C128.46 39.82 128.324 39.428 128.052 39.164C127.78 38.892 127.416 38.756 126.96 38.756C126.568 38.756 126.228 38.856 125.94 39.056C125.66 39.248 125.484 39.532 125.412 39.908H124.38C124.42 39.476 124.564 39.112 124.812 38.816C125.068 38.52 125.384 38.296 125.76 38.144C126.136 37.984 126.536 37.904 126.96 37.904C127.792 37.904 128.416 38.128 128.832 38.576C129.256 39.016 129.468 39.604 129.468 40.34V44H128.568L128.508 42.932C128.34 43.268 128.092 43.556 127.764 43.796C127.444 44.028 127.012 44.144 126.468 44.144ZM126.624 43.292C127.008 43.292 127.336 43.192 127.608 42.992C127.888 42.792 128.1 42.532 128.244 42.212C128.388 41.892 128.46 41.556 128.46 41.204V41.192H126.936C126.344 41.192 125.924 41.296 125.676 41.504C125.436 41.704 125.316 41.956 125.316 42.26C125.316 42.572 125.428 42.824 125.652 43.016C125.884 43.2 126.208 43.292 126.624 43.292ZM133.168 44C132.624 44 132.196 43.868 131.884 43.604C131.572 43.34 131.416 42.864 131.416 42.176V38.9H130.384V38.048H131.416L131.548 36.62H132.424V38.048H134.176V38.9H132.424V42.176C132.424 42.552 132.5 42.808 132.652 42.944C132.804 43.072 133.072 43.136 133.456 43.136H134.08V44H133.168ZM137.969 44.144C137.401 44.144 136.897 44.016 136.457 43.76C136.017 43.496 135.669 43.132 135.413 42.668C135.165 42.204 135.041 41.656 135.041 41.024C135.041 40.4 135.165 39.856 135.413 39.392C135.661 38.92 136.005 38.556 136.445 38.3C136.893 38.036 137.409 37.904 137.993 37.904C138.569 37.904 139.065 38.036 139.481 38.3C139.905 38.556 140.229 38.896 140.453 39.32C140.677 39.744 140.789 40.2 140.789 40.688C140.789 40.776 140.785 40.864 140.777 40.952C140.777 41.04 140.777 41.14 140.777 41.252H136.037C136.061 41.708 136.165 42.088 136.349 42.392C136.541 42.688 136.777 42.912 137.057 43.064C137.345 43.216 137.649 43.292 137.969 43.292C138.385 43.292 138.733 43.196 139.013 43.004C139.293 42.812 139.497 42.552 139.625 42.224H140.621C140.461 42.776 140.153 43.236 139.697 43.604C139.249 43.964 138.673 44.144 137.969 44.144ZM137.969 38.756C137.489 38.756 137.061 38.904 136.685 39.2C136.317 39.488 136.105 39.912 136.049 40.472H139.793C139.769 39.936 139.585 39.516 139.241 39.212C138.897 38.908 138.473 38.756 137.969 38.756ZM145.301 44V38.048H146.213L146.297 39.188C146.481 38.796 146.761 38.484 147.137 38.252C147.513 38.02 147.977 37.904 148.529 37.904V38.96H148.253C147.901 38.96 147.577 39.024 147.281 39.152C146.985 39.272 146.749 39.48 146.573 39.776C146.397 40.072 146.309 40.48 146.309 41V44H145.301ZM152.113 44.144C151.545 44.144 151.041 44.016 150.601 43.76C150.161 43.496 149.813 43.132 149.557 42.668C149.309 42.204 149.185 41.656 149.185 41.024C149.185 40.4 149.309 39.856 149.557 39.392C149.805 38.92 150.149 38.556 150.589 38.3C151.037 38.036 151.553 37.904 152.137 37.904C152.713 37.904 153.209 38.036 153.625 38.3C154.049 38.556 154.373 38.896 154.597 39.32C154.821 39.744 154.933 40.2 154.933 40.688C154.933 40.776 154.929 40.864 154.921 40.952C154.921 41.04 154.921 41.14 154.921 41.252H150.181C150.205 41.708 150.309 42.088 150.493 42.392C150.685 42.688 150.921 42.912 151.201 43.064C151.489 43.216 151.793 43.292 152.113 43.292C152.529 43.292 152.877 43.196 153.157 43.004C153.437 42.812 153.641 42.552 153.769 42.224H154.765C154.605 42.776 154.297 43.236 153.841 43.604C153.393 43.964 152.817 44.144 152.113 44.144ZM152.113 38.756C151.633 38.756 151.205 38.904 150.829 39.2C150.461 39.488 150.249 39.912 150.193 40.472H153.937C153.913 39.936 153.729 39.516 153.385 39.212C153.041 38.908 152.617 38.756 152.113 38.756ZM156.269 44V38.048H157.181L157.253 38.912C157.445 38.592 157.701 38.344 158.021 38.168C158.341 37.992 158.701 37.904 159.101 37.904C159.573 37.904 159.977 38 160.313 38.192C160.657 38.384 160.921 38.676 161.105 39.068C161.313 38.708 161.597 38.424 161.957 38.216C162.325 38.008 162.721 37.904 163.145 37.904C163.857 37.904 164.425 38.12 164.849 38.552C165.273 38.976 165.485 39.632 165.485 40.52V44H164.489V40.628C164.489 40.012 164.365 39.548 164.117 39.236C163.869 38.924 163.513 38.768 163.049 38.768C162.569 38.768 162.169 38.956 161.849 39.332C161.537 39.7 161.381 40.228 161.381 40.916V44H160.373V40.628C160.373 40.012 160.249 39.548 160.001 39.236C159.753 38.924 159.397 38.768 158.933 38.768C158.461 38.768 158.065 38.956 157.745 39.332C157.433 39.7 157.277 40.228 157.277 40.916V44H156.269ZM167.616 36.728C167.416 36.728 167.248 36.664 167.112 36.536C166.984 36.4 166.92 36.232 166.92 36.032C166.92 35.84 166.984 35.68 167.112 35.552C167.248 35.424 167.416 35.36 167.616 35.36C167.808 35.36 167.972 35.424 168.108 35.552C168.244 35.68 168.312 35.84 168.312 36.032C168.312 36.232 168.244 36.4 168.108 36.536C167.972 36.664 167.808 36.728 167.616 36.728ZM167.112 44V38.048H168.12V44H167.112ZM169.875 44V38.048H170.787L170.847 39.116C171.039 38.74 171.315 38.444 171.675 38.228C172.035 38.012 172.443 37.904 172.899 37.904C173.603 37.904 174.163 38.12 174.579 38.552C175.003 38.976 175.215 39.632 175.215 40.52V44H174.207V40.628C174.207 39.388 173.695 38.768 172.671 38.768C172.159 38.768 171.731 38.956 171.387 39.332C171.051 39.7 170.883 40.228 170.883 40.916V44H169.875ZM179.442 44.144C178.85 44.144 178.33 44.008 177.882 43.736C177.442 43.464 177.098 43.092 176.85 42.62C176.61 42.148 176.49 41.612 176.49 41.012C176.49 40.412 176.614 39.88 176.862 39.416C177.11 38.944 177.454 38.576 177.894 38.312C178.334 38.04 178.854 37.904 179.454 37.904C179.942 37.904 180.374 38.004 180.75 38.204C181.126 38.404 181.418 38.684 181.626 39.044V35.36H182.634V44H181.722L181.626 43.016C181.434 43.304 181.158 43.564 180.798 43.796C180.438 44.028 179.986 44.144 179.442 44.144ZM179.55 43.268C179.95 43.268 180.302 43.176 180.606 42.992C180.918 42.8 181.158 42.536 181.326 42.2C181.502 41.864 181.59 41.472 181.59 41.024C181.59 40.576 181.502 40.184 181.326 39.848C181.158 39.512 180.918 39.252 180.606 39.068C180.302 38.876 179.95 38.78 179.55 38.78C179.158 38.78 178.806 38.876 178.494 39.068C178.19 39.252 177.95 39.512 177.774 39.848C177.606 40.184 177.522 40.576 177.522 41.024C177.522 41.472 177.606 41.864 177.774 42.2C177.95 42.536 178.19 42.8 178.494 42.992C178.806 43.176 179.158 43.268 179.55 43.268ZM186.953 44.144C186.385 44.144 185.881 44.016 185.441 43.76C185.001 43.496 184.653 43.132 184.397 42.668C184.149 42.204 184.025 41.656 184.025 41.024C184.025 40.4 184.149 39.856 184.397 39.392C184.645 38.92 184.989 38.556 185.429 38.3C185.877 38.036 186.393 37.904 186.977 37.904C187.553 37.904 188.049 38.036 188.465 38.3C188.889 38.556 189.213 38.896 189.437 39.32C189.661 39.744 189.773 40.2 189.773 40.688C189.773 40.776 189.769 40.864 189.761 40.952C189.761 41.04 189.761 41.14 189.761 41.252H185.021C185.045 41.708 185.149 42.088 185.333 42.392C185.525 42.688 185.761 42.912 186.041 43.064C186.329 43.216 186.633 43.292 186.953 43.292C187.369 43.292 187.717 43.196 187.997 43.004C188.277 42.812 188.481 42.552 188.609 42.224H189.605C189.445 42.776 189.137 43.236 188.681 43.604C188.233 43.964 187.657 44.144 186.953 44.144ZM186.953 38.756C186.473 38.756 186.045 38.904 185.669 39.2C185.301 39.488 185.089 39.912 185.033 40.472H188.777C188.753 39.936 188.569 39.516 188.225 39.212C187.881 38.908 187.457 38.756 186.953 38.756ZM191.109 44V38.048H192.021L192.105 39.188C192.289 38.796 192.569 38.484 192.945 38.252C193.321 38.02 193.785 37.904 194.337 37.904V38.96H194.061C193.709 38.96 193.385 39.024 193.089 39.152C192.793 39.272 192.557 39.48 192.381 39.776C192.205 40.072 192.117 40.48 192.117 41V44H191.109ZM200.924 44.144C200.212 44.144 199.62 43.964 199.148 43.604C198.676 43.244 198.4 42.756 198.32 42.14H199.352C199.416 42.452 199.58 42.724 199.844 42.956C200.116 43.18 200.48 43.292 200.936 43.292C201.36 43.292 201.672 43.204 201.872 43.028C202.072 42.844 202.172 42.628 202.172 42.38C202.172 42.02 202.04 41.78 201.776 41.66C201.52 41.54 201.156 41.432 200.684 41.336C200.364 41.272 200.044 41.18 199.724 41.06C199.404 40.94 199.136 40.772 198.92 40.556C198.704 40.332 198.596 40.04 198.596 39.68C198.596 39.16 198.788 38.736 199.172 38.408C199.564 38.072 200.092 37.904 200.756 37.904C201.388 37.904 201.904 38.064 202.304 38.384C202.712 38.696 202.948 39.144 203.012 39.728H202.016C201.976 39.424 201.844 39.188 201.62 39.02C201.404 38.844 201.112 38.756 200.744 38.756C200.384 38.756 200.104 38.832 199.904 38.984C199.712 39.136 199.616 39.336 199.616 39.584C199.616 39.824 199.74 40.012 199.988 40.148C200.244 40.284 200.588 40.4 201.02 40.496C201.388 40.576 201.736 40.676 202.064 40.796C202.4 40.908 202.672 41.08 202.88 41.312C203.096 41.536 203.204 41.864 203.204 42.296C203.212 42.832 203.008 43.276 202.592 43.628C202.184 43.972 201.628 44.144 200.924 44.144ZM207.32 44.144C206.752 44.144 206.248 44.016 205.808 43.76C205.368 43.496 205.02 43.132 204.764 42.668C204.516 42.204 204.392 41.656 204.392 41.024C204.392 40.4 204.516 39.856 204.764 39.392C205.012 38.92 205.356 38.556 205.796 38.3C206.244 38.036 206.76 37.904 207.344 37.904C207.92 37.904 208.416 38.036 208.832 38.3C209.256 38.556 209.58 38.896 209.804 39.32C210.028 39.744 210.14 40.2 210.14 40.688C210.14 40.776 210.136 40.864 210.128 40.952C210.128 41.04 210.128 41.14 210.128 41.252H205.388C205.412 41.708 205.516 42.088 205.7 42.392C205.892 42.688 206.128 42.912 206.408 43.064C206.696 43.216 207 43.292 207.32 43.292C207.736 43.292 208.084 43.196 208.364 43.004C208.644 42.812 208.848 42.552 208.976 42.224H209.972C209.812 42.776 209.504 43.236 209.048 43.604C208.6 43.964 208.024 44.144 207.32 44.144ZM207.32 38.756C206.84 38.756 206.412 38.904 206.036 39.2C205.668 39.488 205.456 39.912 205.4 40.472H209.144C209.12 39.936 208.936 39.516 208.592 39.212C208.248 38.908 207.824 38.756 207.32 38.756ZM211.476 44V38.048H212.388L212.448 39.116C212.64 38.74 212.916 38.444 213.276 38.228C213.636 38.012 214.044 37.904 214.5 37.904C215.204 37.904 215.764 38.12 216.18 38.552C216.604 38.976 216.816 39.632 216.816 40.52V44H215.808V40.628C215.808 39.388 215.296 38.768 214.272 38.768C213.76 38.768 213.332 38.956 212.988 39.332C212.652 39.7 212.484 40.228 212.484 40.916V44H211.476ZM221.044 44.144C220.452 44.144 219.932 44.008 219.484 43.736C219.044 43.464 218.7 43.092 218.452 42.62C218.212 42.148 218.092 41.612 218.092 41.012C218.092 40.412 218.216 39.88 218.464 39.416C218.712 38.944 219.056 38.576 219.496 38.312C219.936 38.04 220.456 37.904 221.056 37.904C221.544 37.904 221.976 38.004 222.352 38.204C222.728 38.404 223.02 38.684 223.228 39.044V35.36H224.236V44H223.324L223.228 43.016C223.036 43.304 222.76 43.564 222.4 43.796C222.04 44.028 221.588 44.144 221.044 44.144ZM221.152 43.268C221.552 43.268 221.904 43.176 222.208 42.992C222.52 42.8 222.76 42.536 222.928 42.2C223.104 41.864 223.192 41.472 223.192 41.024C223.192 40.576 223.104 40.184 222.928 39.848C222.76 39.512 222.52 39.252 222.208 39.068C221.904 38.876 221.552 38.78 221.152 38.78C220.76 38.78 220.408 38.876 220.096 39.068C219.792 39.252 219.552 39.512 219.376 39.848C219.208 40.184 219.124 40.576 219.124 41.024C219.124 41.472 219.208 41.864 219.376 42.2C219.552 42.536 219.792 42.8 220.096 42.992C220.408 43.176 220.76 43.268 221.152 43.268Z" fill="#334155"/>
<path d="M266 43L274 35M266 35L274 43" stroke="#7E7D7D" stroke-width="2" stroke-linecap="round" stroke-linejoin="round"/>
</g>
<path d="M31 65C31 65 61.2522 65.0001 58.8659 65C56.4796 64.9999 54.0933 64.9999 50.5138 67.9999C48.1392 69.9901 42.0888 75.061 38.2847 78.2493C36.9831 79.3402 35.0028 78.4125 35.0028 76.7142V73C35.0028 73 35.0028 69.5 35.0028 67C35.0028 64.9999 31 65 31 65Z" fill="#F8FAFC"/>
<defs>
<filter id="filter0_d_11084_227741" x="0" y="0" width="309" height="80" filterUnits="userSpaceOnUse" color-interpolation-filters="sRGB">
<feFlood flood-opacity="0" result="BackgroundImageFix"/>
<feColorMatrix in="SourceAlpha" type="matrix" values="0 0 0 0 0 0 0 0 0 0 0 0 0 0 0 0 0 0 127 0" result="hardAlpha"/>
<feOffset/>
<feGaussianBlur stdDeviation="7.5"/>
<feComposite in2="hardAlpha" operator="out"/>
<feColorMatrix type="matrix" values="0 0 0 0 0.113725 0 0 0 0 0.305882 0 0 0 0 0.847059 0 0 0 0.1 0"/>
<feBlend mode="normal" in2="BackgroundImageFix" result="effect1_dropShadow_11084_227741"/>
<feBlend mode="normal" in="SourceGraphic" in2="effect1_dropShadow_11084_227741" result="shape"/>
</filter>
</defs>
</svg>
