<svg width="24" height="27" viewBox="0 0 24 27" fill="none" xmlns="http://www.w3.org/2000/svg">
<path d="M21.1364 12.8981C20.6596 12.8981 20.2728 12.5113 20.2728 12.0345C20.2728 9.61197 19.3297 7.33545 17.6171 5.62188C17.2794 5.28425 17.2794 4.73854 17.6171 4.40075C17.9547 4.06312 18.5006 4.06312 18.8382 4.40075C20.8774 6.43976 22 9.15087 22 12.0345C22 12.5113 21.6132 12.8981 21.1364 12.8981ZM3.86358 12.8981C3.38698 12.8981 3 12.5113 3 12.0345C3 9.15087 4.12276 6.43976 6.16181 4.40075C6.49944 4.06312 7.04531 4.06312 7.38294 4.40075C7.72069 4.73854 7.72069 5.28425 7.38294 5.62188C5.67026 7.33456 4.72733 9.61201 4.72733 12.0345C4.72733 12.5113 4.34035 12.8981 3.86358 12.8981ZM20.6002 18.1068C19.2943 17.003 18.5455 15.3897 18.5455 13.6805V11.2727C18.5455 8.23369 16.2879 5.71786 13.3637 5.29644V4.36358C13.3637 3.88601 12.9767 3.5 12.5001 3.5C12.0233 3.5 11.6363 3.88601 11.6363 4.36358V5.29644C8.71127 5.71786 6.4545 8.23369 6.4545 11.2727V13.6806C6.4545 15.3897 5.70573 17.003 4.39225 18.1136C4.22638 18.2553 4.09321 18.4313 4.00194 18.6294C3.91067 18.8276 3.86346 19.0432 3.86358 19.2614C3.86358 20.0949 4.54151 20.7728 5.37506 20.7728H19.6251C20.4585 20.7728 21.1364 20.0949 21.1364 19.2614C21.1364 18.8192 20.9438 18.4013 20.6002 18.1068ZM12.5001 24.2273C14.0641 24.2273 15.3725 23.1123 15.6731 21.6364H9.32706C9.62752 23.1123 10.9359 24.2273 12.5001 24.2273Z" fill="#1D4ED8"/>
<circle cx="19" cy="5.33594" r="5" fill="#FF4A4A"/>
</svg>
