<svg width="19" height="21" viewBox="0 0 19 21" fill="none" xmlns="http://www.w3.org/2000/svg">
<path d="M18.1364 9.39806C17.6596 9.39806 17.2728 9.01129 17.2728 8.53448C17.2728 6.11197 16.3297 3.83545 14.6171 2.12188C14.2794 1.78425 14.2794 1.23854 14.6171 0.900748C14.9547 0.563119 15.5006 0.563119 15.8382 0.900748C17.8774 2.93976 19 5.65087 19 8.53448C19 9.01129 18.6132 9.39806 18.1364 9.39806ZM0.863585 9.39806C0.386978 9.39806 0 9.01129 0 8.53448C0 5.65087 1.12276 2.93976 3.16181 0.900748C3.49944 0.563119 4.04531 0.563119 4.38294 0.900748C4.72069 1.23854 4.72069 1.78425 4.38294 2.12188C2.67026 3.83456 1.72733 6.11201 1.72733 8.53448C1.72733 9.01129 1.34035 9.39806 0.863585 9.39806ZM17.6002 14.6068C16.2943 13.503 15.5455 11.8897 15.5455 10.1805V7.77275C15.5455 4.73369 13.2879 2.21786 10.3637 1.79644V0.863585C10.3637 0.386006 9.97669 0 9.50008 0C9.02331 0 8.63633 0.386006 8.63633 0.863585V1.79644C5.71127 2.21786 3.4545 4.73369 3.4545 7.77275V10.1806C3.4545 11.8897 2.70573 13.503 1.39225 14.6136C1.22638 14.7553 1.09321 14.9313 1.00194 15.1294C0.910668 15.3276 0.863465 15.5432 0.863585 15.7614C0.863585 16.5949 1.54151 17.2728 2.37506 17.2728H16.6251C17.4585 17.2728 18.1364 16.5949 18.1364 15.7614C18.1364 15.3192 17.9438 14.9013 17.6002 14.6068ZM9.50008 20.7273C11.0641 20.7273 12.3725 19.6123 12.6731 18.1364H6.32706C6.62752 19.6123 7.93594 20.7273 9.50008 20.7273Z" fill="#1D4ED8"/>
</svg>
