<svg width="21" height="21" viewBox="0 0 21 21" fill="none" xmlns="http://www.w3.org/2000/svg">
<path d="M8.21513 20.1211C8.89436 20.1207 9.56027 19.9325 10.1392 19.5774C10.7182 19.2222 11.1877 18.7138 11.4957 18.1084H4.93452C5.24259 18.7138 5.71206 19.2222 6.29102 19.5774C6.86998 19.9325 7.53589 20.1207 8.21513 20.1211ZM14.3 12.6676C13.0883 12.489 11.9485 11.9822 11.0044 11.2019C10.0602 10.4217 9.3477 9.39787 8.94403 8.24148C8.54036 7.08509 8.46098 5.84025 8.71447 4.64195C8.96797 3.44364 9.54468 2.3376 10.3821 1.44375C10.1732 0.943337 9.79764 0.530623 9.31905 0.27569C8.84047 0.0207571 8.28841 -0.0606795 7.7566 0.0452079C7.22479 0.151095 6.74602 0.43778 6.40159 0.856582C6.05715 1.27538 5.86828 1.80049 5.86705 2.34273C5.86847 2.60835 5.91615 2.8717 6.00793 3.12096C4.97302 3.55729 4.08958 4.28885 3.46796 5.22427C2.84633 6.1597 2.51406 7.25753 2.51264 8.38066V10.0579C2.50975 12.0896 1.85092 14.0661 0.634176 15.6933C0.559422 15.7929 0.5139 15.9115 0.502711 16.0355C0.491522 16.1596 0.515108 16.2844 0.570827 16.3958C0.626546 16.5073 0.712195 16.601 0.818178 16.6665C0.924161 16.732 1.04629 16.7667 1.17088 16.7667H15.2594C15.3833 16.7663 15.5046 16.7316 15.61 16.6665C15.7154 16.6014 15.8007 16.5083 15.8565 16.3977C15.913 16.2863 15.9373 16.1613 15.9266 16.0369C15.9159 15.9124 15.8707 15.7934 15.7961 15.6933C15.1174 14.7842 14.6104 13.7588 14.3 12.6676ZM7.30273 2.75868C7.24083 2.62876 7.20874 2.48665 7.20881 2.34273C7.20881 2.07584 7.31483 1.81988 7.50355 1.63116C7.69227 1.44244 7.94824 1.33641 8.21513 1.33641C8.48202 1.33641 8.73798 1.44244 8.9267 1.63116C9.11543 1.81988 9.22145 2.07584 9.22145 2.34273C9.22151 2.48665 9.18942 2.62876 9.12753 2.75868C8.82597 2.70799 8.5209 2.68107 8.21513 2.67817C7.90936 2.68107 7.60428 2.70799 7.30273 2.75868Z" fill="#BBBBBB" fill-opacity="0.733333"/>
<path d="M15.2616 0.671875C14.2001 0.671875 13.1624 0.986647 12.2798 1.57639C11.3972 2.16612 10.7093 3.00434 10.3031 3.98504C9.89686 4.96574 9.79057 6.04487 9.99766 7.08598C10.2047 8.12708 10.7159 9.0834 11.4665 9.83399C12.2171 10.5846 13.1734 11.0957 14.2145 11.3028C15.2556 11.5099 16.3348 11.4036 17.3155 10.9974C18.2962 10.5912 19.1344 9.9033 19.7241 9.02069C20.3139 8.13808 20.6286 7.10042 20.6286 6.03892C20.6286 4.61549 20.0632 3.25036 19.0567 2.24385C18.0501 1.23733 16.685 0.671875 15.2616 0.671875ZM17.6097 6.7098H15.9325V8.387H14.5907V6.7098H12.9135V5.36804H14.5907V3.69084H15.9325V5.36804H17.6097V6.7098Z" fill="#BBBBBB" fill-opacity="0.733333"/>
</svg>
