<svg width="11" height="8" viewBox="0 0 11 8" fill="none" xmlns="http://www.w3.org/2000/svg">
<mask id="path-1-inside-1_2921_79264" fill="white">
<path d="M2.93425 7.80813C2.80614 7.80813 2.67826 7.75988 2.5797 7.66363L0.15232 5.28796C-0.0475764 5.09198 -0.0512698 4.77114 0.144471 4.57101C0.340674 4.37111 0.661293 4.36742 0.86142 4.56316L2.94602 6.60298L10.0105 0.132899C10.2171 -0.0559177 10.5375 -0.0418373 10.7267 0.164291C10.9156 0.370881 10.9017 0.691731 10.6949 0.880547L3.27679 7.67494C3.17962 7.76381 3.05705 7.80813 2.93425 7.80813Z"/>
</mask>
<path d="M2.93425 7.80813C2.80614 7.80813 2.67826 7.75988 2.5797 7.66363L0.15232 5.28796C-0.0475764 5.09198 -0.0512698 4.77114 0.144471 4.57101C0.340674 4.37111 0.661293 4.36742 0.86142 4.56316L2.94602 6.60298L10.0105 0.132899C10.2171 -0.0559177 10.5375 -0.0418373 10.7267 0.164291C10.9156 0.370881 10.9017 0.691731 10.6949 0.880547L3.27679 7.67494C3.17962 7.76381 3.05705 7.80813 2.93425 7.80813Z" fill="#1D4ED8"/>
<path d="M2.5797 7.66363L0.481332 9.80766L0.483657 9.80993L2.5797 7.66363ZM0.15232 5.28796L-1.94787 7.4302L-1.94604 7.43199L0.15232 5.28796ZM0.144471 4.57101L-1.99654 2.46956L-2.00022 2.47332L0.144471 4.57101ZM0.86142 4.56316L2.95958 2.41893L2.95911 2.41847L0.86142 4.56316ZM2.94602 6.60298L0.847854 8.7472L2.87779 10.7335L4.97223 8.81533L2.94602 6.60298ZM10.0105 0.132899L7.98655 -2.08154L7.98427 -2.07945L10.0105 0.132899ZM10.7267 0.164291L12.9412 -1.85964L12.9364 -1.86479L10.7267 0.164291ZM10.6949 0.880547L8.67219 -1.33502L8.6686 -1.33174L10.6949 0.880547ZM3.27679 7.67494L5.30135 9.8888L5.30307 9.88722L3.27679 7.67494ZM2.93425 4.80813C3.56038 4.80813 4.19339 5.04628 4.67573 5.51732L0.483657 9.80993C1.16313 10.4735 2.05189 10.8081 2.93425 10.8081V4.80813ZM4.67806 5.5196L2.25068 3.14392L-1.94604 7.43199L0.481333 9.80766L4.67806 5.5196ZM2.25251 3.14571C3.23224 4.10621 3.25346 5.6828 2.28916 6.6687L-2.00022 2.47332C-3.356 3.85948 -3.32739 6.07776 -1.94787 7.4302L2.25251 3.14571ZM2.28548 6.67246C1.32617 7.64982 -0.249662 7.67284 -1.23627 6.70785L2.95911 2.41847C1.57225 1.062 -0.644826 1.09241 -1.99653 2.46956L2.28548 6.67246ZM-1.23674 6.70739L0.847854 8.7472L5.04418 4.45875L2.95958 2.41893L-1.23674 6.70739ZM4.97223 8.81533L12.0367 2.34525L7.98427 -2.07945L0.91981 4.39063L4.97223 8.81533ZM12.0344 2.34734C11.0197 3.27477 9.44621 3.20528 8.51702 2.19337L12.9364 -1.86479C11.6287 -3.28895 9.41447 -3.38661 7.98655 -2.08154L12.0344 2.34734ZM8.51229 2.18821C7.58731 1.17616 7.65007 -0.401877 8.67219 -1.33502L12.7176 3.09611C14.1533 1.78534 14.2438 -0.434399 12.9412 -1.85963L8.51229 2.18821ZM8.6686 -1.33174L1.25051 5.46266L5.30307 9.88722L12.7212 3.09283L8.6686 -1.33174ZM1.25224 5.46108C1.7263 5.02755 2.33281 4.80813 2.93425 4.80813V10.8081C3.78129 10.8081 4.63293 10.5001 5.30135 9.8888L1.25224 5.46108Z" fill="#2563EB" mask="url(#path-1-inside-1_2921_79264)"/>
</svg>
