<svg width="11" height="8" viewBox="0 0 11 8" fill="none" xmlns="http://www.w3.org/2000/svg">
<mask id="path-1-inside-1_9668_10795" fill="white">
<path d="M2.93425 7.97463C2.80614 7.97463 2.67826 7.92639 2.5797 7.83013L0.15232 5.45446C-0.0475764 5.25849 -0.0512698 4.93764 0.144471 4.73751C0.340674 4.53762 0.661293 4.53392 0.86142 4.72966L2.94602 6.76948L10.0105 0.299403C10.2171 0.110586 10.5375 0.124667 10.7267 0.330795C10.9156 0.537385 10.9017 0.858235 10.6949 1.04705L3.27679 7.84144C3.17962 7.93031 3.05705 7.97463 2.93425 7.97463Z"/>
</mask>
<path d="M2.93425 7.97463C2.80614 7.97463 2.67826 7.92639 2.5797 7.83013L0.15232 5.45446C-0.0475764 5.25849 -0.0512698 4.93764 0.144471 4.73751C0.340674 4.53762 0.661293 4.53392 0.86142 4.72966L2.94602 6.76948L10.0105 0.299403C10.2171 0.110586 10.5375 0.124667 10.7267 0.330795C10.9156 0.537385 10.9017 0.858235 10.6949 1.04705L3.27679 7.84144C3.17962 7.93031 3.05705 7.97463 2.93425 7.97463Z" fill="#FEFEFE"/>
<path d="M2.5797 7.83013L0.481332 9.97416L0.483657 9.97643L2.5797 7.83013ZM0.15232 5.45446L-1.94787 7.5967L-1.94604 7.59849L0.15232 5.45446ZM0.144471 4.73751L-1.99654 2.63606L-2.00022 2.63982L0.144471 4.73751ZM0.86142 4.72966L2.95958 2.58544L2.95911 2.58497L0.86142 4.72966ZM2.94602 6.76948L0.847854 8.91371L2.87779 10.9L4.97223 8.98183L2.94602 6.76948ZM10.0105 0.299403L7.98655 -1.91504L7.98427 -1.91294L10.0105 0.299403ZM10.7267 0.330795L12.9412 -1.69313L12.9364 -1.69828L10.7267 0.330795ZM10.6949 1.04705L8.67219 -1.16852L8.6686 -1.16523L10.6949 1.04705ZM3.27679 7.84144L5.30135 10.0553L5.30307 10.0537L3.27679 7.84144ZM2.93425 4.97463C3.56038 4.97463 4.19339 5.21278 4.67573 5.68383L0.483657 9.97643C1.16313 10.64 2.05189 10.9746 2.93425 10.9746V4.97463ZM4.67806 5.6861L2.25068 3.31043L-1.94604 7.59849L0.481333 9.97416L4.67806 5.6861ZM2.25251 3.31222C3.23224 4.27272 3.25346 5.8493 2.28916 6.8352L-2.00022 2.63982C-3.356 4.02598 -3.32739 6.24426 -1.94787 7.5967L2.25251 3.31222ZM2.28548 6.83896C1.32617 7.81632 -0.249662 7.83934 -1.23627 6.87435L2.95911 2.58497C1.57225 1.2285 -0.644826 1.25891 -1.99653 2.63606L2.28548 6.83896ZM-1.23674 6.87389L0.847854 8.91371L5.04418 4.62526L2.95958 2.58544L-1.23674 6.87389ZM4.97223 8.98183L12.0367 2.51175L7.98427 -1.91294L0.91981 4.55713L4.97223 8.98183ZM12.0344 2.51384C11.0197 3.44128 9.44621 3.37178 8.51702 2.35987L12.9364 -1.69828C11.6287 -3.12245 9.41447 -3.22011 7.98655 -1.91504L12.0344 2.51384ZM8.51229 2.35472C7.58731 1.34267 7.65007 -0.235373 8.67219 -1.16851L12.7176 3.26261C14.1533 1.95184 14.2438 -0.267895 12.9412 -1.69313L8.51229 2.35472ZM8.6686 -1.16523L1.25051 5.62916L5.30307 10.0537L12.7212 3.25933L8.6686 -1.16523ZM1.25224 5.62758C1.7263 5.19406 2.33281 4.97463 2.93425 4.97463V10.9746C3.78129 10.9746 4.63293 10.6666 5.30135 10.0553L1.25224 5.62758Z" fill="#FEFEFE" mask="url(#path-1-inside-1_9668_10795)"/>
</svg>
