<svg width="12" height="9" viewBox="0 0 12 9" fill="none" xmlns="http://www.w3.org/2000/svg">
<mask id="path-1-inside-1_8259_34892" fill="white">
<path d="M3.43425 8.30813C3.30614 8.30813 3.17826 8.25988 3.0797 8.16363L0.65232 5.78796C0.452424 5.59198 0.44873 5.27114 0.644471 5.07101C0.840674 4.87111 1.16129 4.86742 1.36142 5.06316L3.44602 7.10298L10.5105 0.632899C10.7171 0.444082 11.0375 0.458163 11.2267 0.664291C11.4156 0.870881 11.4017 1.19173 11.1949 1.38055L3.77679 8.17494C3.67962 8.26381 3.55705 8.30813 3.43425 8.30813Z"/>
</mask>
<path d="M3.43425 8.30813C3.30614 8.30813 3.17826 8.25988 3.0797 8.16363L0.65232 5.78796C0.452424 5.59198 0.44873 5.27114 0.644471 5.07101C0.840674 4.87111 1.16129 4.86742 1.36142 5.06316L3.44602 7.10298L10.5105 0.632899C10.7171 0.444082 11.0375 0.458163 11.2267 0.664291C11.4156 0.870881 11.4017 1.19173 11.1949 1.38055L3.77679 8.17494C3.67962 8.26381 3.55705 8.30813 3.43425 8.30813Z" fill="#FEFEFE"/>
<path d="M3.0797 8.16363L0.981332 10.3077L0.983657 10.3099L3.0797 8.16363ZM0.65232 5.78796L-1.44787 7.9302L-1.44604 7.93199L0.65232 5.78796ZM0.644471 5.07101L-1.49654 2.96956L-1.50022 2.97332L0.644471 5.07101ZM1.36142 5.06316L3.45958 2.91893L3.45911 2.91847L1.36142 5.06316ZM3.44602 7.10298L1.34785 9.2472L3.37779 11.2335L5.47223 9.31533L3.44602 7.10298ZM10.5105 0.632899L8.48655 -1.58154L8.48427 -1.57945L10.5105 0.632899ZM11.2267 0.664291L13.4412 -1.35964L13.4364 -1.36479L11.2267 0.664291ZM11.1949 1.38055L9.17219 -0.835019L9.1686 -0.831735L11.1949 1.38055ZM3.77679 8.17494L5.80135 10.3888L5.80307 10.3872L3.77679 8.17494ZM3.43425 5.30813C4.06038 5.30813 4.69339 5.54628 5.17573 6.01732L0.983657 10.3099C1.66313 10.9735 2.55189 11.3081 3.43425 11.3081V5.30813ZM5.17806 6.0196L2.75068 3.64392L-1.44604 7.93199L0.981333 10.3077L5.17806 6.0196ZM2.75251 3.64571C3.73224 4.60621 3.75346 6.1828 2.78916 7.1687L-1.50022 2.97332C-2.856 4.35948 -2.82739 6.57776 -1.44787 7.9302L2.75251 3.64571ZM2.78548 7.17246C1.82617 8.14982 0.250338 8.17284 -0.73627 7.20785L3.45911 2.91847C2.07225 1.562 -0.144826 1.59241 -1.49653 2.96956L2.78548 7.17246ZM-0.736745 7.20739L1.34785 9.2472L5.54418 4.95875L3.45958 2.91893L-0.736745 7.20739ZM5.47223 9.31533L12.5367 2.84525L8.48427 -1.57945L1.41981 4.89063L5.47223 9.31533ZM12.5344 2.84734C11.5197 3.77477 9.94621 3.70528 9.01702 2.69337L13.4364 -1.36479C12.1287 -2.78895 9.91447 -2.88661 8.48655 -1.58154L12.5344 2.84734ZM9.01229 2.68821C8.08731 1.67616 8.15007 0.0981228 9.17219 -0.835016L13.2176 3.59611C14.6533 2.28534 14.7438 0.065601 13.4412 -1.35963L9.01229 2.68821ZM9.1686 -0.831735L1.75051 5.96266L5.80307 10.3872L13.2212 3.59283L9.1686 -0.831735ZM1.75224 5.96108C2.2263 5.52755 2.83281 5.30813 3.43425 5.30813V11.3081C4.28129 11.3081 5.13293 11.0001 5.80135 10.3888L1.75224 5.96108Z" fill="#FEFEFE" mask="url(#path-1-inside-1_8259_34892)"/>
</svg>
