<svg width="60" height="54" viewBox="0 0 60 54" fill="none" xmlns="http://www.w3.org/2000/svg">
<rect width="60" height="54" rx="14" fill="#F2F6FD"/>
<g clipPath="url(#clip0_7105_130999)">
<path fill-rule="evenodd" clip-rule="evenodd" d="M26.7611 30.1918C30.9513 30.1918 36.5223 30.6887 36.5223 34.9882C36.5223 39.5173 30.0309 39.789 27.2464 39.8053L26.2354 39.8053C23.2665 39.7891 17 39.5189 17 35.0153C17 30.4812 23.4914 30.2091 26.2759 30.1928L26.6104 30.1918C26.6626 30.1918 26.7129 30.1918 26.7611 30.1918ZM26.7611 32.223C23.1881 32.223 18.9286 32.7065 18.9286 35.0153C18.9286 36.8461 21.5643 37.7751 26.7611 37.7751C31.958 37.7751 34.5937 36.8367 34.5937 34.9882C34.5937 33.1533 31.958 32.223 26.7611 32.223ZM38.48 29.5592C41.9592 30.1077 42.6882 31.8044 42.6882 33.1302C42.6882 34.1174 42.2832 35.4539 40.3508 36.2244C40.2389 36.2691 40.1232 36.2908 40.0088 36.2908C39.6192 36.2908 39.2528 36.0403 39.1075 35.6354C38.9185 35.1113 39.1692 34.5236 39.6668 34.3259C40.7596 33.8899 40.7596 33.3577 40.7596 33.1302C40.7596 32.3624 39.8969 31.8369 38.1959 31.5702C37.6688 31.4862 37.3049 30.9689 37.3833 30.4151C37.463 29.8599 37.9632 29.4875 38.48 29.5592ZM26.7611 14C30.401 14 33.3633 17.12 33.3633 20.9536C33.371 22.8007 32.6909 24.5449 31.4514 25.8584C30.2146 27.1733 28.5624 27.9005 26.8049 27.9073H26.7611C23.12 27.9073 20.1577 24.7873 20.1577 20.9536C20.1577 17.12 23.12 14 26.7611 14ZM35.8738 15.5218C38.4002 15.9579 40.2336 18.2342 40.2336 20.9331C40.2285 23.6482 38.3038 25.98 35.7555 26.3565C35.7105 26.3633 35.6655 26.366 35.6205 26.366C35.1473 26.366 34.7346 25.999 34.6665 25.4912C34.5932 24.936 34.9596 24.4214 35.4868 24.3442C37.0913 24.1072 38.3025 22.6407 38.3051 20.9317C38.3051 19.2336 37.1505 17.8009 35.5626 17.5273C35.0368 17.4352 34.6806 16.9139 34.7668 16.36C34.8529 15.8062 35.3505 15.4338 35.8738 15.5218ZM26.7611 16.0312C24.1833 16.0312 22.0863 18.2399 22.0863 20.9536C22.0863 23.6674 24.1833 25.876 26.7611 25.876H26.801C28.0404 25.8706 29.2079 25.3574 30.0834 24.4271C30.9603 23.4995 31.4399 22.2658 31.4348 20.9577C31.4348 18.2399 29.3377 16.0312 26.7611 16.0312Z" fill="#6F6AF8"/>
<path fill-rule="evenodd" clip-rule="evenodd" d="M26.7611 30.1918C30.9513 30.1918 36.5223 30.6887 36.5223 34.9882C36.5223 39.5173 30.0309 39.789 27.2464 39.8053L26.2354 39.8053C23.2665 39.7891 17 39.5189 17 35.0153C17 30.4812 23.4914 30.2091 26.2759 30.1928L26.6104 30.1918C26.6626 30.1918 26.7128 30.1918 26.7611 30.1918ZM26.7611 32.223C23.1881 32.223 18.9286 32.7065 18.9286 35.0153C18.9286 36.8461 21.5643 37.7751 26.7611 37.7751C31.958 37.7751 34.5937 36.8367 34.5937 34.9882C34.5937 33.1533 31.958 32.223 26.7611 32.223ZM26.7611 14C30.401 14 33.3633 17.12 33.3633 20.9536C33.371 22.8007 32.6909 24.5449 31.4514 25.8584C30.2146 27.1733 28.5624 27.9005 26.8049 27.9073H26.7611C23.12 27.9073 20.1577 24.7873 20.1577 20.9536C20.1577 17.12 23.12 14 26.7611 14ZM26.7611 16.0312C24.1833 16.0312 22.0863 18.2399 22.0863 20.9536C22.0863 23.6674 24.1833 25.876 26.7611 25.876H26.801C28.0404 25.8706 29.2079 25.3574 30.0834 24.4271C30.9603 23.4995 31.4399 22.2658 31.4348 20.9577C31.4348 18.2399 29.3377 16.0312 26.7611 16.0312Z" fill="#454545"/>
</g>
<defs>
<clipPath id="clip0_7105_130999">
<rect width="27" height="26" fill="white" transform="translate(17 14)"/>
</clipPath>
</defs>
</svg>
