<svg width="61" height="54" viewBox="0 0 61 54" fill="none" xmlns="http://www.w3.org/2000/svg">
<rect x="0.980469" width="59.0415" height="53.1207" rx="14" fill="#F2F6FD"/>
<path fill-rule="evenodd" clip-rule="evenodd" d="M36.1646 14C40.4975 14 44.022 17.5245 44.022 21.8587V31.2621C44.022 35.5949 40.4975 39.1207 36.1646 39.1207H24.8391C20.5063 39.1207 16.9805 35.5949 16.9805 31.2621V21.8587C16.9805 17.5245 20.5063 14 24.8391 14H36.1646ZM36.1646 15.9653H24.8391C21.5898 15.9653 18.9458 18.6093 18.9458 21.8587V31.2621C18.9458 34.5114 21.5898 37.1554 24.8391 37.1554H36.1646C39.4139 37.1554 42.0566 34.5114 42.0566 31.2621V30.8952L37.7357 30.896C35.2502 30.896 33.2272 28.8743 33.2259 26.3902C33.2259 23.9034 35.2489 21.8804 37.7357 21.8791L42.0566 21.8783V21.8587C42.0566 18.6093 39.4139 15.9653 36.1646 15.9653ZM42.0566 23.8436L37.7357 23.8444C36.3325 23.8457 35.1913 24.9869 35.1913 26.3889C35.1913 27.7895 36.3338 28.9307 37.7357 28.9307L42.0566 28.9299V23.8436ZM38.3352 25.325C38.8777 25.325 39.3179 25.7652 39.3179 26.3076C39.3179 26.8501 38.8777 27.2903 38.3352 27.2903H37.9265C37.384 27.2903 36.9438 26.8501 36.9438 26.3076C36.9438 25.7652 37.384 25.325 37.9265 25.325H38.3352ZM30.9801 19.9459C31.5225 19.9459 31.9628 20.3861 31.9628 20.9285C31.9628 21.471 31.5225 21.9112 30.9801 21.9112H23.9063C23.3638 21.9112 22.9236 21.471 22.9236 20.9285C22.9236 20.3861 23.3638 19.9459 23.9063 19.9459H30.9801Z" fill="#6F6AF8"/>
<path fill-rule="evenodd" clip-rule="evenodd" d="M36.1646 14C40.4975 14 44.022 17.5245 44.022 21.8587V31.2621C44.022 35.5949 40.4975 39.1207 36.1646 39.1207H24.8391C20.5063 39.1207 16.9805 35.5949 16.9805 31.2621V21.8587C16.9805 17.5245 20.5063 14 24.8391 14H36.1646ZM36.1646 15.9653H24.8391C21.5898 15.9653 18.9458 18.6093 18.9458 21.8587V31.2621C18.9458 34.5114 21.5898 37.1554 24.8391 37.1554H36.1646C39.4139 37.1554 42.0566 34.5114 42.0566 31.2621V30.8952L37.7357 30.896C35.2502 30.896 33.2272 28.8743 33.2259 26.3902C33.2259 23.9034 35.2489 21.8804 37.7357 21.8791L42.0566 21.8783V21.8587C42.0566 18.6093 39.4139 15.9653 36.1646 15.9653ZM42.0566 23.8436L37.7357 23.8444C36.3325 23.8457 35.1913 24.9869 35.1913 26.3889C35.1913 27.7895 36.3338 28.9307 37.7357 28.9307L42.0566 28.9299V23.8436ZM38.3352 25.325C38.8777 25.325 39.3179 25.7652 39.3179 26.3076C39.3179 26.8501 38.8777 27.2903 38.3352 27.2903H37.9265C37.384 27.2903 36.9438 26.8501 36.9438 26.3076C36.9438 25.7652 37.384 25.325 37.9265 25.325H38.3352Z" fill="#454545"/>
</svg>
