<svg width="22" height="23" viewBox="0 0 22 23" fill="none" xmlns="http://www.w3.org/2000/svg">
<path d="M20.1096 17.0762C21.1392 15.3989 21.6829 13.4688 21.6802 11.5008C21.6829 9.53265 21.1392 7.60218 20.1096 5.92484L20.1039 5.91548C19.1487 4.35866 17.8103 3.07279 16.2165 2.18075C14.6226 1.28871 12.8267 0.820312 11.0002 0.820312C9.17372 0.820313 7.37776 1.28871 5.78393 2.18075C4.1901 3.07279 2.85167 4.35866 1.89652 5.91548L1.89076 5.92484C0.863774 7.60331 0.320312 9.5328 0.320312 11.5005C0.320312 13.4682 0.863774 15.3977 1.89076 17.0762L1.89676 17.0858C2.85194 18.6426 4.19038 19.9284 5.7842 20.8203C7.37802 21.7123 9.17395 22.1807 11.0004 22.1807C12.8268 22.1806 14.6227 21.7122 16.2165 20.8202C17.8103 19.9282 19.1487 18.6424 20.1039 17.0856L20.1096 17.0762ZM12.3653 20.35C12.1618 20.5465 11.9275 20.7083 11.6717 20.8291C11.4619 20.9288 11.2324 20.9805 11.0001 20.9805C10.7677 20.9805 10.5383 20.9288 10.3284 20.8291C9.84185 20.5806 9.42532 20.214 9.11692 19.763C8.48712 18.8528 8.0204 17.8401 7.73764 16.77C8.82404 16.7031 9.91156 16.669 11.0002 16.6677C12.0884 16.6677 13.176 16.7018 14.263 16.77C14.1064 17.3201 13.9109 17.8585 13.6779 18.3808C13.371 19.1155 12.9254 19.7841 12.3653 20.35ZM1.54108 12.1005H5.84884C5.87691 13.3025 6.00722 14.5 6.23836 15.6799C5.06076 15.7836 3.8862 15.926 2.71468 16.1071C2.02858 14.8762 1.62752 13.507 1.54108 12.1005ZM2.71468 6.8942C3.88572 7.07564 5.06068 7.21804 6.23956 7.3214C6.00801 8.50119 5.87746 9.69856 5.84932 10.9005H1.54108C1.62755 9.49409 2.02861 8.125 2.71468 6.8942ZM9.63508 2.651C9.83862 2.45458 10.0729 2.29277 10.3287 2.17196C10.5385 2.07225 10.768 2.02052 11.0003 2.02052C11.2327 2.02052 11.4621 2.07225 11.672 2.17196C12.1585 2.42049 12.5751 2.78702 12.8835 3.23804C13.5133 4.14822 13.98 5.16099 14.2628 6.23108C13.1764 6.29796 12.0888 6.33204 11.0002 6.33332C9.91204 6.33332 8.82444 6.29924 7.7374 6.23108C7.89394 5.68091 8.08948 5.14259 8.32252 4.6202C8.62938 3.88553 9.07504 3.21692 9.63508 2.651ZM20.4593 10.9005H16.1516C16.1235 9.69852 15.9932 8.50108 15.762 7.32116C16.9396 7.21748 18.1142 7.07508 19.2857 6.89396C19.9718 8.12483 20.3729 9.49401 20.4593 10.9005ZM7.44532 15.5865C7.21067 14.4385 7.07815 13.2719 7.04932 12.1005H14.9513C14.9228 13.272 14.7905 14.4386 14.556 15.5868C13.372 15.509 12.1868 15.4693 11.0002 15.4677C9.8146 15.4677 8.62964 15.5073 7.44532 15.5865ZM14.5551 7.41452C14.7897 8.56256 14.9222 9.72911 14.9511 10.9005H7.04932C7.07788 9.72905 7.21016 8.56241 7.4446 7.41428C8.6286 7.49204 9.81388 7.53172 11.0004 7.53332C12.186 7.53332 13.371 7.49364 14.5553 7.41428L14.5551 7.41452ZM16.1511 12.1005H20.4593C20.3728 13.507 19.9718 14.8761 19.2857 16.1068C18.1145 15.9254 16.9396 15.783 15.7608 15.6796C15.9924 14.4999 16.1229 13.3025 16.1511 12.1005ZM18.5662 5.78972C17.5422 5.9374 16.5152 6.05436 15.4853 6.1406C15.3002 5.45133 15.0615 4.7776 14.7713 4.12556C14.5063 3.52558 14.1729 2.95822 13.7777 2.43476C15.6875 3.02052 17.3635 4.19473 18.5662 5.78972ZM4.297 4.79708C5.39258 3.70045 6.74045 2.88931 8.22244 2.43476C8.19988 2.46404 8.17684 2.49188 8.15476 2.5214C7.39299 3.61794 6.83811 4.84451 6.51748 6.1406C5.4874 6.0534 4.45972 5.93644 3.43444 5.78972C3.69883 5.43943 3.98703 5.10777 4.297 4.79708ZM3.43444 17.2113C4.45828 17.0636 5.48524 16.9467 6.51532 16.8604C6.70041 17.5497 6.93914 18.2234 7.22932 18.8755C7.4943 19.4755 7.82771 20.0428 8.22292 20.5663C6.31309 19.9805 4.63716 18.8063 3.43444 17.2113ZM17.7039 18.204C16.6083 19.3006 15.2604 20.1117 13.7784 20.5663C13.801 20.537 13.824 20.5092 13.8461 20.4796C14.6079 19.3831 15.1628 18.1565 15.4834 16.8604C16.5135 16.9476 17.5412 17.0646 18.5664 17.2113C18.302 17.5616 18.0138 17.8933 17.7039 18.204Z" fill="#46474F"/>
</svg>
