<svg width="20" height="15" viewBox="0 0 20 15" fill="none" xmlns="http://www.w3.org/2000/svg">
<path d="M18.125 2.5H1.875C1.54348 2.5 1.22554 2.3683 0.991117 2.13388C0.756696 1.89946 0.625 1.58152 0.625 1.25C0.625 0.918479 0.756696 0.600537 0.991117 0.366116C1.22554 0.131696 1.54348 0 1.875 0H18.125C18.4565 0 18.7745 0.131696 19.0089 0.366116C19.2433 0.600537 19.375 0.918479 19.375 1.25C19.375 1.58152 19.2433 1.89946 19.0089 2.13388C18.7745 2.3683 18.4565 2.5 18.125 2.5ZM18.125 15H1.875C1.54348 15 1.22554 14.8683 0.991117 14.6339C0.756696 14.3995 0.625 14.0815 0.625 13.75C0.625 13.4185 0.756696 13.1005 0.991117 12.8661C1.22554 12.6317 1.54348 12.5 1.875 12.5H18.125C18.4565 12.5 18.7745 12.6317 19.0089 12.8661C19.2433 13.1005 19.375 13.4185 19.375 13.75C19.375 14.0815 19.2433 14.3995 19.0089 14.6339C18.7745 14.8683 18.4565 15 18.125 15ZM18.125 8.75H1.875C1.54348 8.75 1.22554 8.6183 0.991117 8.38388C0.756696 8.14946 0.625 7.83152 0.625 7.5C0.625 7.16848 0.756696 6.85054 0.991117 6.61612C1.22554 6.3817 1.54348 6.25 1.875 6.25H18.125C18.4565 6.25 18.7745 6.3817 19.0089 6.61612C19.2433 6.85054 19.375 7.16848 19.375 7.5C19.375 7.83152 19.2433 8.14946 19.0089 8.38388C18.7745 8.6183 18.4565 8.75 18.125 8.75Z" fill="#2C2E3E"/>
</svg>
